<?xml version="1.0" encoding="UTF-8"?>
<svg id="Layer_1" data-name="Layer 1" xmlns="http://www.w3.org/2000/svg" viewBox="0 0 1143.62 1031.16">
  <defs>
    <style>
      .cls-1 {
        fill: #fff;
      }
    </style>
  </defs>
  <path class="cls-1" d="m987.04,784.37c-2.25,7.21-7.52,11.01-14.32,13.72-51.59,20.51-103.13,41.15-154.63,61.89-6.18,2.49-11.85,2.5-18.03,0-49.15-19.82-98.38-39.43-147.54-59.24-3.7-1.49-6.8-1.52-10.52-.02-49,19.73-98.2,38.99-147.02,59.15-14.43,5.96-26.01-2.83-25.94-17.63.43-94.55.22-189.1.22-283.65,0-11.54,2.98-15.91,13.77-20.24,51.7-20.71,103.41-41.38,155.08-62.14,5.73-2.3,11.14-2.85,17.08-.44,31.18,12.63,62.47,25.02,93.69,37.58,9.25,3.72,13.48,11.63,11,19.95-2.97,9.94-12.6,14.21-23.16,10.02-22.05-8.75-44.05-17.63-66.07-26.45-2.16-.86-4.34-1.66-6.98-2.66-.1,2.02-.25,3.62-.25,5.21-.01,81.91.02,163.82-.11,245.73,0,4.06,1.23,5.77,4.97,7.24,39.9,15.77,79.71,31.75,119.55,47.67,1.52.61,3.07,1.14,5.03,1.86v-6.56c0-53.26,0-106.52.01-159.77,0-2.19-.1-4.42.28-6.55,1.39-7.8,8.32-13.43,16.15-13.3,8.03.13,14.77,6.2,15.76,14.32.24,2,.16,4.04.16,6.06,0,53.09,0,106.18,0,159.27v6.57c1.98-.73,3.53-1.26,5.04-1.87,39.84-15.92,79.65-31.9,119.55-47.67,3.75-1.48,4.97-3.2,4.96-7.25-.15-58.15-.12-116.29-.07-174.44,0-2.83.11-5.79.92-8.46,1.99-6.63,6.82-10.39,13.6-11.11,6.83-.73,12.08,2.25,15.65,8.11.77,1.25,1.44,2.57,2.15,3.85v201.25Zm-355.98-270.23c-2.07.75-3.62,1.27-5.13,1.88-39.83,15.93-79.63,31.92-119.52,47.69-3.8,1.5-4.9,3.31-4.89,7.29.13,81.73.1,163.46.1,245.19,0,1.76,0,3.51,0,5.81,2.26-.87,3.81-1.45,5.35-2.07,39.67-15.86,79.32-31.8,119.06-47.48,3.97-1.57,5.14-3.48,5.13-7.63-.13-81.56-.09-163.12-.09-244.69v-6Z"/>
  <path class="cls-1" d="m987.04,462.77c-3.31,22.68-12.66,43.07-23.93,62.71-18.59,32.41-41.09,62.01-65.12,90.52-3.91,4.64-7.73,9.36-11.84,13.82-7.25,7.88-17.75,8.04-24.78-.05-32.21-37.06-62.67-75.41-85.04-119.46-7.18-14.13-13.37-28.72-15.02-44.72-2.75-26.64,4.48-50.83,19.67-72.46,19.29-27.48,45.92-43.38,79.31-47.77,1.14-.15,2.24-.6,3.36-.91,6.74,0,13.48,0,20.23,0,1.45.34,2.89.78,4.36,1.02,44.43,7.14,75.23,31.51,91.57,73.43,3.56,9.12,4.88,19.12,7.23,28.71v15.17Zm-113.94,132.38c23.97-27.51,58.25-73.93,73.72-108.7,4.39-9.87,8.4-20,7.74-31.06-1.99-33.18-17.78-57.78-48.1-71.36-29.58-13.25-58.07-9.03-83.52,10.99-23.6,18.56-41.67,56.32-20.81,94.22,9.48,17.22,19.07,34.48,30.06,50.75,12.69,18.78,26.96,36.49,40.92,55.16Z"/>
  <path class="cls-1" d="m922.28,457.67c.05,26.41-22.21,48.65-48.6,48.54-26.32-.11-48.11-21.81-48.41-48.22-.3-26.32,21.78-48.61,48.34-48.79,26.37-.18,48.62,21.98,48.67,48.46Zm-32.36-.13c-.1-8.79-7.4-16-16.19-15.97-9,.03-16.32,7.56-16.1,16.55.22,8.77,7.66,15.9,16.42,15.74,8.77-.16,15.96-7.56,15.86-16.31Z"/>
</svg>