<?xml version="1.0" encoding="UTF-8"?>
<svg id="Layer_1" data-name="Layer 1" xmlns="http://www.w3.org/2000/svg" viewBox="0 0 635.28 880.1">
  <defs>
    <style>
      .cls-1 {
        fill: #c09052;
      }
    </style>
  </defs>
  <path class="cls-1" d="m95.03,510.86c4.36-1.34,7.88-2.61,11.5-3.48,3.9-.94,7.87-1.69,11.85-2.21,9.9-1.3,19.01,1.27,27.57,6.11,7.83,4.42,14.45,10.32,20.56,16.84,9.45,10.09,17.21,21.44,24.35,33.22,9.73,16.06,18.22,32.77,25.9,49.9,5.45,12.16,10.71,24.42,16.11,36.6,4.74,10.69,10.48,20.84,17.04,30.52,6.48,9.57,13.74,18.52,21.8,26.8,7.87,8.08,16.42,15.39,25.62,21.92,13.22,9.39,27.44,16.81,42.86,21.91,14.35,4.75,29.09,7.31,44.2,7.09,23.59-.35,45.41-6.94,65.49-19.31,15.54-9.58,28.74-21.78,40.39-35.75,1.49-1.79,2.77-3.8,4.78-5.32,1.02.86,1.96,1.64,3.08,2.59-.96,1.38-1.77,2.64-2.68,3.83-7.2,9.38-14.69,18.5-23.22,26.72-11.18,10.77-23.48,19.97-37.56,26.66-11.11,5.28-22.79,8.72-34.9,10.77-8.1,1.37-16.28,1.82-24.46,2.1-5.96.2-11.91-.45-17.85-1.1-11.11-1.21-21.83-3.95-32.32-7.68-12.62-4.49-24.45-10.59-35.65-17.9-11.57-7.54-22.19-16.28-31.8-26.18-16.39-16.9-29.65-35.98-39.2-57.57-3.31-7.49-6.85-14.89-10.11-22.4-4.48-10.32-8.8-20.7-13.18-31.06-6.27-14.84-12.38-29.75-19.62-44.15-4.81-9.57-9.96-18.94-16.46-27.49-4.73-6.22-10.05-11.88-16.58-16.29-11.67-7.87-24.29-9.66-37.79-5.98-5.27,1.44-10.14,3.78-14.83,6.51-1.06.62-2.05,1.44-2.9,2.34-5.61,5.97-11.13,12.04-16.79,17.96-1.84,1.92-2.68,3.91-2.62,6.64.18,7.5.06,15.01.06,22.52,0,25.58.01,51.15-.02,76.73,0,4.06.56,8.03,1.63,11.92,2.19,7.98,7.55,12.38,15.64,13.56,1.64.24,3.33.15,4.96.43,1,.17,1.28.97.57,2.11-3.32.13-6.77.38-10.23.38-16.95.02-33.91-.03-50.86-.07-.94,0-1.89-.23-2.82-.42-.18-.04-.44-.44-.41-.64.06-.36.22-.8.49-1.02.3-.23.76-.29,1.17-.35.82-.12,1.65-.23,2.48-.27,10-.59,16.28-6.28,18.14-16.34.74-3.98.9-8,.9-12.03,0-37.25,0-74.5,0-111.75,0-50.73.02-101.47-.03-152.2,0-3.74-.32-7.5-.81-11.2-.3-2.31-.99-4.63-1.9-6.78-2.25-5.33-6.33-8.7-11.94-10.11-1.88-.47-3.83-.63-5.75-.91-.68-.1-1.44.02-2.05-.24-.37-.16-.65-.82-.73-1.29-.04-.25.41-.73.73-.83.51-.16,1.09-.13,1.64-.13,19.73,0,39.47.02,59.2.04.68,0,1.36.06,2.01.08.29,1.76.16,2.08-.86,2.18-.83.08-1.66.1-2.5.1-13.48-.03-26.96-.07-40.44-.09-.39,0-.78.14-1.17.21-.01.88.7.77,1.15.97,6.97,3.17,12.85,7.68,17.14,14.11,3.09,4.62,4.68,9.62,4.67,15.27-.07,50.04-.04,100.08-.04,150.12v4.37c1.17.56,1.55-.19,1.98-.64,2.57-2.73,5.11-5.49,7.66-8.24,13.6-14.67,27.2-29.34,40.79-44.02,13.12-14.17,26.23-28.35,39.35-42.52,16.43-17.73,32.88-35.45,49.3-53.18,4.25-4.59,8.45-9.21,12.61-13.88,1.2-1.34,2.27-2.82,3.21-4.35.87-1.41,1.73-2.91,2.16-4.49,1.39-5.05.35-8.08-4.18-10.49-2.04-1.08-4.39-1.72-6.68-2.15-2.85-.54-5.78-.65-8.68-.97-.54-.06-1.12-.11-1.58-.35-.29-.15-.58-.66-.55-.97.03-.34.39-.83.7-.91.65-.17,1.37-.15,2.05-.15,19.73,0,39.47,0,59.2,0,2.2,0,3.23.42,2.99,1.23-.44,1.46-1.73,1.12-2.78,1.16-4.87.19-9.67.73-14.36,2.19-5.01,1.57-9.43,4.15-13.22,7.68-4.26,3.98-8.41,8.1-12.38,12.37-14.56,15.68-29,31.46-43.52,47.17-16.03,17.34-32.11,34.63-48.15,51.96-12.26,13.26-24.49,26.55-36.73,39.83-.47.51-.9,1.04-1.88,2.18Z"/>
  <path class="cls-1" d="m221.27,604.74c-.71-.88-1.01-1.15-1.17-1.48-2.73-5.62-5.42-11.26-8.19-16.86-.91-1.83-1.06-3.67-.77-5.65,2.97-20.13,9.37-39.07,19.25-56.87,9.96-17.95,23-33.38,38.58-46.62,13.54-11.51,28.73-20.39,45.24-26.99,12.05-4.81,24.52-8.1,37.36-9.83,9.77-1.32,19.62-1.79,29.51-1.29,12.68.64,25.1,2.57,37.3,6.1,17.88,5.17,33.97,13.67,48.02,25.87,11.34,9.85,20.31,21.63,27.5,34.8.33.6.59,1.23.95,1.99-.61.64-1.1,1.31-1.73,1.79-8.88,6.91-17.78,13.79-26.67,20.67-.21.16-.5.23-.89.4-.34-.31-.72-.66-1.28-1.18.76-.79,1.37-1.49,2.06-2.12,7.05-6.37,8.46-14.87,4.89-23.56-1.81-4.4-4.38-8.37-7.07-12.25-15.89-22.87-37.34-37.62-64.47-44.1-12.82-3.06-25.81-3.96-38.89-2.99-13.89,1.03-27.43,3.97-40.56,8.76-16.05,5.85-30.88,13.91-44.26,24.51-23.94,18.98-41.03,42.77-49.8,72.22-2.7,9.07-4.41,18.36-5.06,27.82-.22,3.18-.49,6.37-.6,9.56-.19,5.15.22,10.27.97,15.36.06.38-.08.79-.21,1.93Z"/>
</svg>