<?xml version="1.0" encoding="UTF-8"?>
<svg id="Layer_1" data-name="Layer 1" xmlns="http://www.w3.org/2000/svg" viewBox="0 0 1143.62 1031.16">
  <defs>
    <style>
      .cls-1 {
        fill: #f6f1cc;
      }

      .cls-2 {
        fill: #a68d69;
      }

      .cls-3 {
        fill: #c1b292;
      }

      .cls-4 {
        fill: #d7b67b;
      }

      .cls-5 {
        fill: #bd8132;
      }

      .cls-6 {
        fill: #d6b787;
      }

      .cls-7 {
        fill: #d2b77d;
      }

      .cls-8 {
        fill: #cab782;
      }

      .cls-9 {
        fill: #e7d8b6;
      }

      .cls-10 {
        fill: #917b3e;
      }

      .cls-11 {
        fill: #e5dcbe;
      }

      .cls-12 {
        fill: #d7ad7a;
      }

      .cls-13 {
        fill: #eed793;
      }

      .cls-14 {
        fill: #a69168;
      }

      .cls-15 {
        fill: #f4e6c9;
      }

      .cls-16 {
        fill: #e7d4aa;
      }

      .cls-17 {
        fill: #f4efd6;
      }

      .cls-18 {
        fill: #d9ceb0;
      }

      .cls-19 {
        fill: #dfc19b;
      }

      .cls-20 {
        fill: #a0865f;
      }

      .cls-21 {
        fill: #f3f2bc;
      }

      .cls-22 {
        fill: #d4b166;
      }

      .cls-23 {
        fill: #f9d38f;
      }

      .cls-24 {
        fill: #b6957b;
      }

      .cls-25 {
        fill: #f5f8dd;
      }

      .cls-26 {
        fill: #d4b165;
      }

      .cls-27 {
        fill: #755220;
      }

      .cls-28 {
        fill: #d9bd7d;
      }

      .cls-29 {
        fill: #dfcda2;
      }

      .cls-30 {
        fill: #bba376;
      }

      .cls-31 {
        fill: #8d7143;
      }

      .cls-32 {
        fill: #a2946b;
      }

      .cls-33 {
        fill: #f0edcf;
      }

      .cls-34 {
        fill: #eee2bc;
      }

      .cls-35 {
        fill: #a69568;
      }

      .cls-36 {
        fill: #eed8c2;
      }

      .cls-37 {
        fill: #dccdab;
      }

      .cls-38 {
        fill: #a57a3e;
      }

      .cls-39 {
        fill: #b89c71;
      }

      .cls-40 {
        fill: #ede8af;
      }

      .cls-41 {
        fill: #b9a276;
      }

      .cls-42 {
        fill: #d2a85f;
      }

      .cls-43 {
        fill: #e3d5b4;
      }

      .cls-44 {
        fill: #d4b695;
      }

      .cls-45 {
        fill: #c1aa83;
      }

      .cls-46 {
        fill: #c1b083;
      }

      .cls-47 {
        fill: #af7733;
      }

      .cls-48 {
        fill: #dabe80;
      }

      .cls-49 {
        fill: #ab7129;
      }

      .cls-50 {
        fill: #e8dfb3;
      }

      .cls-51 {
        fill: #e3cca6;
      }

      .cls-52 {
        fill: #e5e2a2;
      }

      .cls-53 {
        fill: #bca37c;
      }

      .cls-54 {
        fill: #af9b81;
      }

      .cls-55 {
        fill: #eee9b5;
      }

      .cls-56 {
        fill: #efe4c0;
      }

      .cls-57 {
        fill: #d7c186;
      }

      .cls-58 {
        fill: #ddc07d;
      }

      .cls-59 {
        fill: #f3e2d2;
      }

      .cls-60 {
        fill: #9d825d;
      }

      .cls-61 {
        fill: #8f7148;
      }

      .cls-62 {
        fill: #9e875f;
      }

      .cls-63 {
        fill: #debe85;
      }

      .cls-64 {
        fill: #d4c39f;
      }

      .cls-65 {
        fill: #968247;
      }

      .cls-66 {
        fill: #d3b564;
      }

      .cls-67 {
        fill: #d3ab61;
      }

      .cls-68 {
        fill: #e3d1a8;
      }

      .cls-69 {
        fill: #dbbe8d;
      }

      .cls-70 {
        fill: #ac9342;
      }

      .cls-71 {
        fill: #d8c7b1;
      }

      .cls-72 {
        fill: #e4cca0;
      }

      .cls-73 {
        fill: #bb9346;
      }

      .cls-74 {
        fill: #9b845b;
      }

      .cls-75 {
        fill: #ac9859;
      }

      .cls-76 {
        fill: #9d9871;
      }

      .cls-77 {
        fill: #dbc697;
      }

      .cls-78 {
        fill: #8a7d68;
      }

      .cls-79 {
        fill: #e7dbb4;
      }

      .cls-80 {
        fill: #bb9d62;
      }

      .cls-81 {
        fill: #e1bd57;
      }

      .cls-82 {
        fill: #d2b591;
      }

      .cls-83 {
        fill: #9c815a;
      }

      .cls-84 {
        fill: #c6932c;
      }

      .cls-85 {
        fill: #cba980;
      }

      .cls-86 {
        fill: #987e2e;
      }

      .cls-87 {
        fill: #c8a447;
      }

      .cls-88 {
        fill: #dfd8b9;
      }

      .cls-89 {
        fill: #9f9448;
      }

      .cls-90 {
        fill: #998054;
      }

      .cls-91 {
        fill: #d7b875;
      }

      .cls-92 {
        fill: #c5a260;
      }

      .cls-93 {
        fill: #9f9362;
      }

      .cls-94 {
        fill: #fff6da;
      }

      .cls-95 {
        fill: #e5e2b1;
      }

      .cls-96 {
        fill: #d7bd9f;
      }

      .cls-97 {
        fill: #ceab54;
      }

      .cls-98 {
        fill: #f1e2b7;
      }

      .cls-99 {
        fill: #f6e9d8;
      }

      .cls-100 {
        fill: #ae8f41;
      }

      .cls-101 {
        fill: #d7b374;
      }

      .cls-102 {
        fill: #ede19f;
      }

      .cls-103 {
        fill: #efe7b0;
      }

      .cls-104 {
        fill: #b59f86;
      }

      .cls-105 {
        fill: #9e8651;
      }

      .cls-106 {
        fill: #f3e6d0;
      }

      .cls-107 {
        fill: #e6dab0;
      }

      .cls-108 {
        fill: #c2968b;
      }

      .cls-109 {
        fill: #d8b47a;
      }

      .cls-110 {
        fill: #bc974b;
      }

      .cls-111 {
        fill: #ae9454;
      }

      .cls-112 {
        fill: #bcc9b4;
      }

      .cls-113 {
        fill: #8c8577;
      }

      .cls-114 {
        fill: #e4d4a7;
      }

      .cls-115 {
        fill: #d0c6a8;
      }

      .cls-116 {
        fill: #a18a58;
      }

      .cls-117 {
        fill: #f4eed5;
      }

      .cls-118 {
        fill: #866628;
      }

      .cls-119 {
        fill: #d3b47c;
      }

      .cls-120 {
        fill: #dec491;
      }

      .cls-121 {
        fill: #e8dfb8;
      }

      .cls-122 {
        fill: #93762c;
      }

      .cls-123 {
        fill: #d6c089;
      }

      .cls-124 {
        fill: #947f3f;
      }

      .cls-125 {
        fill: #eae2c8;
      }

      .cls-126 {
        fill: #d1b373;
      }

      .cls-127 {
        fill: #d7ca9a;
      }

      .cls-128 {
        fill: #b37351;
      }

      .cls-129 {
        fill: #ac8a41;
      }

      .cls-130 {
        fill: #f6f9e6;
      }

      .cls-131 {
        fill: #c1aa86;
      }

      .cls-132 {
        fill: #937d4f;
      }

      .cls-133 {
        fill: #85764a;
      }

      .cls-134 {
        fill: #cbbb9c;
      }

      .cls-135 {
        fill: #a38243;
      }

      .cls-136 {
        fill: #ddc38a;
      }

      .cls-137 {
        fill: #d7b453;
      }

      .cls-138 {
        fill: #b77133;
      }

      .cls-139 {
        fill: #ceb230;
      }

      .cls-140 {
        fill: #d19d43;
      }

      .cls-141 {
        fill: #d6b29c;
      }

      .cls-142 {
        fill: #e8e1c0;
      }

      .cls-143 {
        fill: #957e49;
      }

      .cls-144 {
        fill: #a5965b;
      }

      .cls-145 {
        fill: #ece6c0;
      }

      .cls-146 {
        fill: #906e3d;
      }

      .cls-147 {
        fill: #eadcbf;
      }

      .cls-148 {
        fill: #c3bb92;
      }

      .cls-149 {
        fill: #ece3b5;
      }

      .cls-150 {
        fill: #b19967;
      }

      .cls-151 {
        fill: #d7c078;
      }

      .cls-152 {
        fill: #cea155;
      }

      .cls-153 {
        fill: #b0955b;
      }

      .cls-154 {
        fill: #e5c162;
      }

      .cls-155 {
        fill: #d8bf8c;
      }

      .cls-156 {
        fill: #fff3d6;
      }

      .cls-157 {
        fill: #dcbc83;
      }

      .cls-158 {
        fill: #d6c3a7;
      }

      .cls-159 {
        fill: #e8d5a8;
      }

      .cls-160 {
        fill: #dab475;
      }

      .cls-161 {
        fill: #e4e1bd;
      }

      .cls-162 {
        fill: #a98339;
      }

      .cls-163 {
        fill: #ecdcb9;
      }

      .cls-164 {
        fill: #c6992c;
      }

      .cls-165 {
        fill: #f9f5e8;
      }

      .cls-166 {
        fill: #c4a261;
      }

      .cls-167 {
        fill: #a38634;
      }

      .cls-168 {
        fill: #ad8954;
      }

      .cls-169 {
        fill: #ccad5b;
      }

      .cls-170 {
        fill: #c5b688;
      }

      .cls-171 {
        fill: #e1ca9f;
      }

      .cls-172 {
        fill: #aba091;
      }

      .cls-173 {
        fill: #b19561;
      }

      .cls-174 {
        fill: #c1aa7e;
      }

      .cls-175 {
        fill: #b09a65;
      }

      .cls-176 {
        fill: #e5e29d;
      }

      .cls-177 {
        fill: #f2e8ce;
      }

      .cls-178 {
        fill: #d2aa66;
      }

      .cls-179 {
        fill: #8f753a;
      }

      .cls-180 {
        fill: #b0915e;
      }

      .cls-181 {
        fill: #b68840;
      }

      .cls-182 {
        fill: #d6b16c;
      }

      .cls-183 {
        fill: #d4a854;
      }

      .cls-184 {
        fill: #f9f2dc;
      }

      .cls-185 {
        fill: #c7a36c;
      }

      .cls-186 {
        fill: #a1884d;
      }

      .cls-187 {
        fill: #ebdcc0;
      }

      .cls-188 {
        fill: #d3b992;
      }

      .cls-189 {
        fill: #daba84;
      }

      .cls-190 {
        fill: #d2b16e;
      }

      .cls-191 {
        fill: #896b2a;
      }

      .cls-192 {
        fill: #e0c694;
      }

      .cls-193 {
        fill: #e5dbab;
      }

      .cls-194 {
        fill: #d3ba73;
      }

      .cls-195 {
        fill: #93732b;
      }

      .cls-196 {
        fill: #9b9b9b;
      }

      .cls-197 {
        fill: #d5b371;
      }

      .cls-198 {
        fill: #c2af86;
      }

      .cls-199 {
        fill: #bca275;
      }

      .cls-200 {
        fill: #dfc28c;
      }

      .cls-201 {
        fill: #6d5220;
      }

      .cls-202 {
        fill: #dbc995;
      }

      .cls-203 {
        fill: #e9c984;
      }

      .cls-204 {
        fill: #a98f53;
      }

      .cls-205 {
        fill: #a48a30;
      }

      .cls-206 {
        fill: #b39e75;
      }

      .cls-207 {
        fill: #dacd68;
      }

      .cls-208 {
        fill: #c7a454;
      }

      .cls-209 {
        fill: #e8d6b2;
      }

      .cls-210 {
        fill: #d6cda1;
      }

      .cls-211 {
        fill: #d6afa1;
      }

      .cls-212 {
        fill: #8f6f3e;
      }

      .cls-213 {
        fill: #f0f5d9;
      }

      .cls-214 {
        fill: #c8b58e;
      }

      .cls-215 {
        fill: #bf8e63;
      }

      .cls-216 {
        fill: #b49865;
      }

      .cls-217 {
        fill: #907334;
      }

      .cls-218 {
        fill: #e6c569;
      }

      .cls-219 {
        fill: #e3d5a1;
      }

      .cls-220 {
        fill: #f9f6de;
      }

      .cls-221 {
        fill: #cea863;
      }

      .cls-222 {
        fill: #e8dbb6;
      }

      .cls-223 {
        fill: #d6cea2;
      }

      .cls-224 {
        fill: #ac8c57;
      }

      .cls-225 {
        fill: #e4cea7;
      }

      .cls-226 {
        fill: #c69a2c;
      }

      .cls-227 {
        fill: #e2d5b7;
      }

      .cls-228 {
        fill: #a98a54;
      }

      .cls-229 {
        fill: #cca42c;
      }

      .cls-230 {
        fill: #f5e7ca;
      }

      .cls-231 {
        fill: #dbd5b4;
      }

      .cls-232 {
        fill: #d1af80;
      }

      .cls-233 {
        fill: #a4853c;
      }

      .cls-234 {
        fill: #9c834c;
      }

      .cls-235 {
        fill: #d1ba88;
      }

      .cls-236 {
        fill: #fff5d6;
      }

      .cls-237 {
        fill: #e4a07c;
      }

      .cls-238 {
        fill: #a39359;
      }

      .cls-239 {
        fill: #c8b18c;
      }

      .cls-240 {
        fill: #967838;
      }

      .cls-241 {
        fill: #d7cea9;
      }

      .cls-242 {
        fill: #e8d7b1;
      }

      .cls-243 {
        fill: #d2ac61;
      }

      .cls-244 {
        fill: #e8d5ab;
      }

      .cls-245 {
        fill: #bc812b;
      }

      .cls-246 {
        fill: #c2af77;
      }

      .cls-247 {
        fill: #b59c70;
      }

      .cls-248 {
        fill: #ab8d6a;
      }

      .cls-249 {
        fill: #e6eedf;
      }

      .cls-250 {
        fill: #d3bd72;
      }

      .cls-251 {
        fill: #e3ce9e;
      }

      .cls-252 {
        fill: #e3caa3;
      }

      .cls-253 {
        fill: #edd9bd;
      }

      .cls-254 {
        fill: #cfa950;
      }

      .cls-255 {
        fill: #a86642;
      }

      .cls-256 {
        fill: #d8cd99;
      }

      .cls-257 {
        fill: #9b795b;
      }

      .cls-258 {
        fill: #a96728;
      }

      .cls-259 {
        fill: #fbeebd;
      }

      .cls-260 {
        fill: #af9546;
      }

      .cls-261 {
        fill: #e5e3b2;
      }

      .cls-262 {
        fill: #bc9d7e;
      }

      .cls-263 {
        fill: #ad873f;
      }

      .cls-264 {
        fill: #e4dca4;
      }

      .cls-265 {
        fill: #cca55d;
      }

      .cls-266 {
        fill: #dcbc8a;
      }

      .cls-267 {
        fill: #b16e4a;
      }

      .cls-268 {
        fill: #dbcfad;
      }

      .cls-269 {
        fill: #deca9f;
      }
    </style>
  </defs>
  <path class="cls-198" d="m677.71,421.49c.09-.24.04-.45-.16-.61-.09-.36.03-.61.39-.73.28.02.46.2.63.4-.06-.27-.25-.41-.57-.41-.35-.13-.48-.38-.44-.74v-.02c.37-.95,1.34-1.48,1.66-2.41.3-.16.76-.33.12-.72-.2-.4-.28-.8-.06-1.22l-.03.08c.91-1.9,2.8-1.33,4.31-1.73h-.08c.46-.02.9.1,1.34.22h-.03c1.17.62,2.63.58,3.64,1.57.14.36.12.72-.05,1.07-.2.3-.44.56-.73.78-.3.2-.63.34-.96.45.02,0-.41.17-.41.17,0,0-.25.38-.22.38.12.5.44.88.75,1.27,3.1,4.43,2.89,4.99-2.46,6.85-.41.08-.82.09-1.23.04-.68-.18-1.23-.88-2.05-.54-.61.31-1.24.53-1.93.52-.31-.02-.62-.09-.91-.21-.29-.15-.46-.39-.5-.71-.28.27-.54.25-.78-.05l.06.03c-3.07-1.83.76-2.43.67-3.73Z"/>
  <path class="cls-48" d="m554.51,410.21c.21-.17.31-.39.3-.66.15-.08.3-.16.45-.25.48-.19.97-.32,1.49-.37.34,0,.68.06,1,.17h-.02c.64.1,1.01.5,1.2,1.09,0,.88-.75,1.22-1.25,1.74-.24.25-.5.48-.78.68-.27.18-.56.33-.85.46-.39.18-.78.39-1.14.61.01,0-.34.1-.34.1,0,0-.1.35-.08.35.26-.08.51-.15.77-.21.29-.1.56-.19.85-.27.32-.11.63-.16.96-.18.36.04.64.21.84.52.09.38.07.75-.06,1.12-.36.73-.86,1.33-1.46,1.84-.07.3-.61-.1-.57.37.26.18.47.41.64.69.14.28.25.58.34.88.15.44.33.87.61,1.26.33.37.69.71.98,1.11.15.32.18.66.1,1-.25.48-.65.8-1.12,1.03-.63.26-1.24.53-1.78.96-.27.22-.58.38-.9.52-.87.25-1.73.37-2.56-.15-.32-.31-.37-1.01-1.1-.74-.38-.01-.69-.15-.94-.44-.06-.18-.11-.36-.17-.53.08-.37.25-.7.49-.99.95-.81,1.92-.97,2.9-.11.42.43-.17.71.24.26.12-.14-.23-.5-.53-.63-.51-.44-1.04-.87-1.13-1.6-.14-.29.14-.67.05-.81-.33-.51.24-.13-.29.19.04.62-.23,1-.84,1.14-.86-.09-1.31-.66-1.65-1.38-.29-.73-.52-1.48-.64-2.26-.05-.58-.21-1.18.24-1.7.24,0,.38-.13.43-.36-.05-.37.09-.63.43-.77.5-.04.91.26,1.35.4.28.08.54.21.77.38,0,0,.31.26.31.26,0,0-.24-.33-.25-.33-.44-.17-.88-.31-1.29-.56-.38-.4-.6-.85-.43-1.42.26-.32.56-.39.91-.16l-.04-.03c1.56-.13,2.57-1.14,3.53-2.22Z"/>
  <path class="cls-157" d="m536.47,514.25c-.05.21.04.34.25.38-.02,1.44,1.55,2.26,1.47,3.73l-.02.06c-.13.43-.14.89-.45,1.25v-.08c.12.5-.01.96-.28,1.38l-.02-.12c-.1.41-.35.63-.78.61-.95-.23-1.7-.88-2.59-1.26-.72-.34-1.39-.72-1.8-1.44-.22-.8-.17-1.5.69-1.91.52-.08,1.05,0,1.56-.06.24,0,.47.03.7.1.25.08.19.02-.17-.19-.56.07-1.1.12-1.64.06-1.11,0-1.6.64-1.7,1.68-.44.44-.96.49-1.53.33-.35-.13-.69-.28-1.02-.45-.68-.31-1.4-.5-2.04-.89-.23-.23-.48-.68-.77-.53-.54.27-.09-.22.21.33-.22.34-.52.57-.91.67-1.05-.07-2.1-.15-1.89-1.65.7-1.12,2.49-1.43,2.36-3.17l-.05.11c-.12-.47.05-.92.13-1.37v.02c.05-.48.33-.71.8-.74.38.12.72.33,1.01.61.21.28.38.6.49.92.07.29.26.49.57.57-.19-.22-.32-.48-.38-.78.06-.36.21-.66.46-.92.32-.21.65-.32,1.02-.33.22.14.44.13.65-.03.52-.22,1.03-.14,1.54.03h-.03c1.3-.17,2.14.46,2.7,1.55.36.33.01,1.02.6,1.25.31,0,.6.08.86.28Z"/>
  <path class="cls-57" d="m696.55,430.16c-.26.12-.45.31-.57.58-.23.68-.95,1.02-1.2,1.69l.02-.06c-.53,1.21-.55,2.88-2.51,2.82h.02c-.72-.14-1.38.51-2.11.15l.12.02c-.76-.04-1.36-.54-2.09-.67-.29-.25-.49-.56-.61-.92-.09-.55-.03-1.1.09-1.64.21-.84.58-1.64.71-2.51.02-.34.05-.68.08-1.02,0-.52.02-1.04.08-1.56.09-.55.35-.99.85-1.28.66-.31,1.36-.45,2.07-.58.72-.15,1.41-.39,2.09-.68.36-.16.74-.27,1.12-.35.84-.12,1.6.05,2.28.57.54.81,1.42,1.49,1.01,2.67-.61.77-1.59,1.03-2.32,1.63-.44.31-.97.39-1.44.62-.37.23-.67.55-.95.8.06-.04.23-.09.27-.12.83-.74,1.77-1.05,2.82-1.09.37.26.43.57.18.94Z"/>
  <path class="cls-159" d="m539.14,552.18c-.46.22-.92.45-1.38.67-.85.31-1.26-.71-2.03-.68l-.09-.05c-.54-.22-.86-.66-1.12-1.16-.18-.71-.43-1.38-1.04-1.85-.26-.29-.33-.61-.2-.98l-.02.09c-.01-.46.11-.9.22-1.34v.03c.13-.67.62-.98,1.2-1.22,1.18.85,1.75.57,1.69-.92.25-.37.58-.47.99-.33h-.04c.44.03.87.1,1.31.19h.02c.48.11.96.23,1.36.55.4.62.81,1.25,1.21,1.87.13.5.06.98-.09,1.46h0c-.17.74.54,1.5-.1,2.21l-.26.14-.14.26c-.23.73-.74,1.05-1.48,1.05Z"/>
  <path class="cls-6" d="m589.83,415.87c.26-.16.53-.31.79-.47.57-.78-1.08-1.9.34-2.51.4-.17.72.18.7.67.21.24.42.47.62.71.67.33,1.28-.37,1.95-.1h-.04c.2.06.4.12.6.17.08.19.15.38.23.57,0,.63-.19,1.18-.59,1.66-.57.48-1.06,1.03-1.38,1.72-.17.3-.39.58-.62.82-.35.36-.45.82-.49,1.31-.03.32-.11.62-.22.9,0-.01-.22.34-.22.34,0,0,.4-.09.41-.11.39-.31.83-.46,1.33-.45.35.11.61.33.79.65.07.37.04.73-.09,1.08-.33.7-.78,1.29-1.45,1.71-.55.23-1.11.23-1.69.15-.56-.1-1.08-.28-1.56-.59-.27-.24-.46-.54-.59-.87-.07-.32-.08-.65-.06-.97.01-.14.04-.3.05-.44.04-.26.01-.53-.12-.77-.44-.13-.9-.04-1.33-.19-.3-.24-.39-.53-.29-.89l.02-.04c.19-.4.17-.85.3-1.26.07-.23,0-.4-.21-.5-.11-.35-.04-.66.18-.94,1.76.11-.34-1.07.43-1.29.25-.3.56-.39.93-.27h-.04c.43.09.88.08,1.31.22Z"/>
  <path class="cls-40" d="m474.82,477.58c.24-.12.41-.3.52-.55,1.05-1.73,2.73-1.7,4.44-1.56l-.08-.02c.66.07.98.55,1.25,1.07-.21.85.37,1.16,1,1.44.39.66,1.04,1.23.76,2.13v-.07c.06.84.03,1.64-.79,2.15-.91.5-1.89.76-2.93.76-.79-.13-1.48-.49-2.12-.95-.4-.34-.71-.74-.83-1.2,0,.07-.07-.22-.07-.22,0,0-.23.26-.25.29-.43.3-.86.41-1.35.29-.3-.27-.38-.59-.22-.96l-.02.09c.02-.44.11-.88.17-1.32v-.03c.13-.46.25-.93.53-1.33Z"/>
  <path class="cls-101" d="m755.06,412.25l.33-.21c.5-.18,1-.1,1.49.05h0c.44.07.88.14,1.3.32h-.06c.37.02.65.19.85.5.26.67.87,1.17.94,1.94.29,2.38.33,4.6-2.97,4.72-.6-.19-1.11-.53-1.61-.88-.8-.62-1.04-1.78-2.08-2.16l.05-.03c-.48-.02-.77-.28-.91-.73-.12-.91.07-1.75.52-2.54.3-.36.68-.49,1.14-.39h-.02c.55.15.81-.18,1.03-.6Z"/>
  <path class="cls-202" d="m696.5,424.78c-.68.07-1.36.13-2.05.2-.34-.13-.62-.34-.83-.64-.38-.58-.76-1.16-1.44-1.45-.51-.21-.99-.45-1.42-.81-.27-.27-.48-.58-.64-.93-.12-.36-.16-.74-.11-1.12-.54-.46,1.84-.98-.03-1.42-.44-.76-.38-1.51-.03-2.28.34-.53.81-.91,1.39-1.15.41-.09.81-.03,1.19.13l-.07-.06c1.41.33,1.6,1.77,2.39,2.65.42.6.53,1.37.99,1.96.52.47,1.23.57,1.81.92.21.3.22.61.03.93-.24.15-.42.34-.54.6-.15.38-.26.77-.35,1.17v-.02c-.06.45.15.96-.29,1.33Z"/>
  <path class="cls-18" d="m534.21,491.98c.29,0,.56-.07.81-.22.41-.06.76.06,1.06.35.72,1.15,2.29,1.62,2.54,3.13.23.32-.55.86.22,1.08.32-.09.62-.05.91.09.23.25.31.53.27.86l-.05.11c-.11.41-.24.82-.39,1.22v-.05c.04.34-.09.59-.4.75-.51-.03-.81.26-1.03.68-.29.19-.57.18-.85-.02l.1.05c-.46.09-.88-.1-1.31-.17h-.04c-.27-.05-.45-.2-.53-.46,0,0-.1-.35-.1-.35,0,0,.05.36.05.36-.19.2-.42.26-.68.18h0c-1.37-.96-2.41-2.12-2.4-3.92v.09c-.25-.92.09-1.76.38-2.61v-.03c.23-.7.74-1.03,1.44-1.12Z"/>
  <path class="cls-55" d="m523.12,427.18c.5-.35.99-.7,1.49-1.04.14-.41.41-.52.81-.34l-.06-.04c.45-.03.88.12,1.32.17v.13c1.56.39,1.92,1.36,1.36,2.78-.37.55-1.08.73-1.41,1.32.17.27.3.55.43.84.01.17.02.34.03.51-.13.35-.32.64-.57.9-1.02.7-2.02,1.11-2.9-.19-.19-.34.19-.8-.24-1.09.1.23.3.44.14.73.17,1.41,1.99,2.85-.07,4.22-.92-.02-1.17-1.09-1.99-1.27v-.02c-.31,0-.53-.1-.65-.31-.14-.22-.18-.35-.12-.38.06-.6.16-1.2.25-1.8-.81-2.37.79-3.7,2.19-5.13Z"/>
  <path class="cls-151" d="m564.66,414.53c.16.27.31.54.47.8.33.07.48.22.46.43-.01.19-.07.31-.15.36l.04-.07c1,2.34,2.66,4.74-.67,6.64-2.43.17-2.67-.95-1.67-2.81.34-.63.47-1.28.13-1.95-.27-.37-.61-.61-1.09-.65-.48.04-.95.11-1.43.13-.54,0-1.04-.12-1.52-.38-.28-.25-.48-.56-.6-.92-.09-.57-.04-1.13.07-1.69.11-.57.28-1.13.47-1.68.55-.91.27-2.56,2.07-2.37.88.83,1.14,2.2,2.37,2.73l-.05.03c.86.08,1.18.58,1.1,1.39Z"/>
  <path class="cls-232" d="m679.33,392.86c.38-.22.76-.45,1.14-.67.46-.23.94-.15,1.42-.14.25.09.48.03.66-.16.98-.21,1.36.74,2.07,1.05-.04.22.04.35.26.39.17,1.6,2.02,3.06.38,4.8-1.14,1.05-1.64-2.43-2.91-.4-.14.36-.29.69-.45,1.04-.17.36-.39.67-.66.95-.82.51-1.49.16-2.13-.37l.14.02c-1.39-.74-.95-2.26-1.44-3.39v-.05c.06-.33.26-.49.53-.47-.06,0,.15-.04.15-.04,0,0-.2-.12-.23-.14-.2-.19-.23-.39-.12-.6h0c.14-.77.93-1.13,1.19-1.83Z"/>
  <path class="cls-231" d="m582.81,394.75c-.03-.21-.13-.38-.3-.5-.75-.81,1.27-2.46-.87-2.92-.14-.03.1-.84.26-1.27h0c1.1-1.5,2.3-2.73,4.38-1.64h-.08c.92.84,2.06,1.53,2.17,2.96v.09c-.15.39-.23.79-.25,1.2l-.02.08c-.17.38-.39.73-.66,1.04-.4.51-.94.79-1.55.96-.57.22-1.09.61-1.75.41h.04c-.49-.03-.95-.16-1.38-.42Z"/>
  <path class="cls-266" d="m511.75,508c.23,0,.38-.1.45-.31.75.03,1.38-.49,2.13-.44l.07.02c.4.18.85.22,1.25.39l-.06-.02c.7.08.99.62,1.3,1.15.73,1.91,2.83,2.01,4.16,3.13.46.45.8.95.73,1.64v.05c-.05.18-.11.36-.17.53-.16.09-.33.18-.49.27-.37.08-.74.1-1.11.09-.18,0-.37-.03-.56-.03-.37,0-.74-.05-1.11-.1-.56-.1-1.05-.32-1.37-.83-.06-.3.11-.56.17-.84-.23.18-.44.38-.62.62-.47.35-.99.51-1.57.48-.94-.23-1.68-.77-2.3-1.5-.4-.6-.74-1.24-1.18-1.82-.22-.3-.35-.63-.41-1,.06-.57.35-1.03.67-1.48Z"/>
  <path class="cls-123" d="m726.49,404.61c.09.22.26.35.5.37.47.16.93.35,1.28.71l.05.12c.16.39.15.77-.02,1.15-.64,1.19-2.06,1.87-2.18,3.39-.04.2-.09.39-.13.58-.06.19-.14.38-.21.57-.25.35-.58.52-1.01.52l-.12-.04c-.39-.21-.86-.19-1.23-.44h.09c-.78-.04-1.31-.49-1.78-1.06.01-.23-.09-.37-.32-.41-.21-.44-.11-.91-.13-1.37.1-.24.08-.46-.08-.67-.2-.31-.14-.56.13-.75.65-.41-.64-.56-.15-.97.84-.97,1.71-1.87,3.13-1.74h-.07c.74.1,1.49-.61,2.22.04Z"/>
  <path class="cls-28" d="m641.78,417.54c.62,1.24,2.26,2.24.93,3.94-.33.22-.68.37-1.06.48-.74.15-1.52.13-2.18.53-.23.25-.46.5-.68.76-.27.23-.57.3-.92.19l-.05-.03c-.94-.52-1.59-1.2-1.39-2.38v.07c-.03-.44.11-.86.13-1.29v-.11c.14-.41.28-.82.44-1.22.71-.45,1.41-.9,2.12-1.35.95-.28,1.81.03,2.65.41h0Z"/>
  <path class="cls-119" d="m649.62,396.99c.29-.07.5-.23.64-.5,1.19-1.5,2.25-.25,3.34.16l-.05-.02c.88.16,1.21.64.92,1.51v-.1c.22.96.04,1.83-.55,2.61l.04-.09c-.26,1.22-1.06,1.66-2.24,1.52l.07.02c-.47,0-.92-.09-1.34-.3l.09.03c-2.46-1.2-1.83-3-.92-4.84Z"/>
  <path class="cls-155" d="m547.66,473.46c.24.03.44-.06.58-.25.37-.07.67.04.91.32.13.83,1,.94,1.45,1.46.32.88,1.08,1.63.72,2.68l.03-.15c-.48,1.45-1.57,2.01-3.01,2.05h.08c-.47,0-.92-.09-1.34-.28l.07.02c-1.36-.57-1.99-1.61-2.01-3.06v.06c.02-.33.17-.59.44-.78.87-.26.1-1.17.62-1.58.43-.33.88-.6,1.46-.5Z"/>
  <path class="cls-125" d="m817.67,464.6c-.31.14-.61.27-.92.41-2.27.3-3.9-.28-4.07-2.91v.02c.12-.76.95-1.09,1.11-1.82.21-.1.41-.22.58-.38.65,0,1,.45,1.33.88.4-.02.12,1.55,1.05.43.63-.39,1.28-.09,1.91-.08.31-.08.62-.15.92-.23.97.27,1.25.9.96,1.83-.57.53-1.45.61-1.93,1.29-.24.33-.56.51-.96.55Z"/>
  <path class="cls-244" d="m477.52,468.05c.24-.1.4-.27.5-.51.15-.42.26-.86.51-1.24.18-.05.33-.15.45-.3.46-.07.91.05,1.37.03h.14c.65.37,1.06,1.03,1.73,1.37.25.38.5.77.75,1.15.13.5.05.99-.09,1.47v-.02c-.39,1.07-1.19,1.54-2.3,1.53h-.01c-.71-.08-1.47,0-1.95-.72-.19-.7-.52-1.32-1.11-1.78-.19-.33-.19-.65,0-.98Z"/>
  <path class="cls-29" d="m737.21,432.65c.28-.14.5-.34.63-.63.18-.38.46-.59.88-.63.9-.01,1.83.09,2.56-.63.29-.24.62-.34.99-.34h-.01c.43.11.87.16,1.29.27h0c.27.04.45.16.52.35.08.2.09.32.04.35-.03.26.05.48.23.67.15.66.29,1.31.03,1.98-.87,1.35-2.06,2.16-3.72,2.11-.65-.21-.8-.61-.7-1.31.08-.59-.23-.94-.04-.35.19.59-.89-.06-.37.27-.36.07-.71.06-1.07-.03-.55-.19-.99-.52-1.31-1-.15-.37-.14-.73.04-1.09Z"/>
  <path class="cls-209" d="m550.62,423.6c.24-.15.49-.29.75-.4.38.05.63.26.74.64,1.04.61,2.13.12,3.2.13.32.16.55.4.69.73.19.69.28,1.36-.14,2.01l-.25.12-.16.23c-.81.29-1.21-.73-1.97-.61l-.17-.04c-1.06-.27-2.2.63-3.22-.21h0c-.47-.07-.93-.19-1.35-.42-.08-.25-.22-.45-.43-.61-.31-.06-.48-.19-.5-.41-.02-.21,0-.33.07-.38v.05c-.02-.61-.15-1.22.14-1.8.41-.53.95-.77,1.61-.73.41.21.57.53.46.98h0c-.08.31-.05.6.1.88.03.05.2-.02.42-.16Z"/>
  <path class="cls-68" d="m585.81,379.66l-.27.15-.17.26c-.15.61-.62.91-1.12,1.16-.37.06-.68-.06-.94-.32-.14-.75-.47-.9-1.05-.32-.35.13-.7.16-1.06.11-.33-.2-.56-.48-.68-.85,0-.39.06-.76.18-1.13.42-1.07.72-2.17.98-3.29.1-.38.26-.73.47-1.07.14-.13.29-.27.43-.4.26-.12.52-.24.78-.36,1.27.64,1.96,1.66,2,3.1v-.03c-.35,1.07,1.3,1.83.45,2.97Z"/>
  <path class="cls-235" d="m526.32,523.89c-.12-.31-.24-.62-.35-.92-.43-1.22.53-1.8,1.16-2.52.24-.3.5-.58.76-.86.68-.62,1.16-1.55,2.27-1.54.41.11.81.22,1.22.33.42-.04.74.14.96.49.34.57.25,1.08-.19,1.55-.67-.02-1.14.18-1.09.97-.34.64-.8,1.21-1.17,1.83-.25.49-.52.96-.86,1.39-.27.28-.6.37-.98.28l.05.02c-.52-.02-1.01-.16-1.42-.5-.02-.25-.14-.42-.37-.53Z"/>
  <path class="cls-163" d="m527.32,470.97c-.3-.44-.6-.87-.9-1.31-.08-.92.13-1.78.51-2.6.24-.19.49-.39.73-.58.16-.38.43-.49.82-.35l-.06-.02c1.75.67,3.69,1.22,2.6,3.82v.02c-.5.98-1.21,1.59-2.39,1.41h.07c-.5,0-.97-.13-1.39-.4Z"/>
  <path class="cls-176" d="m646.92,418.7c-1.72-.06-2.01-1.49-2.57-2.66,0,0-.11.02-.11.02-.02-.48.03-.95.3-1.37v.09c-.02-.41-.01-.83,0-1.24-.13-.29-.26-.58-.39-.88.16-.48.5-.73.99-.78,1.02-.02,1.81.43,2.48,1.16,1.44,2.1,1.41,4.01-.71,5.67Z"/>
  <path class="cls-239" d="m753.29,413.33c.19.91-.02,1.74-.51,2.51-2.36,1.28-3.22.06-3.53-2.1l-.02.1c-.01-.51.13-.97.4-1.4.44-.31.89-.62,1.33-.93,1.18.09,2.42.11,2.32,1.82Z"/>
  <path class="cls-251" d="m507.96,526.81c-.24.12-.41.3-.51.55-.64,1.05-1.39,1.84-2.76,1.17.46-2.15-2.64-5.18,1.59-6.4,1.21.18,2.05.89,2.73,1.84.92,1.42-.42,2-1.05,2.84Z"/>
  <path class="cls-50" d="m725.02,410.68c-.37-2.29,1.31-3.15,2.87-4.09.78.16,1.04.72,1.1,1.43,0,.26.06.51.2.73.03.27-.04.51-.19.72,0,0-.22-.3-.22-.3,0,0,.15.35.15.35.2.22.22.45.06.7l.05-.09c-.47,1.43-1.64,1.87-2.95,2.12h-.15c-.1-.15-.21-.29-.31-.44-.04-.17-.07-.33-.11-.5.06-.27,0-.46-.16-.55-.16-.09-.27-.11-.34-.07Z"/>
  <path class="cls-72" d="m613.02,399.82c.39-.33.78-.66,1.17-.99.32-.71.8-1.09,1.61-.75h-.12c.79-.07,1.13.48,1.46,1.05q1.21,4.85-2.15,4.8c-.47-.38-.73-.88-.83-1.46-.25-.67-.67-1.23-1.16-1.75-.22-.3-.22-.6.01-.9Z"/>
  <path class="cls-210" d="m601.7,339.67c-.03-.26-.14-.47-.33-.64-.08-.5-.01-.98.19-1.44v.06c.28-1.15,1.18-1.49,2.21-1.65h.11c3.13,2.37,3.09,2.84-.35,4.78h-.08c-.4-.2-.85-.23-1.24-.44h.08c-.31.01-.5-.09-.57-.29-.07-.21-.08-.34-.01-.38Z"/>
  <path class="cls-142" d="m688.27,432.43c-.11.46-.21.92-.32,1.38-.11.32-.29.6-.55.82-.54.42-.86,1.02-1.22,1.58-.31.2-.62.21-.94.01-.32-.44-.65-.88-.97-1.32-.4-.12-.81-.2-1.22-.25h-.05c-.74-.14-1.58-.05-2.01-.89-.12-.6-.01-1.16.3-1.68.27-.28.61-.46.99-.54.75.06,1.46.34,2.21.41,1.12.02,2.26-.42,3.37.08.14.13.28.27.42.4Z"/>
  <path class="cls-242" d="m546.07,462.45c-.24,0-.45.08-.63.23-.92.2-1.29-.76-2.02-.96-.03-.21-.14-.38-.31-.5-.07-.48,0-.95.1-1.41v-.03c.48-1,1.18-1.6,2.36-1.41l-.09-.02c1.16.31,1.58,1.14,1.56,2.26h0c-.09.41-.17.83-.24,1.26l-.02.04c-.1.38-.34.56-.73.53Z"/>
  <path class="cls-53" d="m552.25,519.27c.65-.42,1.29-.83,1.94-1.25,3.03,2.43,3.01,2.98-.17,4.23l.19.04c-1.46-.48-2.12-1.48-1.95-3.02Z"/>
  <path class="cls-11" d="m578.37,374.48c.75-.4,1.49-.81,2.24-1.21.21,0,.43-.01.64-.02.09.19.18.39.27.58.08.66-.11,1.23-.58,1.7-.74-.05-1.28.07-.82,1.02-.37,1.65-1.42,1.85-2.81,1.34-.36-.25-.54-.6-.55-1.04l-.03.07c0-.47.09-.92.29-1.34v.08c.08-.82.61-1.12,1.35-1.17Z"/>
  <path class="cls-184" d="m526.9,429.28c1.18-1.16.66-2.2-.23-3.22.27-.21.53-.42.8-.62.73.15,1.05.96,1.79,1.09.15.25.3.49.48.72-.09.3-.04.51.14.63.18.11.3.15.37.1.26.26.51.52.77.78-.09.23-.18.45-.27.68-.96,1.27-2.05,2.13-3.7,1.13-.39-.39-.44-.82-.14-1.29Z"/>
  <path class="cls-177" d="m495.49,474.02c1.11-.84,2.21-1.45,3.3.03.04.91-.16,1.77-.54,2.59l-.35.2-.34.23c-.78-.02-1.1-.9-1.85-.97-.15-.26-.31-.51-.48-.76.08-.44.18-.88.26-1.32Z"/>
  <path class="cls-185" d="m520.84,512.03c-1.45.55-2.54-.6-3.81-.86-1.46-.31-.71-1.26-.37-2.02,0,0,.44-.14.44-.14.3-.02.61-.05.91-.08.32.02.59.14.82.36.02.25.16.39.41.4,1.04.44,1.49,1.28,1.6,2.35Z"/>
  <path class="cls-153" d="m589.46,423.86c.43.08.87.16,1.3.24.16.31.24.64.25.99-.02.17-.04.34-.05.52-.06.34-.17.68-.3,1-.09.15-.19.29-.29.44-.29.24-.6.27-.92.05l.05.03c-.51,0-.98-.14-1.4-.45-.06-.26-.22-.43-.48-.5-.29-.07-.46-.21-.49-.43-.04-.21-.02-.34.04-.38.11-.24.05-.41-.2-.52-.21-.39-.12-.71.21-.99.76-.4,1.53-.18,2.29,0Z"/>
  <path class="cls-253" d="m498.37,521.92c-.25-.48-.5-.97-.75-1.45.46-.39.92-.77,1.38-1.16.43-.66.98-1.08,1.83-.88.58,3.36-.11,4.33-2.46,3.48Z"/>
  <path class="cls-254" d="m536.53,544.96c.57,1.03.89,2.11.61,3.32-1.49-.22-1.99-1.25-2.29-2.46-.39-.25-.38-.51-.02-.78l.3-.23c.48-.04.98-.37,1.4.14Z"/>
  <path class="cls-115" d="m596.19,413.8c.28-.18.56-.35.84-.53.19-.36.47-.45.84-.27l-.09-.02c.32.01.49.12.52.32.03.2,0,.32-.07.37l.03-.08c0,.45-.09.9-.18,1.34h-.18c-.03.72-.4,1.2-.98,1.56-.4.17-.82.24-1.26.2-.67-.29-.91-.86-.99-1.53.03-.16.08-.32.15-.48.26-.6.73-.88,1.37-.89Z"/>
  <path class="cls-1" d="m596,416.19c.63-.42,1.27-.83,1.9-1.25.22.25.44.5.66.75-.09.31-.04.52.14.64.18.12.3.16.37.11.2.27.4.54.6.81.56.33.65.77.28,1.3-2.62,1.39-3.31-.46-3.95-2.37Z"/>
  <path class="cls-34" d="m580.75,379.78c.19.23.37.47.54.72.92.56.75,1.33.42,2.14-.26.38-.61.48-1.04.35h.07c-.81-.04-1.14-.9-1.86-1.09-.27-.21-.53-.41-.8-.62.1-.38.28-.71.55-1,.63-.51,1.29-.85,2.12-.51Z"/>
  <path class="cls-158" d="m623.47,399.25c.92-.25,1.69-1.44,2.81-.45v-.02c-.08.4-.13.79-.14,1.2-.03.28.04.53.2.76-.16.19-.31.39-.45.59-.18.02-.36.04-.54.06-.35-.09-.68-.23-1-.42-.55-.44-1.24-.82-.89-1.73Z"/>
  <path class="cls-3" d="m613.42,370.3l-.11-.18c-.16-1.55.94-1.66,2.04-1.78h0c.26.06.43.19.49.39.07.2.08.32.03.35v.04c-.18.69.15,1.67-1.03,1.78h-.08c-.48-.12-.93-.29-1.33-.59Z"/>
  <path class="cls-154" d="m818.27,464.12c-.05-1.4.53-1.82,1.8-1.16.35.28.35.56,0,.85-.36.24-.71.47-1.07.71-.38.13-.64,0-.73-.4Z"/>
  <path class="cls-71" d="m517.39,523.16c.21-.07.33-.22.37-.44.15-.37.42-.51.81-.4h-.04c1.16.68.39,1.38.02,2.08l-.29.19c-1.19.07-1.51-.39-.88-1.44Z"/>
  <path class="cls-15" d="m566.37,412.21c-.62.49-1.25.88-2.03.3.63-.41,1.28-.68,2.03-.3Z"/>
  <path class="cls-59" d="m553.79,489.57c.48-.36.97-.73,1.45-1.09h0c.37.13.54.39.52.78v.02c-.28.77-.78,1.14-1.61.89-.11-.21-.23-.41-.36-.6Z"/>
  <path class="cls-36" d="m518.74,553.18c.61-.47,1.25-.81,1.99-.25,0,0,.02-.03.02-.03-.21.82-.72,1.15-1.55.98-.16-.23-.31-.46-.46-.7Z"/>
  <path class="cls-172" d="m730.5,420.63c.45-.38.9-.76,1.34-1.13h0c.38.13.54.39.44.79v-.06c-.23.87-.69,1.28-1.59.75l-.19-.35Z"/>
  <path class="cls-11" d="m581.33,373.85c.27-.08.54-.16.81-.22.13.15.27.27.44.36,0,0-.03.37-.03.37-.45.28-.86.23-1.23-.15v-.35Z"/>
  <path class="cls-192" d="m516.3,549.09c-.24-.14-.45-.32-.63-.52.13-.39.4-.58.8-.58.18.21.31.44.4.7l-.32.14-.25.25Z"/>
  <path class="cls-219" d="m690.18,419.96c.16.33.33.67.49,1-.16.53-.2,1.06-.11,1.61,0,.37-.06.72-.18,1.07-.23.49-.56.92-.92,1.32-.37.37-.73.76-1.04,1.19-.14.11-.27.22-.41.33-.15.09-.31.17-.46.26-.31.19-.61.38-.91.58-.93.62-1.83,1.57-2.96.31-.37-.8-.18-1.56.2-2.29q5.09-1.59,1.33-6.26c.1-1.55,1.37-1.06,2.22-1.3.31-.14.64-.24.98-.31.51.02.92.24,1.18.69.13.25.24.52.34.79-.21.23-.22.48-.03.74,0,0,.29.28.29.28Z"/>
  <path class="cls-131" d="m683.87,425.33c.32.7.43,1.41.07,2.14-.05.36-.18.68-.37.99-.58.66-1.25,1.24-1.84,1.9-.14.12-.28.23-.41.34-.17.06-.34.12-.5.18-.17-.06-.33-.13-.5-.19-.69-.75-1.45-1.24-2.5-.72l-.21-.34c1.98-1.2.67-2.38-.03-3.55.15-.17.3-.33.46-.49,1.05-.19,2.16-.13,3.09-.77.7.04,1.08.59,1.54,1,.4-.16.81-.32,1.21-.48Z"/>
  <path class="cls-14" d="m688.65,417.7c-.27.16-.53.32-.8.48-.75-.23-1.13-.68-.9-1.5.22-.15.44-.28.68-.39.75-.05,1.39-.24,1.43-1.16.25-.53.33-1.46,1-1.37,1.01.14,1.19,1.24,1.58,2.04-.47.31-.93.63-1.4.94-.28.73-.78,1.11-1.59.97Z"/>
  <path class="cls-174" d="m686.96,416.67c.3.5.6,1,.9,1.5-.54,1.33-2.11-.4-2.66.9-.21-.55-.11-1.07.2-1.56.17-.11.33-.22.5-.33l1.06-.51Z"/>
  <path class="cls-9" d="m682.66,425.81c-.8.11-1.12-.52-1.54-1,0-.61.22-1.28.88-1.12,1.22.29.67,1.33.66,2.12Z"/>
  <path class="cls-174" d="m689.07,415.12c.23,1.26-.46,1.38-1.43,1.16.25-.24.51-.49.76-.73.18-.22.4-.36.67-.43Z"/>
  <path class="cls-61" d="m678.09,420.16c.48,0,1.24.35,1.1.52-.73.85-.65-.46-1.1-.52h0Z"/>
  <path class="cls-135" d="m677.74,424.85c0-.15-.05-.41.01-.44.26-.13.27.05,0,.44h0Z"/>
  <path class="cls-80" d="m555.75,424.84c-.15-.29-.29-.58-.44-.87,0,0-.04.05-.04.05.15-.73.62-1.07,1.35-1.06.53-.33,1.05-.67,1.58-1,.74-.74.99-1.85,1.83-2.52.53-.43,1.14-.55,1.8-.45.41.13.73.38.94.77-.44,1.8-.78,3.66-2.56,4.74-1.49-.25-2.91,1.03-4.43.21l-.03.14Z"/>
  <path class="cls-203" d="m548.21,421.81c-.07-.25-.16-.5-.25-.75.51-.2.54-1.68,1.49-.62,1.08,1.21,1.67.96,2-.52.13-.55.27-1.1.4-1.65h-.14c.69,1.1,1.38,2.21,2.07,3.32.3-.01.48.07.54.27.06.2.06.32,0,.37-1.43.09-2.98-.63-4.22.65-.2-.29-.4-.58-.6-.87-.44-.02-.92.23-1.3-.19Z"/>
  <path class="cls-22" d="m558.9,410.42c.62-.3,1.29-1,1.71.23-.21.98.17,2.18-1.07,2.75-.32.05-.63,0-.92-.12-.44-.19-.86-.41-1.25-.7-.22-.26-.27-.55-.12-.86-.07-1.23,1.14-.81,1.66-1.29Z"/>
  <path class="cls-259" d="m558.96,415.95c.12.26.25.52.39.77-.06.4-.27.67-.67.78-.78-.24-1.4.09-1.98.58-.39.12-.72.03-.99-.26-.06-.19-.16-.35-.3-.49v-.06c.54-1.21,1.36-2.17,2.55-2.79.17.03.34.06.51.09.36.4.61.83.49,1.4Z"/>
  <path class="cls-146" d="m560.22,419.66c-.25,1.13-.26,2.46-2.01,2.28-.11-.24-.24-.46-.39-.66-.39-.16-.61-.45-.68-.86.17-.37.43-.65.78-.85.57-.2,1.16-.25,1.75-.16.18.08.36.16.54.25Z"/>
  <path class="cls-233" d="m557.72,412.39c.53-.1.98.06,1.36.44-.3.66-.8.99-1.53.95-.3.14-.59.28-.89.42-.37-.03-.67-.19-.91-.47-.17-.34-.15-.68.01-1.01.23-.16.47-.31.71-.46.42-.03.84.01,1.25.13Z"/>
  <path class="cls-215" d="m555.94,408.15c.37.41.75.83,1.12,1.24-.59.46-1.21.87-2.02.61.3-.61.6-1.23.9-1.84Z"/>
  <path class="cls-22" d="m555.76,412.72c.14.23.27.47.39.71-.06.32-.21.59-.46.81-.28.17-.58.24-.91.18-.17-.02-.33-.03-.5-.04-.09-.2-.17-.4-.26-.6.49-.49.57-1.64,1.72-1.06Z"/>
  <path class="cls-102" d="m557.55,413.78c.51-.32,1.02-.63,1.53-.95.12.21.27.4.45.57-.1.43-.2.87-.3,1.3-.49.25-.86-.19-1.3-.23h.01c-.15-.23-.29-.45-.4-.69Z"/>
  <path class="cls-249" d="m557.94,419.9c-.19.11-.34.27-.45.47-.22.48-.55.59-1.01.33-.33-.59-.88-1.15-.16-1.83.19-.04.39-.08.58-.12.59.16,1.12.38,1.03,1.15Z"/>
  <path class="cls-39" d="m549.95,414.12c-.12-.44-.42-.94.35-1.09.32.46.64.92.96,1.38v-.03c-.43-.09-.87-.17-1.31-.26Z"/>
  <path class="cls-203" d="m549.8,418.62c-.55-.54-.61-1.2-.5-1.91.51.55.77,1.16.5,1.91Z"/>
  <path class="cls-180" d="m552.48,414.75c.17.62.12,1.12-.68,1.13-.03,0-.07-.46-.11-.71.1-.45.37-.57.79-.42Z"/>
  <path class="cls-203" d="m550.62,423.6c-.11.22-.22.44-.33.66-.67-.38-.42-.88-.18-1.39.16.25.33.49.51.73Z"/>
  <path class="cls-222" d="m554.33,422.22c-.22-.18-.4-.39-.54-.63.43-.11.85-.23,1.28-.34.12.6-.35.75-.73.98Z"/>
  <path class="cls-56" d="m556.63,422.94c-.45.35-.9.71-1.35,1.06-.15-1.11.21-1.59,1.35-1.06Z"/>
  <path class="cls-39" d="m552.48,414.75c-.26.14-.52.28-.79.42-.13-.27-.27-.54-.43-.79v.03c.47-.12.89-.04,1.22.35Z"/>
  <path class="cls-39" d="m557.72,412.39c-.42-.04-.83-.09-1.25-.13.26-.18.51-.36.77-.54.15.23.31.46.48.67Z"/>
  <path class="cls-233" d="m554.79,414.4c.17-.2.36-.35.59-.48.31.04.49.17.54.39.05.22.04.34-.03.39-.44.18-.82.13-1.09-.3Z"/>
  <path class="cls-39" d="m555.88,414.7c-.17-.26-.34-.52-.5-.78.26-.17.52-.34.78-.51.17.26.34.52.51.78-.26.17-.52.34-.78.51Z"/>
  <path class="cls-27" d="m555.4,417.32c-.27.03-.53.06-.8.09.09-.96.52-.14.79-.15v.06Z"/>
  <path class="cls-84" d="m555.71,417.81l.93-.25c.59.58.6,1.05-.28,1.32h-.03c-.21-.36-.42-.71-.63-1.07Z"/>
  <path class="cls-203" d="m552.11,423.83c-.25-.21-.49-.42-.74-.64.25.06.51.11.74.21.05.02,0,.28,0,.42Z"/>
  <path class="cls-80" d="m556.49,420.7c.34-.11.67-.22,1.01-.33.11.3.21.6.32.91-.44-.19-.89-.38-1.33-.57Z"/>
  <path class="cls-161" d="m531.15,526.16c-.21-.2-.38-.43-.53-.67-.11-1.01.7-1.61,1.07-2.39-.02-.14.5-.36-.06-.43.2.2.17.41-.11.64-.51.65-1.15.98-1.99.88-.39-.21-.53-.55-.48-.97,0-1.31,1.06-1.8,1.89-2.46.12-.34.35-.46.7-.4.43-.16.62-.47.59-.92-.31-.6-.13-.84.53-.7.57.3,1.14.6,1.71.9.13.48.07.97.03,1.45,0,.31-.02.62-.03.92,0,.31.09.57.33.78.29.22.36.49.22.81-1.06,1.2-2.51,1.82-3.87,2.57Z"/>
  <path class="cls-73" d="m528.93,512.51c.26.15.53.29.79.45.67.41,1.22.94,1.11,1.79-.06.5-.49.72-.98.72-.93,0-1.27-.57-1.43-1.4-.08-.44-.31-.85-.47-1.27.13-.17.26-.34.39-.51.2.08.4.15.6.23Z"/>
  <path class="cls-152" d="m522.76,518.46c-1-1.44.35-1.36,1.09-1.68.77.45,1.59.68,2.48.45.31.07.51.23.62.47.11.24.14.38.08.42-.2.63-.62,1.09-1.17,1.43-.37.18-.77.28-1.19.29-.81-.21-1.06-1.22-1.92-1.38Z"/>
  <path class="cls-263" d="m532.75,518.72c-.24.19-.41.42-.53.7-.28-.35-.56-.7-.85-1.05q-.22-2.37,2.4-1.56h0c-.67.45-1.18,1.01-1.01,1.91Z"/>
  <path class="cls-262" d="m533.55,521.27c-.29-.88.46-1.18.91-1.65,1.27-.06,1.72.93,2.28,1.78,0,0,0,.06,0,.06-1.16,1.49-2.14-.05-3.2-.19Z"/>
  <path class="cls-118" d="m530.16,518.03c-.45.9-.74,1.92-1.82,2.32-.81-.27-1.08-.86-1.01-1.67.51-.9,1.18-1.52,2.32-1.3.19.2.36.41.51.64Z"/>
  <path class="cls-83" d="m526.87,511.28c-.04-.24-.12-.47-.24-.68.62-.11,1.24-.22,1.87-.33.35.46.7.91,1.05,1.37-.21.29-.41.58-.62.87,0,0-.33-.2-.33-.2-.34-.02-.68-.08-1-.2-.24-.28-.49-.55-.73-.83Z"/>
  <path class="cls-173" d="m529.65,517.39c-.73.47-1.46.95-2.18,1.42-.2-.06-.4-.11-.6-.17,0-.21-.02-.42-.03-.62-.17-.26-.34-.52-.5-.79,0,0,0,0,0,0,.13-.37.38-.55.78-.53.84.23,1.69.46,2.53.69Z"/>
  <path class="cls-139" d="m533.77,516.8c.67-.36,1.34-.71,2.1-.21l-.17.43-.46.05c-.49-.1-.98-.19-1.48-.29h0Z"/>
  <path class="cls-201" d="m527.61,512.11c.33.07.67.14,1,.2,0,0-.29.3-.29.3l-.37.19c-.16-.21-.27-.44-.33-.69Z"/>
  <path class="cls-152" d="m527.12,516.7c-.26.18-.52.35-.78.53-.08-.68.15-.9.78-.53Z"/>
  <path class="cls-32" d="m535.15,513.71c.17.25.34.5.51.74-.74.15-.94-.08-.51-.74Z"/>
  <path class="cls-236" d="m535.25,517.08c.19-.18.4-.34.62-.48.02.25.04.51.06.76-.23-.09-.46-.19-.69-.28Z"/>
  <path class="cls-4" d="m683.09,428.04c.29-.19.57-.38.86-.57,1.65.78,1.58-1.02,2.35-1.56.4.1.79.19,1.19.28l.34-.17c.49.35.75.87,1.01,1.38.2.34.27.71.19,1.1.17.3.33.6.5.9-.47.57-1.21.83-1.66,1.41-.17.07-.33.13-.5.2-.35-.04-.66-.17-.94-.39-.22-.23-.37-.52-.43-.83.25-.5.14-.58-.24-.15-.41.46.35.08-.17.42-.23.25-.49.43-.8.56-.66.21-1.32.41-1.99.57-.36.03-.72.04-1.09.05-.34-.2-.5-.5-.48-.88l.14-.25c.18-1.02,1.55-1.05,1.71-2.08Z"/>
  <path class="cls-92" d="m690.07,423.44c-.11-.27-.25-.53-.42-.77.14-.79.66-1.12,1.42-1.17.48.14.96.27,1.45.41.58.14.88.58,1.12,1.06.25.56-.84,1.08-.04,1.66.16.29.18.58.05.89-.68.37-1.37.56-2.08.08-.34-.01-.66-.11-.94-.32-.24-.25-.43-.53-.57-.84-.07-.34-.07-.67,0-1.01Z"/>
  <path class="cls-206" d="m697.15,427.55c-.19.67-.16,1.43-.78,1.92-1.31.31-2.24,1.94-3.87,1.11v.02c.38-.59.77-1.17,1.15-1.76.39.08.78.16,1.17.23.73-.57.71-2.28,2.32-1.53Z"/>
  <path class="cls-74" d="m687.43,430.92c.34-1,.88-1.73,2.1-1.52.08,1.22-.77,2.05-1.26,3.04,0,0-.09-.08-.09-.08-.73-.23-1.09-.65-.75-1.43Z"/>
  <path class="cls-147" d="m688.57,427.74c-.25-.58-.5-1.15-.74-1.73.17-.1.32-.21.47-.34.07-.19.14-.39.21-.58.2-.05.4-.09.6-.14.15.13.31.27.46.4.04.2.07.4.11.6-.37.35-.49.78-.37,1.28-.1.38-.34.56-.73.5Z"/>
  <path class="cls-105" d="m691.02,424.8c.18.27.37.54.55.81-.57.47-1.16.82-1.9.36,0,0-.01,0-.01,0,.11-.79.6-1.13,1.36-1.17Z"/>
  <path class="cls-267" d="m688.42,434.37c-.28.16-.55.32-.83.48-.26-.04-.4-.15-.43-.33-.02-.17,0-.28.05-.32.21-.2.46-.32.74-.39.16.18.32.36.46.56Z"/>
  <path class="cls-94" d="m694.84,429.08c-.46.25-.83.08-1.17-.23.44-.17.83-.09,1.17.23Z"/>
  <path class="cls-220" d="m692.51,430.58c-.24.03-.48.06-.73.08.17-.8.47-.21.72-.06v-.02Z"/>
  <path class="cls-213" d="m693.65,425.52c-.14-.28-.28-.55-.42-.83.07-.18.14-.35.2-.53.19.01.38.03.57.04.2.23.35.49.45.78-.27.18-.54.36-.8.54Z"/>
  <path class="cls-130" d="m688.57,427.74c.23-.18.48-.35.73-.5.36.52.27.94-.27,1.26-.18-.24-.33-.49-.46-.75Z"/>
  <path class="cls-197" d="m534.67,550.62c-.53-.42-.68-1.02-.76-1.65,1.17.13,1.29.74.76,1.65Z"/>
  <path class="cls-153" d="m593.06,428.98c-1.36-.2-2.11-1.19-2.86-2.19l.08-.36c.07-.31.14-.62.2-.93l.09-.3c.26-.58.64-.91,1.32-.72.66-.82,1.32-1.63,1.98-2.45.19-.43.52-.58.98-.48.22,2.27,1.42,4.13,2.58,6-1.19,1.27-2.88,1.03-4.36,1.43Z"/>
  <path class="cls-100" d="m586.1,421.79c.36-.36.71-.72,1.07-1.08.77.23,1.38-1.86,2.25-.14-.02.41-.08.81-.17,1.21v.02c-.12.43-.17.87-.22,1.31.17.24.31.49.43.76-.71.42-1.43.62-2.19.14-.39-.74-.78-1.47-1.17-2.21Z"/>
  <path class="cls-260" d="m591.32,421.57c.16-.9-1.08-2.16.68-2.64.75.3,1.07.89,1.08,1.67-.41.64-.95,1.05-1.76.97Z"/>
  <path class="cls-77" d="m592.64,420.49c-.22-.52-.43-1.04-.65-1.56.23-.19.46-.38.68-.57.21,0,.42,0,.63-.01,1.31.42,1.5,1.36,1.14,2.54-.27.38-.62.53-1.08.43h0c-.37,0-.61-.12-.7-.36-.1-.26-.11-.41-.03-.46Z"/>
  <path class="cls-79" d="m592.68,418.36c-.06-.85-.57-1.98,1.1-1.72.33.3.45.67.37,1.1-.34.62-.84.89-1.55.68l.08-.07Z"/>
  <path class="cls-41" d="m594.21,417.47c-.14-.27-.29-.55-.43-.82.3-.49.59-.99.89-1.48.27.42.55.85.82,1.27-.04.45-.26.78-.64,1.01-.21,0-.42.02-.64.02Z"/>
  <path class="cls-248" d="m587.46,417.4c-.15-.25-.28-.51-.41-.78.2-.23.45-.36.76-.38.14.38.28.76.42,1.13-.26,0-.52.01-.77.02Z"/>
  <path class="cls-96" d="m592.64,420.49c.24.27.49.55.73.82-.5.33-1.01.67-1.51,1-.29-.06-.46-.2-.53-.41-.06-.22-.07-.34-.01-.38v.05c.43-.36.88-.72,1.32-1.08Z"/>
  <path class="cls-47" d="m591.88,424.49c-.44.24-.88.48-1.32.72.07-.37.13-.74.2-1.11.46-.1.88-.11,1.12.4Z"/>
  <path class="cls-153" d="m589.25,421.77c.06-.4.11-.81.17-1.21.19.44.14.84-.17,1.21Z"/>
  <path class="cls-153" d="m589.03,423.09c.07-.44.14-.87.21-1.31-.07.44-.14.87-.21,1.31Z"/>
  <path class="cls-153" d="m591.33,421.52c.18.26.36.53.54.79-.77.13-.9-.16-.54-.79Z"/>
  <path class="cls-96" d="m593.37,421.31c.25-.17.49-.35.72-.54.38.14.55.41.55.8-.26.17-.52.32-.79.46-.17-.24-.33-.48-.49-.73Z"/>
  <path class="cls-109" d="m479.38,483.4c-.12.39-.25.79-.37,1.18-.82-.15-1.63-.3-2.45-.45-.32-.54-.63-1.09-.95-1.63.2-.77.69-1.09,1.48-.95.99-.12,1.45.59,1.92,1.25.26.02.4.12.42.29.02.17,0,.27-.06.31Z"/>
  <path class="cls-207" d="m479.38,483.4c-.1-.22-.22-.42-.36-.6.74-.95,1.59-1.55,2.84-.93.01.24.07.48.17.7-.7.49-1.4.99-2.1,1.48-.23-.18-.42-.4-.55-.65Z"/>
  <path class="cls-247" d="m477.1,481.55c-.49.32-.99.63-1.48.95-.57-.36-.81-.91-.91-1.54.48-.33.96-.66,1.43-.99h-.06c.34.52.68,1.05,1.02,1.59Z"/>
  <path class="cls-5" d="m476.14,479.96c-.18-.83.05-1.4,1-1.36.13,0,.39.49.33.67-.22.63-.89.52-1.39.68,0,0,.06.01.06.01Z"/>
  <path class="cls-141" d="m480.71,477.07c.27.15.41.38.43.68-.2-.1-.4-.19-.58-.33-.03-.02.09-.23.14-.35Z"/>
  <path class="cls-143" d="m758.64,413.15c.26,0,.5-.06.72-.19-.05.32-.11.63-.16.95-.64.09-.94-.08-.56-.75Z"/>
  <path class="cls-113" d="m756.83,418.96c-.58.21-.98-.02-1.25-.54.53-.09.94.12,1.25.54Z"/>
  <path class="cls-148" d="m698.06,420.38c-.21.16-.4.35-.57.56-.74.37-1.47.62-2.19-.05.1-.44-.17-.98.32-1.33.23-.12.47-.2.73-.24.57.36,1.14.71,1.71,1.07Z"/>
  <path class="cls-35" d="m693.44,423.46c-.31-.52-.62-1.04-.92-1.56,1.58.06,1.94.92,1.48,2.3,0,0-.06,0-.06,0-.36,0-.55-.1-.58-.32-.03-.22,0-.36.08-.41Z"/>
  <path class="cls-174" d="m688.65,417.7c.53-.32,1.06-.65,1.59-.97.01.64.03,1.29.04,1.93.06.46-.13.69-.61.66-.34-.54-.68-1.08-1.03-1.62Z"/>
  <path class="cls-78" d="m695.62,419.55c-.11.44-.21.89-.32,1.33-.46-.54-.8-1.1-.25-1.78.23.1.42.25.56.45Z"/>
  <path class="cls-156" d="m691.07,421.5c-.47.39-.94.78-1.42,1.17-.25-.92.25-1.39,1.01-1.71.14.18.27.36.4.54Z"/>
  <path class="cls-103" d="m689.68,419.32c.22-.21.42-.43.61-.66.27.11.53.23.8.34-.3.32-.6.64-.91.96,0,0,0,.08,0,.08-.27-.07-.44-.21-.5-.42-.06-.21-.07-.33-.01-.37v.07Z"/>
  <path class="cls-60" d="m540.15,496.02c-.19.22-.41.42-.65.59,0,0-.4-.02-.4-.02l-.24.32c-.32.06-.53-.01-.62-.21-.11-.22-.13-.35-.06-.39-.08-.97-.39-1.71-1.48-2.02-.98-.27-1.58-.91-1.04-2.05.49-.22.98-.43,1.47-.65,1,1.47,2.01,2.94,3.01,4.41Z"/>
  <path class="cls-168" d="m535.52,499.14c-.08-.45-.09-.91.35-1.16.11-.06.38.14.57.22-.3.32-.59.63-.89.95,0,0-.03,0-.03,0Z"/>
  <path class="cls-211" d="m538.8,498.89c-.27.16-.54.32-.81.48.07-.49.36-.63.81-.48Z"/>
  <path class="cls-252" d="m530.71,428.89c.2.23.39.46.57.71-.17.17-.37.32-.58.44-.48.83-.21,1.36.65,1.67.22.24.43.48.65.72-.35.82-.81,1.62-.51,2.57-1.3.84-2.61,1.68-3.91,2.52-.19-.15-.31-.33-.38-.56-.34-.17-.62-.41-.84-.72-.14-.36-.19-.72-.18-1.1.01-.37.06-.75.11-1.12.07-.93.45-1.8.58-2.73-.17-.2-.33-.4-.48-.62.03-.45.27-.66.72-.63,1.6.84,2.41-.78,3.61-1.16Z"/>
  <path class="cls-216" d="m526.85,431.31c.68,1.1.8,2.24.19,3.41-.25.22-.5.21-.73-.03,0,0-.13.39-.13.39,0,0,.4.07.4.08,0,.29,0,.57.02.86l.03-.05c-.15.44-.46.66-.93.66-1.04.57-1.85.42-2.35-.73.3-.77,1.1-1.57.14-2.33-1.04-.82-.36-1.5.01-2.25h.03c1.12,1.53,2.21.96,3.31-.02Z"/>
  <path class="cls-7" d="m527.1,430.06c-.24.21-.48.42-.72.63,0,0-.06-.05-.06-.05-.39-.16-.79-.28-1.21-.37-.06-1.51.84-1.29,1.78-.99.08.26.14.52.2.78Z"/>
  <path class="cls-117" d="m523.51,431.33c-.11-.41-.21-.82-.32-1.24,1.08.14.5.75.36,1.24h-.03Z"/>
  <path class="cls-237" d="m520.96,434.03c-.32-.12-.5-.35-.55-.69.24-.16.49-.3.75-.42-.07.37-.13.74-.2,1.11Z"/>
  <path class="cls-252" d="m525.11,430.27c.4.12.8.25,1.21.37-.4-.12-.8-.25-1.21-.37Z"/>
  <path class="cls-10" d="m559.95,424.27c.69-1.65,2.17-2.94,2.3-4.86,1.04-.98,1.88-.96,2.4.51-.56.76-2.63,1.24-.46,2.51-.87,1.43-.89,2.82.22,4.15-1.28.88-1.95-.02-2.63-.89-.45-.39-1.02-.3-1.54-.43-.27-.28-.37-.61-.29-.98Z"/>
  <path class="cls-80" d="m564.66,419.91c-.72-.56-1.54-.63-2.4-.51h.03c-.52-.13-.93-.45-1.33-.81-.19-.3-.31-.63-.36-.99.04-.17.08-.34.13-.52.59-.32,1.18-.65,1.78-.97.29.05.57.11.85.19.58,1.15,2.18,1.93,1.31,3.6Z"/>
  <path class="cls-164" d="m557.94,414.47c.43.08.86.16,1.3.23-.09.41-.19.83-.28,1.24-.34-.49-.68-.98-1.02-1.48Z"/>
  <path class="cls-234" d="m558.76,417.38c.22-.2.42-.42.59-.66.46.13.92.25,1.38.38v-.04c-.09.73-.57,1.07-1.25,1.18-.31-.06-.52-.21-.63-.45-.11-.24-.14-.38-.08-.41Z"/>
  <path class="cls-122" d="m563.35,416.31c-.28-.06-.57-.13-.85-.19.36-.26.62-.13.85.19Z"/>
  <path class="cls-150" d="m684.79,398.13c-.68,1.86-1.91,2.4-3.72,1.57.12-.55.24-1.09.36-1.64h0c-.5-1.88.89-2.32,2.28-2.9.37,1.01.73,1.99,1.09,2.97Z"/>
  <path class="cls-145" d="m678.56,395.47c.23-.17.43-.41.69-.49.42-.13,1.01-.9,1.26-.12.18.57-.62.82-1.19.82-.26,0-.51-.18-.77-.28v.06Z"/>
  <path class="cls-112" d="m587.48,393.21c.12.25.21.5.29.76-.51.3-1.03.6-1.54.91-.21-.17-.43-.31-.67-.43.64-.41,1.28-.83,1.92-1.25Z"/>
  <path class="cls-221" d="m515.22,519.02c-.27.02-.51.11-.73.26-1.47-1.18-2.94-2.35-4.41-3.53.2-1.29.4-2.57.6-3.86.33-.59.67-1.17,1-1.76h.07c.76.21,1.11.7,1,1.48.76.61,1.53,1.22,2.29,1.83.39.02.64.22.76.59.03.36.02.72,0,1.08.02.56.25,1.05.52,1.53.7,1.29.72,2.28-1.11,2.38Z"/>
  <path class="cls-243" d="m515.54,514.24c-.16-.26-.32-.52-.48-.79.55-.31,1.11-.63,1.66-.94.35.11.47.35.37.7.43.11.87.22,1.3.33.43.12.88.17,1.31.28h-.04c.45.06.87.25,1.33.28,0,0,.17-.02.17-.02-.09,1.66-1.33,2.85-1.75,4.37-.19.06-.38.11-.57.17-.4-.02-.76-.15-1.09-.37-.49-.55-.55-1.4-1.23-1.82-.26-.24-.46-.52-.62-.84-.22-.43.11-1-.36-1.36Z"/>
  <path class="cls-23" d="m512.77,511.62c-.33-.49-.67-.98-1-1.48,1.19-.09,1.46.45,1,1.48Z"/>
  <path class="cls-24" d="m517.09,513.21c-.14-.23-.26-.46-.37-.7.36-.1.58.01.58.34,0,.12-.13.24-.2.37Z"/>
  <path class="cls-95" d="m519.71,513.82c-.44-.09-.88-.19-1.31-.28.44.09.88.19,1.31.28Z"/>
  <path class="cls-230" d="m521,514.1c-.5.17-.94.03-1.33-.29.44.1.89.19,1.33.29Z"/>
  <path class="cls-136" d="m516.5,515.87c1.79-.14,1.32,1.41,1.73,2.31.26.13.54.16.82.06l.36.22c.07.24.14.47.23.7-.43.28-.86.57-1.28.85-.42-.08-.85-.16-1.27-.24-.44-.02-.88-.05-1.32-.07-.26-.16-.44-.39-.54-.68,1.33-.86.72-1.58-.17-2.27.22-.72.7-1.03,1.45-.88Z"/>
  <path class="cls-218" d="m527.58,520.81c.12,1.22-1.63,1.02-1.62,2.15-.71-.28-.95-.88-1.1-1.55-.15-.88.09-1.6.88-2.09.38-.2.76-.24,1.17-.1.43.44.86.89.67,1.59Z"/>
  <path class="cls-238" d="m525.76,519.78c-.3.55-.6,1.09-.89,1.64-.37-.49-.73-.97-1.1-1.46,0-.48.22-.62.66-.47.29-.15.57-.29.86-.44.37-.01.56.09.58.31.02.22-.02.36-.11.42Z"/>
  <path class="cls-126" d="m524.43,519.48c-.22.16-.44.32-.66.47-.33-.5-.67-1-1-1.5.82-.08,1.29.39,1.67,1.03Z"/>
  <path class="cls-58" d="m651.8,420.85c-.34-.39-.77-.49-1.26-.36-.6-.22-1.21-.45-1.81-.67l-.08-.02c-.93.2-1.27-.55-1.73-1.1.42-1.89,1.49-3.79-.17-5.62.18-.38.48-.59.9-.63.71.05,1.4.37,2.12.25.37-.39.39-.95.71-1.37.46-.43.99-.59,1.61-.48,2.07.92,1.28,2.5.94,3.97.2.3.37.6.53.92.29.7.43,1.43.47,2.18,0,.4-.12.76-.34,1.09-.47.77-.82,1.67-1.89,1.82Z"/>
  <path class="cls-28" d="m640.46,423.61c-.62-.16-1.24-.33-1.87-.49.03-.18.07-.37.1-.55.67-1.08,1.66-.92,2.67-.7.43.17.57.47.42.91-.44.28-.89.56-1.33.84Z"/>
  <path class="cls-196" d="m641.79,422.77c-.1-.25-.21-.49-.35-.72.04-.37.23-.5.59-.39.24-.01.47-.07.68-.18-.03.63-.26,1.12-.93,1.28Z"/>
  <path class="cls-89" d="m721.69,407.28c.63-.35,1.3-.78,1.59.35.1.38.15,1.2-.17,1.07-.57-.23-.95-.93-1.41-1.43h0Z"/>
  <path class="cls-245" d="m725.02,410.68c.25,0,.62-.12.74,0,.22.23.08.5-.24.62-.19-.19-.36-.39-.49-.62Z"/>
  <path class="cls-178" d="m502.93,517c.67.26,1.34.27,2-.04,0,1.77,1.7.84,2.39,1.52h-.02c1.55-.34,1.64,1.02,2.16,1.87-.35,1.56-1.37,2.2-2.92,2.11-1.19.74-2.68,1.49-1.11,3.1,1.59,1.63-.37,1.95-.87,2.81-.88.47-1.79.5-2.72.19-.39-.39-.78-.78-1.18-1.17.02-.45.86-.69.55-1.05-.57-.65-1.4-.13-2.12-.14-1.08-1.28-2.11-2.56-.72-4.26,2.05-.23,2.29-1.74,2.35-3.37.73-.52,1.47-1.04,2.2-1.56Z"/>
  <path class="cls-121" d="m506.54,522.45c.97-.7,1.94-1.4,2.92-2.11.33.52.66,1.04.99,1.56-.46.36-.91.71-1.36,1.07v-.03c.17.26.33.53.5.79-.17.18-.37.34-.59.46-1.39.22-1.89-.8-2.45-1.75Z"/>
  <path class="cls-70" d="m642.04,421.66l-.28.22s-.31.17-.31.17c-.91.17-1.83.34-2.74.51-.45-.45-.8-1.03.02-1.3,1.11-.36,2.31-.58,3.31.4Z"/>
  <path class="cls-13" d="m545.68,475.59c-.15-.18-.26-.38-.34-.6.3-.17.59-.35.89-.52.24.51,1.37.47,1.02,1.18-.33.68-1.04.24-1.56-.06Z"/>
  <path class="cls-13" d="m548.77,473.76c.25.27.49.53.74.8-.7.16-1.02-.05-.74-.8Z"/>
  <path class="cls-110" d="m647.43,412.64l-.33.24s-.35.21-.35.21c-.58-.32-1.16-.63-1.74-.94.32-.4.36-.83.14-1.29.83-2.25,2.31-3.96,4.35-5.21.37-.01.65.13.82.46.09.33.09.66.01.98-.11.54.29.91.5,1.36.4,1.81-1.47,1.98-2.14,3.02-.36.46-.73.89-1.26,1.17Z"/>
  <path class="cls-225" d="m652.46,405.15c.18.17.38.33.57.49.14,1.79-.27,2.98-2.45,2.21-.39-.36-.5-.8-.34-1.31v.02c-.04-.67.26-.92.91-.75.44-.22.87-.44,1.31-.66Z"/>
  <path class="cls-228" d="m651.15,405.81c-.31.25-.61.5-.92.75-.25-.31-.49-.61-.74-.92q.53-.81,1.66.17Z"/>
  <path class="cls-69" d="m815.41,461.16c.3-.06.59-.15.87-.29.2.2.38.42.56.64q-.57.81-1.44-.35Z"/>
  <path class="cls-181" d="m478.8,470.38c-.3-.48-.6-.96-.9-1.44,1.16-.06,1.25.55.9,1.44Z"/>
  <path class="cls-170" d="m744.92,435.03c-.09.41-.17.83-.26,1.24-.75.95-1.49,1.89-2.24,2.84-1.1-.04-2.19-.08-3.29-.12-.62-1.49-2.67-2.3-2.09-4.37.71-.14,1.42-.11,2.13-.02l.34-.14c.32.04.49.16.5.37,0,.2-.02.32-.1.37,1.92.73,2.88-1.1,4.34-1.61.22.48.45.95.67,1.42Z"/>
  <path class="cls-195" d="m738.88,431.65c.44-.24.88-.49,1.33-.73.43-.15.86-.14,1.28.04h0c.45.76.44,1.28-.54,1.67-1.13.44-1.65-.06-2.06-.97Z"/>
  <path class="cls-175" d="m739.18,434.6c-.71.42-1.42.48-2.13.02-.11-.51.01-.94.46-1.25.56.41,1.12.82,1.68,1.23Z"/>
  <path class="cls-33" d="m739.91,435.21c-.22-.2-.36-.45-.4-.75.38-.25.93-.61,1.17-.18.22.39-.35.73-.77.92Z"/>
  <path class="cls-208" d="m626.07,404.92c.85,1.72.06,3.38-.15,5.07-2.16.38-3.73,2.15-6.14,2.24-2.03.07-3.77-.15-5.45-1.19-.15-.29-.29-.58-.44-.87.19-.26.25-.55.11-.83-.06-.12-.25-.08-.43.03-.2-.42-.28-.84.08-1.23-.49-1.22,2.02-2.46-.03-3.67-.17-.58-.31-1.17-.41-1.77-.14-.23-.18-.49-.12-.75-.11-.42-.04-.8.23-1.14l.04-.08c.76-.02,1.23.42,1.59,1.02-.12.45-.17.91-.27,1.36,1.11.22,3.46,2.31,1.99-1.37-.3-.75.02-1.74.06-2.62l.04.22c.54.26,1.14.06,1.69.22.7.36,1.18.94,1.54,1.62.15.33.25.67.3,1.03-.01.47-.02.94.46,1.22.26.14.46.35.59.61.66.18.39-.7.85-.75.74-.31,1.47-.29,2.22-.08.75.38,1.45.8,1.66,1.7Z"/>
  <path class="cls-160" d="m548.21,421.81c.43.06.87.13,1.3.19-.47.35-.94.69-1.41,1.04-.23-.2-.41-.43-.53-.71.21-.18.42-.35.64-.52Z"/>
  <path class="cls-214" d="m581.31,374.2c.41.05.82.1,1.23.15-.09.35-.17.71-.26,1.06-.24.7-.43,1.78-.92,1.94-2.9.95.84,1.23.15,1.88-.26.18-.52.37-.78.55-.72.45-1.44.89-2.16,1.34-.4-.47-.8-.94-1.2-1.41.29-.68-.53-1.33-.06-2.01v-.02c1.04-.21,2.42.06,2.31-1.7.08-.36.31-.47.65-.36.34-.48.69-.95,1.03-1.43Z"/>
  <path class="cls-65" d="m581.52,379.23c-.49-.51-3.03-.03-.87-1.85.64-.54,1.1-1.31,1.64-1.98.39,1.4.09,2.67-.77,3.82Z"/>
  <path class="cls-42" d="m583.76,381.01c-.59.74-1.36,1.16-2.27,1.37-.07-.62-.13-1.25-.2-1.87.23-.19.47-.36.73-.5.47.13,1.06-.13,1.42.4.09.21.19.41.32.6Z"/>
  <path class="cls-49" d="m583.44,380.41c-.47-.13-.95-.27-1.42-.4.54-.42,1.05-.91,1.83-.73-.14.38-.27.75-.41,1.13Z"/>
  <path class="cls-171" d="m653.69,419.03c-.19-.45-.38-.91-.57-1.36.49-.68.5-1.43.31-2.21.13-.39.39-.65.77-.8.64.01,1.1.35,1.49.83.21.34.34.71.39,1.11-.05.19-.09.38-.14.58.07.68.14,1.36.21,2.04-.86.51-1.74,1.24-2.47-.18Z"/>
  <path class="cls-173" d="m527.58,520.81c-.34-.51-.67-1.01-1.01-1.52.05-.47.3-.64.75-.52,0,0,.14.03.14.03.29.52.58,1.03.87,1.55,0,0-.37.24-.37.24l-.38.22Z"/>
  <path class="cls-212" d="m531.64,520.34l-.33.23-.37.17c-.15-.8.12-.86.7-.4Z"/>
  <path class="cls-229" d="m529.05,523.2c.18.26.37.51.55.77-.08.42-.32.56-.73.43l-.04.04c.07-.41.15-.82.22-1.23Z"/>
  <path class="cls-204" d="m614.46,404.39c1.74,1.69-.22,2.57-.82,3.75-1.42-.54-1.43-1.58-.96-2.77.34-.78.9-1.18,1.78-.98Z"/>
  <path class="cls-72" d="m614.46,404.39c-.59.33-1.19.65-1.78.98-.34-.99.1-1.83.53-2.67.42.56.84,1.12,1.25,1.69Z"/>
  <path class="cls-162" d="m613.56,409.37c.37-.13.75-.52,1.09-.08.04.06-.5.57-.78.88-.1-.27-.21-.53-.31-.8Z"/>
  <path class="cls-72" d="m613.31,400.8c-.08.38-.15.76-.23,1.14-.23-.2-.41-.43-.54-.71.22-.21.48-.35.77-.44Z"/>
  <path class="cls-111" d="m728.49,409.42c-.21-.07-.41-.14-.62-.21.21.05.43.09.64.14,0,0-.02.07-.02.07Z"/>
  <path class="cls-107" d="m614.67,403.1c-.23-.52-.12-.97.27-1.36-.09.45-.18.91-.27,1.36Z"/>
  <path class="cls-132" d="m495.71,412.96c-.05-.26-.17-.48-.36-.66.15-.26.36-.5.45-.78.36-1.08.9-2.15,2.21-1.59,1.45.62,1.27,1.91.61,3.06-.2.35-.73.52-1.11.77-.48-.54-1.1-.79-1.81-.79Z"/>
  <path class="cls-43" d="m538.52,393.99c.19-.18.4-.33.63-.44.18-.07.36-.13.53-.2.54-.14,1.04-.4,1.55-.62.33-.14.68-.21,1.04-.2.85.24.09-.6.45-.69.25-.7.78-1.17,1.3-1.65,1.93.28,2.25,1.6,2.07,3.23.16.54-.25,1-.22,1.52-.36,1.91-1.98,2.29-3.45,2.85-.6-.29-1.2-.57-1.79-.86-.7-.98-1.41-1.97-2.12-2.95Z"/>
  <path class="cls-194" d="m544.03,390.19c.11.99-.51,1.59-1.17,2.16l-.11.37-.36.14c-.14-.1-.29-.17-.45-.22-.74.25-1.31,1.02-2.23.7-.2.03-.39.1-.57.21.06-.28.02-.55-.12-.8.37-.39.3-.83.17-1.28,1.43-1.12,2.72-2.74,4.83-1.27Z"/>
  <path class="cls-183" d="m545.88,394.94c-.21-.55-.11-1.05.22-1.52.29.13.58.25.87.38-.37.38-.73.76-1.1,1.14Z"/>
  <path class="cls-120" d="m722.18,455.65c.29.97.34,1.87-.7,2.45-.67-.09-.96-.92-1.7-.86-.52-2.52,1.32-1.47,2.39-1.59h0Z"/>
  <path class="cls-116" d="m719.77,457.24c.91-.39,1.28.29,1.7.86-.95.47-1.35-.15-1.7-.86Z"/>
  <path class="cls-66" d="m626.07,404.92c-.69-.41-1.38-.82-2.08-1.23-.66-.13-1.05-.6-1.39-1.12-.42-.94-.76-1.9-1.04-2.89-.07-.41-.03-.82.12-1.21.25-.11.49-.22.74-.32.35.37.7.73,1.04,1.1.58.46,1.15.93,1.73,1.39-.17.36-.07.6.3.74,0,0,.4-.05.4-.05.06,1.2.12,2.39.18,3.59Z"/>
  <path class="cls-37" d="m738.3,439.63c-.51.33-1.03.65-1.54.98-.35-.62-.99-1.33-.11-1.9.9-.58,1.23.36,1.65.92Z"/>
  <path class="cls-45" d="m687.43,430.92c.25.48.5.95.75,1.43-1.38-.05-2.62,1.12-4.07.49-.04-.18-.08-.37-.12-.55.14-1.2,1.06-1.43,2.02-1.61.37,0,.75.03,1.11.1l.31.15Z"/>
  <path class="cls-51" d="m687.22,434.2c.12.22.24.44.38.65-.49.32-.99.64-1.48.97-.56-1.18-.81-2.14,1.11-1.62Z"/>
  <path class="cls-64" d="m681.66,430.96c.33-.16.65-.32.98-.49.18.14.36.28.54.42-.03.22-.07.45-.1.67-.21.08-.42.16-.64.24l-.39.22-.36.26c-.23-.09-.46-.18-.7-.28,0-.25-.01-.5-.02-.75.23-.1.46-.2.69-.3Z"/>
  <path class="cls-97" d="m681.03,431.51c.22.26.43.52.65.78.06.52.03,1-.41,1.37-.23-.12-.37-.31-.4-.57-.42-.22-.63-.55-.6-1.03l-.11-.04c.12-.47.41-.63.87-.5Z"/>
  <path class="cls-165" d="m682.43,431.81c.16-.16.35-.26.57-.3.92-.04,1.17.53,1.2,1.3l-.09.02c-.87.16-1.33-.34-1.68-1.03Z"/>
  <path class="cls-169" d="m492.59,442.57c-.25.19-.5.39-.76.58-.31.84-1.07.69-1.72.77-.49,0-.98-.02-1.46-.04-.45,0-.9-.06-1.35-.12-.28-.04-.56-.05-.84-.02,0,0-.39.15-.39.15l-.34.24c-1.3-.09-1.38-1.34-1.97-2.09.19-.18.37-.35.55-.53v-.03c-.15-.23-.28-.48-.39-.73,1.87-1.47,4.29-2.06,5.99-3.78.59.32,1.17.64,1.76.96,0,.26.13.44.36.56-.37,1.08.17,1.94.68,2.81-.36.39-.34.83-.13,1.28Z"/>
  <path class="cls-124" d="m499.09,526.18q1.67-1.86,4.24.87c-.9.11-1.78.22-2.66.33-.84.02-1.39-.34-1.58-1.2Z"/>
  <path class="cls-131" d="m681.03,431.51c-.29.17-.58.33-.87.5-.01-.3-.13-.55-.33-.76.19-.16.36-.35.49-.56.16.03.33.07.5.1.03.17.07.34.1.5l.12.22Z"/>
  <path class="cls-87" d="m677.6,429.63s.21.34.21.34c-.26.27-.52.66-.82.06-.01-.02.4-.26.61-.4Z"/>
  <path class="cls-250" d="m520.21,533.25c-.89.3-1.55.05-1.3-.94.23-.92.96-.98,1.66-.31-.22.39-.21.84-.35,1.25Z"/>
  <path class="cls-129" d="m520.21,533.25c.12-.42.23-.83.35-1.25.45.58.24.97-.35,1.25Z"/>
  <path class="cls-255" d="m680.27,432.05c.2.34.4.69.6,1.03-.39-.02-.78-.05-1.17-.07.19-.32.38-.64.57-.96Z"/>
  <path class="cls-76" d="m580.28,375.62c-.22.12-.43.24-.65.36,0-.24-.02-.47-.02-.71l.67.35Z"/>
  <path class="cls-134" d="m559.81,427.6c-.51.21-1.11.69-1.5.55-.54-.18-.64-.85-.16-1.39.28-.2.6-.27.94-.21.13.1.27.2.4.3.17.22.28.47.33.75Z"/>
  <path class="cls-144" d="m560.15,425.14c.64-.1,1.19.03,1.63.54-.76.39-1.53.79-2.29,1.18,0,0-.1-.16-.1-.16-1.03-1.16-.17-1.37.77-1.56Z"/>
  <path class="cls-85" d="m583.42,465.3c-.11-.7-.63-1.49.35-1.97.14-.07.57.19.67.39.53,1.09-.51,1.18-1.07,1.57h.05Z"/>
  <path class="cls-81" d="m560.15,425.14c-.53.38-.9.85-.77,1.56-.41.02-.82.05-1.23.07-.52-1-2.01-.89-2.37-2.08,1.43.24,2.61-1.96,4.17-.43.05.3.12.59.21.88Z"/>
  <path class="cls-266" d="m517.4,508.79c.16.23.33.44.52.65-.48.15-.91.08-1.26-.3.25-.12.5-.23.75-.35Z"/>
  <path class="cls-30" d="m621.69,398.47c.17.32.34.64.5.97-.24.66-.73.99-1.41,1.07-.42-.11-.76-.33-1.04-.67-.07-.2-.15-.39-.22-.59.04-.21.07-.42.11-.62.51-.25,1.01-.5,1.52-.74.19.19.37.39.54.59Z"/>
  <path class="cls-257" d="m618.11,399.79c-.45-.15-.9-.3-1.35-.45.94-.33,1.62-1.65,2.87-.72,0,0-.02.06-.02.06-.02.38-.16.71-.44.97-.34.17-.69.21-1.06.13Z"/>
  <path class="cls-100" d="m590.47,425.5c-.07.31-.13.62-.2.93.07-.31.13-.62.2-.93Z"/>
  <path class="cls-20" d="m525.7,436.63c.31-.22.62-.44.93-.66.19.33.37.67.56,1-.55.13-1.08.17-1.49-.34Z"/>
  <path class="cls-46" d="m487.27,442.83c.46.09.93.19,1.39.28.27.04.45.18.56.42,0,0,.21.27.2.26s.23-.25.23-.25.24-.23.24-.23c.65-.05,1.29-.11,1.94-.16.18.22.33.45.45.71-1.23,1.32-2.64,2.36-4.42,2.82-.35-.44-.7-.88-1.05-1.31.23-.78-.5-1.36-.42-2.11.18-.37.48-.51.88-.42Z"/>
  <path class="cls-93" d="m486.51,443.4c.39.61.78,1.22.3,1.96-.36-.41-.72-.82-1.08-1.23,0,0,.13-.35.13-.35.03-.44.24-.57.64-.38Z"/>
  <path class="cls-63" d="m650.6,407.3c1.74.8,1.78-.88,2.44-1.66,1.31-.73,2.69-.17,4.03-.18.32.47.64.95.95,1.42-.06.43-.11.87-.17,1.3-.37.61-.91.56-1.48.42-.4-.07-.83-.44-1.21.07-.11.48-.32.88-.66,1.22-.26.19-.54.34-.85.45-.44.15-.89.28-1.34.4,0,0-.41.2-.41.2-.51.33-1.02.67-1.53,1-.46.25-.94.26-1.44.17-.5-.11-.93-.33-1.26-.73.11-1.03.73-1.63,1.68-1.87,1.1-.27.9-.95.62-1.69-.04-.47.17-.65.63-.53Z"/>
  <path class="cls-140" d="m487.32,575.09c.01.08.03.2.04.31-.19,0-.38,0-.56,0,.03-.15.05-.29.08-.44.14.04.29.08.44.12Z"/>
  <path class="cls-199" d="m594.65,421.58c-.18-.27-.37-.54-.55-.8.02-1.11-.66-1.78-1.49-2.35.54-.32,1.07-.64,1.61-.96h-.03c1.84-.05,3.5.14,3.28,2.65-.19,2.19,2.22,3.81,1.35,6.15-.29.61-.58,1.23-.87,1.84-.16-.19-.34-.37-.52-.55q-3.52-2.14-2.77-5.98Z"/>
  <path class="cls-19" d="m731.63,424.14c.48-.29.95-.59,1.43-.88.36.58,1.19,1.19.19,1.81-.94.59-1.23-.36-1.62-.93Z"/>
  <path class="cls-157" d="m533.55,521.27c1.11-.72,2.13.12,3.2.19.18.26.37.52.55.78-.76.45-1.52.9-2.28,1.35-.19-.25-.38-.51-.57-.76-.11-.15-.21-.31-.32-.46-.19-.36-.39-.72-.58-1.09Z"/>
  <path class="cls-91" d="m656.53,407.88c.44.1.88.2,1.32.3.14.28.29.55.43.83-.05.94.34,1.91-.18,2.82-.21.34-.47.63-.77.89-.49.36-1.04.57-1.65.6-.4-.07-.75-.23-1.08-.47-.44-.41-.74-.91-.9-1.49-.05-.38.02-.75.22-1.08.74-.55,1.46-1.13,1.63-2.13.27-.28.59-.37.97-.27Z"/>
  <path class="cls-192" d="m515.49,543.1c.16.27.31.54.47.81.33,1.68.77,3.41-1.81,3.65-1.07-.19-1.71-.81-1.89-1.89.05-.24.1-.47.16-.71,1.03-.62,2.05-1.25,3.08-1.87Z"/>
  <path class="cls-192" d="m657.76,411.36c-.09-.84.04-1.63.52-2.35.37.45.75.9,1.12,1.35l-.09.44c-.12.32-.33.56-.63.72-.33.1-.64.05-.92-.17Z"/>
  <path class="cls-182" d="m557.69,546.38c-.42-.05-.85-.11-1.27-.16-.32-.46-.63-.91-.95-1.37.66-1.17.1-3.07,2.06-3.46.41-.05.8.02,1.16.21h.02c1.21.89.71,2.38,1.23,3.5-.76.43-1.51.85-2.27,1.28Z"/>
  <path class="cls-223" d="m558.7,541.6c-.39-.07-.78-.14-1.16-.21.19-.23.41-.41.68-.54.22.21.38.46.49.75Z"/>
  <path class="cls-137" d="m658.5,411.22c.25-.19.51-.33.81-.42.53.68,1.06,1.36,1.59,2.05-.06.2-.13.4-.19.61-.21-.02-.42-.03-.63-.05-.53.46-1.22.83-1.03,1.73-.24.17-.47.34-.7.52-.92,1.11-1.46.29-2.03-.4-.37-.9-.02-1.66.5-2.37.5-.61,1.41-.81,1.68-1.66Z"/>
  <path class="cls-171" d="m656.45,414.64c.47.64,1.05,1.09,1.9,1.01-.41,1.13-.79,2.31-2.41,1.52v.03c.15-.55-.07-1.02-.28-1.5-.07-.6.12-1.01.79-1.06Z"/>
  <path class="cls-189" d="m766.06,366.38c.03-.43.07-.87.1-1.3.35-.98.78-1.9,1.86-2.3,1.54.59,3.55.53,3.79,2.85-.02.43-.05.86-.07,1.29l-.33.23-.37.16c-.65.09-1.36.08-1.6.9l-.32.26-.35.22c-.52-.46-1.08-.84-1.83-.78-.29-.51-.58-1.02-.88-1.53Z"/>
  <path class="cls-200" d="m598.81,426.26c-.51-2.46-3.42-4.07-2.22-7.25.42-1.1-1.76-.71-2.41-1.55.44-.34.88-.69,1.31-1.03.19-.04.37-.12.51-.25,1.48.34,1.89,3,4.05,1.89.67.6-.03,1.39.29,2.04-.08.33-.15.67-.23,1,.13.39.01.89.48,1.14.04.26.15.49.32.69-.06,1.2-1.01,1.96-1.47,2.96-.21.14-.42.26-.64.37Z"/>
  <path class="cls-149" d="m523.24,468.63c.13.17.28.32.44.46-.53,1.14-1.11,1.84-1.96.23.51-.23,1.01-.46,1.52-.68Z"/>
  <path class="cls-88" d="m721.06,394.52c.92.78,1.37,1.84,1.75,2.93-.74.48-1.48.96-2.21,1.43-1.54-.62-.96-1.87-.87-2.97,0-.9.73-1.09,1.33-1.4Z"/>
  <path class="cls-269" d="m719.72,395.92c.29.99.58,1.98.87,2.97-.53.63-1.25.27-1.88.35-.34-.51-.69-1.02-1.03-1.53.11-.42.22-.84.34-1.26.57-.18,1.13-.36,1.7-.53Z"/>
  <path class="cls-62" d="m625.49,401.38c-.33.05-.5-.08-.47-.39.01-.12.11-.23.17-.34.16.22.26.47.3.74Z"/>
  <path class="cls-265" d="m513.91,547.45c1.57-.67,1.73-2.15,2.04-3.54.58.39,1.17.78,1.75,1.17-.03.23.05.41.24.55-.3.36-.6.71-.91,1.07-.41.33-.51.8-.57,1.29h0c-.27.19-.54.38-.8.57h.02c-.41-.21-.85-.28-1.28-.35h0c-.31-.05-.49-.17-.53-.39-.04-.21-.03-.34.04-.39h0Z"/>
  <path class="cls-192" d="m516.47,548c-.12-.57.06-1,.57-1.29.06.54-.07,1-.57,1.29Z"/>
  <path class="cls-264" d="m563.39,522.81c-.07-.19-.19-.35-.33-.49.44-.36.89-.71,1.33-1.07.4.99-.31,1.26-.99,1.55Z"/>
  <path class="cls-11" d="m577.33,377.7c.46.66.55,1.33.06,2.01-.27-.51-.55-1.02-.82-1.53.22-.21.48-.37.76-.49Z"/>
  <path class="cls-224" d="m769.43,368.21c-.09-.37-.37-.99-.25-1.07.61-.45,1.24-.08,1.85.17-.37.59-.91.87-1.6.9Z"/>
  <path class="cls-29" d="m741.48,430.96c-.43.26-.86.28-1.27-.04.25-.21.5-.42.75-.62.2.2.38.42.52.66Z"/>
  <path class="cls-104" d="m600.6,422.25c-.92-.06-.82-.54-.48-1.14.24-.07.48-.14.72-.21.24.51.18.96-.24,1.35Z"/>
  <path class="cls-223" d="m559.95,545.1c-1.96-.61-.94-2.28-1.23-3.49.24-.12.48-.22.73-.3.49.68.98,1.35,1.47,2.03-.05.43-.1.87-.15,1.3-.27.15-.55.3-.82.45Z"/>
  <path class="cls-12" d="m723.82,382.92c.66-.42,1.32-.85,1.98-1.27.84.43,1.27,1.18,1.59,2.02-.44.84-.86,1.7-1.81,2.12-.82-.81-1.46-1.74-1.76-2.87Z"/>
  <path class="cls-26" d="m528.87,524.4c.23-.16.48-.3.73-.43.79-.5,1.57-1.01,2.36-1.51h-.05c.58,1.43-.35,2.23-1.29,3.03-.95.23-1.25-.6-1.75-1.08Z"/>
  <path class="cls-54" d="m531.35,431.72c-.53.24-1.21.54-1.56-.04-.54-.89.34-1.23.91-1.63.22.56.43,1.12.65,1.67Z"/>
  <path class="cls-108" d="m487.46,454.92c.19.23.36.48.51.75-.52.32-.96.27-1.29-.27.25-.17.52-.33.78-.48Z"/>
  <path class="cls-192" d="m513.91,547.45c.21.22.38.48.49.77-.25.07-.49.16-.73.26-.17-.18-.37-.34-.58-.47.27-.19.55-.38.82-.57Z"/>
  <path class="cls-192" d="m514.41,548.22c.43.11.86.22,1.28.33-.55.35-.95.15-1.28-.33Z"/>
  <path class="cls-106" d="m690.07,423.44c.2.18.33.41.39.67-.03.93-.57,1.17-1.39,1.03l-.02.02c-.28-.07-.44-.21-.48-.41-.05-.2-.04-.32.02-.36.5-.32,1-.63,1.5-.95Z"/>
  <path class="cls-138" d="m688.58,424.39c.15.26.31.52.47.78-.25.17-.5.34-.75.51-.31-.52-.16-.94.28-1.29Z"/>
  <path class="cls-128" d="m687.49,426.19c-.45.14-.86.09-1.19-.28.47-.22.88-.19,1.19.28Z"/>
  <path class="cls-2" d="m689.66,419.25c.17.26.34.52.52.79-.78.14-.99-.1-.52-.79Z"/>
  <path class="cls-268" d="m683.09,428.04c.08,1.23-.91,1.58-1.71,2.08-.15-1.29.87-1.61,1.71-2.08Z"/>
  <path class="cls-90" d="m680.91,431.29c-.03-.17-.07-.34-.1-.5.09-.19.23-.34.42-.42.18.17.33.37.42.6,0,0-.33.25-.33.25l-.41.07Z"/>
  <path class="cls-195" d="m561.19,417.77c.36.55.72,1.1,1.09,1.64-.69.08-1.38.16-2.07.24h.02c-.33-.07-.55-.23-.65-.49-.1-.26-.12-.41-.06-.45.41-.57.92-.98,1.67-.95Z"/>
  <path class="cls-48" d="m559.73,418.89c.17.26.34.51.5.77-.73.36-1.48.55-2.28.23-.53-.34-1.06-.68-1.59-1.02.09-.44.18-.88.28-1.32.62-1.16,1.29-1.56,2.12-.18.17.21.31.43.44.66.61.01.79.29.53.85Z"/>
  <path class="cls-44" d="m531.96,522.46c.04-.19.08-.38.13-.57.03.09.1.2.07.27-.05.11-.16.2-.24.3,0,0,.05,0,.05,0Z"/>
  <path class="cls-82" d="m534.13,522.36c.09.17.19.33.32.47-.22.04-.45.08-.67.12.12-.19.24-.39.36-.58Z"/>
  <path class="cls-126" d="m527.33,518.78c-.25.17-.5.35-.75.52-.27.16-.54.32-.82.48-.14-.25-.3-.5-.47-.73.52-.34,1.04-.69,1.56-1.03.18.25.34.5.48.76Z"/>
  <path class="cls-114" d="m684.2,432.82c-.4-.43-.8-.87-1.2-1.3l.12-.4c.28-.64.75-.95,1.46-.87.3-.21.6-.43.9-.64.14-.46.39-.52.74-.2.18.21.34.44.49.67-.07.39-.15.77-.26,1.15-.95.26-1.86.56-2.25,1.6Z"/>
  <path class="cls-86" d="m686.22,429.4c-.25.05-.5.11-.74.2-.14-.48-.02-1.02.44-1.07.79-.07.42.49.3.87Z"/>
  <path class="cls-186" d="m684.58,430.24c-.49.29-.97.58-1.46.87-.18-.19-.35-.4-.49-.63.61-.37,1.23-.74,1.95-.24Z"/>
  <path class="cls-99" d="m686.45,431.22c-.19-.44-.04-.81.26-1.15.25.17.39.4.41.7l-.32.24-.35.2Z"/>
  <path class="cls-202" d="m693.44,423.46c.16.25.33.5.5.74-.24.16-.48.33-.72.49-.49.1-1.09.07-1.13-.45-.08-.98.87-.55,1.35-.78Z"/>
  <path class="cls-188" d="m689.07,425.14c.46-.34.93-.69,1.39-1.03.19.23.37.46.56.69-.45.39-.91.78-1.36,1.17-.2-.28-.39-.55-.59-.83Z"/>
  <path class="cls-31" d="m526.31,433.91c.24.27.49.54.73.81-.14.43-.29.86-.44,1.3-.34-.52-.69-1.03-1.03-1.55.08-.4.33-.58.74-.56Z"/>
  <path class="cls-127" d="m526.31,433.91c-.26.17-.5.36-.74.56-.11-.65,0-1.01.74-.56Z"/>
  <path class="cls-151" d="m559.73,418.89c-.18-.28-.35-.57-.53-.85.51-.33,1.03-.66,1.54-.98.15.24.3.48.46.72-.49.37-.98.74-1.47,1.12Z"/>
  <path class="cls-8" d="m681.42,398.07c.15-.02.4-.08.42-.04.12.29-.04.3-.42.03h0Z"/>
  <path class="cls-193" d="m516.5,515.87c-.48.29-.97.59-1.45.88-.38-.59-.78-1.18-.25-1.89.44.05.92-.19,1.33.15.12.29.24.57.37.86Z"/>
  <path class="cls-266" d="m516.14,515.01c-.44-.05-.89-.1-1.33-.15.25-.21.49-.41.74-.62.64-.09.97.07.6.77Z"/>
  <path class="cls-226" d="m519.05,518.24c-.3.3-.56.2-.82-.06.29-.12.56-.1.82.06Z"/>
  <path class="cls-63" d="m656.45,414.64c-.08.42-.15.84-.23,1.26-.1.37-.36.54-.74.52-.38-.54-.76-1.08-1.13-1.62-.67-.22-1.2.56-1.87.26-.57-.12-.83-.48-.38-.9,1.26-1.19.47-2.19-.2-3.22l.02-.06c.19-.64.63-.95,1.28-.97l.37.04c.32.06.49.19.49.4,0,.2-.04.32-.12.37v-.05c-.16.71.23,1.24.58,1.78.28.26.32.94.97.56.52-.33,1.04-.66,1.56-.99.37.03.55.17.56.39,0,.22-.03.36-.13.42-.35.6-.7,1.21-1.04,1.81Z"/>
  <path class="cls-176" d="m647.67,411.38c.47.1.93.19,1.4.29,1.03.4,1.5,1.19,1.58,2.26-1.39.36-2.42-.17-3.21-1.29.08-.42.16-.84.23-1.26Z"/>
  <path class="cls-166" d="m650.65,413.93c-.53-.75-1.05-1.51-1.58-2.26.43.09.87.18,1.3.27.71.58,1.67,1.12.28,1.99Z"/>
  <path class="cls-17" d="m653.61,415.34c.69.95.88,1.8-.48,2.33-.04-.65-.07-1.3-.11-1.95,0-.44.21-.55.59-.38Z"/>
  <path class="cls-67" d="m648.66,419.8c-.11-.44-.21-.87-.32-1.31,1.14.14.45.83.4,1.32,0,0-.08-.01-.08-.01Z"/>
  <path class="cls-21" d="m653.61,415.34l-.29.2s-.3.18-.3.18c-.17-.22-.35-.45-.53-.66.58-.43,1.16-.79,1.87-.26-.24.2-.49.38-.75.54Z"/>
  <path class="cls-179" d="m504.41,522.64c-.86.5-1.81.77-2.3-.32-.57-1.26.65-.9,1.22-1.1.87.08,1.19.59,1.08,1.42Z"/>
  <path class="cls-16" d="m504.41,522.64c-.36-.47-.72-.95-1.08-1.42.67-1.64.99-.08,1.45.16.36.15.47.42.37.79l-.38.23-.37.25Z"/>
  <path class="cls-240" d="m507.3,518.47c.17.48.78.95.15,1.46-.14.11-.64.02-.74-.13-.47-.71.35-.91.61-1.33h-.02Z"/>
  <path class="cls-133" d="m505.16,522.16c-.16-.25-.28-.51-.37-.79.95-.13.69.32.37.79Z"/>
  <path class="cls-236" d="m509.09,522.94c-.19-.03-.39-.07-.59-.1.08-.02.18-.09.25-.07.12.04.22.13.33.19v-.03Z"/>
  <path class="cls-228" d="m650.6,407.3c-.23.15-.44.33-.63.53-.23-.14-.45-.27-.68-.41.32-.29.64-.58.96-.87.19.22.31.47.35.76Z"/>
  <path class="cls-190" d="m618.11,399.79c.27-.18.54-.36.8-.54.37.05.73.11,1.09.18.22.29.44.57.66.86.8.08,1.7-.02,1.94,1.08-.2.65-.64,1.04-1.28,1.24-.68.13-1.18-.3-1.74-.55-.49-.76-.99-1.52-1.48-2.28Z"/>
  <path class="cls-167" d="m622.91,402.07c.36.54.72,1.08,1.08,1.62-.72.1-1.44.2-2.16.29-.13.48-.38.59-.78.26-.16-.22-.31-.44-.45-.66.06-.19.12-.38.18-.58.47-.38.98-.69,1.52-.97.2.01.4.02.6.03Z"/>
  <path class="cls-227" d="m621.05,404.24c.26-.08.52-.17.78-.26.12.67.39,1.63-.57,1.64-.68,0-.46-.85-.21-1.38Z"/>
  <path class="cls-98" d="m617.2,410.27c-.01-.3-.09-.62-.03-.9.09-.4.28-.77.42-1.15.13.07.32.11.39.22.28.44.12.83-.19,1.18-.2.22-.42.43-.63.65h.04Z"/>
  <path class="cls-52" d="m620.16,408.73c.09-.11.15-.28.26-.33.43-.15.58,0,.38.37-.06.1-.25.17-.39.17-.08,0-.17-.14-.25-.22Z"/>
  <path class="cls-217" d="m619.59,402.06c.46-.16.87-.11,1.2.27-.03.18-.06.35-.1.53-.18-.01-.36-.03-.53-.04-.19-.25-.38-.5-.57-.76Z"/>
  <path class="cls-167" d="m620.61,403.58c-.81.13-.87-.17-.45-.76,0,0,.05.05.05.05.31.01.47.12.49.31.02.19,0,.31-.08.36v.04Z"/>
  <polygon class="cls-98" points="617.16 410.26 617.11 410.52 617.2 410.27 617.16 410.26"/>
  <path class="cls-25" d="m655.49,416.42c.22-.21.47-.38.74-.52.22.5.08.93-.29,1.3-.14-.27-.29-.52-.45-.78Z"/>
  <path class="cls-75" d="m539.72,393.34c.67-.48,1.31-1.03,2.23-.7-.18.72-.25,1.6-1.13,1.77-.67.13-1.06-.38-1.11-1.07Z"/>
  <path class="cls-191" d="m622.3,401.48c-.55-.4-1.09-.8-1.64-1.19.51-.28,1.02-.57,1.53-.85.46.82,1.57,1.46.72,2.63l.02.03c-.31.03-.5-.05-.59-.25-.09-.21-.1-.34-.04-.38Z"/>
  <path class="cls-246" d="m486.51,443.4c-.22.11-.44.24-.64.38-.08-1.12.38-1.45,1.4-.96-.25.19-.51.38-.76.57Z"/>
  <path class="cls-246" d="m484.33,441.48c.14,0,.39-.06.41-.01.11.29-.04.31-.41.05v-.03Z"/>
  <path class="cls-246" d="m489.12,443.85c-.15-.25-.31-.49-.46-.74.41.07.82.13,1.24.2l-.02.11c-.07.18-.14.35-.2.53-.19-.03-.37-.06-.56-.09Z"/>
  <path class="cls-261" d="m620.01,399.43c-.42.29-.78.2-1.09-.18.19-.24.42-.43.7-.57.12.26.25.51.4.75Z"/>
  <path class="cls-246" d="m489.62,444.62c-.37.1-.62-.02-.65-.35-.01-.13.1-.28.15-.42h.03c.28.06.44.2.49.4.05.2.04.33-.02.36Z"/>
  <path class="cls-169" d="m489.62,444.62c-.16-.25-.32-.51-.48-.76.24-.16.48-.31.73-.44-.09.4-.17.8-.26,1.2Z"/>
  <path class="cls-241" d="m656.53,407.88l-.29.19-.3.18c-.48.47-.89.12-1.31-.1-.53-.12-.92-.4-.35-.85.94-.75,1.66-.21,2.25.59Z"/>
  <path class="cls-38" d="m654.63,408.15c.44.03.88.07,1.31.1.12,1.46-1.19,1.76-2,2.47-.17-.24-.3-.49-.37-.77.58-.47,1.08-.98,1.06-1.8Z"/>
  <path class="cls-187" d="m653.21,409.9c-.43.32-.86.65-1.28.97-.09-1.01.19-1.53,1.28-.97Z"/>
  <path class="cls-205" d="m654.18,412.71c-.44-.64-.83-1.29-.23-2.04.32.51.64,1.02.96,1.53.03.56-.22.73-.73.51Z"/>
  <path class="cls-171" d="m654.18,412.71c.24-.18.48-.35.73-.51.2.27.39.54.59.81-.79,1.46-.91-.07-1.32-.29Z"/>
  <path class="cls-258" d="m657.5,412.82c-.15-.27-.29-.54-.44-.81.23-.22.47-.44.7-.65.25-.03.5-.08.74-.14.16.85-.34,1.28-1,1.6Z"/>
  <path class="cls-256" d="m622.3,401.48c.21.2.42.41.63.62-.77.48-1.54.96-2.31,1.43-.12-.23-.26-.45-.41-.67.23-.14.42-.32.59-.54.5-.28,1-.57,1.51-.85Z"/>
</svg>