<?xml version="1.0" encoding="UTF-8"?>
<svg id="Layer_1" data-name="Layer 1" xmlns="http://www.w3.org/2000/svg" viewBox="0 0 1143.62 1031.16">
  <defs>
    <style>
      .cls-1 {
        fill: #f6f1cc;
      }

      .cls-2 {
        fill: #a68d69;
      }

      .cls-3 {
        fill: #c1b292;
      }

      .cls-4 {
        fill: #d7b67b;
      }

      .cls-5 {
        fill: #bd8132;
      }

      .cls-6 {
        fill: #d6b787;
      }

      .cls-7 {
        fill: #d2b77d;
      }

      .cls-8 {
        fill: #cab782;
      }

      .cls-9 {
        fill: #e7d8b6;
      }

      .cls-10 {
        fill: #917b3e;
      }

      .cls-11 {
        fill: #e5dcbe;
      }

      .cls-12 {
        fill: #d7ad7a;
      }

      .cls-13 {
        fill: #eed793;
      }

      .cls-14 {
        fill: #a69168;
      }

      .cls-15 {
        fill: #f4e6c9;
      }

      .cls-16 {
        fill: #e7d4aa;
      }

      .cls-17 {
        fill: #f4efd6;
      }

      .cls-18 {
        fill: #d9ceb0;
      }

      .cls-19 {
        fill: #dfc19b;
      }

      .cls-20 {
        fill: #a0865f;
      }

      .cls-21 {
        fill: #f3f2bc;
      }

      .cls-22 {
        fill: #d4b166;
      }

      .cls-23 {
        fill: #f9d38f;
      }

      .cls-24 {
        fill: #b6957b;
      }

      .cls-25 {
        fill: #f5f8dd;
      }

      .cls-26 {
        fill: #d4b165;
      }

      .cls-27 {
        fill: #755220;
      }

      .cls-28 {
        fill: #d9bd7d;
      }

      .cls-29 {
        fill: #dfcda2;
      }

      .cls-30 {
        fill: #bba376;
      }

      .cls-31 {
        fill: #8d7143;
      }

      .cls-32 {
        fill: #a2946b;
      }

      .cls-33 {
        fill: #f0edcf;
      }

      .cls-34 {
        fill: #eee2bc;
      }

      .cls-35 {
        fill: #a69568;
      }

      .cls-36 {
        fill: #eed8c2;
      }

      .cls-37 {
        fill: #dccdab;
      }

      .cls-38 {
        fill: #a57a3e;
      }

      .cls-39 {
        fill: #b89c71;
      }

      .cls-40 {
        fill: #ede8af;
      }

      .cls-41 {
        fill: #b9a276;
      }

      .cls-42 {
        fill: #d2a85f;
      }

      .cls-43 {
        fill: #e3d5b4;
      }

      .cls-44 {
        fill: #d4b695;
      }

      .cls-45 {
        fill: #c1aa83;
      }

      .cls-46 {
        fill: #c1b083;
      }

      .cls-47 {
        fill: #af7733;
      }

      .cls-48 {
        fill: #dabe80;
      }

      .cls-49 {
        fill: #ab7129;
      }

      .cls-50 {
        fill: #e8dfb3;
      }

      .cls-51 {
        fill: #e3cca6;
      }

      .cls-52 {
        fill: #e5e2a2;
      }

      .cls-53 {
        fill: #bca37c;
      }

      .cls-54 {
        fill: #af9b81;
      }

      .cls-55 {
        fill: #eee9b5;
      }

      .cls-56 {
        fill: #efe4c0;
      }

      .cls-57 {
        fill: #d7c186;
      }

      .cls-58 {
        fill: #ddc07d;
      }

      .cls-59 {
        fill: #f3e2d2;
      }

      .cls-60 {
        fill: #9d825d;
      }

      .cls-61 {
        fill: #8f7148;
      }

      .cls-62 {
        fill: #9e875f;
      }

      .cls-63 {
        fill: #debe85;
      }

      .cls-64 {
        fill: #d4c39f;
      }

      .cls-65 {
        fill: #968247;
      }

      .cls-66 {
        fill: #d3b564;
      }

      .cls-67 {
        fill: #d3ab61;
      }

      .cls-68 {
        fill: #e3d1a8;
      }

      .cls-69 {
        fill: #dbbe8d;
      }

      .cls-70 {
        fill: #ac9342;
      }

      .cls-71 {
        fill: #d8c7b1;
      }

      .cls-72 {
        fill: #e4cca0;
      }

      .cls-73 {
        fill: #bb9346;
      }

      .cls-74 {
        fill: #9b845b;
      }

      .cls-75 {
        fill: #ac9859;
      }

      .cls-76 {
        fill: #9d9871;
      }

      .cls-77 {
        fill: #dbc697;
      }

      .cls-78 {
        fill: #8a7d68;
      }

      .cls-79 {
        fill: #e7dbb4;
      }

      .cls-80 {
        fill: #bb9d62;
      }

      .cls-81 {
        fill: #e1bd57;
      }

      .cls-82 {
        fill: #d2b591;
      }

      .cls-83 {
        fill: #9c815a;
      }

      .cls-84 {
        fill: #c6932c;
      }

      .cls-85 {
        fill: #cba980;
      }

      .cls-86 {
        fill: #987e2e;
      }

      .cls-87 {
        fill: #c8a447;
      }

      .cls-88 {
        fill: #dfd8b9;
      }

      .cls-89 {
        fill: #9f9448;
      }

      .cls-90 {
        fill: #998054;
      }

      .cls-91 {
        fill: #d7b875;
      }

      .cls-92 {
        fill: #c5a260;
      }

      .cls-93 {
        fill: #9f9362;
      }

      .cls-94 {
        fill: #fff6da;
      }

      .cls-95 {
        fill: #e5e2b1;
      }

      .cls-96 {
        fill: #d7bd9f;
      }

      .cls-97 {
        fill: #ceab54;
      }

      .cls-98 {
        fill: #f1e2b7;
      }

      .cls-99 {
        fill: #f6e9d8;
      }

      .cls-100 {
        fill: #ae8f41;
      }

      .cls-101 {
        fill: #d7b374;
      }

      .cls-102 {
        fill: #ede19f;
      }

      .cls-103 {
        fill: #efe7b0;
      }

      .cls-104 {
        fill: #b59f86;
      }

      .cls-105 {
        fill: #9e8651;
      }

      .cls-106 {
        fill: #f3e6d0;
      }

      .cls-107 {
        fill: #e6dab0;
      }

      .cls-108 {
        fill: #c2968b;
      }

      .cls-109 {
        fill: #d8b47a;
      }

      .cls-110 {
        fill: #bc974b;
      }

      .cls-111 {
        fill: #ae9454;
      }

      .cls-112 {
        fill: #bcc9b4;
      }

      .cls-113 {
        fill: #8c8577;
      }

      .cls-114 {
        fill: #e4d4a7;
      }

      .cls-115 {
        fill: #d0c6a8;
      }

      .cls-116 {
        fill: #a18a58;
      }

      .cls-117 {
        fill: #f4eed5;
      }

      .cls-118 {
        fill: #866628;
      }

      .cls-119 {
        fill: #d3b47c;
      }

      .cls-120 {
        fill: #dec491;
      }

      .cls-121 {
        fill: #e8dfb8;
      }

      .cls-122 {
        fill: #93762c;
      }

      .cls-123 {
        fill: #d6c089;
      }

      .cls-124 {
        fill: #947f3f;
      }

      .cls-125 {
        fill: #eae2c8;
      }

      .cls-126 {
        fill: #d1b373;
      }

      .cls-127 {
        fill: #d7ca9a;
      }

      .cls-128 {
        fill: #b37351;
      }

      .cls-129 {
        fill: #ac8a41;
      }

      .cls-130 {
        fill: #f6f9e6;
      }

      .cls-131 {
        fill: #c1aa86;
      }

      .cls-132 {
        fill: #937d4f;
      }

      .cls-133 {
        fill: #85764a;
      }

      .cls-134 {
        fill: #cbbb9c;
      }

      .cls-135 {
        fill: #a38243;
      }

      .cls-136 {
        fill: #ddc38a;
      }

      .cls-137 {
        fill: #d7b453;
      }

      .cls-138 {
        fill: #b77133;
      }

      .cls-139 {
        fill: #ceb230;
      }

      .cls-140 {
        fill: #d19d43;
      }

      .cls-141 {
        fill: #d6b29c;
      }

      .cls-142 {
        fill: #e8e1c0;
      }

      .cls-143 {
        fill: #957e49;
      }

      .cls-144 {
        fill: #a5965b;
      }

      .cls-145 {
        fill: #ece6c0;
      }

      .cls-146 {
        fill: #906e3d;
      }

      .cls-147 {
        fill: #eadcbf;
      }

      .cls-148 {
        fill: #c3bb92;
      }

      .cls-149 {
        fill: #ece3b5;
      }

      .cls-150 {
        fill: #b19967;
      }

      .cls-151 {
        fill: #d7c078;
      }

      .cls-152 {
        fill: #cea155;
      }

      .cls-153 {
        fill: #b0955b;
      }

      .cls-154 {
        fill: #e5c162;
      }

      .cls-155 {
        fill: #d8bf8c;
      }

      .cls-156 {
        fill: #fff3d6;
      }

      .cls-157 {
        fill: #dcbc83;
      }

      .cls-158 {
        fill: #d6c3a7;
      }

      .cls-159 {
        fill: #e8d5a8;
      }

      .cls-160 {
        fill: #dab475;
      }

      .cls-161 {
        fill: #e4e1bd;
      }

      .cls-162 {
        fill: #a98339;
      }

      .cls-163 {
        fill: #ecdcb9;
      }

      .cls-164 {
        fill: #c6992c;
      }

      .cls-165 {
        fill: #f9f5e8;
      }

      .cls-166 {
        fill: #c4a261;
      }

      .cls-167 {
        fill: #a38634;
      }

      .cls-168 {
        fill: #ad8954;
      }

      .cls-169 {
        fill: #ccad5b;
      }

      .cls-170 {
        fill: #c5b688;
      }

      .cls-171 {
        fill: #e1ca9f;
      }

      .cls-172 {
        fill: #aba091;
      }

      .cls-173 {
        fill: #b19561;
      }

      .cls-174 {
        fill: #c1aa7e;
      }

      .cls-175 {
        fill: #b09a65;
      }

      .cls-176 {
        fill: #e5e29d;
      }

      .cls-177 {
        fill: #f2e8ce;
      }

      .cls-178 {
        fill: #d2aa66;
      }

      .cls-179 {
        fill: #8f753a;
      }

      .cls-180 {
        fill: #b0915e;
      }

      .cls-181 {
        fill: #b68840;
      }

      .cls-182 {
        fill: #d6b16c;
      }

      .cls-183 {
        fill: #d4a854;
      }

      .cls-184 {
        fill: #f9f2dc;
      }

      .cls-185 {
        fill: #c7a36c;
      }

      .cls-186 {
        fill: #a1884d;
      }

      .cls-187 {
        fill: #ebdcc0;
      }

      .cls-188 {
        fill: #d3b992;
      }

      .cls-189 {
        fill: #daba84;
      }

      .cls-190 {
        fill: #d2b16e;
      }

      .cls-191 {
        fill: #896b2a;
      }

      .cls-192 {
        fill: #e0c694;
      }

      .cls-193 {
        fill: #e5dbab;
      }

      .cls-194 {
        fill: #d3ba73;
      }

      .cls-195 {
        fill: #93732b;
      }

      .cls-196 {
        fill: #9b9b9b;
      }

      .cls-197 {
        fill: #d5b371;
      }

      .cls-198 {
        fill: #c2af86;
      }

      .cls-199 {
        fill: #bca275;
      }

      .cls-200 {
        fill: #dfc28c;
      }

      .cls-201 {
        fill: #6d5220;
      }

      .cls-202 {
        fill: #dbc995;
      }

      .cls-203 {
        fill: #e9c984;
      }

      .cls-204 {
        fill: #a98f53;
      }

      .cls-205 {
        fill: #a48a30;
      }

      .cls-206 {
        fill: #b39e75;
      }

      .cls-207 {
        fill: #dacd68;
      }

      .cls-208 {
        fill: #c7a454;
      }

      .cls-209 {
        fill: #e8d6b2;
      }

      .cls-210 {
        fill: #d6cda1;
      }

      .cls-211 {
        fill: #d6afa1;
      }

      .cls-212 {
        fill: #8f6f3e;
      }

      .cls-213 {
        fill: #f0f5d9;
      }

      .cls-214 {
        fill: #c8b58e;
      }

      .cls-215 {
        fill: #bf8e63;
      }

      .cls-216 {
        fill: #b49865;
      }

      .cls-217 {
        fill: #907334;
      }

      .cls-218 {
        fill: #e6c569;
      }

      .cls-219 {
        fill: #e3d5a1;
      }

      .cls-220 {
        fill: #f9f6de;
      }

      .cls-221 {
        fill: #cea863;
      }

      .cls-222 {
        fill: #e8dbb6;
      }

      .cls-223 {
        fill: #d6cea2;
      }

      .cls-224 {
        fill: #ac8c57;
      }

      .cls-225 {
        fill: #e4cea7;
      }

      .cls-226 {
        fill: #c69a2c;
      }

      .cls-227 {
        fill: #e2d5b7;
      }

      .cls-228 {
        fill: #a98a54;
      }

      .cls-229 {
        fill: #cca42c;
      }

      .cls-230 {
        fill: #f5e7ca;
      }

      .cls-231 {
        fill: #dbd5b4;
      }

      .cls-232 {
        fill: #d1af80;
      }

      .cls-233 {
        fill: #a4853c;
      }

      .cls-234 {
        fill: #9c834c;
      }

      .cls-235 {
        fill: #d1ba88;
      }

      .cls-236 {
        fill: #fff5d6;
      }

      .cls-237 {
        fill: #e4a07c;
      }

      .cls-238 {
        fill: #a39359;
      }

      .cls-239 {
        fill: #c8b18c;
      }

      .cls-240 {
        fill: #967838;
      }

      .cls-241 {
        fill: #d7cea9;
      }

      .cls-242 {
        fill: #e8d7b1;
      }

      .cls-243 {
        fill: #d2ac61;
      }

      .cls-244 {
        fill: #e8d5ab;
      }

      .cls-245 {
        fill: #bc812b;
      }

      .cls-246 {
        fill: #c2af77;
      }

      .cls-247 {
        fill: #b59c70;
      }

      .cls-248 {
        fill: #ab8d6a;
      }

      .cls-249 {
        fill: #e6eedf;
      }

      .cls-250 {
        fill: #d3bd72;
      }

      .cls-251 {
        fill: #e3ce9e;
      }

      .cls-252 {
        fill: #e3caa3;
      }

      .cls-253 {
        fill: #edd9bd;
      }

      .cls-254 {
        fill: #cfa950;
      }

      .cls-255 {
        fill: #a86642;
      }

      .cls-256 {
        fill: #d8cd99;
      }

      .cls-257 {
        fill: #9b795b;
      }

      .cls-258 {
        fill: #a96728;
      }

      .cls-259 {
        fill: #fbeebd;
      }

      .cls-260 {
        fill: #af9546;
      }

      .cls-261 {
        fill: #e5e3b2;
      }

      .cls-262 {
        fill: #bc9d7e;
      }

      .cls-263 {
        fill: #ad873f;
      }

      .cls-264 {
        fill: #e4dca4;
      }

      .cls-265 {
        fill: #cca55d;
      }

      .cls-266 {
        fill: #dcbc8a;
      }

      .cls-267 {
        fill: #b16e4a;
      }

      .cls-268 {
        fill: #dbcfad;
      }

      .cls-269 {
        fill: #deca9f;
      }
    </style>
  </defs>
  <path class="cls-198" d="m775.48,716.86c.5.19.92.08,1.27-.33.74-.18,1.26.07,1.51.81-.05.58-.42.96-.82,1.31.56-.12.85-.51.85-1.17.27-.71.79-.99,1.53-.91l.05.02c1.96.75,3.06,2.75,4.97,3.41.33.62.67,1.56,1.5.24.83-.42,1.66-.57,2.52-.12l-.16-.06c3.91,1.87,2.75,5.79,3.57,8.9l.02-.16c.02.96-.22,1.87-.49,2.77l.02-.07c-1.31,2.41-1.22,5.42-3.26,7.51-.75.28-1.49.25-2.21-.1-.61-.4-1.15-.91-1.61-1.5-.41-.63-.71-1.31-.94-1.98-.01.04-.36-.84-.36-.84,0,0-.79-.52-.79-.46-1.03.25-1.81.9-2.61,1.55-9.15,6.39-10.3,5.97-14.13-5.07-.16-.84-.18-1.68-.09-2.53.36-1.41,1.81-2.54,1.11-4.23-.64-1.25-1.1-2.56-1.07-3.97.03-.65.19-1.28.43-1.88.3-.6.8-.95,1.46-1.04-.56-.57-.52-1.11.09-1.61l-.07.12c3.78-6.34,5.01,1.57,7.7,1.38Z"/>
  <path class="cls-48" d="m798.76,462.58c.35.44.81.64,1.37.62.17.31.34.62.51.92.39.99.65,2.01.76,3.07,0,.71-.13,1.4-.35,2.07l.02-.03c-.23,1.31-1.06,2.08-2.28,2.49-1.81-.01-2.51-1.56-3.58-2.58-.52-.49-.98-1.04-1.41-1.6-.37-.55-.68-1.15-.94-1.76-.38-.81-.81-1.6-1.26-2.36,0,.03-.21-.69-.21-.69,0,0-.72-.2-.72-.16.17.54.31,1.05.44,1.59.21.59.38,1.17.56,1.76.22.65.33,1.3.37,1.98-.08.75-.44,1.32-1.07,1.73-.79.18-1.55.14-2.32-.13-1.5-.74-2.74-1.78-3.79-3.02-.63-.14.22-1.25-.76-1.17-.38.54-.86.98-1.42,1.32-.58.29-1.19.51-1.82.7-.91.31-1.8.69-2.6,1.25-.76.68-1.46,1.42-2.3,2.01-.67.31-1.35.37-2.06.2-.98-.53-1.65-1.33-2.13-2.32-.53-1.29-1.1-2.56-1.99-3.68-.45-.57-.79-1.19-1.07-1.85-.52-1.79-.76-3.57.3-5.28.65-.66,2.08-.77,1.53-2.26.03-.78.31-1.43.9-1.94.37-.12.73-.23,1.1-.34.77.17,1.45.51,2.05,1.02,1.67,1.95,2,3.95.22,5.99-.89.86-1.46-.34-.53.5.28.26,1.04-.47,1.31-1.1.92-1.06,1.79-2.15,3.3-2.33.6-.29,1.39.29,1.68.11,1.06-.68.27.5-.4-.59-1.27.09-2.07-.47-2.35-1.73.18-1.77,1.36-2.71,2.84-3.4,1.51-.59,3.06-1.07,4.66-1.32,1.2-.1,2.44-.43,3.5.49.02.49.26.79.74.9.75-.09,1.3.19,1.6.9.08,1.04-.54,1.88-.84,2.8-.16.58-.43,1.11-.79,1.58.01-.01-.53.63-.53.63,0,0,.68-.5.69-.51.35-.91.64-1.82,1.15-2.65.83-.79,1.75-1.24,2.93-.89.66.54.8,1.16.33,1.89l.06-.09c.27,3.22,2.35,5.3,4.59,7.28Z"/>
  <path class="cls-157" d="m584.02,425.33c-.43-.1-.7.07-.79.51-2.98-.04-4.67,3.2-7.71,3.03l-.13-.03c-.88-.26-1.84-.3-2.59-.93l.17.03c-1.04.23-1.97-.06-2.85-.6l.25-.04c-.85-.2-1.29-.72-1.25-1.62.48-1.97,1.81-3.52,2.6-5.34.69-1.48,1.49-2.87,2.97-3.71,1.65-.46,3.1-.35,3.95,1.42.17,1.07,0,2.16.12,3.23,0,.49-.06.97-.21,1.45-.16.51-.03.4.39-.36-.13-1.15-.24-2.26-.13-3.39-.02-2.29-1.33-3.31-3.47-3.51-.9-.91-1.01-1.99-.68-3.16.26-.73.58-1.42.93-2.11.64-1.4,1.03-2.9,1.84-4.22.48-.47,1.4-.98,1.1-1.59-.55-1.12.46-.18-.68.43-.71-.45-1.17-1.07-1.39-1.88.14-2.18.3-4.33,3.41-3.89,2.31,1.45,2.95,5.14,6.54,4.87l-.23-.11c.98-.26,1.9.1,2.84.28h-.05c.99.11,1.47.68,1.53,1.64-.26.79-.69,1.5-1.26,2.09-.58.44-1.24.79-1.91,1.02-.6.14-1,.54-1.17,1.17.46-.4.98-.66,1.62-.78.75.12,1.37.44,1.91.95.43.65.66,1.35.68,2.11-.28.46-.26.9.06,1.33.45,1.07.28,2.13-.06,3.19v-.06c.35,2.68-.95,4.42-3.21,5.57-.69.74-2.1.02-2.57,1.23.01.65-.17,1.25-.57,1.78Z"/>
  <path class="cls-57" d="m757.58,755.76c-.25-.54-.65-.93-1.19-1.17-1.41-.48-2.11-1.96-3.49-2.48l.13.05c-2.5-1.1-5.95-1.13-5.82-5.18v.05c.3-1.48-1.05-2.84-.31-4.35l-.03.24c.08-1.56,1.12-2.81,1.39-4.31.52-.59,1.15-1.01,1.89-1.27,1.14-.18,2.27-.07,3.38.19,1.74.43,3.39,1.2,5.19,1.46.7.04,1.4.11,2.1.16,1.07.01,2.14.05,3.21.17,1.14.19,2.05.73,2.64,1.76.63,1.36.93,2.81,1.2,4.27.31,1.48.81,2.9,1.4,4.31.33.75.55,1.52.72,2.31.25,1.73-.1,3.31-1.18,4.7-1.67,1.12-3.08,2.94-5.5,2.08-1.59-1.27-2.13-3.27-3.36-4.79-.63-.9-.81-2-1.27-2.97-.47-.77-1.14-1.39-1.65-1.96.07.12.18.48.25.56,1.52,1.72,2.16,3.66,2.25,5.81-.53.76-1.18.88-1.95.38Z"/>
  <path class="cls-159" d="m505.72,430.84c-.46-.95-.92-1.9-1.38-2.85-.64-1.76,1.47-2.61,1.4-4.18l.09-.18c.46-1.12,1.36-1.78,2.39-2.32,1.46-.37,2.86-.88,3.82-2.15.59-.54,1.26-.68,2.02-.41l-.18-.03c.95-.02,1.86.23,2.77.46l-.05-.02c1.38.28,2.03,1.3,2.52,2.48-1.75,2.44-1.17,3.62,1.9,3.48.75.52.97,1.2.68,2.05l.02-.09c-.08.91-.24,1.8-.41,2.69v.03c-.22,1-.47,1.99-1.13,2.81-1.29.84-2.57,1.67-3.86,2.51-1.03.27-2.03.12-3.02-.19h-.03c-1.49-.36-3.07,1.11-4.52-.21l-.29-.54-.54-.29c-1.51-.47-2.18-1.53-2.17-3.06Z"/>
  <path class="cls-6" d="m787.08,535.48c.32.54.65,1.09.97,1.63,1.62,1.19,3.92-2.23,5.18.71.36.83-.38,1.48-1.39,1.45-.49.43-.98.86-1.47,1.29-.67,1.38.76,2.65.21,4.02v-.08c-.12.41-.24.82-.35,1.23-.39.16-.79.32-1.18.48-1.3.02-2.44-.4-3.44-1.21-1-1.17-2.13-2.19-3.54-2.84-.62-.36-1.19-.8-1.7-1.29-.74-.71-1.69-.93-2.69-1.01-.65-.06-1.28-.22-1.85-.45.02.01-.69-.45-.69-.45,0,0,.19.83.22.84.64.81.95,1.71.94,2.74-.24.72-.68,1.26-1.34,1.63-.77.15-1.5.08-2.23-.19-1.44-.68-2.66-1.62-3.52-2.99-.47-1.13-.47-2.3-.3-3.48.2-1.15.58-2.24,1.21-3.22.49-.55,1.11-.95,1.79-1.22.66-.14,1.34-.17,2-.13.3.03.62.07.91.09.55.08,1.1.02,1.59-.25.28-.91.07-1.86.4-2.74.49-.61,1.1-.8,1.83-.59l.08.03c.83.39,1.76.35,2.61.63.47.15.82,0,1.04-.43.72-.23,1.36-.08,1.95.38-.22,3.63,2.2-.7,2.67.88.61.52.8,1.15.56,1.91l.03-.08c-.21.89-.19,1.82-.49,2.7Z"/>
  <path class="cls-40" d="m659.71,298.09c.25.49.63.85,1.13,1.08,3.57,2.17,3.51,5.63,3.22,9.16l.05-.16c-.15,1.37-1.13,2.02-2.22,2.58-1.76-.44-2.4.76-2.97,2.06-1.37.8-2.54,2.15-4.39,1.57h.14c-1.73.12-3.38.07-4.43-1.64-1.03-1.88-1.58-3.89-1.57-6.05.26-1.64,1.02-3.05,1.97-4.37.7-.82,1.53-1.47,2.47-1.7-.14.02.45-.15.45-.15,0,0-.53-.47-.59-.52-.63-.88-.86-1.77-.59-2.78.57-.62,1.22-.79,1.98-.46l-.18-.04c.92.03,1.82.22,2.72.34l.07.02c.96.25,1.92.49,2.75,1.07Z"/>
  <path class="cls-101" d="m794.55,876.52l.43.68c.37,1.04.21,2.07-.1,3.09h0c-.14.93-.29,1.84-.66,2.69l.02-.13c-.06.76-.41,1.34-1.05,1.75-1.38.55-2.42,1.8-4.01,1.94-4.92.6-9.5.68-9.75-6.13.39-1.23,1.09-2.28,1.83-3.32,1.27-1.65,3.66-2.14,4.45-4.29l.06.1c.05-.99.57-1.6,1.51-1.88,1.87-.24,3.61.15,5.25,1.08.74.62,1.01,1.41.8,2.36v-.04c-.32,1.14.37,1.68,1.25,2.12Z"/>
  <path class="cls-202" d="m768.7,755.64c-.14-1.41-.28-2.82-.42-4.22.26-.71.71-1.28,1.33-1.71,1.19-.79,2.4-1.56,2.99-2.97.43-1.05.93-2.05,1.67-2.93.56-.55,1.2-.99,1.91-1.32.75-.25,1.52-.32,2.31-.23.96-1.12,2.03,3.8,2.94-.07,1.56-.9,3.13-.77,4.71-.06,1.1.7,1.89,1.67,2.37,2.88.18.85.07,1.67-.27,2.46l.12-.15c-.69,2.9-3.65,3.29-5.46,4.93-1.24.88-2.84,1.09-4.04,2.04-.97,1.07-1.18,2.53-1.9,3.74-.62.43-1.26.45-1.91.05-.3-.49-.71-.87-1.23-1.11-.78-.31-1.59-.54-2.41-.72h.04c-.93-.12-1.98.32-2.75-.59Z"/>
  <path class="cls-18" d="m629.99,420.67c-.02.6.14,1.16.46,1.67.12.85-.13,1.58-.73,2.18-2.37,1.48-3.34,4.72-6.45,5.23-.66.47-1.77-1.14-2.22.46.18.66.11,1.28-.18,1.88-.51.47-1.1.64-1.78.57l-.22-.11c-.85-.23-1.69-.5-2.52-.8h.11c-.71.08-1.23-.19-1.56-.82.07-1.05-.53-1.68-1.4-2.13-.38-.6-.37-1.18.05-1.76l-.1.2c-.18-.94.2-1.81.36-2.71l.02-.09c.08-.56.4-.92.93-1.1,0,0,.72-.21.72-.21,0,0-.75.1-.75.1-.4-.39-.53-.86-.38-1.41h0c1.98-2.82,4.38-4.97,8.1-4.95l-.19.03c1.91-.54,3.64.17,5.38.76l.05.03c1.45.45,2.13,1.51,2.32,2.95Z"/>
  <path class="cls-55" d="m763.73,397.77c.72,1.02,1.44,2.05,2.16,3.07.84.3,1.08.85.71,1.66l.07-.13c.05.93-.24,1.82-.34,2.73h-.28c-.81,3.21-2.81,3.97-5.75,2.8-1.14-.76-1.52-2.23-2.71-2.92-.57.35-1.13.62-1.74.88-.36.03-.69.05-1.05.06-.72-.26-1.32-.66-1.86-1.18-1.44-2.1-2.28-4.16.39-5.98.69-.39,1.66.39,2.25-.5-.48.21-.92.61-1.51.3-2.92.34-5.88,4.1-8.71-.15.04-1.9,2.26-2.41,2.62-4.1h.04c0-.64.21-1.09.63-1.35.45-.28.72-.36.79-.25,1.24.12,2.47.34,3.71.52,4.89-1.67,7.65,1.64,10.58,4.53Z"/>
  <path class="cls-151" d="m789.85,483.52c-.55.32-1.11.64-1.66.96-.15.67-.45.99-.88.96-.38-.03-.63-.13-.75-.32l.15.08c-4.82,2.06-9.78,5.48-13.7-1.39-.35-5.02,1.96-5.52,5.79-3.44,1.3.71,2.64.97,4.03.27.77-.55,1.27-1.27,1.33-2.25-.08-.99-.23-1.96-.27-2.95,0-1.11.24-2.16.79-3.13.52-.58,1.16-.98,1.89-1.24,1.18-.19,2.33-.09,3.49.14,1.18.23,2.32.57,3.46.96,1.87,1.14,5.28.56,4.89,4.28-1.71,1.83-4.55,2.35-5.64,4.89l-.06-.1c-.16,1.77-1.19,2.43-2.87,2.27Z"/>
  <path class="cls-232" d="m834.58,720.2c.46.78.92,1.57,1.38,2.35.48.94.31,1.95.28,2.94-.18.53-.07.98.33,1.37.44,2.01-1.52,2.82-2.17,4.28-.45-.09-.72.09-.81.54-3.29.36-6.32,4.17-9.9.78-2.16-2.36,5.01-3.39.83-6.01-.74-.28-1.43-.61-2.14-.94-.74-.35-1.38-.81-1.97-1.37-1.06-1.69-.33-3.07.76-4.39l-.04.29c1.53-2.87,4.67-1.96,7-2.98h.09c.68.13,1.01.53.97,1.1,0-.12.09.31.09.31,0,0,.24-.42.28-.48.4-.41.8-.47,1.24-.24h-.01c1.61.28,2.34,1.92,3.79,2.46Z"/>
  <path class="cls-231" d="m830.68,520.98c.43-.06.77-.27,1.03-.62,1.68-1.55,5.07,2.63,6.03-1.79.06-.3,1.74.22,2.63.55h0c3.1,2.27,5.64,4.75,3.38,9.03l.02-.17c-1.75,1.9-3.17,4.24-6.13,4.48h-.18c-.8-.31-1.63-.48-2.48-.52l-.17-.04c-.78-.35-1.5-.8-2.15-1.35-1.05-.83-1.63-1.94-1.99-3.19-.45-1.17-1.26-2.25-.85-3.62l-.02.09c.09-1.01.36-1.97.88-2.84Z"/>
  <path class="cls-266" d="m596.91,374.31c0,.47.21.78.65.93-.06,1.54,1,2.85.91,4.4l-.03.15c-.37.83-.46,1.75-.81,2.58l.04-.12c-.17,1.44-1.29,2.05-2.36,2.68-3.95,1.5-4.14,5.84-6.45,8.59-.94.94-1.97,1.66-3.38,1.5l-.11.02c-.37-.12-.73-.24-1.1-.36-.18-.34-.37-.68-.56-1.02-.16-.76-.21-1.53-.18-2.3.01-.38.05-.76.06-1.15.02-.76.1-1.53.22-2.28.21-1.16.65-2.18,1.7-2.83.63-.13,1.16.22,1.73.36-.37-.47-.79-.9-1.28-1.27-.71-.96-1.05-2.04-.99-3.23.48-1.94,1.59-3.47,3.1-4.75,1.24-.83,2.56-1.52,3.75-2.43.61-.46,1.31-.73,2.06-.85,1.17.12,2.12.73,3.05,1.38Z"/>
  <path class="cls-123" d="m810.33,817.55c-.46.19-.72.54-.77,1.04-.34.97-.72,1.91-1.47,2.65l-.26.1c-.8.33-1.59.32-2.37-.03-2.45-1.32-3.87-4.24-7-4.5-.41-.08-.8-.19-1.2-.28-.4-.13-.78-.28-1.17-.42-.72-.51-1.07-1.21-1.07-2.08l.08-.25c.43-.8.4-1.77.92-2.54v.19c.08-1.61,1.01-2.71,2.19-3.67.47.03.76-.19.85-.65.91-.43,1.88-.22,2.83-.28.49.22.95.16,1.38-.16.63-.4,1.15-.29,1.56.27.84,1.35,1.15-1.32,2-.32,2.01,1.73,3.85,3.52,3.59,6.47v-.14c-.21,1.53,1.26,3.08-.07,4.59Z"/>
  <path class="cls-28" d="m783.63,642.71c-2.56,1.29-4.62,4.67-8.13,1.93-.45-.67-.77-1.4-.98-2.19-.32-1.53-.27-3.14-1.1-4.51-.52-.47-1.03-.95-1.56-1.41-.47-.55-.61-1.18-.39-1.89l.07-.11c1.06-1.94,2.48-3.28,4.92-2.86l-.13-.02c.9-.04,1.77.25,2.66.3h.22c.85.28,1.68.58,2.51.91.93,1.46,1.86,2.91,2.78,4.37.57,1.96-.07,3.73-.86,5.47h-.01Z"/>
  <path class="cls-119" d="m826.06,658.87c.14.6.48,1.03,1.03,1.31,3.09,2.46.52,4.64-.34,6.9l.05-.1c-.32,1.81-1.32,2.51-3.12,1.9l.2.02c-1.97.44-3.77.06-5.4-1.15l.19.08c-2.52-.54-3.42-2.18-3.14-4.62l-.03.14c0-.97.2-1.9.62-2.78l-.06.19c2.49-5.08,6.18-3.78,9.99-1.9Z"/>
  <path class="cls-155" d="m668.21,448.44c-.06.5.12.9.52,1.2.15.76-.07,1.39-.67,1.88-1.72.28-1.94,2.07-3.02,3-1.81.66-3.36,2.23-5.54,1.49l.31.07c-3-.99-4.14-3.24-4.23-6.2l-.02.17c0-.97.2-1.89.59-2.77l-.03.14c1.17-2.8,3.33-4.11,6.31-4.16h-.12c.69.04,1.22.34,1.61.9.54,1.79,2.42.2,3.26,1.27.67.9,1.25,1.82,1.03,3.01Z"/>
  <path class="cls-125" d="m686.49,1005.75c-.28-.63-.56-1.27-.85-1.9-.63-4.68.58-8.04,6-8.39h-.05c1.57.24,2.24,1.96,3.76,2.3.2.44.46.84.78,1.2,0,1.34-.93,2.06-1.82,2.75.05.83-3.2.25-.89,2.16.81,1.3.18,2.64.17,3.95.16.64.31,1.27.47,1.91-.56,2-1.86,2.58-3.78,1.99-1.1-1.18-1.27-2.99-2.66-3.98-.68-.49-1.05-1.15-1.14-1.98Z"/>
  <path class="cls-244" d="m679.37,303.66c.21.49.55.83,1.04,1.03.87.3,1.77.54,2.55,1.05.11.37.32.68.62.93.14.95-.1,1.88-.05,2.83l-.03.3c-.73,1.35-2.11,2.19-2.79,3.58-.79.51-1.58,1.03-2.37,1.54-1.03.27-2.04.11-3.04-.18h.03c-2.2-.81-3.18-2.45-3.16-4.75v-.03c.16-1.47.01-3.04,1.49-4.02,1.45-.4,2.73-1.08,3.68-2.29.67-.4,1.35-.4,2.02,0Z"/>
  <path class="cls-29" d="m752.44,839.68c.28.59.71,1.02,1.3,1.31.78.36,1.23.96,1.29,1.82.03,1.85-.19,3.77,1.29,5.28.49.59.7,1.28.69,2.04v-.02c-.23.88-.33,1.79-.56,2.67h0c-.08.55-.33.91-.73,1.07-.42.16-.66.19-.73.09-.54-.06-1,.1-1.38.48-1.36.31-2.71.59-4.08.06-2.79-1.8-4.45-4.25-4.35-7.68.43-1.35,1.26-1.65,2.71-1.44,1.21.18,1.93-.48.72-.08-1.21.4.12-1.84-.55-.76-.15-.74-.12-1.47.07-2.2.4-1.13,1.07-2.04,2.06-2.71.76-.31,1.51-.28,2.24.08Z"/>
  <path class="cls-209" d="m771.14,454.55c.32.5.59,1.01.83,1.55-.11.79-.54,1.3-1.31,1.52-1.26,2.15-.25,4.4-.28,6.6-.32.66-.83,1.14-1.5,1.43-1.41.4-2.82.57-4.15-.28l-.25-.52-.47-.33c-.61-1.68,1.52-2.5,1.27-4.06l.07-.36c.55-2.19-1.3-4.53.44-6.64h0c.14-.98.4-1.92.88-2.79.51-.17.93-.46,1.25-.89.12-.64.4-.99.84-1.03.43-.05.69,0,.78.15l-.1-.02c1.25-.03,2.52-.29,3.72.31,1.09.84,1.59,1.95,1.5,3.33-.43.84-1.09,1.18-2.02.95h0c-.63-.15-1.25-.1-1.82.21-.11.06.03.42.32.86Z"/>
  <path class="cls-68" d="m861.81,527.18l-.32-.56-.54-.35c-1.25-.31-1.87-1.27-2.39-2.32-.12-.76.12-1.4.66-1.93,1.54-.29,1.86-.98.65-2.16-.26-.72-.33-1.44-.22-2.19.42-.69,1-1.15,1.76-1.41.8,0,1.57.13,2.32.37,2.21.86,4.48,1.48,6.79,2.02.78.22,1.52.55,2.21.97.28.29.55.59.82.89.26.53.5,1.07.73,1.61-1.33,2.62-3.44,4.04-6.4,4.13h.06c-2.2-.72-3.77,2.68-6.13.93Z"/>
  <path class="cls-235" d="m564.13,404.38c.64-.24,1.27-.49,1.91-.73,2.52-.89,3.71,1.09,5.21,2.4.62.49,1.21,1.03,1.78,1.58,1.28,1.41,3.2,2.39,3.18,4.68-.23.84-.46,1.68-.68,2.51.08.88-.28,1.53-1.02,1.98-1.17.71-2.24.51-3.21-.39.04-1.37-.37-2.36-2.01-2.26-1.33-.7-2.49-1.65-3.78-2.41-1.01-.51-1.99-1.06-2.88-1.77-.58-.56-.75-1.25-.58-2.03l-.04.11c.05-1.08.33-2.07,1.02-2.93.51-.04.88-.29,1.09-.75Z"/>
  <path class="cls-163" d="m673.34,406.46c.9-.62,1.8-1.23,2.7-1.85,1.89-.16,3.67.27,5.37,1.06.4.5.8,1.01,1.2,1.51.78.33,1.02.9.72,1.69l.04-.12c-1.39,3.62-2.51,7.62-7.89,5.37l-.05-.02c-2.01-1.01-3.29-2.47-2.92-4.9l-.03.14c.03-1.04.31-2,.86-2.88Z"/>
  <path class="cls-176" d="m781.24,653.32c.12-3.54,3.08-4.14,5.49-5.31,0,0-.03-.22-.03-.22,1-.03,1.96.07,2.83.62l-.18-.02c.85-.01,1.7,0,2.56.03.6-.26,1.21-.53,1.81-.79.98.33,1.5,1.03,1.61,2.05.04,2.1-.88,3.74-2.39,5.12-4.33,2.97-8.29,2.91-11.7-1.47Z"/>
  <path class="cls-239" d="m792.33,872.87c-1.87.39-3.59-.03-5.18-1.04-2.64-4.87-.13-6.65,4.34-7.28l-.21-.04c1.05-.03,2.01.26,2.89.82.64.92,1.28,1.83,1.92,2.75-.18,2.44-.22,4.99-3.77,4.79Z"/>
  <path class="cls-251" d="m558.09,366.49c-.24-.5-.61-.85-1.13-1.04-2.16-1.33-3.8-2.88-2.42-5.71,4.44.94,10.7-5.45,13.22,3.28-.36,2.49-1.84,4.23-3.81,5.64-2.93,1.9-4.12-.86-5.86-2.18Z"/>
  <path class="cls-50" d="m797.8,814.51c4.73-.76,6.5,2.71,8.45,5.92-.33,1.61-1.48,2.15-2.95,2.28-.54-.01-1.04.13-1.51.41-.55.06-1.04-.07-1.49-.4,0,0,.62-.46.62-.46,0,0-.72.3-.72.3-.45.41-.94.45-1.45.13l.19.11c-2.95-.96-3.85-3.39-4.37-6.1v-.31c.3-.21.61-.42.91-.64.34-.08.69-.15,1.04-.22.57.13.95.02,1.14-.33.18-.33.23-.56.15-.69Z"/>
  <path class="cls-72" d="m820.22,583.33c.68.81,1.36,1.62,2.04,2.42,1.47.66,2.24,1.65,1.54,3.32l.03-.24c.12,1.63-1.01,2.34-2.2,3.02q-10,2.5-9.91-4.44c.78-.97,1.82-1.5,3.02-1.71,1.38-.52,2.54-1.39,3.6-2.39.62-.45,1.24-.46,1.86.03Z"/>
  <path class="cls-210" d="m944.36,559.97c.53-.05.97-.28,1.31-.68,1.03-.15,2.02-.02,2.97.38l-.12-.03c2.38.6,3.08,2.46,3.41,4.59l-.03.23c-4.87,6.46-5.82,6.39-9.83-.73v-.17c.41-.82.48-1.76.9-2.57v.17c-.02-.64.18-1.04.59-1.18.44-.15.7-.16.79-.02Z"/>
  <path class="cls-142" d="m752.89,738.67c-.95-.22-1.9-.44-2.84-.66-.67-.22-1.23-.6-1.69-1.13-.87-1.12-2.1-1.78-3.27-2.52-.41-.64-.44-1.28-.03-1.93.91-.67,1.82-1.34,2.73-2,.24-.82.41-1.66.52-2.51v-.11c.29-1.53.1-3.27,1.85-4.16,1.24-.26,2.39-.03,3.47.61.59.56.95,1.25,1.12,2.04-.13,1.54-.7,3.01-.85,4.55-.03,2.32.86,4.66-.17,6.95-.27.29-.55.58-.82.87Z"/>
  <path class="cls-242" d="m690.94,445.14c0-.49-.16-.93-.48-1.3-.42-1.9,1.56-2.66,1.98-4.16.43-.07.77-.28,1.03-.64.99-.15,1.95,0,2.92.21l.06.02c2.06.97,3.3,2.42,2.91,4.86l.03-.19c-.65,2.39-2.35,3.26-4.67,3.22h.02c-.87-.17-1.75-.34-2.62-.49l-.08-.03c-.78-.2-1.15-.7-1.1-1.5Z"/>
  <path class="cls-53" d="m573.66,457.9c.86,1.33,1.72,2.66,2.57,4-5.01,6.26-6.14,6.21-8.73-.36l-.07.4c1-3.01,3.06-4.37,6.23-4.03Z"/>
  <path class="cls-11" d="m872.51,511.83c.84,1.54,1.67,3.08,2.51,4.62.01.44.02.89.04,1.33-.4.18-.8.37-1.2.56-1.36.16-2.54-.23-3.52-1.19.11-1.53-.15-2.65-2.1-1.7-3.41-.76-3.82-2.93-2.77-5.81.52-.74,1.24-1.12,2.15-1.14l-.14-.07c.97,0,1.89.19,2.77.6h-.16c1.7.16,2.32,1.25,2.41,2.8Z"/>
  <path class="cls-184" d="m759.41,405.57c2.4,2.43,4.55,1.37,6.64-.47.43.55.86,1.1,1.29,1.65-.31,1.5-1.99,2.16-2.25,3.69-.52.3-1.01.63-1.5.98-.62-.18-1.06-.09-1.29.28-.24.37-.31.62-.21.77-.53.53-1.07,1.06-1.6,1.59-.47-.18-.93-.37-1.4-.55-2.62-1.99-4.39-4.23-2.33-7.65.81-.8,1.7-.9,2.67-.29Z"/>
  <path class="cls-177" d="m667.05,340.75c1.73,2.29,3,4.57-.06,6.82-1.88.08-3.65-.33-5.34-1.12l-.42-.73-.47-.69c.04-1.61,1.87-2.27,2-3.83.53-.32,1.05-.65,1.57-.99.91.17,1.81.37,2.72.54Z"/>
  <path class="cls-185" d="m588.6,393.08c-1.13-3,1.23-5.23,1.78-7.87.63-3.01,2.59-1.46,4.18-.76,0,0,.28.9.29.9.04.63.1,1.25.16,1.88-.04.66-.29,1.22-.75,1.69-.52.04-.8.32-.82.84-.9,2.15-2.64,3.07-4.84,3.31Z"/>
  <path class="cls-153" d="m770.6,534.71c-.16.89-.33,1.79-.49,2.68-.64.33-1.32.5-2.04.52-.36-.03-.71-.08-1.07-.11-.71-.13-1.39-.35-2.06-.63-.3-.19-.6-.4-.9-.6-.5-.6-.56-1.23-.11-1.89l-.05.1c.01-1.06.29-2.03.93-2.89.54-.12.89-.45,1.04-.99.15-.6.44-.94.89-1.02.43-.08.69-.05.78.08.5.23.86.09,1.07-.42.8-.43,1.47-.25,2.03.44.82,1.58.38,3.15-.02,4.72Z"/>
  <path class="cls-253" d="m568.18,346.7c1-.51,2-1.03,3-1.54.8.95,1.59,1.89,2.39,2.84,1.37.89,2.24,2.02,1.81,3.78-6.94,1.19-8.94-.23-7.19-5.08Z"/>
  <path class="cls-254" d="m520.63,425.46c-2.13,1.17-4.35,1.83-6.84,1.27.45-3.08,2.57-4.11,5.07-4.73.51-.81,1.05-.79,1.61-.05l.46.63c.09.98.77,2.02-.3,2.88Z"/>
  <path class="cls-115" d="m791.36,548.6c.36.58.72,1.15,1.08,1.73.74.4.92.97.56,1.73l.04-.18c-.03.65-.25,1.01-.67,1.07-.41.06-.67.01-.77-.14l.17.07c-.94,0-1.85-.19-2.77-.36l-.02-.37c-1.46-.06-2.46-.83-3.2-2.02-.36-.83-.49-1.7-.42-2.6.6-1.39,1.78-1.88,3.16-2.05.34.07.67.17.99.3,1.24.54,1.81,1.51,1.83,2.84Z"/>
  <path class="cls-1" d="m786.42,548.2c.86,1.31,1.71,2.62,2.57,3.93-.52.45-1.04.9-1.55,1.36-.63-.18-1.07-.08-1.32.3-.25.37-.32.63-.23.77-.56.41-1.11.82-1.67,1.23-.69,1.15-1.59,1.34-2.69.58-2.86-5.41.94-6.83,4.88-8.16Z"/>
  <path class="cls-34" d="m861.57,516.72c-.48.4-.98.77-1.49,1.12-1.16,1.89-2.75,1.55-4.42.87-.78-.53-1-1.25-.73-2.14l-.03.14c.1-1.67,1.88-2.35,2.28-3.84.43-.55.85-1.1,1.28-1.65.78.2,1.47.58,2.06,1.13,1.04,1.29,1.76,2.66,1.06,4.38Z"/>
  <path class="cls-158" d="m821.39,604.91c.51,1.9,2.96,3.49.92,5.79l.03.02c-.82-.18-1.64-.28-2.48-.3-.58-.07-1.1.07-1.56.42-.39-.33-.8-.64-1.22-.93-.04-.37-.08-.74-.13-1.11.19-.73.48-1.41.87-2.06.92-1.14,1.7-2.56,3.57-1.83Z"/>
  <path class="cls-3" d="m881.14,584.16l.38-.23c3.19-.32,3.42,1.95,3.68,4.2h0c-.12.55-.39.88-.8,1.02-.41.14-.65.16-.72.05h-.08c-1.42-.37-3.45.3-3.68-2.12v-.17c.25-.99.6-1.93,1.23-2.75Z"/>
  <path class="cls-154" d="m687.48,1006.98c2.89-.11,3.75,1.09,2.4,3.72-.58.72-1.16.72-1.75,0-.49-.74-.98-1.47-1.47-2.21-.26-.79-.02-1.31.82-1.52Z"/>
  <path class="cls-71" d="m565.63,385.95c.15.43.45.69.9.77.77.31,1.04.87.82,1.68l.02-.08c-1.42,2.4-2.87.81-4.31.04l-.39-.59c-.15-2.46.81-3.12,2.96-1.81Z"/>
  <path class="cls-15" d="m794.64,487.05c-1.02-1.28-1.81-2.59-.62-4.19.85,1.3,1.41,2.65.62,4.19Z"/>
  <path class="cls-59" d="m634.95,461.07c.75,1,1.5,1.99,2.25,2.99v.02c-.27.76-.81,1.12-1.61,1.07h-.04c-1.59-.57-2.35-1.6-1.84-3.33.42-.23.84-.48,1.24-.74Z"/>
  <path class="cls-36" d="m503.66,388.75c.97,1.27,1.67,2.57.51,4.1,0,0,.06.04.06.04-1.69-.43-2.38-1.48-2.02-3.2.47-.33.95-.64,1.44-.94Z"/>
  <path class="cls-172" d="m777.26,825.83c.78.92,1.56,1.85,2.34,2.77h0c-.27.8-.8,1.12-1.62.92l.12.02c-1.8-.5-2.64-1.45-1.55-3.31l.72-.4Z"/>
  <path class="cls-11" d="m873.82,517.92c.17.55.33,1.11.46,1.67-.3.26-.55.56-.74.91,0,0-.76-.06-.76-.06-.58-.93-.47-1.78.31-2.55l.73.02Z"/>
  <path class="cls-192" d="m512.1,383.71c.3-.49.66-.92,1.08-1.31.8.26,1.2.82,1.19,1.66-.43.37-.92.64-1.45.82l-.3-.66-.52-.51Z"/>
  <path class="cls-219" d="m778.65,742.59c-.69.34-1.38.68-2.07,1.01-1.09-.32-2.2-.4-3.32-.24-.76,0-1.49-.13-2.21-.36-1.02-.48-1.89-1.16-2.72-1.91-.77-.76-1.58-1.5-2.46-2.15-.23-.28-.45-.57-.69-.84-.18-.32-.34-.64-.53-.95-.4-.63-.78-1.26-1.2-1.88-1.29-1.92-3.23-3.78-.64-6.11,1.66-.76,3.21-.37,4.73.42q3.27,10.51,12.92,2.74c3.2.2,2.2,2.82,2.69,4.58.3.64.5,1.33.63,2.02-.04,1.06-.49,1.89-1.42,2.43-.52.27-1.08.5-1.63.71-.48-.43-1-.45-1.53-.07,0,0-.57.6-.57.6Z"/>
  <path class="cls-131" d="m767.55,729.58c-1.45.66-2.91.89-4.41.15-.73-.11-1.41-.37-2.04-.76-1.37-1.2-2.56-2.59-3.92-3.8-.24-.28-.47-.57-.7-.85-.13-.34-.25-.69-.38-1.04.13-.34.26-.69.39-1.03,1.55-1.42,2.55-3,1.48-5.17l.7-.43c2.48,4.09,4.9,1.39,7.33-.07.35.31.68.62,1.02.94.4,2.16.26,4.46,1.59,6.38-.09,1.45-1.22,2.22-2.06,3.18.33.84.66,1.67.99,2.51Z"/>
  <path class="cls-14" d="m783.31,739.44c-.33-.55-.66-1.1-.98-1.65.47-1.56,1.41-2.34,3.1-1.85.3.45.57.92.81,1.4.09,1.56.5,2.87,2.4,2.96,1.1.52,3.02.68,2.83,2.06-.28,2.08-2.56,2.45-4.21,3.25-.65-.96-1.3-1.92-1.95-2.89-1.52-.58-2.3-1.6-2-3.29Z"/>
  <path class="cls-174" d="m785.43,735.95c-1.03.62-2.07,1.23-3.1,1.85-2.75-1.11.82-4.35-1.85-5.48,1.14-.44,2.21-.24,3.22.42.22.34.45.69.67,1.03l1.06,2.18Z"/>
  <path class="cls-9" d="m766.56,727.07c-.22-1.65,1.08-2.31,2.06-3.18,1.26.01,2.64.46,2.31,1.82-.6,2.51-2.75,1.38-4.38,1.36Z"/>
  <path class="cls-174" d="m788.63,740.31c-2.6.47-2.85-.96-2.4-2.96.5.53,1.01,1.05,1.51,1.57.45.36.74.83.88,1.39Z"/>
  <path class="cls-61" d="m778.23,717.65c0,.99-.73,2.56-1.07,2.27-1.76-1.5.96-1.34,1.07-2.26h0Z"/>
  <path class="cls-135" d="m768.54,716.92c.32,0,.85-.1.91.03.26.54-.11.56-.92,0v-.02Z"/>
  <path class="cls-80" d="m768.58,465.13c.6-.3,1.2-.61,1.8-.91,0,0-.09-.08-.09-.08,1.51.32,2.21,1.27,2.19,2.79.69,1.09,1.38,2.17,2.07,3.26,1.54,1.53,3.81,2.04,5.21,3.77.88,1.09,1.13,2.34.92,3.71-.27.85-.79,1.51-1.59,1.95-3.72-.9-7.56-1.61-9.79-5.29.52-3.07-2.13-6.01-.44-9.14l-.3-.06Z"/>
  <path class="cls-203" d="m774.81,449.57c.52-.15,1.04-.32,1.55-.52.41,1.05,3.47,1.12,1.27,3.08-2.5,2.24-1.98,3.45,1.07,4.14,1.14.28,2.28.55,3.42.83l.03-.29c-2.29,1.42-4.58,2.85-6.87,4.27.03.62-.15.99-.55,1.12-.42.13-.67.13-.76,0-.19-2.95,1.29-6.15-1.34-8.72.6-.41,1.19-.82,1.79-1.23.04-.91-.47-1.89.39-2.68Z"/>
  <path class="cls-22" d="m798.32,471.63c.61,1.28,2.07,2.67-.47,3.53-2.01-.43-4.5.35-5.67-2.22-.1-.66,0-1.29.25-1.91.39-.91.84-1.78,1.45-2.57.54-.46,1.13-.56,1.77-.25,2.54-.15,1.68,2.36,2.67,3.42Z"/>
  <path class="cls-259" d="m786.92,471.75c-.54.25-1.07.52-1.59.8-.83-.12-1.38-.57-1.6-1.39.49-1.62-.19-2.89-1.2-4.08-.25-.8-.07-1.48.55-2.04.39-.12.73-.33,1.02-.63l.12-.02c2.5,1.13,4.49,2.82,5.77,5.28-.06.35-.12.71-.18,1.06-.82.75-1.72,1.27-2.88,1.02Z"/>
  <path class="cls-146" d="m779.26,474.35c-2.34-.51-5.09-.54-4.71-4.14.49-.22.94-.49,1.37-.81.32-.81.93-1.26,1.78-1.4.76.34,1.34.89,1.75,1.62.42,1.18.51,2.39.32,3.62-.17.37-.34.74-.51,1.11Z"/>
  <path class="cls-233" d="m794.27,469.2c.2,1.1-.12,2.03-.92,2.81-1.37-.61-2.04-1.66-1.96-3.16-.29-.61-.57-1.22-.86-1.83.07-.76.39-1.39.97-1.89.7-.35,1.4-.32,2.09.03.32.48.64.97.94,1.47.06.87-.02,1.73-.27,2.57Z"/>
  <path class="cls-215" d="m803.02,465.53c-.85.77-1.7,1.54-2.56,2.32-.96-1.23-1.8-2.49-1.25-4.17,1.27.62,2.54,1.23,3.81,1.85Z"/>
  <path class="cls-22" d="m793.59,465.16c-.48.28-.96.55-1.46.81-.67-.12-1.22-.43-1.66-.94-.36-.58-.49-1.2-.37-1.87.03-.34.06-.68.07-1.03.41-.18.82-.35,1.23-.53,1,1.01,3.39,1.18,2.18,3.56Z"/>
  <path class="cls-102" d="m791.39,468.84c.65,1.05,1.31,2.11,1.96,3.16-.44.25-.83.56-1.18.93-.9-.2-1.79-.41-2.69-.61-.52-1.02.38-1.77.48-2.68l.02.02c.45-.31.92-.59,1.41-.83Z"/>
  <path class="cls-249" d="m778.77,469.66c-.24-.4-.56-.71-.97-.92-.99-.44-1.22-1.14-.69-2.08,1.21-.68,2.38-1.81,3.78-.33.08.4.17.8.26,1.2-.33,1.23-.79,2.3-2.37,2.13Z"/>
  <path class="cls-39" d="m790.69,453.15c.91-.25,1.93-.87,2.26.72-.95.66-1.9,1.32-2.85,1.98h.05c.18-.89.36-1.79.54-2.69Z"/>
  <path class="cls-203" d="m781.4,452.85c1.11-1.14,2.48-1.27,3.94-1.03-1.13,1.06-2.39,1.59-3.94,1.03Z"/>
  <path class="cls-180" d="m789.39,458.37c-1.27.34-2.31.25-2.33-1.4,0-.07.95-.15,1.46-.22.93.2,1.18.76.87,1.62Z"/>
  <path class="cls-203" d="m771.14,454.55c-.45-.23-.91-.45-1.36-.68.79-1.39,1.83-.87,2.86-.38-.51.34-1.01.69-1.5,1.06Z"/>
  <path class="cls-222" d="m773.97,462.2c.37-.45.8-.82,1.3-1.12.24.88.47,1.76.71,2.64-1.23.24-1.55-.73-2.01-1.51Z"/>
  <path class="cls-56" d="m772.48,466.94c-.73-.93-1.46-1.86-2.19-2.79,2.3-.3,3.27.44,2.19,2.79Z"/>
  <path class="cls-39" d="m789.39,458.37c-.28-.54-.57-1.08-.87-1.62.57-.26,1.11-.55,1.64-.89h-.05c.24.96.09,1.83-.72,2.51Z"/>
  <path class="cls-39" d="m794.27,469.2c.09-.86.18-1.72.27-2.58.37.53.75,1.05,1.12,1.58-.48.31-.94.64-1.38.99Z"/>
  <path class="cls-233" d="m790.11,463.16c.4.34.73.74.98,1.21-.09.64-.36,1.01-.8,1.11-.44.09-.71.07-.8-.06-.37-.91-.26-1.69.62-2.25Z"/>
  <path class="cls-39" d="m789.49,465.41c.54-.34,1.07-.69,1.6-1.04.35.54.7,1.07,1.04,1.6-.53.35-1.07.7-1.6,1.05-.35-.54-.7-1.07-1.04-1.61Z"/>
  <path class="cls-27" d="m784.09,464.41c-.06-.55-.12-1.1-.18-1.65,1.98.19.29,1.07.31,1.63l-.12.02Z"/>
  <path class="cls-84" d="m783.08,465.04l.52,1.92c-1.21,1.22-2.16,1.24-2.73-.57v-.06c.74-.43,1.47-.86,2.2-1.29Z"/>
  <path class="cls-203" d="m770.66,457.62c.44-.51.88-1.01,1.31-1.52-.13.52-.22,1.06-.44,1.54-.05.11-.57,0-.87-.01Z"/>
  <path class="cls-80" d="m777.11,466.66c.23.69.46,1.39.69,2.08-.62.22-1.24.44-1.87.66.39-.91.79-1.83,1.18-2.74Z"/>
  <path class="cls-161" d="m559.44,414.36c.42-.42.88-.79,1.39-1.09,2.08-.23,3.31,1.44,4.93,2.21.29-.05.74,1.04.9-.12-.4.42-.84.35-1.32-.24-1.35-1.05-2.02-2.38-1.82-4.1.44-.8,1.13-1.1,2.01-1,2.7,0,3.71,2.19,5.08,3.91.7.24.95.73.83,1.44.33.89.98,1.28,1.91,1.21,1.25-.64,1.73-.27,1.45,1.1-.62,1.18-1.24,2.35-1.87,3.53-.99.27-2,.15-2.99.07-.63,0-1.27-.04-1.9-.06-.63-.02-1.18.19-1.61.69-.45.59-1.01.73-1.68.45-2.48-2.19-3.76-5.18-5.31-7.98Z"/>
  <path class="cls-73" d="m587.61,409.78c-.31.54-.6,1.09-.93,1.62-.85,1.38-1.93,2.52-3.7,2.3-1.02-.13-1.48-1.01-1.48-2.02,0-1.91,1.19-2.63,2.89-2.96.9-.17,1.75-.64,2.62-.98.35.27.71.53,1.06.8-.15.42-.31.83-.46,1.25Z"/>
  <path class="cls-152" d="m575.34,397.04c2.98-2.06,2.82.73,3.47,2.25-.93,1.6-1.39,3.28-.94,5.13-.15.64-.48,1.06-.96,1.28-.5.22-.78.28-.86.17-1.3-.42-2.24-1.28-2.95-2.42-.38-.77-.58-1.59-.61-2.45.44-1.68,2.52-2.19,2.84-3.96Z"/>
  <path class="cls-263" d="m574.8,417.67c-.39-.49-.87-.85-1.44-1.1.72-.58,1.45-1.16,2.17-1.75q4.88-.45,3.22,4.94h.03c-.96-1.4-2.1-2.43-3.97-2.1Z"/>
  <path class="cls-262" d="m569.52,419.3c1.82-.6,2.44.96,3.41,1.89.12,2.62-1.91,3.55-3.67,4.7,0,0-.12.01-.12.01-3.07-2.39.1-4.41.39-6.61Z"/>
  <path class="cls-118" d="m576.21,412.31c-1.85-.93-3.95-1.54-4.79-3.76.55-1.68,1.78-2.23,3.44-2.07,1.86,1.05,3.13,2.44,2.68,4.79-.41.4-.85.74-1.33,1.04Z"/>
  <path class="cls-83" d="m590.15,405.53c.5-.08.96-.25,1.4-.5.23,1.28.45,2.57.68,3.85-.94.73-1.88,1.45-2.82,2.17-.59-.43-1.19-.85-1.79-1.27,0,0,.41-.67.41-.67.03-.71.17-1.4.42-2.06.57-.51,1.14-1.01,1.71-1.52Z"/>
  <path class="cls-173" d="m577.54,411.26c-.98-1.5-1.96-3-2.93-4.51.12-.41.24-.82.35-1.24.43-.02.86-.04,1.29-.06.54-.35,1.08-.69,1.62-1.04,0,0,0,0,0,0,.76.27,1.14.79,1.1,1.61-.48,1.74-.95,3.49-1.43,5.23Z"/>
  <path class="cls-139" d="m578.75,419.77c.75,1.38,1.47,2.77.43,4.33l-.89-.34-.11-.95c.2-1.02.39-2.03.59-3.05h-.03Z"/>
  <path class="cls-201" d="m588.44,407.04c-.14.69-.28,1.38-.42,2.06,0,0-.61-.61-.61-.61l-.39-.77c.43-.33.9-.56,1.43-.69Z"/>
  <path class="cls-152" d="m578.97,406.03c-.37-.54-.73-1.07-1.1-1.61,1.4-.17,1.85.31,1.1,1.61Z"/>
  <path class="cls-32" d="m585.14,422.61c-.51.35-1.02.71-1.54,1.06-.3-1.53.17-1.95,1.54-1.06Z"/>
  <path class="cls-236" d="m578.18,422.81c.38.39.71.82.99,1.29-.52.04-1.05.09-1.57.13.19-.47.38-.94.58-1.42Z"/>
  <path class="cls-4" d="m761.97,727.96c.39.59.78,1.18,1.17,1.77-1.62,3.4,2.11,3.26,3.22,4.86-.21.82-.4,1.64-.57,2.46l.36.7c-.73,1-1.79,1.54-2.85,2.09-.71.41-1.46.56-2.27.4-.62.34-1.24.69-1.85,1.03-1.18-.97-1.71-2.49-2.92-3.43-.14-.34-.28-.69-.42-1.03.08-.72.35-1.37.8-1.93.48-.46,1.06-.76,1.71-.89,1.03.52,1.19.29.31-.49-.95-.85-.16.73-.88-.35-.51-.48-.89-1.02-1.16-1.66-.44-1.36-.84-2.72-1.17-4.11-.06-.75-.08-1.49-.1-2.24.41-.69,1.02-1.03,1.83-1l.52.3c2.1.37,2.16,3.21,4.29,3.53Z"/>
  <path class="cls-92" d="m771.45,742.38c.56-.23,1.09-.51,1.59-.86,1.64.28,2.32,1.36,2.42,2.92-.28,1-.56,1.99-.84,2.99-.29,1.2-1.19,1.81-2.19,2.32-1.15.53-2.24-1.73-3.44-.09-.6.34-1.2.37-1.83.11-.76-1.4-1.15-2.82-.18-4.29.02-.71.23-1.36.66-1.93.51-.49,1.09-.88,1.73-1.17.69-.14,1.38-.14,2.08.01Z"/>
  <path class="cls-206" d="m762.97,756.99c-1.38-.4-2.94-.33-3.97-1.6-.64-2.7-4-4.61-2.29-7.98h-.04c1.21.79,2.42,1.59,3.63,2.38-.16.81-.33,1.62-.48,2.42,1.17,1.52,4.7,1.47,3.15,4.78Z"/>
  <path class="cls-74" d="m756.02,736.92c2.06.71,3.58,1.82,3.15,4.34-2.52.16-4.24-1.59-6.27-2.59,0,0,.17-.19.17-.19.46-1.5,1.33-2.24,2.95-1.56Z"/>
  <path class="cls-147" d="m762.57,739.28c1.19-.51,2.37-1.03,3.56-1.54.2.35.44.67.7.97.4.14.79.28,1.19.42.09.41.19.82.28,1.23-.27.32-.55.64-.82.96-.41.07-.83.15-1.24.22-.73-.77-1.62-1.01-2.64-.76-.79-.2-1.15-.69-1.03-1.51Z"/>
  <path class="cls-105" d="m768.65,744.33c-.55.38-1.11.76-1.66,1.14-.98-1.17-1.69-2.39-.73-3.92,0,0,0-.02,0-.02,1.63.23,2.34,1.24,2.41,2.8Z"/>
  <path class="cls-267" d="m748.9,738.97c-.33-.57-.66-1.14-.99-1.71.09-.54.32-.83.69-.88.36-.05.58-.01.66.11.4.44.67.95.8,1.53-.37.34-.75.66-1.15.96Z"/>
  <path class="cls-94" d="m759.82,752.22c-.51-.94-.16-1.71.48-2.42.34.91.19,1.72-.48,2.42Z"/>
  <path class="cls-220" d="m756.71,747.41c-.06-.5-.12-1-.17-1.5,1.65.36.44.96.13,1.49h.04Z"/>
  <path class="cls-213" d="m767.16,749.76c.57-.29,1.14-.58,1.71-.87.37.14.73.28,1.1.42-.03.39-.06.78-.09,1.17-.48.41-1.01.72-1.6.94-.37-.55-.75-1.1-1.12-1.66Z"/>
  <path class="cls-130" d="m762.57,739.28c.37.48.72.99,1.03,1.51-1.07.75-1.93.56-2.59-.56.49-.37,1.01-.68,1.56-.96Z"/>
  <path class="cls-197" d="m508.94,421.63c.87-1.1,2.11-1.41,3.41-1.58-.26,2.42-1.53,2.65-3.41,1.58Z"/>
  <path class="cls-153" d="m760.02,542.14c.4-2.81,2.45-4.36,4.52-5.91l.74.16c.64.15,1.28.29,1.92.41l.61.19c1.19.53,1.89,1.32,1.48,2.72,1.69,1.36,3.37,2.73,5.06,4.09.9.39,1.2,1.08,1,2.02-4.69.46-8.52,2.94-12.38,5.33-2.63-2.46-2.14-5.95-2.94-9.01Z"/>
  <path class="cls-100" d="m774.87,527.77c.74.74,1.48,1.47,2.22,2.21-.47,1.58,3.85,2.86.3,4.64-.84-.04-1.67-.16-2.49-.35h-.03c-.88-.24-1.79-.35-2.69-.44-.49.35-1.02.65-1.57.89-.86-1.46-1.27-2.95-.29-4.53,1.52-.8,3.04-1.61,4.56-2.41Z"/>
  <path class="cls-260" d="m775.31,538.54c1.86.33,4.46-2.23,5.46,1.41-.63,1.55-1.83,2.21-3.45,2.22-1.31-.85-2.17-1.96-2-3.63Z"/>
  <path class="cls-77" d="m777.54,541.28c1.07-.45,2.15-.89,3.22-1.33.39.48.78.94,1.18,1.4,0,.44.02.87.03,1.31-.88,2.71-2.8,3.09-5.23,2.36-.78-.55-1.09-1.29-.89-2.23h0c-.01-.76.23-1.24.74-1.44.53-.2.85-.23.95-.07Z"/>
  <path class="cls-79" d="m781.94,541.35c1.75-.12,4.1-1.17,3.54,2.28-.62.67-1.38.92-2.28.76-1.28-.71-1.83-1.73-1.4-3.19l.14.16Z"/>
  <path class="cls-41" d="m783.79,544.52c.56-.3,1.13-.6,1.7-.89,1.02.61,2.04,1.22,3.06,1.83-.88.57-1.75,1.13-2.62,1.7-.93-.07-1.61-.53-2.08-1.32-.02-.44-.03-.88-.05-1.32Z"/>
  <path class="cls-248" d="m783.93,530.58c.52-.3,1.06-.58,1.6-.85.48.41.74.94.78,1.57-.78.29-1.56.58-2.34.88-.02-.53-.03-1.06-.05-1.6Z"/>
  <path class="cls-96" d="m777.54,541.28c-.56.5-1.13,1.01-1.69,1.51-.69-1.04-1.38-2.08-2.07-3.13.13-.59.41-.95.86-1.08.44-.13.7-.14.78-.02l-.11-.02c.74.91,1.49,1.83,2.23,2.74Z"/>
  <path class="cls-47" d="m769.29,539.7c-.5-.91-.99-1.81-1.48-2.72.77.14,1.54.27,2.3.41.22.94.23,1.81-.82,2.31Z"/>
  <path class="cls-153" d="m774.9,534.27c.83.12,1.66.23,2.5.35-.9.4-1.73.28-2.5-.35Z"/>
  <path class="cls-153" d="m772.17,533.83c.9.15,1.8.29,2.7.44-.9-.15-1.8-.29-2.7-.44Z"/>
  <path class="cls-153" d="m775.42,538.56c-.55.37-1.09.74-1.64,1.11-.28-1.59.33-1.87,1.64-1.11Z"/>
  <path class="cls-96" d="m775.85,542.79c.35.51.72,1.01,1.11,1.49-.28.78-.85,1.14-1.66,1.14-.35-.53-.67-1.07-.96-1.63.49-.35.99-.69,1.51-1.01Z"/>
  <path class="cls-109" d="m647.7,307.5c-.81-.26-1.63-.51-2.44-.77.31-1.68.63-3.37.94-5.05,1.12-.65,2.25-1.3,3.37-1.95,1.59.42,2.25,1.43,1.95,3.06.25,2.05-1.21,2.99-2.59,3.97-.05.53-.25.82-.59.86-.34.04-.55,0-.63-.12Z"/>
  <path class="cls-207" d="m647.7,307.5c.44-.2.86-.45,1.23-.75,1.96,1.52,3.19,3.28,1.92,5.87-.5.03-.98.14-1.44.34-1.02-1.44-2.04-2.89-3.06-4.33.37-.48.82-.86,1.35-1.13Z"/>
  <path class="cls-247" d="m651.51,302.79c-.65-1.02-1.3-2.04-1.95-3.06.74-1.17,1.87-1.67,3.18-1.87.69.99,1.37,1.97,2.05,2.96l.03-.12c-1.1.7-2.2,1.4-3.3,2.1Z"/>
  <path class="cls-5" d="m654.79,300.81c1.72-.37,2.88.11,2.8,2.06-.01.27-1.02.81-1.37.68-1.3-.46-1.08-1.83-1.4-2.87,0,0-.03.12-.03.12Z"/>
  <path class="cls-141" d="m660.76,310.24c-.31.55-.77.85-1.41.89.21-.4.4-.83.67-1.19.04-.05.48.19.73.3Z"/>
  <path class="cls-143" d="m792.69,883.91c0,.53.13,1.03.4,1.49-.65-.11-1.3-.22-1.95-.33-.19-1.33.16-1.95,1.56-1.16Z"/>
  <path class="cls-113" d="m780.7,880.17c-.43-1.21.04-2.03,1.12-2.58.18,1.1-.25,1.93-1.12,2.58Z"/>
  <path class="cls-148" d="m777.78,758.86c-.34-.43-.72-.82-1.15-1.17-.77-1.52-1.28-3.04.1-4.51.92.21,2.02-.35,2.75.65.26.47.42.98.5,1.51-.73,1.17-1.47,2.35-2.2,3.52Z"/>
  <path class="cls-35" d="m771.41,749.33c1.07-.64,2.14-1.27,3.21-1.91-.13,3.27-1.89,4-4.74,3.06,0,0,0-.12,0-.12,0-.74.21-1.14.67-1.2.46-.06.74,0,.85.16Z"/>
  <path class="cls-174" d="m783.31,739.44c.67,1.1,1.33,2.19,2,3.29-1.33.03-2.66.06-3.98.09-.95.12-1.42-.27-1.36-1.25,1.11-.71,2.23-1.41,3.34-2.12Z"/>
  <path class="cls-78" d="m779.48,753.83c-.92-.22-1.83-.43-2.75-.65,1.12-.95,2.27-1.64,3.67-.51-.2.47-.51.86-.92,1.16Z"/>
  <path class="cls-156" d="m775.46,744.44c-.8-.97-1.61-1.95-2.41-2.92,1.9-.52,2.88.52,3.54,2.09-.37.29-.74.57-1.12.83Z"/>
  <path class="cls-103" d="m779.96,741.56c.43.45.88.86,1.36,1.25-.23.55-.47,1.1-.7,1.65-.66-.62-1.32-1.25-1.97-1.87,0,0-.16.01-.16.01.15-.56.44-.91.87-1.04.43-.13.68-.14.75-.03l-.14.03Z"/>
  <path class="cls-60" d="m621.64,432.94c-.46-.4-.86-.85-1.22-1.34,0,0,.05-.83.05-.83l-.67-.49c-.12-.66.02-1.08.43-1.28.45-.22.71-.26.8-.12,2.01-.16,3.53-.8,4.16-3.05.57-2.03,1.88-3.27,4.22-2.15.44,1.01.89,2.02,1.33,3.04-3.04,2.07-6.08,4.14-9.11,6.22Z"/>
  <path class="cls-168" d="m615.2,423.38c.93-.16,1.87-.2,2.39.73.13.23-.29.78-.45,1.18-.65-.61-1.3-1.22-1.96-1.83,0,0,.02-.07.02-.07Z"/>
  <path class="cls-211" d="m615.72,430.15c-.33-.56-.66-1.12-.98-1.67,1.02.15,1.3.74.98,1.67Z"/>
  <path class="cls-252" d="m760.2,413.45c-.47.41-.96.8-1.46,1.17-.35-.36-.65-.76-.91-1.19-1.71-.98-2.82-.42-3.46,1.34-.5.45-.99.89-1.49,1.33-1.7-.73-3.35-1.67-5.31-1.05-1.73-2.69-3.47-5.38-5.2-8.08.3-.38.69-.64,1.15-.79.36-.7.85-1.28,1.48-1.74.73-.28,1.49-.39,2.27-.38.77.02,1.54.11,2.3.22,1.93.15,3.72.94,5.63,1.2.4-.36.83-.69,1.28-.99.94.06,1.37.55,1.31,1.49-1.74,3.3,1.61,4.97,2.4,7.46Z"/>
  <path class="cls-216" d="m755.21,405.49c-2.28,1.41-4.62,1.66-7.05.39-.46-.53-.44-1.03.06-1.51,0,0-.79-.27-.79-.27,0,0-.15.82-.17.83-.6,0-1.19.01-1.77.05l.1.05c-.92-.31-1.37-.95-1.36-1.92-1.18-2.14-.87-3.81,1.5-4.85,1.58.62,3.24,2.26,4.81.29,1.7-2.15,3.1-.74,4.64.03v.07c-3.16,2.3-1.99,4.57.04,6.83Z"/>
  <path class="cls-7" d="m757.8,405.99c-.43-.5-.87-.99-1.3-1.49,0,0,.1-.12.1-.12.32-.81.58-1.64.76-2.49,3.12-.13,2.66,1.74,2.05,3.68-.53.16-1.07.3-1.61.41Z"/>
  <path class="cls-117" d="m755.17,398.58c.85-.22,1.7-.44,2.55-.67-.28,2.24-1.55,1.04-2.56.73v-.07Z"/>
  <path class="cls-237" d="m749.61,393.33c.25-.66.73-1.04,1.43-1.13.32.5.61,1.01.86,1.55-.77-.14-1.53-.28-2.3-.41Z"/>
  <path class="cls-252" d="m757.36,401.89c-.25.83-.51,1.66-.76,2.49.25-.83.51-1.66.76-2.49Z"/>
  <path class="cls-10" d="m769.75,473.8c3.41,1.43,6.07,4.48,10.03,4.75,2.02,2.15,1.99,3.88-1.05,4.96-1.57-1.15-2.56-5.44-5.17-.96-2.96-1.8-5.82-1.84-8.57.45-1.82-2.63.04-4.02,1.84-5.42.8-.92.63-2.11.89-3.19.57-.55,1.25-.75,2.03-.6Z"/>
  <path class="cls-80" d="m778.73,483.51c1.16-1.48,1.29-3.18,1.05-4.96l-.02.06c.3-1.08.96-1.93,1.69-2.74.62-.4,1.3-.64,2.03-.74.35.08.71.17,1.06.26.67,1.22,1.34,2.44,2.01,3.66-.1.59-.23,1.17-.39,1.75-2.37,1.2-3.98,4.5-7.44,2.7Z"/>
  <path class="cls-164" d="m789.97,469.65c-.16.89-.32,1.78-.48,2.68-.85-.19-1.71-.38-2.56-.57,1.02-.7,2.03-1.4,3.05-2.1Z"/>
  <path class="cls-234" d="m783.96,471.34c.41.45.87.86,1.37,1.21-.26.95-.52,1.89-.78,2.84l.08.03c-1.51-.21-2.21-1.19-2.44-2.61.13-.65.44-1.08.92-1.3.5-.23.78-.29.86-.17Z"/>
  <path class="cls-122" d="m786.17,480.81c.13-.59.26-1.17.39-1.75.54.73.28,1.29-.39,1.75Z"/>
  <path class="cls-150" d="m823.7,731.47c-3.84-1.4-4.96-3.94-3.23-7.69,1.13.25,2.25.5,3.38.74h-.03c3.9-1.03,4.81,1.84,6.01,4.69-2.08.76-4.1,1.5-6.12,2.25Z"/>
  <path class="cls-145" d="m829.18,718.61c.35.47.84.9,1,1.42.27.87,1.86,2.09.25,2.6-1.18.38-1.69-1.27-1.7-2.46,0-.53.37-1.06.58-1.58l-.13.02Z"/>
  <path class="cls-112" d="m833.85,530.62c-.51.24-1.03.44-1.58.6-.62-1.06-1.25-2.12-1.87-3.17.36-.42.65-.89.88-1.39.86,1.32,1.71,2.64,2.57,3.97Z"/>
  <path class="cls-221" d="m574.17,381.48c-.04-.55-.22-1.05-.55-1.5,2.43-3.03,4.86-6.07,7.29-9.1,2.65.41,5.31.83,7.96,1.24,1.21.69,2.42,1.38,3.64,2.07l-.02.15c-.42,1.57-1.42,2.28-3.05,2.07-1.26,1.58-2.52,3.16-3.77,4.74-.04.8-.45,1.32-1.22,1.57-.74.06-1.48.05-2.22,0-1.15.05-2.16.51-3.15,1.07-2.67,1.45-4.7,1.5-4.91-2.29Z"/>
  <path class="cls-243" d="m584.04,382.14c.54-.34,1.08-.67,1.63-.99.65,1.14,1.3,2.28,1.94,3.43-.23.73-.73.96-1.45.77-.23.89-.46,1.79-.68,2.68-.26.89-.36,1.81-.57,2.71l.02-.08c-.14.93-.53,1.8-.6,2.75,0,0,.04.35.04.35-3.42-.18-5.88-2.75-9.03-3.62-.12-.39-.23-.79-.35-1.18.05-.82.3-1.57.76-2.25,1.14-1.01,2.89-1.13,3.77-2.53.49-.54,1.08-.95,1.73-1.28.88-.44,2.06.22,2.81-.75Z"/>
  <path class="cls-23" d="m589.45,376.41c1.02-.69,2.03-1.38,3.05-2.07.19,2.47-.92,3.02-3.05,2.07Z"/>
  <path class="cls-24" d="m586.16,385.34c.47-.28.96-.54,1.45-.77.21.75-.03,1.2-.7,1.19-.25,0-.5-.27-.76-.42Z"/>
  <path class="cls-95" d="m584.9,390.73c.19-.9.38-1.81.57-2.71-.19.9-.38,1.81-.57,2.71Z"/>
  <path class="cls-230" d="m584.32,393.4c-.36-1.04-.06-1.93.6-2.75-.2.92-.4,1.83-.6,2.75Z"/>
  <path class="cls-136" d="m580.68,384.12c.3,3.7-2.91,2.73-4.76,3.57-.28.54-.32,1.11-.13,1.68l-.46.75c-.49.14-.97.3-1.44.46-.59-.88-1.17-1.77-1.76-2.65.16-.88.33-1.75.49-2.63.05-.91.1-1.82.14-2.73.34-.53.81-.9,1.4-1.11,1.78,2.74,3.26,1.49,4.69-.36,1.5.46,2.13,1.44,1.82,3Z"/>
  <path class="cls-218" d="m570.47,406.99c-2.51.25-2.1-3.37-4.43-3.35.57-1.46,1.81-1.96,3.2-2.27,1.83-.32,3.3.19,4.31,1.82.42.77.49,1.58.21,2.41-.92.88-1.83,1.77-3.28,1.39Z"/>
  <path class="cls-238" d="m572.61,403.22c-1.13-.62-2.25-1.23-3.38-1.84,1-.76,2.01-1.51,3.01-2.27.99-.02,1.28.46.97,1.37.3.59.6,1.18.9,1.77.02.77-.19,1.17-.65,1.2-.45.03-.74-.04-.86-.23Z"/>
  <path class="cls-126" d="m573.22,400.47c-.33-.45-.66-.91-.97-1.37,1.03-.69,2.06-1.38,3.09-2.07.18,1.69-.81,2.66-2.12,3.44Z"/>
  <path class="cls-58" d="m776.81,663.39c.81-.7,1.01-1.59.75-2.6.46-1.24.92-2.49,1.38-3.73l.03-.17c-.41-1.93,1.13-2.63,2.26-3.57,3.89.86,7.83,3.08,11.59-.36.78.38,1.21,1,1.29,1.86-.11,1.47-.76,2.88-.51,4.37.8.75,1.96.81,2.82,1.46.89.95,1.21,2.05.99,3.33-1.89,4.28-5.15,2.63-8.2,1.95-.61.42-1.25.76-1.91,1.09-1.45.6-2.95.89-4.51.97-.82,0-1.56-.24-2.24-.69-1.59-.97-3.45-1.68-3.75-3.89Z"/>
  <path class="cls-28" d="m771.11,639.98c.34-1.28.68-2.57,1.02-3.85.38.07.76.14,1.14.22,2.24,1.38,1.89,3.43,1.45,5.51-.35.89-.97,1.18-1.87.87-.58-.91-1.16-1.83-1.74-2.74Z"/>
  <path class="cls-196" d="m772.85,642.73c.51-.21,1-.44,1.48-.72.77.08,1.04.48.8,1.22.03.49.15.96.37,1.41-1.3-.05-2.3-.53-2.65-1.91Z"/>
  <path class="cls-89" d="m804.81,807.65c.72,1.3,1.6,2.68-.71,3.27-.79.2-2.48.3-2.22-.36.46-1.18,1.91-1.96,2.95-2.92h-.02Z"/>
  <path class="cls-245" d="m797.8,814.51c.02.52.25,1.27,0,1.52-.47.46-1.03.16-1.28-.5.38-.4.81-.74,1.28-1.02Z"/>
  <path class="cls-178" d="m578.35,356.1c-.55,1.39-.55,2.76.09,4.12-3.66-.01-1.73,3.51-3.13,4.93v-.04c.7,3.21-2.11,3.38-3.86,4.47-3.23-.72-4.54-2.83-4.35-6.02-1.54-2.46-3.08-5.52-6.39-2.29-3.36,3.28-4.02-.77-5.8-1.79-.97-1.81-1.03-3.69-.4-5.62.81-.81,1.62-1.62,2.42-2.43.94.04,1.43,1.78,2.17,1.13,1.33-1.18.27-2.9.3-4.38,2.64-2.23,5.29-4.36,8.79-1.48.48,4.24,3.59,4.73,6.95,4.86,1.07,1.51,2.15,3.03,3.22,4.54Z"/>
  <path class="cls-121" d="m567.1,363.57c1.45,2.01,2.9,4.01,4.35,6.02-1.07.68-2.15,1.36-3.22,2.04-.73-.94-1.47-1.88-2.2-2.82h.06c-.54.35-1.09.69-1.63,1.03-.38-.36-.7-.76-.96-1.21-.46-2.87,1.66-3.9,3.61-5.06Z"/>
  <path class="cls-70" d="m775.12,643.23l-.46-.57s-.34-.65-.34-.65c-.35-1.89-.71-3.77-1.06-5.66.93-.93,2.13-1.66,2.68.05.74,2.29,1.19,4.77-.82,6.83Z"/>
  <path class="cls-13" d="m663.81,444.34c.37-.31.78-.55,1.24-.71.36.61.72,1.22,1.08,1.83-1.04.49-.96,2.82-2.44,2.1-1.41-.69-.49-2.14.13-3.22Z"/>
  <path class="cls-13" d="m667.6,450.73c-.55.51-1.1,1.02-1.65,1.53-.32-1.45.1-2.1,1.65-1.53Z"/>
  <path class="cls-110" d="m793.74,654.37l-.49-.69s-.43-.72-.43-.72c.65-1.2,1.3-2.39,1.95-3.59.83.65,1.72.75,2.67.28,4.65,1.71,8.18,4.77,10.76,8.97.03.76-.27,1.34-.95,1.7-.68.19-1.36.18-2.03.03-1.12-.22-1.89.61-2.81,1.02-3.73.83-4.09-3.04-6.24-4.41-.94-.74-1.84-1.52-2.42-2.59Z"/>
  <path class="cls-225" d="m809.21,664.74c-.35.38-.69.77-1.01,1.18-3.69.28-6.15-.56-4.56-5.05.75-.81,1.65-1.04,2.7-.7l-.04-.02c1.37-.07,1.89.57,1.55,1.9.46.9.91,1.8,1.37,2.69Z"/>
  <path class="cls-228" d="m807.84,662.05c-.52-.63-1.03-1.27-1.55-1.9.63-.51,1.27-1.02,1.9-1.53q1.68,1.09-.35,3.43Z"/>
  <path class="cls-69" d="m693.6,1001.07c.12.63.32,1.23.6,1.8-.42.41-.86.79-1.31,1.16q-1.68-1.17.71-2.96Z"/>
  <path class="cls-181" d="m674.58,306.29c.99-.62,1.98-1.23,2.98-1.85.12,2.4-1.14,2.59-2.98,1.85Z"/>
  <path class="cls-170" d="m747.54,855.59c-.85-.18-1.71-.36-2.56-.54-1.95-1.54-3.9-3.08-5.85-4.61.08-2.26.16-4.53.24-6.79,3.08-1.27,4.75-5.52,9.02-4.31.3,1.46.23,2.93.04,4.4l.28.69c-.08.67-.34,1.01-.77,1.04-.41.02-.67-.05-.77-.21-1.51,3.96,2.28,5.95,3.32,8.96-.98.46-1.96.92-2.94,1.38Z"/>
  <path class="cls-195" d="m754.51,843.13c.5.91,1.01,1.83,1.51,2.74.31.89.29,1.77-.08,2.63h0c-1.57.94-2.65.93-3.44-1.11-.9-2.33.13-3.41,2.01-4.26Z"/>
  <path class="cls-175" d="m748.42,843.73c-.86-1.46-1-2.92-.04-4.4,1.06-.23,1.94.03,2.58.94-.85,1.15-1.7,2.31-2.54,3.46Z"/>
  <path class="cls-33" d="m747.16,845.25c.41-.46.93-.73,1.54-.82.51.78,1.25,1.92.37,2.41-.81.45-1.51-.73-1.91-1.59Z"/>
  <path class="cls-208" d="m809.69,610.27c-3.54,1.76-6.99.12-10.46-.32-.79-4.46-4.44-7.7-4.62-12.68-.15-4.19.31-7.78,2.45-11.25.6-.3,1.2-.61,1.8-.91.53.39,1.13.51,1.72.23.24-.11.17-.51-.07-.88.87-.41,1.74-.58,2.54.16,2.51-1.02,5.07,4.17,7.57-.06,1.21-.35,2.42-.65,3.66-.84.48-.3,1-.38,1.55-.25.86-.23,1.65-.07,2.36.47l.16.08c.03,1.56-.86,2.54-2.11,3.27-.92-.24-1.87-.34-2.8-.56-.45,2.3-4.77,7.14,2.83,4.11,1.54-.61,3.59.05,5.4.12l-.46.08c-.53,1.11-.13,2.35-.45,3.49-.75,1.44-1.93,2.43-3.34,3.18-.68.32-1.39.52-2.13.61-.96-.03-1.93-.05-2.51.95-.3.54-.73.94-1.26,1.21-.38,1.36,1.44.8,1.54,1.76.64,1.52.59,3.04.16,4.58-.79,1.54-1.66,2.99-3.52,3.43Z"/>
  <path class="cls-160" d="m774.81,449.57c-.13.89-.26,1.79-.39,2.68-.72-.97-1.43-1.94-2.15-2.91.41-.48.9-.84,1.48-1.09.36.43.72.87,1.06,1.32Z"/>
  <path class="cls-214" d="m873.09,517.9c-.1.85-.2,1.7-.3,2.55-.73-.18-1.46-.35-2.19-.53-1.44-.5-3.68-.89-4.01-1.89-1.96-5.99-2.53,1.73-3.88.3-.38-.54-.76-1.07-1.14-1.61-.92-1.49-1.85-2.98-2.77-4.47.97-.82,1.94-1.65,2.91-2.48,1.4.6,2.74-1.09,4.15-.12l.04.03c.43,2.12-.12,4.97,3.5,4.74.74.17.97.63.75,1.34.98.71,1.96,1.42,2.94,2.14Z"/>
  <path class="cls-65" d="m862.7,518.33c1.06-1.01.06-6.25,3.82-1.8,1.12,1.33,2.71,2.27,4.08,3.38-2.9.8-5.51.19-7.89-1.59Z"/>
  <path class="cls-42" d="m859.04,522.95c-1.52-1.22-2.4-2.82-2.83-4.69,1.29-.14,2.58-.28,3.86-.41.39.47.74.97,1.04,1.51-.28.98.27,2.18-.83,2.93-.44.18-.85.4-1.24.66Z"/>
  <path class="cls-49" d="m860.28,522.28c.28-.98.55-1.95.83-2.93.87,1.11,1.88,2.17,1.51,3.78-.78-.28-1.56-.57-2.33-.85Z"/>
  <path class="cls-171" d="m780.56,667.28c.94-.39,1.88-.78,2.81-1.17,1.41,1,2.95,1.03,4.56.65.8.27,1.34.81,1.66,1.59-.03,1.33-.72,2.28-1.71,3.07-.7.43-1.47.7-2.28.81-.4-.1-.79-.19-1.19-.29-1.4.15-2.81.29-4.21.44-1.06-1.78-2.56-3.59.36-5.09Z"/>
  <path class="cls-173" d="m570.47,406.99c1.04-.7,2.09-1.39,3.13-2.09.96.1,1.32.62,1.06,1.55,0,0-.06.29-.06.29-1.06.6-2.13,1.2-3.19,1.8,0,0-.5-.76-.5-.76l-.45-.79Z"/>
  <path class="cls-212" d="m571.45,415.36l-.47-.68-.35-.75c1.64-.31,1.79.25.83,1.44Z"/>
  <path class="cls-229" d="m565.54,410.01c-.53.38-1.06.76-1.59,1.14-.87-.17-1.16-.67-.88-1.5l-.08-.09c.85.15,1.7.31,2.55.46Z"/>
  <path class="cls-204" d="m810.79,586.31c-3.49,3.6-5.31-.45-7.75-1.69,1.12-2.93,3.25-2.94,5.72-1.98,1.62.7,2.43,1.85,2.02,3.67Z"/>
  <path class="cls-72" d="m810.79,586.31c-.67-1.22-1.35-2.45-2.02-3.67,2.04-.71,3.77.21,5.5,1.08-1.16.86-2.32,1.72-3.48,2.59Z"/>
  <path class="cls-162" d="m800.5,584.46c.26.76,1.07,1.55.16,2.26-.12.09-1.18-1.04-1.81-1.61.55-.22,1.1-.43,1.65-.65Z"/>
  <path class="cls-72" d="m818.18,583.95c-.79-.16-1.57-.31-2.36-.47.41-.47.9-.84,1.46-1.11.43.45.73.98.9,1.58Z"/>
  <path class="cls-111" d="m800.39,821.67c.14-.43.28-.86.42-1.28-.1.44-.19.88-.28,1.32,0,0-.14-.04-.14-.04Z"/>
  <path class="cls-107" d="m813.43,586.74c1.07-.48,1.99-.25,2.8.56-.93-.19-1.87-.37-2.8-.56Z"/>
  <path class="cls-132" d="m793.09,341.2c.54-.1.99-.34,1.37-.74.53.32,1.03.74,1.61.93,2.24.75,4.43,1.87,3.29,4.57-1.27,3-3.94,2.62-6.32,1.27-.73-.41-1.07-1.51-1.58-2.29,1.12-1,1.63-2.26,1.64-3.75Z"/>
  <path class="cls-43" d="m832.24,429.57c.38.38.68.82.91,1.3.13.37.27.74.41,1.1.3,1.12.83,2.15,1.29,3.2.29.69.42,1.41.41,2.15-.5,1.76,1.24.18,1.43.92,1.44.51,2.41,1.61,3.4,2.69-.58,3.99-3.3,4.64-6.67,4.26-1.11.33-2.06-.51-3.13-.46-3.94-.74-4.72-4.09-5.89-7.11.59-1.23,1.18-2.47,1.77-3.7,2.03-1.46,4.06-2.91,6.08-4.37Z"/>
  <path class="cls-194" d="m840.08,440.95c-2.05.23-3.27-1.05-4.46-2.41l-.76-.22-.29-.73c.2-.28.36-.59.46-.93-.52-1.52-2.11-2.71-1.45-4.61-.06-.42-.21-.81-.43-1.17.58.12,1.14.04,1.66-.24.8.76,1.71.62,2.64.35,2.31,2.94,5.66,5.61,2.62,9.96Z"/>
  <path class="cls-183" d="m830.29,444.75c1.13-.43,2.16-.22,3.13.46-.26.6-.52,1.2-.78,1.8-.78-.75-1.57-1.51-2.35-2.26Z"/>
  <path class="cls-120" d="m704.98,808.64c-2,.61-3.85.69-5.07-1.45.19-1.38,1.91-1.98,1.78-3.51,5.19-1.08,3.04,2.73,3.29,4.94v.02Z"/>
  <path class="cls-116" d="m701.7,803.68c.81,1.88-.59,2.65-1.78,3.51-.98-1.97.32-2.78,1.78-3.51Z"/>
  <path class="cls-66" d="m809.69,610.27c.84-1.43,1.69-2.86,2.53-4.29.27-1.36,1.23-2.16,2.32-2.86,1.93-.86,3.92-1.57,5.97-2.14.85-.15,1.69-.06,2.49.25.23.51.45,1.02.67,1.53-.76.72-1.51,1.44-2.27,2.16-.96,1.19-1.91,2.38-2.87,3.56-.73-.36-1.24-.15-1.52.61,0,0,.09.82.1.82-2.47.12-4.94.24-7.4.36Z"/>
  <path class="cls-37" d="m738.03,841.92c-.67-1.06-1.35-2.12-2.02-3.17,1.28-.72,2.76-2.05,3.92-.23,1.19,1.86-.75,2.53-1.89,3.4Z"/>
  <path class="cls-45" d="m756.02,736.92c-.98.52-1.97,1.04-2.95,1.56.11-2.86-2.31-5.41-1.01-8.4.38-.08.76-.17,1.14-.26,2.49.29,2.96,2.19,3.32,4.17.01.77-.06,1.54-.2,2.3l-.31.64Z"/>
  <path class="cls-51" d="m749.25,736.48c-.46.25-.91.51-1.35.78-.67-1.02-1.33-2.04-2-3.06,2.43-1.16,4.41-1.67,3.34,2.28Z"/>
  <path class="cls-64" d="m755.93,725.01c.33.67.67,1.34,1,2.01-.29.37-.57.74-.86,1.11-.46-.07-.93-.14-1.39-.22-.17-.44-.33-.88-.5-1.31l-.45-.8-.53-.75c.19-.48.38-.96.57-1.44.51-.01,1.03-.02,1.54-.03.21.47.41.94.62,1.42Z"/>
  <path class="cls-97" d="m754.8,723.71c-.53.45-1.07.9-1.6,1.35-1.06.13-2.07.07-2.82-.84.25-.48.64-.76,1.17-.83.44-.87,1.14-1.31,2.13-1.25l.09-.22c.96.24,1.31.84,1.03,1.8Z"/>
  <path class="cls-165" d="m754.18,726.6c.33.33.53.72.61,1.17.09,1.9-1.1,2.41-2.69,2.49l-.04-.19c-.33-1.79.71-2.74,2.12-3.47Z"/>
  <path class="cls-169" d="m731.98,334.77c-.4-.52-.8-1.04-1.2-1.56-1.74-.64-1.42-2.2-1.6-3.55,0-1.01.04-2.02.07-3.02,0-.93.12-1.86.25-2.78.08-.57.1-1.15.05-1.73,0,0-.31-.8-.31-.8l-.49-.7c.18-2.69,2.76-2.84,4.32-4.06.36.38.73.76,1.1,1.14h.06c.48-.32.98-.59,1.52-.8,3.02,3.86,4.25,8.85,7.8,12.37-.66,1.21-1.32,2.42-1.97,3.63-.53.02-.92.26-1.16.74-2.23-.77-4,.36-5.79,1.4-.81-.74-1.71-.69-2.64-.28Z"/>
  <path class="cls-124" d="m559.39,348.18q3.85,3.46-1.79,8.74c-.23-1.86-.45-3.67-.67-5.49-.04-1.74.71-2.88,2.47-3.26Z"/>
  <path class="cls-131" d="m754.8,723.71c-.34-.6-.69-1.2-1.03-1.8.61-.03,1.14-.26,1.57-.69.34.4.72.74,1.16,1.02-.07.34-.14.68-.21,1.02-.35.07-.69.14-1.04.21l-.45.24Z"/>
  <path class="cls-87" d="m758.68,716.63s-.7.43-.7.43c-.56-.53-1.35-1.07-.13-1.69.05-.03.54.82.83,1.25Z"/>
  <path class="cls-250" d="m544.81,391.78c-.63-1.84-.09-3.21,1.95-2.69,1.9.48,2.01,1.97.63,3.42-.8-.46-1.73-.43-2.58-.73Z"/>
  <path class="cls-129" d="m544.81,391.78c.86.24,1.72.48,2.58.73-1.19.94-2,.49-2.58-.73Z"/>
  <path class="cls-255" d="m753.68,722.14c-.71.42-1.42.83-2.13,1.25.05-.81.1-1.61.14-2.42.66.39,1.32.78,1.98,1.17Z"/>
  <path class="cls-76" d="m870.15,515.76c-.25-.45-.5-.9-.75-1.34.49-.02.98-.03,1.47-.05-.24.46-.48.93-.72,1.39Z"/>
  <path class="cls-134" d="m762.86,473.52c-.43-1.05-1.41-2.28-1.14-3.1.37-1.12,1.76-1.33,2.87-.33.41.59.56,1.23.44,1.93-.21.28-.41.55-.62.83-.46.36-.97.58-1.54.67Z"/>
  <path class="cls-144" d="m767.95,474.22c.22,1.31-.06,2.46-1.11,3.36-.81-1.58-1.62-3.16-2.43-4.73,0,0,.33-.21.33-.21,2.39-2.13,2.83-.34,3.21,1.59Z"/>
  <path class="cls-85" d="m685.05,522.23c1.45-.23,3.08-1.3,4.06.71.14.28-.38,1.19-.8,1.39-2.26,1.09-2.43-1.05-3.23-2.21l-.03.11Z"/>
  <path class="cls-81" d="m767.95,474.22c-.79-1.1-1.75-1.85-3.21-1.59-.05-.85-.1-1.7-.15-2.55,2.06-1.07,1.84-4.15,4.29-4.89-.49,2.95,4.04,5.38.88,8.6-.61.11-1.21.25-1.81.42Z"/>
  <path class="cls-266" d="m595.28,385.97c-.47.33-.91.68-1.34,1.06-.31-.99-.17-1.88.62-2.61.24.51.48,1.03.71,1.54Z"/>
  <path class="cls-30" d="m823,601.23c-.67.35-1.33.69-2,1.04-1.35-.5-2.04-1.51-2.2-2.91.22-.86.68-1.58,1.37-2.14.41-.15.81-.31,1.22-.46.43.07.86.15,1.29.23.51,1.04,1.02,2.09,1.54,3.13-.39.39-.8.76-1.22,1.12Z"/>
  <path class="cls-257" d="m820.28,593.84c.31-.93.61-1.86.92-2.79.68,1.93,3.4,3.35,1.48,5.93,0,0-.12-.04-.12-.04-.78-.05-1.46-.33-2.01-.9-.35-.7-.44-1.43-.28-2.2Z"/>
  <path class="cls-100" d="m767.2,536.8c-.64-.14-1.29-.27-1.93-.41.64.14,1.29.27,1.93.41Z"/>
  <path class="cls-20" d="m744.23,403.11c.45.64.91,1.28,1.36,1.92-.69.39-1.38.77-2.07,1.16-.27-1.14-.35-2.23.7-3.07Z"/>
  <path class="cls-46" d="m731.44,323.79c-.19.96-.39,1.92-.58,2.87-.08.55-.38.94-.87,1.16.02,0-.56.42-.54.42s.51.47.52.47.48.5.48.5c.11,1.33.22,2.66.33,4-.45.37-.93.68-1.46.93-2.73-2.53-4.87-5.45-5.82-9.12.9-.72,1.81-1.45,2.71-2.17,1.6.47,2.81-1.03,4.35-.87.76.38,1.05.98.87,1.81Z"/>
  <path class="cls-93" d="m730.25,322.22c-1.25.81-2.51,1.6-4.04.62.85-.74,1.69-1.48,2.54-2.22,0,0,.72.28.72.28.91.06,1.17.5.79,1.32Z"/>
  <path class="cls-63" d="m804.77,660.9c-1.66,3.59,1.82,3.67,3.43,5.03,1.5,2.71.36,5.55.38,8.33-.98.66-1.95,1.31-2.93,1.97-.89-.12-1.79-.23-2.68-.35-1.25-.75-1.16-1.88-.87-3.05.15-.83.92-1.71-.15-2.49-.99-.22-1.83-.65-2.51-1.37-.4-.54-.71-1.12-.93-1.75-.31-.91-.59-1.84-.83-2.77,0,0-.41-.86-.41-.86-.69-1.05-1.37-2.11-2.06-3.16-.53-.94-.53-1.95-.36-2.97.22-1.02.69-1.91,1.5-2.6,2.12.23,3.36,1.52,3.85,3.47.56,2.27,1.96,1.86,3.48,1.27.97-.08,1.33.36,1.09,1.3Z"/>
  <path class="cls-140" d="m458.44,323.89c-.17.02-.41.06-.65.09,0-.39,0-.78,0-1.16.3.06.6.11.9.17-.08.29-.16.59-.24.91Z"/>
  <path class="cls-199" d="m775.3,545.42c.55-.38,1.11-.76,1.66-1.14,2.29.03,3.68-1.35,4.84-3.09.66,1.11,1.32,2.22,1.98,3.33v-.07c.1,3.8-.28,7.23-5.46,6.77-4.53-.4-7.87,4.58-12.7,2.79-1.27-.6-2.53-1.19-3.8-1.79.4-.34.77-.69,1.13-1.07q4.41-7.26,12.34-5.72Z"/>
  <path class="cls-19" d="m770.01,828.17c.61.98,1.21,1.97,1.82,2.95-1.2.73-2.46,2.45-3.74.4-1.21-1.95.74-2.53,1.92-3.35Z"/>
  <path class="cls-157" d="m569.52,419.3c1.48,2.3-.25,4.4-.39,6.61-.53.38-1.07.75-1.6,1.13-.93-1.57-1.86-3.14-2.78-4.7.52-.39,1.05-.78,1.57-1.17.32-.22.64-.44.96-.65.75-.4,1.5-.8,2.24-1.21Z"/>
  <path class="cls-91" d="m803.58,673.14c-.2.91-.41,1.82-.61,2.72-.57.3-1.14.59-1.72.89-1.94-.11-3.94.7-5.83-.36-.7-.43-1.3-.96-1.83-1.58-.73-1.02-1.17-2.15-1.23-3.41.13-.82.47-1.56.97-2.22.85-.9,1.88-1.52,3.07-1.85.79-.11,1.55.03,2.24.44,1.14,1.54,2.34,3.01,4.39,3.37.58.56.76,1.23.55,2Z"/>
  <path class="cls-192" d="m524.47,382.03c-.56.32-1.12.64-1.67.96-3.46.67-7.05,1.59-7.54-3.73.4-2.2,1.68-3.52,3.9-3.9.49.11.97.21,1.46.32,1.29,2.12,2.57,4.24,3.86,6.35Z"/>
  <path class="cls-192" d="m796.4,675.68c1.74-.2,3.37.07,4.85,1.07-.93.77-1.86,1.54-2.79,2.31l-.9-.18c-.66-.24-1.16-.68-1.49-1.3-.2-.69-.1-1.32.34-1.9Z"/>
  <path class="cls-182" d="m517.7,469.13c.11-.87.22-1.74.33-2.62.94-.65,1.89-1.3,2.83-1.96,2.41,1.36,6.33.21,7.14,4.26.1.84-.04,1.65-.43,2.4l-.03.04c-1.81,2.5-4.88,1.46-7.2,2.55-.88-1.56-1.76-3.12-2.64-4.68Z"/>
  <path class="cls-223" d="m527.56,471.22c.14-.8.29-1.6.43-2.4.47.39.85.86,1.12,1.4-.44.45-.96.79-1.55,1Z"/>
  <path class="cls-137" d="m796.68,677.22c.39.51.68,1.06.87,1.67-1.41,1.09-2.82,2.19-4.22,3.28-.42-.13-.83-.26-1.25-.39.03-.43.07-.87.1-1.31-.96-1.1-1.72-2.52-3.57-2.12-.35-.49-.71-.97-1.07-1.44-2.3-1.9-.61-3.02.82-4.18,1.87-.77,3.42-.04,4.9,1.03,1.25,1.04,1.68,2.9,3.42,3.47Z"/>
  <path class="cls-171" d="m789.63,672.99c-1.33.97-2.24,2.16-2.09,3.92-2.33-.85-4.76-1.63-3.13-4.97h-.07c1.13.32,2.11-.14,3.1-.58,1.25-.15,2.08.26,2.19,1.63Z"/>
  <path class="cls-189" d="m889.22,899.21c.9.07,1.79.14,2.69.21,2.02.73,3.92,1.62,4.75,3.83-1.21,3.17-1.1,7.33-5.88,7.82-.89-.05-1.78-.1-2.67-.15l-.48-.69-.33-.77c-.18-1.35-.16-2.81-1.86-3.3l-.55-.65-.45-.72c.95-1.08,1.74-2.23,1.62-3.77,1.05-.6,2.1-1.21,3.15-1.81Z"/>
  <path class="cls-200" d="m765.63,554.01c5.07-1.05,8.4-7.07,14.96-4.59,2.27.86,1.47-3.63,3.19-4.97.71.91,1.42,1.81,2.14,2.71.08.4.25.76.51,1.06-.7,3.06-6.19,3.9-3.9,8.36-1.23,1.39-2.87-.07-4.2.6-.69-.16-1.37-.31-2.06-.47-.81.28-1.84.02-2.35,1-.54.09-1.01.31-1.43.66-2.47-.13-4.04-2.08-6.11-3.03-.28-.43-.53-.87-.76-1.33Z"/>
  <path class="cls-149" d="m678.19,398.02c-.35.27-.66.57-.94.91-2.36-1.1-3.79-2.3-.47-4.05.47,1.05.94,2.09,1.41,3.14Z"/>
  <path class="cls-88" d="m831.15,806.33c-1.61,1.9-3.79,2.82-6.06,3.62-.99-1.52-1.97-3.04-2.96-4.57,1.28-3.17,3.85-1.98,6.12-1.8,1.85-.02,2.25,1.5,2.9,2.75Z"/>
  <path class="cls-269" d="m828.25,803.58c-2.04.6-4.08,1.2-6.12,1.8-1.29-1.1-.56-2.57-.73-3.88,1.05-.71,2.1-1.42,3.16-2.12.86.23,1.73.46,2.59.69.37,1.17.73,2.34,1.1,3.51Z"/>
  <path class="cls-62" d="m817,609.08c-.1-.68.17-1.04.81-.97.25.03.47.23.71.35-.46.33-.97.54-1.52.61Z"/>
  <path class="cls-265" d="m515.48,378.78c1.38,3.23,4.43,3.57,7.31,4.21-.81,1.21-1.61,2.41-2.42,3.62-.47-.06-.85.11-1.14.49-.73-.62-1.47-1.25-2.2-1.87-.69-.84-1.66-1.06-2.67-1.18h.01c-.4-.55-.8-1.1-1.19-1.65l.03.05c.4-.84.55-1.74.69-2.65h0c.09-.66.35-1.02.8-1.11.44-.08.71-.05.8.09h-.02Z"/>
  <path class="cls-192" d="m514.36,384.05c1.17-.24,2.07.13,2.67,1.18-1.12.12-2.06-.14-2.67-1.18Z"/>
  <path class="cls-264" d="m566.35,480.89c.39-.15.72-.38,1.01-.69.73.92,1.47,1.83,2.2,2.74-2.04.83-2.6-.65-3.21-2.05Z"/>
  <path class="cls-11" d="m865.86,509.66c-1.36.94-2.74,1.14-4.15.12,1.05-.57,2.1-1.13,3.15-1.7.43.46.77.99,1,1.58Z"/>
  <path class="cls-224" d="m885.45,906.17c.77-.19,2.04-.76,2.21-.52.92,1.26.16,2.57-.35,3.82-1.22-.76-1.8-1.88-1.86-3.3Z"/>
  <path class="cls-29" d="m755.94,848.5c-.54-.9-.58-1.77.09-2.63.43.52.86,1.04,1.28,1.55-.41.42-.86.78-1.37,1.08Z"/>
  <path class="cls-104" d="m773.92,557.7c.12-1.89,1.12-1.7,2.35-1,.15.49.29.99.44,1.49-1.04.5-1.98.38-2.78-.49Z"/>
  <path class="cls-223" d="m520.34,473.8c1.27-4.04,4.71-1.94,7.2-2.55.25.49.45.99.61,1.51-1.4,1.01-2.79,2.02-4.19,3.03-.89-.1-1.79-.2-2.68-.3-.31-.56-.62-1.13-.93-1.69Z"/>
  <path class="cls-12" d="m855.09,812.04c.87,1.36,1.75,2.72,2.62,4.08-.88,1.74-2.44,2.63-4.17,3.28-1.74-.91-3.51-1.78-4.37-3.73,1.68-1.69,3.59-3.01,5.93-3.63Z"/>
  <path class="cls-26" d="m563.07,409.65c.33.48.62.98.88,1.51,1.04,1.62,2.08,3.25,3.12,4.87l.02-.09c-2.98,1.2-4.62-.73-6.26-2.67-.48-1.96,1.23-2.57,2.24-3.62Z"/>
  <path class="cls-54" d="m754.37,414.77c-.49-1.1-1.11-2.49.09-3.22,1.85-1.12,2.53.69,3.37,1.87-1.15.45-2.3.9-3.46,1.34Z"/>
  <path class="cls-108" d="m706.47,324.17c-.48.4-1,.75-1.55,1.05-.67-1.07-.56-1.97.56-2.67.35.52.68,1.06.98,1.61Z"/>
  <path class="cls-192" d="m515.5,378.78c-.46.44-1,.78-1.6,1.01-.14-.52-.32-1.02-.54-1.5.37-.36.7-.76.97-1.2.39.56.78,1.13,1.17,1.7Z"/>
  <path class="cls-192" d="m513.9,379.8c-.23.88-.46,1.77-.69,2.65-.73-1.13-.31-1.97.69-2.65Z"/>
  <path class="cls-106" d="m771.45,742.38c-.38.41-.84.67-1.38.8-1.92-.06-2.42-1.17-2.13-2.87l-.04-.04c.14-.57.43-.9.85-1,.42-.1.67-.09.75.03.65,1.03,1.3,2.06,1.95,3.09Z"/>
  <path class="cls-138" d="m769.5,739.29c-.54.31-1.08.63-1.6.97-.36-.52-.71-1.03-1.06-1.55,1.07-.65,1.93-.33,2.66.59Z"/>
  <path class="cls-128" d="m765.78,737.05c-.29-.93-.19-1.78.57-2.46.45.97.4,1.82-.57,2.46Z"/>
  <path class="cls-2" d="m780.11,741.54c-.54.35-1.08.71-1.62,1.07-.29-1.62.21-2.04,1.62-1.07Z"/>
  <path class="cls-268" d="m761.97,727.96c-2.53.16-3.25-1.89-4.29-3.54,2.67-.32,3.33,1.8,4.29,3.54Z"/>
  <path class="cls-90" d="m755.25,723.47c.35-.07.69-.14,1.04-.21.4.18.69.47.87.87-.35.38-.76.67-1.24.88,0,0-.52-.69-.52-.69l-.15-.85Z"/>
  <path class="cls-195" d="m783.15,476.37c-1.13.75-2.26,1.49-3.39,2.24-.17-1.42-.33-2.84-.5-4.26v.03c.14-.69.48-1.14,1-1.34.53-.21.84-.25.92-.12,1.18.85,2.01,1.9,1.96,3.45Z"/>
  <path class="cls-48" d="m780.84,473.34c-.53.35-1.06.69-1.59,1.04-.74-1.51-1.13-3.06-.48-4.72.7-1.09,1.4-2.19,2.1-3.28.91.19,1.82.38,2.73.57,2.4,1.27,3.21,2.67.36,4.38-.43.34-.88.65-1.37.91-.02,1.26-.61,1.63-1.75,1.09Z"/>
  <path class="cls-44" d="m567.08,416.03c.39.09.79.17,1.18.26-.19.06-.41.21-.56.15-.23-.1-.41-.33-.61-.5,0,0-.02.09-.02.09Z"/>
  <path class="cls-82" d="m567.28,420.51c-.35.18-.67.4-.96.66-.08-.46-.16-.93-.24-1.39.4.24.8.49,1.2.73Z"/>
  <path class="cls-126" d="m574.67,406.46c-.36-.51-.71-1.03-1.06-1.55-.33-.56-.66-1.12-.99-1.68.52-.3,1.03-.62,1.51-.98.71,1.07,1.42,2.14,2.13,3.21-.51.36-1.03.7-1.58,1Z"/>
  <path class="cls-114" d="m752.1,730.26c.9-.83,1.79-1.66,2.69-2.49l.83.25c1.33.57,1.96,1.55,1.8,3.01.44.62.89,1.24,1.33,1.85.95.29,1.08.8.4,1.52-.44.37-.9.71-1.39,1.02-.8-.14-1.59-.31-2.37-.53-.53-1.95-1.16-3.83-3.3-4.64Z"/>
  <path class="cls-86" d="m759.16,734.42c-.1-.52-.23-1.03-.41-1.52.99-.3,2.11-.05,2.2.9.15,1.63-1.02.86-1.8.63Z"/>
  <path class="cls-186" d="m757.43,731.04c-.6-1-1.2-2.01-1.8-3.01.4-.38.84-.71,1.3-1.01.76,1.27,1.53,2.53.5,4.02Z"/>
  <path class="cls-99" d="m755.41,734.9c.92-.4,1.68-.09,2.37.53-.35.51-.83.8-1.45.85l-.5-.66-.42-.72Z"/>
  <path class="cls-202" d="m771.41,749.33c-.52.33-1.02.67-1.52,1.03-.34-.5-.68-.99-1.02-1.48-.21-1-.14-2.25.93-2.34,2.02-.17,1.14,1.79,1.61,2.78Z"/>
  <path class="cls-188" d="m767.95,740.3c.71.96,1.42,1.92,2.13,2.87-.48.39-.96.77-1.43,1.16-.8-.94-1.6-1.87-2.4-2.81.57-.41,1.14-.82,1.71-1.22Z"/>
  <path class="cls-31" d="m749.84,404.37c-.56.5-1.12,1-1.68,1.51-.89-.3-1.78-.6-2.67-.9,1.07-.71,2.13-1.42,3.2-2.12.83.17,1.19.69,1.16,1.52Z"/>
  <path class="cls-127" d="m749.84,404.37c-.36-.53-.74-1.03-1.15-1.52,1.35-.23,2.09.01,1.15,1.52Z"/>
  <path class="cls-151" d="m780.84,473.34c.58-.37,1.17-.73,1.75-1.1.68,1.06,1.36,2.12,2.03,3.18-.5.3-1,.62-1.48.95-.77-1.01-1.54-2.02-2.31-3.03Z"/>
  <path class="cls-8" d="m823.81,724.52c.03.3.16.83.08.86-.59.25-.63-.08-.05-.86h-.03Z"/>
  <path class="cls-193" d="m580.68,384.12c-.61-1-1.21-2-1.82-3,1.22-.79,2.43-1.6,3.9-.51-.1.92.39,1.9-.3,2.75-.59.25-1.19.5-1.78.76Z"/>
  <path class="cls-266" d="m582.45,383.37c.1-.92.2-1.83.3-2.75.43.51.85,1.01,1.28,1.52.18,1.32-.13,2.01-1.59,1.23Z"/>
  <path class="cls-226" d="m575.79,389.38c-.62-.61-.42-1.16.13-1.69.25.59.21,1.15-.13,1.69Z"/>
  <path class="cls-63" d="m789.63,672.99c-.87-.16-1.74-.31-2.6-.47-.77-.21-1.11-.73-1.08-1.52,1.11-.78,2.23-1.56,3.34-2.34.45-1.37-1.15-2.47-.53-3.86.24-1.17.99-1.72,1.86-.79,2.46,2.6,4.51.97,6.64-.42l.13.04c1.33.39,1.95,1.3,2,2.65l-.09.76c-.12.67-.39,1-.83,1.01-.41,0-.66-.08-.77-.24l.11.02c-1.46-.34-2.56.47-3.67,1.19-.54.57-1.93.67-1.15,2.01.68,1.07,1.36,2.15,2.05,3.22-.07.76-.34,1.14-.81,1.16-.45.01-.74-.07-.86-.26-1.25-.72-2.5-1.44-3.74-2.16Z"/>
  <path class="cls-176" d="m796.35,654.85c-.2.96-.4,1.93-.59,2.89-.83,2.12-2.46,3.11-4.67,3.26-.74-2.86.36-4.99,2.66-6.64.87.16,1.74.32,2.6.48Z"/>
  <path class="cls-166" d="m791.08,661c1.56-1.09,3.11-2.18,4.67-3.26-.18.89-.37,1.79-.55,2.68-1.19,1.47-2.31,3.46-4.12.58Z"/>
  <path class="cls-17" d="m788.17,667.11c-1.96,1.41-3.72,1.81-4.8-1,1.34-.08,2.68-.15,4.02-.23.9,0,1.13.43.78,1.23Z"/>
  <path class="cls-67" d="m778.97,656.89c.9-.22,1.8-.44,2.7-.65-.29,2.36-1.71.93-2.73.82,0,0,.03-.17.03-.17Z"/>
  <path class="cls-21" d="m788.17,667.11l-.41-.61s-.38-.62-.37-.62c.46-.36.92-.72,1.37-1.09.9,1.19,1.63,2.4.53,3.87-.41-.49-.78-1.01-1.12-1.55Z"/>
  <path class="cls-179" d="m566.7,359.16c-1.04-1.77-1.59-3.73.66-4.75,2.6-1.19,1.87,1.34,2.27,2.53-.17,1.8-1.22,2.46-2.94,2.23Z"/>
  <path class="cls-16" d="m566.7,359.16c.98-.74,1.96-1.48,2.94-2.23,3.38,1.38.17,2.04-.33,2.99-.31.74-.86.98-1.62.77l-.47-.78-.51-.75Z"/>
  <path class="cls-240" d="m575.3,365.12c-1,.35-1.95,1.62-3.02.3-.23-.28-.04-1.33.27-1.54,1.47-.96,1.87.72,2.75,1.27v-.04Z"/>
  <path class="cls-133" d="m567.69,360.7c.51-.33,1.05-.59,1.63-.77.27,1.96-.65,1.42-1.63.77Z"/>
  <path class="cls-236" d="m566.08,368.81c.07-.4.14-.8.2-1.21.05.17.18.37.14.52-.08.24-.26.45-.4.68h.06Z"/>
  <path class="cls-228" d="m804.77,660.9c-.32-.47-.68-.9-1.09-1.3.28-.47.57-.94.85-1.41.6.66,1.2,1.32,1.81,1.98-.45.4-.97.64-1.57.72Z"/>
  <path class="cls-190" d="m820.28,593.84c.37.55.74,1.11,1.11,1.66-.1.76-.22,1.51-.37,2.26-.59.45-1.19.9-1.78,1.35-.16,1.66.05,3.52-2.23,4-1.33-.41-2.14-1.33-2.56-2.64-.28-1.4.62-2.43,1.13-3.58,1.57-1.02,3.13-2.03,4.7-3.05Z"/>
  <path class="cls-167" d="m815.56,603.74c-1.11.75-2.23,1.49-3.34,2.24-.2-1.48-.4-2.97-.61-4.45-.99-.27-1.21-.79-.53-1.61.44-.32.9-.63,1.36-.92.4.12.79.24,1.19.37.78.97,1.43,2.03,2,3.14-.02.41-.04.83-.07,1.24Z"/>
  <path class="cls-227" d="m811.08,599.92c.17.54.35,1.08.53,1.61-1.39.24-3.37.81-3.39-1.18-.01-1.41,1.75-.96,2.85-.43Z"/>
  <path class="cls-98" d="m798.65,591.96c.62-.03,1.27-.19,1.86-.06.82.18,1.59.57,2.38.87-.15.28-.22.66-.45.81-.9.58-1.72.26-2.44-.4-.46-.42-.89-.87-1.33-1.31l-.02.09Z"/>
  <path class="cls-52" d="m801.83,598.08c.23.18.59.31.67.54.32.89,0,1.2-.76.78-.21-.12-.34-.52-.36-.8,0-.17.29-.35.45-.52Z"/>
  <path class="cls-217" d="m815.58,596.89c.32.94.22,1.79-.56,2.48-.36-.07-.73-.13-1.09-.2.03-.37.06-.74.09-1.1.52-.39,1.04-.79,1.56-1.18Z"/>
  <path class="cls-167" d="m812.44,599c-.28-1.67.36-1.8,1.58-.93,0,0-.11.1-.11.1-.03.64-.24.98-.64,1.02-.39.04-.64-.01-.74-.16l-.09-.02Z"/>
  <polygon class="cls-98" points="798.67 591.87 798.12 591.78 798.65 591.96 798.67 591.87"/>
  <path class="cls-25" d="m785.95,671c.43.46.79.96,1.08,1.52-1.04.46-1.91.17-2.69-.59.55-.29,1.08-.6,1.61-.93Z"/>
  <path class="cls-75" d="m833.59,432.05c1,1.38,2.13,2.71,1.45,4.61-1.49-.38-3.31-.51-3.66-2.33-.27-1.38.78-2.18,2.21-2.28Z"/>
  <path class="cls-191" d="m816.78,602.49c.82-1.13,1.64-2.25,2.47-3.38.59,1.05,1.17,2.1,1.76,3.16-1.69.95-3.01,3.23-5.44,1.48l-.07.03c-.06-.63.11-1.04.51-1.21.43-.19.69-.22.78-.09Z"/>
  <path class="cls-246" d="m730.25,322.22c-.23-.46-.49-.9-.79-1.32,2.3-.16,2.99.79,1.97,2.89-.4-.52-.79-1.05-1.19-1.57Z"/>
  <path class="cls-246" d="m734.23,317.71c.01.29.12.81.03.84-.6.24-.65-.09-.09-.85h.06Z"/>
  <path class="cls-246" d="m729.32,327.6c.51-.32,1.02-.63,1.53-.94-.14.85-.27,1.7-.41,2.55l-.23-.04c-.36-.14-.72-.28-1.09-.42.06-.38.12-.77.19-1.15Z"/>
  <path class="cls-261" d="m821.02,597.76c-.6-.87-.41-1.61.37-2.26.49.4.89.87,1.18,1.44-.53.25-1.04.52-1.54.82Z"/>
  <path class="cls-246" d="m727.74,328.64c-.2-.77.04-1.27.72-1.34.27-.03.57.2.86.31v.06c-.13.58-.41.92-.83,1.02-.42.1-.67.09-.75-.03Z"/>
  <path class="cls-169" d="m727.74,328.64c.52-.33,1.05-.66,1.58-.98.33.49.64.99.91,1.51-.83-.18-1.66-.36-2.49-.53Z"/>
  <path class="cls-241" d="m803.58,673.14l-.39-.6-.37-.61c-.96-.98-.24-1.84.21-2.71.25-1.09.83-1.9,1.76-.73,1.55,1.94.44,3.42-1.21,4.65Z"/>
  <path class="cls-38" d="m803.02,669.22c-.07.9-.14,1.81-.21,2.71-3.01.25-3.63-2.46-5.11-4.12.49-.35,1.02-.61,1.6-.77.96,1.2,2.02,2.23,3.72,2.18Z"/>
  <path class="cls-187" d="m799.4,666.29c-.67-.88-1.34-1.77-2-2.65,2.08-.18,3.15.4,2,2.65Z"/>
  <path class="cls-205" d="m793.6,668.29c1.32-.91,2.66-1.7,4.22-.47-1.05.66-2.1,1.32-3.16,1.98-1.16.06-1.51-.45-1.06-1.51Z"/>
  <path class="cls-171" d="m793.6,668.29c.37.49.73,1,1.06,1.51-.55.4-1.11.81-1.66,1.21-3.02-1.62.13-1.88.6-2.73Z"/>
  <path class="cls-258" d="m793.37,675.14c.55-.31,1.11-.61,1.67-.9.45.48.9.96,1.35,1.44.07.52.16,1.03.28,1.53-1.75.34-2.64-.7-3.31-2.07Z"/>
  <path class="cls-256" d="m816.78,602.49c-.42.44-.85.87-1.28,1.29-.99-1.59-1.97-3.18-2.96-4.76.48-.25.94-.54,1.38-.86.3.47.67.88,1.11,1.21.58,1.04,1.17,2.07,1.75,3.11Z"/>
</svg>