<?xml version="1.0" encoding="UTF-8"?>
<svg id="Layer_1" data-name="Layer 1" xmlns="http://www.w3.org/2000/svg" viewBox="0 0 1143.62 1031.16">
  <defs>
    <style>
      .cls-1 {
        fill: #f6f1cc;
      }

      .cls-2 {
        fill: #a68d69;
      }

      .cls-3 {
        fill: #c1b292;
      }

      .cls-4 {
        fill: #d7b67b;
      }

      .cls-5 {
        fill: #bd8132;
      }

      .cls-6 {
        fill: #d6b787;
      }

      .cls-7 {
        fill: #d2b77d;
      }

      .cls-8 {
        fill: #cab782;
      }

      .cls-9 {
        fill: #e7d8b6;
      }

      .cls-10 {
        fill: #917b3e;
      }

      .cls-11 {
        fill: #e5dcbe;
      }

      .cls-12 {
        fill: #d7ad7a;
      }

      .cls-13 {
        fill: #eed793;
      }

      .cls-14 {
        fill: #a69168;
      }

      .cls-15 {
        fill: #f4e6c9;
      }

      .cls-16 {
        fill: #e7d4aa;
      }

      .cls-17 {
        fill: #f4efd6;
      }

      .cls-18 {
        fill: #d9ceb0;
      }

      .cls-19 {
        fill: #dfc19b;
      }

      .cls-20 {
        fill: #a0865f;
      }

      .cls-21 {
        fill: #f3f2bc;
      }

      .cls-22 {
        fill: #d4b166;
      }

      .cls-23 {
        fill: #f9d38f;
      }

      .cls-24 {
        fill: #b6957b;
      }

      .cls-25 {
        fill: #f5f8dd;
      }

      .cls-26 {
        fill: #d4b165;
      }

      .cls-27 {
        fill: #755220;
      }

      .cls-28 {
        fill: #d9bd7d;
      }

      .cls-29 {
        fill: #dfcda2;
      }

      .cls-30 {
        fill: #bba376;
      }

      .cls-31 {
        fill: #8d7143;
      }

      .cls-32 {
        fill: #a2946b;
      }

      .cls-33 {
        fill: #f0edcf;
      }

      .cls-34 {
        fill: #eee2bc;
      }

      .cls-35 {
        fill: #a69568;
      }

      .cls-36 {
        fill: #eed8c2;
      }

      .cls-37 {
        fill: #dccdab;
      }

      .cls-38 {
        fill: #a57a3e;
      }

      .cls-39 {
        fill: #b89c71;
      }

      .cls-40 {
        fill: #ede8af;
      }

      .cls-41 {
        fill: #b9a276;
      }

      .cls-42 {
        fill: #d2a85f;
      }

      .cls-43 {
        fill: #e3d5b4;
      }

      .cls-44 {
        fill: #d4b695;
      }

      .cls-45 {
        fill: #c1aa83;
      }

      .cls-46 {
        fill: #c1b083;
      }

      .cls-47 {
        fill: #af7733;
      }

      .cls-48 {
        fill: #dabe80;
      }

      .cls-49 {
        fill: #ab7129;
      }

      .cls-50 {
        fill: #e8dfb3;
      }

      .cls-51 {
        fill: #e3cca6;
      }

      .cls-52 {
        fill: #e5e2a2;
      }

      .cls-53 {
        fill: #bca37c;
      }

      .cls-54 {
        fill: #af9b81;
      }

      .cls-55 {
        fill: #eee9b5;
      }

      .cls-56 {
        fill: #efe4c0;
      }

      .cls-57 {
        fill: #d7c186;
      }

      .cls-58 {
        fill: #ddc07d;
      }

      .cls-59 {
        fill: #f3e2d2;
      }

      .cls-60 {
        fill: #9d825d;
      }

      .cls-61 {
        fill: #8f7148;
      }

      .cls-62 {
        fill: #9e875f;
      }

      .cls-63 {
        fill: #debe85;
      }

      .cls-64 {
        fill: #d4c39f;
      }

      .cls-65 {
        fill: #968247;
      }

      .cls-66 {
        fill: #d3b564;
      }

      .cls-67 {
        fill: #d3ab61;
      }

      .cls-68 {
        fill: #e3d1a8;
      }

      .cls-69 {
        fill: #dbbe8d;
      }

      .cls-70 {
        fill: #ac9342;
      }

      .cls-71 {
        fill: #d8c7b1;
      }

      .cls-72 {
        fill: #e4cca0;
      }

      .cls-73 {
        fill: #bb9346;
      }

      .cls-74 {
        fill: #9b845b;
      }

      .cls-75 {
        fill: #ac9859;
      }

      .cls-76 {
        fill: #9d9871;
      }

      .cls-77 {
        fill: #dbc697;
      }

      .cls-78 {
        fill: #8a7d68;
      }

      .cls-79 {
        fill: #e7dbb4;
      }

      .cls-80 {
        fill: #bb9d62;
      }

      .cls-81 {
        fill: #e1bd57;
      }

      .cls-82 {
        fill: #d2b591;
      }

      .cls-83 {
        fill: #9c815a;
      }

      .cls-84 {
        fill: #c6932c;
      }

      .cls-85 {
        fill: #cba980;
      }

      .cls-86 {
        fill: #987e2e;
      }

      .cls-87 {
        fill: #c8a447;
      }

      .cls-88 {
        fill: #dfd8b9;
      }

      .cls-89 {
        fill: #9f9448;
      }

      .cls-90 {
        fill: #998054;
      }

      .cls-91 {
        fill: #d7b875;
      }

      .cls-92 {
        fill: #c5a260;
      }

      .cls-93 {
        fill: #9f9362;
      }

      .cls-94 {
        fill: #fff6da;
      }

      .cls-95 {
        fill: #e5e2b1;
      }

      .cls-96 {
        fill: #d7bd9f;
      }

      .cls-97 {
        fill: #ceab54;
      }

      .cls-98 {
        fill: #f1e2b7;
      }

      .cls-99 {
        fill: #f6e9d8;
      }

      .cls-100 {
        fill: #ae8f41;
      }

      .cls-101 {
        fill: #d7b374;
      }

      .cls-102 {
        fill: #ede19f;
      }

      .cls-103 {
        fill: #efe7b0;
      }

      .cls-104 {
        fill: #b59f86;
      }

      .cls-105 {
        fill: #9e8651;
      }

      .cls-106 {
        fill: #f3e6d0;
      }

      .cls-107 {
        fill: #e6dab0;
      }

      .cls-108 {
        fill: #c2968b;
      }

      .cls-109 {
        fill: #d8b47a;
      }

      .cls-110 {
        fill: #bc974b;
      }

      .cls-111 {
        fill: #ae9454;
      }

      .cls-112 {
        fill: #bcc9b4;
      }

      .cls-113 {
        fill: #8c8577;
      }

      .cls-114 {
        fill: #e4d4a7;
      }

      .cls-115 {
        fill: #d0c6a8;
      }

      .cls-116 {
        fill: #a18a58;
      }

      .cls-117 {
        fill: #f4eed5;
      }

      .cls-118 {
        fill: #866628;
      }

      .cls-119 {
        fill: #d3b47c;
      }

      .cls-120 {
        fill: #dec491;
      }

      .cls-121 {
        fill: #e8dfb8;
      }

      .cls-122 {
        fill: #93762c;
      }

      .cls-123 {
        fill: #d6c089;
      }

      .cls-124 {
        fill: #947f3f;
      }

      .cls-125 {
        fill: #eae2c8;
      }

      .cls-126 {
        fill: #d1b373;
      }

      .cls-127 {
        fill: #d7ca9a;
      }

      .cls-128 {
        fill: #b37351;
      }

      .cls-129 {
        fill: #ac8a41;
      }

      .cls-130 {
        fill: #f6f9e6;
      }

      .cls-131 {
        fill: #c1aa86;
      }

      .cls-132 {
        fill: #937d4f;
      }

      .cls-133 {
        fill: #85764a;
      }

      .cls-134 {
        fill: #cbbb9c;
      }

      .cls-135 {
        fill: #a38243;
      }

      .cls-136 {
        fill: #ddc38a;
      }

      .cls-137 {
        fill: #d7b453;
      }

      .cls-138 {
        fill: #b77133;
      }

      .cls-139 {
        fill: #ceb230;
      }

      .cls-140 {
        fill: #d19d43;
      }

      .cls-141 {
        fill: #d6b29c;
      }

      .cls-142 {
        fill: #e8e1c0;
      }

      .cls-143 {
        fill: #957e49;
      }

      .cls-144 {
        fill: #a5965b;
      }

      .cls-145 {
        fill: #ece6c0;
      }

      .cls-146 {
        fill: #906e3d;
      }

      .cls-147 {
        fill: #eadcbf;
      }

      .cls-148 {
        fill: #c3bb92;
      }

      .cls-149 {
        fill: #ece3b5;
      }

      .cls-150 {
        fill: #b19967;
      }

      .cls-151 {
        fill: #d7c078;
      }

      .cls-152 {
        fill: #cea155;
      }

      .cls-153 {
        fill: #b0955b;
      }

      .cls-154 {
        fill: #e5c162;
      }

      .cls-155 {
        fill: #d8bf8c;
      }

      .cls-156 {
        fill: #fff3d6;
      }

      .cls-157 {
        fill: #dcbc83;
      }

      .cls-158 {
        fill: #d6c3a7;
      }

      .cls-159 {
        fill: #e8d5a8;
      }

      .cls-160 {
        fill: #dab475;
      }

      .cls-161 {
        fill: #e4e1bd;
      }

      .cls-162 {
        fill: #a98339;
      }

      .cls-163 {
        fill: #ecdcb9;
      }

      .cls-164 {
        fill: #c6992c;
      }

      .cls-165 {
        fill: #f9f5e8;
      }

      .cls-166 {
        fill: #c4a261;
      }

      .cls-167 {
        fill: #a38634;
      }

      .cls-168 {
        fill: #ad8954;
      }

      .cls-169 {
        fill: #ccad5b;
      }

      .cls-170 {
        fill: #c5b688;
      }

      .cls-171 {
        fill: #e1ca9f;
      }

      .cls-172 {
        fill: #aba091;
      }

      .cls-173 {
        fill: #b19561;
      }

      .cls-174 {
        fill: #c1aa7e;
      }

      .cls-175 {
        fill: #b09a65;
      }

      .cls-176 {
        fill: #e5e29d;
      }

      .cls-177 {
        fill: #f2e8ce;
      }

      .cls-178 {
        fill: #d2aa66;
      }

      .cls-179 {
        fill: #8f753a;
      }

      .cls-180 {
        fill: #b0915e;
      }

      .cls-181 {
        fill: #b68840;
      }

      .cls-182 {
        fill: #d6b16c;
      }

      .cls-183 {
        fill: #d4a854;
      }

      .cls-184 {
        fill: #f9f2dc;
      }

      .cls-185 {
        fill: #c7a36c;
      }

      .cls-186 {
        fill: #a1884d;
      }

      .cls-187 {
        fill: #ebdcc0;
      }

      .cls-188 {
        fill: #d3b992;
      }

      .cls-189 {
        fill: #daba84;
      }

      .cls-190 {
        fill: #d2b16e;
      }

      .cls-191 {
        fill: #896b2a;
      }

      .cls-192 {
        fill: #e0c694;
      }

      .cls-193 {
        fill: #e5dbab;
      }

      .cls-194 {
        fill: #d3ba73;
      }

      .cls-195 {
        fill: #93732b;
      }

      .cls-196 {
        fill: #9b9b9b;
      }

      .cls-197 {
        fill: #d5b371;
      }

      .cls-198 {
        fill: #c2af86;
      }

      .cls-199 {
        fill: #bca275;
      }

      .cls-200 {
        fill: #dfc28c;
      }

      .cls-201 {
        fill: #6d5220;
      }

      .cls-202 {
        fill: #dbc995;
      }

      .cls-203 {
        fill: #e9c984;
      }

      .cls-204 {
        fill: #a98f53;
      }

      .cls-205 {
        fill: #a48a30;
      }

      .cls-206 {
        fill: #b39e75;
      }

      .cls-207 {
        fill: #dacd68;
      }

      .cls-208 {
        fill: #c7a454;
      }

      .cls-209 {
        fill: #e8d6b2;
      }

      .cls-210 {
        fill: #d6cda1;
      }

      .cls-211 {
        fill: #d6afa1;
      }

      .cls-212 {
        fill: #8f6f3e;
      }

      .cls-213 {
        fill: #f0f5d9;
      }

      .cls-214 {
        fill: #c8b58e;
      }

      .cls-215 {
        fill: #bf8e63;
      }

      .cls-216 {
        fill: #b49865;
      }

      .cls-217 {
        fill: #907334;
      }

      .cls-218 {
        fill: #e6c569;
      }

      .cls-219 {
        fill: #e3d5a1;
      }

      .cls-220 {
        fill: #f9f6de;
      }

      .cls-221 {
        fill: #cea863;
      }

      .cls-222 {
        fill: #e8dbb6;
      }

      .cls-223 {
        fill: #d6cea2;
      }

      .cls-224 {
        fill: #ac8c57;
      }

      .cls-225 {
        fill: #e4cea7;
      }

      .cls-226 {
        fill: #c69a2c;
      }

      .cls-227 {
        fill: #e2d5b7;
      }

      .cls-228 {
        fill: #a98a54;
      }

      .cls-229 {
        fill: #cca42c;
      }

      .cls-230 {
        fill: #f5e7ca;
      }

      .cls-231 {
        fill: #dbd5b4;
      }

      .cls-232 {
        fill: #d1af80;
      }

      .cls-233 {
        fill: #a4853c;
      }

      .cls-234 {
        fill: #9c834c;
      }

      .cls-235 {
        fill: #d1ba88;
      }

      .cls-236 {
        fill: #fff5d6;
      }

      .cls-237 {
        fill: #e4a07c;
      }

      .cls-238 {
        fill: #a39359;
      }

      .cls-239 {
        fill: #c8b18c;
      }

      .cls-240 {
        fill: #967838;
      }

      .cls-241 {
        fill: #d7cea9;
      }

      .cls-242 {
        fill: #e8d7b1;
      }

      .cls-243 {
        fill: #d2ac61;
      }

      .cls-244 {
        fill: #e8d5ab;
      }

      .cls-245 {
        fill: #bc812b;
      }

      .cls-246 {
        fill: #c2af77;
      }

      .cls-247 {
        fill: #b59c70;
      }

      .cls-248 {
        fill: #ab8d6a;
      }

      .cls-249 {
        fill: #e6eedf;
      }

      .cls-250 {
        fill: #d3bd72;
      }

      .cls-251 {
        fill: #e3ce9e;
      }

      .cls-252 {
        fill: #e3caa3;
      }

      .cls-253 {
        fill: #edd9bd;
      }

      .cls-254 {
        fill: #cfa950;
      }

      .cls-255 {
        fill: #a86642;
      }

      .cls-256 {
        fill: #d8cd99;
      }

      .cls-257 {
        fill: #9b795b;
      }

      .cls-258 {
        fill: #a96728;
      }

      .cls-259 {
        fill: #fbeebd;
      }

      .cls-260 {
        fill: #af9546;
      }

      .cls-261 {
        fill: #e5e3b2;
      }

      .cls-262 {
        fill: #bc9d7e;
      }

      .cls-263 {
        fill: #ad873f;
      }

      .cls-264 {
        fill: #e4dca4;
      }

      .cls-265 {
        fill: #cca55d;
      }

      .cls-266 {
        fill: #dcbc8a;
      }

      .cls-267 {
        fill: #b16e4a;
      }

      .cls-268 {
        fill: #dbcfad;
      }

      .cls-269 {
        fill: #deca9f;
      }
    </style>
  </defs>
  <path class="cls-198" d="m787.17,508.76c.15-.4.06-.73-.26-1-.14-.59.05-.99.64-1.19.45.04.75.33,1.03.65-.1-.44-.4-.67-.92-.67-.56-.21-.79-.62-.72-1.21v-.04c.61-1.55,2.19-2.42,2.71-3.93.49-.26,1.23-.53.19-1.18-.33-.66-.45-1.31-.09-1.99l-.04.13c1.48-3.09,4.57-2.17,7.03-2.82l-.12-.02c.75-.02,1.47.17,2.19.38l-.05-.02c1.9,1.03,4.28.96,5.93,2.57.22.59.19,1.18-.08,1.75-.32.48-.72.91-1.19,1.27-.5.32-1.03.56-1.56.74.03,0-.67.28-.67.28,0,0-.41.62-.36.63.2.82.71,1.43,1.22,2.06,5.04,7.22,4.72,8.13-4,11.16-.66.13-1.33.14-2,.07-1.12-.29-2-1.43-3.34-.88-.99.51-2.02.87-3.14.85-.51-.03-1.01-.15-1.49-.34-.47-.24-.75-.63-.82-1.16-.45.44-.87.41-1.27-.07l.09.06c-5-2.99,1.24-3.96,1.09-6.08Z"/>
  <path class="cls-48" d="m586.41,490.38c.35-.28.51-.64.49-1.08.24-.13.49-.26.73-.4.78-.31,1.59-.52,2.42-.6.56,0,1.1.1,1.63.27l-.02-.02c1.04.18,1.64.84,1.96,1.8,0,1.43-1.23,1.98-2.03,2.83-.39.41-.82.78-1.27,1.11-.43.29-.91.54-1.39.74-.64.3-1.26.64-1.86,1,.02,0-.55.17-.55.17,0,0-.16.57-.13.57.42-.14.83-.25,1.25-.34.47-.17.92-.3,1.39-.44.51-.17,1.03-.26,1.56-.3.59.07,1.04.34,1.37.85.14.62.11,1.22-.1,1.83-.58,1.19-1.41,2.16-2.39,2.99-.11.49-.99-.17-.92.6.43.3.77.68,1.05,1.12.23.46.41.94.55,1.43.25.72.55,1.42.99,2.05.54.6,1.12,1.16,1.59,1.81.24.53.29,1.07.16,1.63-.42.78-1.05,1.31-1.83,1.68-1.02.42-2.02.87-2.9,1.57-.45.35-.94.63-1.46.85-1.42.41-2.82.6-4.17-.24-.52-.51-.61-1.64-1.79-1.21-.62-.02-1.13-.25-1.53-.71-.09-.29-.18-.58-.27-.87.13-.61.4-1.15.8-1.62,1.54-1.32,3.12-1.58,4.73-.18.68.7-.27,1.15.39.42.2-.22-.37-.82-.87-1.03-.84-.72-1.7-1.41-1.84-2.61-.23-.48.23-1.1.09-1.32-.54-.84.39-.21-.47.32.07,1.01-.37,1.63-1.36,1.86-1.4-.14-2.14-1.07-2.68-2.24-.47-1.19-.84-2.41-1.04-3.68-.08-.95-.34-1.93.39-2.76.38-.01.62-.21.71-.58-.07-.6.15-1.02.71-1.26.82-.06,1.48.43,2.21.66.45.12.88.34,1.25.62,0-.01.5.42.5.42,0,0-.39-.54-.4-.54-.72-.27-1.44-.51-2.1-.91-.62-.66-.98-1.38-.7-2.31.42-.52.92-.63,1.49-.26l-.07-.05c2.54-.21,4.18-1.86,5.75-3.62Z"/>
  <path class="cls-157" d="m557,659.92c-.08.34.06.55.4.62-.03,2.35,2.53,3.69,2.39,6.08l-.03.11c-.21.69-.23,1.45-.73,2.04l.02-.14c.18.82-.04,1.56-.47,2.25l-.03-.19c-.16.67-.57,1.02-1.28.99-1.56-.38-2.78-1.43-4.22-2.05-1.17-.55-2.27-1.18-2.93-2.35-.36-1.3-.28-2.45,1.12-3.12.85-.13,1.71,0,2.55-.09.38,0,.77.04,1.14.16.4.13.32.02-.28-.31-.91.11-1.79.19-2.67.1-1.81.02-2.61,1.05-2.77,2.74-.72.71-1.57.8-2.49.54-.57-.21-1.12-.46-1.67-.73-1.1-.5-2.29-.81-3.33-1.46-.37-.38-.78-1.1-1.25-.87-.89.44-.14-.36.34.54-.36.56-.85.92-1.48,1.1-1.72-.11-3.42-.24-3.07-2.69,1.14-1.82,4.06-2.33,3.85-5.17l-.08.18c-.2-.77.08-1.5.22-2.24v.04c.08-.78.54-1.16,1.3-1.2.62.2,1.18.54,1.65,1,.35.46.62.98.8,1.51.11.47.43.79.93.93-.31-.36-.52-.78-.62-1.28.1-.59.35-1.08.75-1.51.51-.34,1.06-.52,1.67-.53.36.22.71.21,1.05-.05.85-.36,1.68-.22,2.52.05h-.05c2.12-.28,3.49.75,4.4,2.53.58.54.02,1.66.97,2.03.51,0,.99.14,1.4.45Z"/>
  <path class="cls-57" d="m817.88,522.89c-.43.2-.74.51-.93.94-.38,1.11-1.55,1.67-1.96,2.75l.04-.11c-.87,1.97-.9,4.7-4.09,4.59h.04c-1.17-.24-2.24.83-3.43.25l.19.02c-1.23-.06-2.22-.89-3.4-1.09-.47-.41-.79-.91-1-1.49-.14-.9-.05-1.79.15-2.67.34-1.38.94-2.68,1.15-4.1.03-.56.08-1.11.12-1.66,0-.85.04-1.69.13-2.54.15-.9.58-1.62,1.39-2.08,1.07-.5,2.22-.73,3.37-.95,1.17-.24,2.29-.64,3.4-1.11.59-.26,1.2-.43,1.83-.57,1.37-.2,2.61.08,3.71.93.88,1.32,2.32,2.43,1.64,4.34-1,1.25-2.58,1.69-3.78,2.65-.71.5-1.58.64-2.34,1-.61.37-1.09.9-1.55,1.3.09-.06.38-.14.45-.2,1.35-1.2,2.89-1.71,4.59-1.78.6.42.7.93.3,1.54Z"/>
  <path class="cls-159" d="m561.35,721.75c-.75.36-1.5.73-2.25,1.09-1.39.5-2.06-1.16-3.3-1.1l-.14-.07c-.88-.36-1.4-1.08-1.83-1.88-.3-1.16-.7-2.25-1.7-3.02-.43-.47-.53-1-.32-1.59l-.03.14c-.02-.75.18-1.47.37-2.18v.04c.21-1.09,1.02-1.6,1.95-1.99,1.92,1.38,2.85.92,2.75-1.5.41-.6.95-.77,1.62-.54l-.07-.02c.72.06,1.42.19,2.13.33h.02c.79.17,1.57.37,2.22.89.66,1.02,1.32,2.03,1.98,3.05.21.81.09,1.6-.15,2.39v.02c-.29,1.18.88,2.42-.16,3.57l-.42.23-.23.42c-.37,1.19-1.21,1.72-2.42,1.71Z"/>
  <path class="cls-6" d="m643.97,499.6c.43-.26.86-.51,1.29-.77.94-1.28-1.76-3.1.56-4.09.66-.28,1.17.3,1.15,1.1.34.39.68.77,1.01,1.16,1.09.53,2.09-.6,3.17-.16h-.06c.32.1.65.19.97.28.12.31.25.62.38.93.01,1.02-.32,1.93-.96,2.71-.92.79-1.73,1.68-2.24,2.8-.28.49-.63.94-1.02,1.34-.56.58-.73,1.33-.8,2.13-.05.52-.17,1.01-.35,1.46.01-.02-.36.55-.36.55,0,0,.66-.15.66-.18.64-.5,1.35-.75,2.16-.74.57.19.99.54,1.29,1.06.12.6.07,1.19-.15,1.76-.54,1.14-1.28,2.1-2.36,2.78-.89.37-1.81.37-2.75.24-.91-.16-1.77-.46-2.54-.95-.43-.39-.75-.87-.96-1.41-.11-.52-.13-1.06-.1-1.58.02-.23.06-.49.07-.72.06-.43.02-.87-.19-1.26-.72-.22-1.47-.06-2.17-.31-.48-.39-.63-.87-.46-1.44l.03-.06c.31-.65.27-1.39.5-2.06.12-.37,0-.64-.34-.82-.18-.57-.07-1.08.3-1.54,2.87.18-.55-1.74.7-2.11.41-.48.91-.63,1.51-.45l-.06-.02c.7.17,1.44.15,2.13.38Z"/>
  <path class="cls-40" d="m456.54,600.17c.39-.2.67-.5.85-.89,1.72-2.82,4.44-2.77,7.23-2.54l-.12-.04c1.08.12,1.6.89,2.03,1.75-.35,1.39.6,1.89,1.62,2.35.63,1.08,1.7,2,1.24,3.47v-.11c.1,1.36.05,2.67-1.29,3.5-1.49.81-3.07,1.24-4.77,1.24-1.29-.2-2.41-.8-3.45-1.55-.65-.55-1.16-1.21-1.35-1.95.01.11-.12-.35-.12-.35,0,0-.37.42-.41.47-.69.49-1.4.68-2.19.47-.49-.45-.63-.96-.37-1.56l-.03.14c.03-.72.18-1.43.27-2.15v-.06c.22-.75.4-1.51.86-2.17Z"/>
  <path class="cls-101" d="m913.23,493.7l.54-.34c.82-.29,1.63-.16,2.44.08h0c.72.11,1.44.23,2.12.53l-.1-.02c.6.05,1.06.32,1.38.83.43,1.09,1.42,1.91,1.53,3.17.47,3.88.54,7.5-4.84,7.7-.97-.31-1.8-.86-2.62-1.44-1.3-1-1.69-2.89-3.39-3.52l.08-.05c-.78-.04-1.26-.45-1.49-1.19-.19-1.48.12-2.85.85-4.14.49-.59,1.11-.79,1.86-.63h-.03c.9.25,1.33-.3,1.67-.98Z"/>
  <path class="cls-202" d="m817.79,514.11c-1.11.11-2.22.22-3.34.33-.56-.21-1.01-.56-1.35-1.05-.62-.94-1.23-1.9-2.35-2.36-.83-.34-1.62-.74-2.31-1.32-.43-.45-.78-.95-1.05-1.51-.2-.59-.25-1.2-.19-1.82-.88-.76,3-1.6-.05-2.32-.71-1.23-.61-2.47-.05-3.72.56-.87,1.32-1.49,2.27-1.87.67-.14,1.32-.06,1.94.22l-.12-.1c2.29.54,2.6,2.88,3.9,4.31.69.98.86,2.24,1.61,3.19.84.76,2,.93,2.95,1.5.34.49.35,1,.04,1.51-.39.24-.68.56-.88.97-.24.62-.43,1.25-.57,1.9v-.03c-.1.74.25,1.57-.47,2.17Z"/>
  <path class="cls-18" d="m553.32,623.63c.48.01.92-.11,1.32-.36.67-.1,1.25.1,1.73.58,1.17,1.87,3.73,2.63,4.13,5.09.37.52-.9,1.4.37,1.75.52-.14,1.01-.09,1.49.14.37.4.51.87.45,1.4l-.08.18c-.18.67-.39,1.34-.63,1.99v-.09c.06.56-.15.97-.65,1.23-.83-.05-1.32.42-1.68,1.11-.47.3-.93.29-1.39-.04l.16.08c-.74.14-1.43-.16-2.14-.28h-.07c-.44-.08-.73-.33-.87-.75,0,0-.16-.57-.16-.57,0,0,.08.59.08.59-.31.32-.68.42-1.11.3h0c-2.23-1.56-3.93-3.45-3.91-6.39l.02.15c-.43-1.51.13-2.87.6-4.25l.02-.04c.36-1.14,1.19-1.68,2.33-1.83Z"/>
  <path class="cls-55" d="m535.24,518.03c.81-.57,1.62-1.14,2.42-1.7.23-.66.67-.85,1.31-.56l-.1-.06c.73-.04,1.44.19,2.15.27v.22c2.54.64,3.13,2.22,2.21,4.54-.6.9-1.76,1.2-2.3,2.14.28.45.49.89.69,1.37.02.28.04.55.05.83-.21.57-.52,1.04-.93,1.47-1.66,1.14-3.29,1.8-4.72-.3-.31-.55.31-1.31-.4-1.78.16.38.48.72.23,1.19.27,2.3,3.24,4.64-.12,6.88-1.5-.04-1.9-1.78-3.24-2.07v-.03c-.5,0-.86-.17-1.06-.5-.22-.36-.29-.57-.2-.63.1-.98.27-1.95.41-2.93-1.32-3.86,1.29-6.04,3.58-8.35Z"/>
  <path class="cls-151" d="m602.94,497.42c.25.44.51.87.76,1.31.53.12.78.35.76.69-.02.3-.11.5-.25.59l.06-.11c1.63,3.81,4.33,7.73-1.1,10.81-3.96.28-4.36-1.55-2.72-4.57.56-1.03.77-2.09.21-3.18-.43-.61-1-1-1.77-1.05-.78.06-1.54.18-2.33.21-.88,0-1.7-.19-2.47-.63-.46-.41-.77-.91-.98-1.49-.15-.93-.07-1.84.11-2.76.18-.93.45-1.83.76-2.73.9-1.48.44-4.17,3.38-3.86,1.44,1.35,1.86,3.59,3.86,4.45l-.08.05c1.4.12,1.92.94,1.79,2.27Z"/>
  <path class="cls-232" d="m789.81,462.1c.62-.36,1.24-.73,1.85-1.09.74-.38,1.54-.24,2.32-.22.41.14.77.06,1.08-.26,1.59-.34,2.22,1.2,3.38,1.71-.07.35.07.57.42.64.28,2.6,3.29,4.99.62,7.82-1.86,1.71-2.67-3.96-4.75-.65-.22.58-.48,1.13-.74,1.69-.28.58-.64,1.09-1.08,1.55-1.34.84-2.43.26-3.46-.6l.23.03c-2.27-1.21-1.55-3.69-2.35-5.52v-.07c.1-.54.42-.8.87-.77-.1,0,.25-.07.25-.07,0,0-.33-.19-.38-.22-.32-.31-.37-.63-.19-.98h0c.23-1.26,1.52-1.84,1.94-2.98Z"/>
  <path class="cls-231" d="m632.52,465.18c-.05-.34-.21-.61-.49-.82-1.23-1.33,2.07-4-1.42-4.76-.23-.05.17-1.38.43-2.08h0c1.79-2.45,3.75-4.46,7.13-2.67h-.14c1.5,1.37,3.35,2.49,3.54,4.83v.14c-.24.63-.38,1.29-.41,1.96l-.03.13c-.27.62-.63,1.18-1.07,1.7-.65.83-1.53,1.29-2.52,1.57-.92.35-1.78.99-2.86.67l.07.02c-.8-.07-1.55-.28-2.24-.7Z"/>
  <path class="cls-266" d="m516.72,649.75c.37,0,.61-.16.73-.51,1.22.05,2.25-.79,3.48-.72l.12.03c.66.29,1.38.36,2.04.64l-.1-.03c1.14.14,1.62,1.02,2.12,1.87,1.19,3.12,4.61,3.27,6.78,5.09.74.74,1.31,1.55,1.18,2.67v.08c-.08.29-.18.58-.27.87-.27.15-.54.29-.8.44-.6.12-1.21.16-1.82.14-.3-.01-.6-.04-.91-.05-.6-.02-1.2-.08-1.8-.17-.91-.16-1.72-.51-2.23-1.34-.1-.5.17-.91.29-1.37-.37.29-.71.63-1,1.01-.76.56-1.61.83-2.55.78-1.53-.38-2.74-1.26-3.75-2.45-.65-.98-1.2-2.02-1.92-2.96-.36-.49-.57-1.03-.67-1.63.09-.92.58-1.67,1.09-2.41Z"/>
  <path class="cls-123" d="m866.68,481.24c.15.37.43.57.82.61.76.27,1.51.57,2.09,1.16l.08.2c.26.63.25,1.25-.03,1.87-1.04,1.93-3.35,3.05-3.55,5.53-.06.32-.15.63-.22.95-.1.31-.22.62-.34.92-.4.57-.95.85-1.65.85l-.2-.06c-.63-.34-1.4-.31-2.01-.72h.15c-1.27-.06-2.14-.8-2.9-1.73.02-.37-.15-.6-.51-.67-.34-.72-.17-1.49-.22-2.24.17-.39.13-.75-.13-1.09-.32-.5-.23-.91.22-1.23,1.07-.67-1.04-.91-.25-1.58,1.37-1.59,2.78-3.04,5.11-2.84h-.11c1.21.17,2.43-1,3.62.06Z"/>
  <path class="cls-28" d="m728.63,502.32c1.02,2.02,3.69,3.65,1.52,6.42-.53.35-1.11.61-1.73.78-1.21.25-2.48.22-3.56.87-.37.41-.75.81-1.11,1.23-.44.37-.93.49-1.49.31l-.08-.05c-1.53-.84-2.59-1.96-2.26-3.88l-.02.11c-.03-.71.2-1.4.24-2.1v-.17c.22-.67.46-1.33.71-1.98,1.15-.73,2.3-1.46,3.45-2.2,1.55-.45,2.94.05,4.32.68h.01Z"/>
  <path class="cls-119" d="m741.39,468.83c.47-.11.82-.38,1.04-.81,1.94-2.44,3.66-.41,5.45.26l-.08-.04c1.43.25,1.98,1.04,1.5,2.46v-.16c.36,1.56.06,2.98-.89,4.26l.07-.15c-.43,1.99-1.72,2.7-3.65,2.48l.11.03c-.77,0-1.5-.15-2.19-.49l.15.05c-4.01-1.96-2.98-4.88-1.5-7.89Z"/>
  <path class="cls-155" d="m575.24,593.45c.39.04.71-.09.95-.41.6-.12,1.09.06,1.48.53.22,1.36,1.63,1.53,2.37,2.39.52,1.43,1.76,2.66,1.18,4.37l.06-.24c-.78,2.37-2.55,3.27-4.9,3.34l.13.02c-.76,0-1.49-.16-2.19-.47l.11.03c-2.21-.93-3.25-2.63-3.28-4.98v.09c.03-.54.27-.96.71-1.27,1.42-.43.16-1.91,1.01-2.58.71-.53,1.44-.99,2.38-.81Z"/>
  <path class="cls-125" d="m1015.27,579.02c-.5.22-1,.44-1.5.67-3.69.5-6.35-.46-6.63-4.74v.04c.19-1.24,1.55-1.77,1.81-2.97.35-.16.66-.36.95-.61,1.06,0,1.63.74,2.17,1.44.66-.04.2,2.53,1.7.7,1.03-.64,2.08-.14,3.12-.14.5-.12,1-.25,1.51-.37,1.58.44,2.04,1.47,1.57,2.98-.93.87-2.36,1-3.14,2.1-.39.53-.91.83-1.56.9Z"/>
  <path class="cls-244" d="m460.93,584.64c.38-.16.66-.44.81-.82.24-.69.43-1.4.83-2.01.29-.09.54-.25.73-.49.75-.11,1.49.08,2.23.04l.24.02c1.06.58,1.73,1.66,2.82,2.2.41.62.81,1.25,1.22,1.87.21.81.08,1.61-.14,2.4v-.03c-.64,1.74-1.93,2.51-3.75,2.49h-.02c-1.16-.12-2.4,0-3.17-1.18-.32-1.15-.85-2.16-1.81-2.91-.32-.53-.32-1.07,0-1.6Z"/>
  <path class="cls-29" d="m884.15,526.95c.46-.22.81-.56,1.03-1.02.29-.62.76-.97,1.44-1.02,1.46-.02,2.98.15,4.17-1.02.47-.39,1.01-.56,1.61-.55h-.02c.69.18,1.41.26,2.1.44h-.01c.44.06.73.26.85.58.13.33.15.52.07.57-.05.42.08.79.38,1.09.24,1.07.46,2.14.05,3.22-1.42,2.2-3.35,3.52-6.06,3.43-1.07-.34-1.3-.99-1.14-2.14.14-.96-.38-1.53-.06-.57.32.96-1.45-.09-.6.43-.59.12-1.16.09-1.74-.05-.89-.32-1.61-.84-2.14-1.63-.25-.6-.22-1.19.06-1.77Z"/>
  <path class="cls-209" d="m580.06,512.19c.39-.25.8-.47,1.23-.66.63.08,1.03.43,1.2,1.04,1.7,1,3.47.19,5.21.22.52.26.9.65,1.13,1.19.32,1.12.45,2.22-.22,3.27l-.41.2-.26.37c-1.32.48-1.97-1.2-3.21-1l-.28-.06c-1.73-.43-3.58,1.03-5.24-.35h0c-.77-.11-1.51-.31-2.2-.69-.13-.4-.37-.73-.7-.99-.51-.09-.78-.32-.82-.67-.04-.34,0-.54.12-.62v.08c-.03-.99-.24-1.99.23-2.94.67-.86,1.54-1.26,2.63-1.18.66.34.93.86.75,1.6h0c-.13.5-.09.99.16,1.44.05.09.33-.03.68-.25Z"/>
  <path class="cls-68" d="m637.41,440.59l-.45.25-.28.43c-.25.99-1.01,1.48-1.83,1.89-.6.09-1.11-.1-1.53-.52-.23-1.22-.77-1.47-1.71-.52-.57.21-1.14.26-1.73.18-.54-.33-.91-.79-1.11-1.39,0-.63.1-1.24.29-1.83.68-1.74,1.17-3.54,1.6-5.36.17-.62.43-1.2.76-1.74.23-.22.47-.43.7-.65.42-.2.84-.39,1.27-.58,2.07,1.05,3.19,2.71,3.26,5.05v-.05c-.57,1.74,2.11,2.98.74,4.84Z"/>
  <path class="cls-235" d="m540.45,675.63c-.19-.5-.39-1-.58-1.51-.7-1.99.86-2.93,1.9-4.11.39-.49.82-.95,1.24-1.41,1.11-1.01,1.89-2.53,3.7-2.51.66.18,1.32.36,1.99.54.69-.06,1.2.22,1.57.8.56.93.4,1.77-.31,2.53-1.09-.04-1.86.29-1.78,1.59-.55,1.05-1.3,1.97-1.9,2.98-.4.8-.84,1.57-1.4,2.27-.44.46-.98.6-1.6.46l.08.04c-.85-.04-1.64-.26-2.31-.81-.03-.4-.23-.69-.6-.86Z"/>
  <path class="cls-163" d="m542.1,589.4c-.49-.71-.97-1.42-1.46-2.13-.13-1.49.21-2.89.84-4.24.4-.32.8-.63,1.2-.95.26-.61.71-.8,1.33-.57l-.1-.03c2.86,1.09,6.02,1.98,4.24,6.23l-.02.04c-.8,1.59-1.95,2.6-3.87,2.31l.11.02c-.82-.02-1.58-.24-2.27-.68Z"/>
  <path class="cls-176" d="m737,504.21c-2.8-.09-3.27-2.43-4.19-4.34,0,0-.17.03-.17.03-.03-.79.05-1.55.49-2.24l-.02.14c-.01-.67,0-1.35.02-2.02-.21-.48-.42-.95-.63-1.43.26-.78.81-1.18,1.61-1.27,1.66-.03,2.95.7,4.04,1.88,2.35,3.42,2.3,6.54-1.16,9.24Z"/>
  <path class="cls-239" d="m910.35,495.46c.31,1.48-.03,2.83-.82,4.09-3.84,2.09-5.25.1-5.75-3.43l-.03.16c-.02-.83.2-1.59.65-2.29.72-.5,1.45-1.01,2.17-1.51,1.93.14,3.94.17,3.78,2.97Z"/>
  <path class="cls-251" d="m510.54,680.4c-.39.19-.67.48-.82.89-1.05,1.7-2.27,3-4.5,1.91.74-3.5-4.31-8.44,2.59-10.43,1.97.29,3.34,1.45,4.46,3.01,1.5,2.31-.68,3.26-1.72,4.63Z"/>
  <path class="cls-50" d="m864.27,491.14c-.6-3.74,2.14-5.13,4.67-6.67,1.27.26,1.7,1.17,1.8,2.33,0,.43.1.82.32,1.19.05.43-.06.82-.32,1.17,0,0-.36-.49-.36-.49,0,0,.24.57.24.57.33.36.36.74.1,1.15l.09-.15c-.76,2.33-2.68,3.04-4.81,3.45h-.25c-.17-.24-.33-.48-.5-.72-.06-.27-.12-.54-.17-.82.1-.45.01-.75-.26-.9-.26-.14-.44-.18-.55-.11Z"/>
  <path class="cls-72" d="m681.75,473.44c.64-.54,1.28-1.08,1.91-1.61.52-1.16,1.3-1.77,2.62-1.22l-.19-.02c1.29-.09,1.85.8,2.38,1.73q1.97,7.9-3.5,7.82c-.76-.62-1.18-1.44-1.35-2.39-.41-1.09-1.1-2-1.89-2.85-.35-.49-.36-.98.02-1.47Z"/>
  <path class="cls-210" d="m663.3,375.42c-.04-.42-.22-.76-.54-1.04-.12-.81-.02-1.59.3-2.35l-.02.1c.48-1.88,1.94-2.43,3.62-2.69l.18.02c5.1,3.85,5.04,4.6-.58,7.76h-.13c-.65-.32-1.39-.38-2.03-.71h.14c-.51.02-.82-.14-.93-.47-.12-.35-.12-.55-.02-.62Z"/>
  <path class="cls-142" d="m804.39,526.59c-.17.75-.35,1.5-.52,2.25-.18.53-.47.97-.89,1.34-.89.69-1.4,1.66-1.99,2.58-.5.32-1.01.34-1.53.02-.53-.72-1.05-1.44-1.58-2.15-.65-.19-1.31-.33-1.99-.41h-.09c-1.21-.23-2.58-.08-3.28-1.46-.2-.98-.02-1.89.48-2.74.44-.46.99-.75,1.61-.88,1.22.1,2.38.56,3.59.67,1.83.03,3.68-.68,5.49.13.23.21.46.43.68.65Z"/>
  <path class="cls-242" d="m572.64,575.5c-.39,0-.73.13-1.03.38-1.5.33-2.1-1.23-3.29-1.56-.05-.34-.22-.61-.5-.81-.12-.78,0-1.54.17-2.3v-.05c.78-1.63,1.92-2.61,3.85-2.3l-.15-.03c1.89.51,2.57,1.85,2.55,3.69v-.02c-.14.69-.27,1.38-.39,2.07l-.03.07c-.16.62-.55.91-1.19.87Z"/>
  <path class="cls-53" d="m582.71,668.11c1.05-.68,2.1-1.35,3.16-2.03,4.94,3.96,4.9,4.85-.28,6.89l.31.06c-2.38-.79-3.45-2.42-3.18-4.92Z"/>
  <path class="cls-11" d="m625.29,432.15c1.22-.66,2.43-1.32,3.65-1.98.35,0,.7-.02,1.05-.03.15.31.29.63.44.95.13,1.08-.18,2.01-.94,2.78-1.21-.08-2.09.12-1.34,1.65-.6,2.69-2.31,3.02-4.59,2.18-.58-.41-.88-.98-.9-1.7l-.05.11c0-.76.15-1.49.48-2.18v.13c.13-1.34.99-1.83,2.21-1.9Z"/>
  <path class="cls-184" d="m541.4,521.45c1.92-1.89,1.08-3.59-.37-5.24.43-.34.87-.68,1.3-1.02,1.18.25,1.71,1.57,2.92,1.78.24.41.49.8.77,1.18-.14.49-.07.83.22,1.02.29.19.49.24.6.17.42.42.84.84,1.26,1.27-.15.37-.29.74-.44,1.11-1.57,2.07-3.34,3.47-6.04,1.84-.63-.64-.71-1.34-.23-2.11Z"/>
  <path class="cls-177" d="m490.22,594.37c1.81-1.37,3.61-2.37,5.38.05.07,1.48-.26,2.88-.89,4.22l-.57.33-.55.37c-1.27-.03-1.79-1.47-3.02-1.58-.25-.42-.51-.83-.78-1.24.13-.72.29-1.43.42-2.15Z"/>
  <path class="cls-185" d="m531.53,656.31c-2.37.89-4.13-.97-6.21-1.41-2.37-.5-1.15-2.05-.6-3.3,0,0,.71-.22.71-.23.5-.03.99-.08,1.48-.13.52.03.97.23,1.34.59.03.41.25.63.67.64,1.7.71,2.43,2.08,2.61,3.82Z"/>
  <path class="cls-153" d="m643.36,512.62c.71.13,1.41.26,2.12.39.26.5.39,1.04.41,1.61-.03.28-.06.56-.09.84-.1.56-.27,1.1-.5,1.63-.15.24-.32.47-.47.71-.47.4-.97.44-1.49.09l.08.04c-.84,0-1.6-.23-2.28-.74-.1-.43-.36-.7-.78-.82-.48-.12-.74-.35-.81-.7-.06-.34-.04-.55.06-.61.18-.4.07-.68-.33-.84-.34-.63-.2-1.16.35-1.61,1.25-.64,2.49-.3,3.73.01Z"/>
  <path class="cls-253" d="m494.92,672.43c-.41-.79-.81-1.58-1.22-2.37.75-.63,1.5-1.26,2.24-1.88.7-1.08,1.6-1.77,2.98-1.43.94,5.48-.18,7.06-4.01,5.68Z"/>
  <path class="cls-254" d="m557.1,709.98c.92,1.68,1.45,3.43,1,5.4-2.44-.35-3.25-2.03-3.73-4-.64-.4-.62-.83-.04-1.27l.5-.37c.77-.07,1.6-.61,2.28.23Z"/>
  <path class="cls-115" d="m654.32,496.22c.45-.29.91-.57,1.36-.86.31-.58.77-.73,1.36-.44l-.14-.03c.52.02.8.2.84.53.05.33,0,.53-.11.61l.05-.13c0,.74-.15,1.46-.29,2.18l-.29.02c-.04,1.15-.65,1.94-1.6,2.52-.66.28-1.34.39-2.05.33-1.09-.47-1.48-1.4-1.62-2.5.05-.27.13-.53.24-.78.42-.98,1.19-1.43,2.24-1.44Z"/>
  <path class="cls-1" d="m654.01,500.12c1.03-.68,2.07-1.35,3.1-2.03.36.41.71.82,1.07,1.23-.14.5-.06.84.23,1.04.29.19.5.26.61.18.32.44.65.88.97,1.32.91.54,1.06,1.25.45,2.12-4.27,2.26-5.39-.74-6.44-3.86Z"/>
  <path class="cls-34" d="m629.16,440.79c.31.38.61.77.88,1.18,1.49.92,1.23,2.17.69,3.49-.42.61-.99.79-1.69.58l.11.02c-1.32-.08-1.85-1.48-3.03-1.8-.43-.34-.87-.67-1.3-1.01.16-.62.45-1.16.89-1.62,1.02-.82,2.1-1.39,3.45-.83Z"/>
  <path class="cls-158" d="m698.78,472.51c1.5-.4,2.75-2.34,4.57-.73v-.03c-.13.64-.21,1.3-.22,1.96-.05.46.06.87.33,1.23-.26.31-.51.63-.73.96-.29.03-.58.07-.87.1-.57-.15-1.11-.38-1.62-.68-.9-.72-2.02-1.34-1.45-2.82Z"/>
  <path class="cls-3" d="m682.4,425.33l-.18-.3c-.26-2.52,1.54-2.7,3.32-2.9h0c.43.1.69.31.8.64.11.33.12.52.04.57v.06c-.29,1.12.24,2.72-1.68,2.91h-.14c-.78-.2-1.52-.47-2.17-.97Z"/>
  <path class="cls-154" d="m1016.24,578.24c-.08-2.28.86-2.96,2.94-1.89.57.46.57.92,0,1.38-.58.39-1.16.77-1.75,1.16-.63.21-1.04.01-1.2-.65Z"/>
  <path class="cls-71" d="m525.91,674.45c.34-.12.54-.35.61-.71.25-.61.69-.82,1.32-.65h-.06c1.9,1.11.64,2.25.03,3.39l-.46.31c-1.94.12-2.46-.64-1.43-2.34Z"/>
  <path class="cls-15" d="m605.73,493.63c-1.01.8-2.04,1.43-3.31.49,1.03-.67,2.09-1.11,3.31-.49Z"/>
  <path class="cls-59" d="m585.22,619.71c.79-.59,1.57-1.19,2.36-1.78h.01c.6.22.88.64.84,1.27v.03c-.45,1.26-1.27,1.85-2.63,1.45-.18-.33-.38-.66-.59-.98Z"/>
  <path class="cls-36" d="m528.11,723.37c1-.76,2.03-1.32,3.24-.4,0,0,.03-.05.03-.05-.34,1.33-1.17,1.88-2.53,1.59-.26-.37-.51-.75-.75-1.14Z"/>
  <path class="cls-172" d="m873.21,507.35c.73-.62,1.46-1.23,2.19-1.85h0c.62.21.88.63.72,1.28l.02-.09c-.4,1.42-1.15,2.09-2.62,1.23l-.32-.57Z"/>
  <path class="cls-11" d="m630.1,431.11c.44-.14.87-.26,1.32-.36.2.24.44.43.72.58,0,0-.05.6-.05.6-.73.45-1.41.37-2.01-.24l.02-.58Z"/>
  <path class="cls-192" d="m524.13,716.71c-.38-.23-.73-.52-1.03-.85.21-.63.64-.95,1.31-.94.29.34.51.72.65,1.15l-.52.24-.4.41Z"/>
  <path class="cls-219" d="m807.49,506.26c.27.54.53,1.09.8,1.63-.25.86-.32,1.73-.19,2.62,0,.6-.11,1.18-.29,1.75-.38.8-.92,1.49-1.51,2.15-.6.61-1.18,1.24-1.7,1.94-.22.18-.45.36-.67.55-.25.14-.51.27-.75.42-.5.31-1,.62-1.49.95-1.52,1.02-2.99,2.55-4.82.5-.6-1.31-.29-2.54.33-3.74q8.3-2.58,2.16-10.2c.16-2.53,2.23-1.73,3.61-2.12.5-.24,1.05-.39,1.6-.5.83.03,1.49.39,1.92,1.12.21.41.4.85.56,1.29-.34.38-.36.79-.05,1.2,0,0,.47.45.47.45Z"/>
  <path class="cls-131" d="m797.21,515.02c.52,1.14.7,2.3.12,3.48-.09.58-.29,1.11-.6,1.61-.95,1.08-2.04,2.02-3,3.1-.22.19-.45.37-.67.55-.27.1-.55.2-.82.3-.27-.1-.54-.21-.82-.31-1.12-1.22-2.37-2.02-4.08-1.17l-.34-.55c3.23-1.96,1.1-3.87-.05-5.79.24-.27.49-.54.74-.8,1.71-.32,3.52-.2,5.04-1.26,1.15.07,1.75.97,2.51,1.63.66-.26,1.32-.52,1.98-.78Z"/>
  <path class="cls-14" d="m805,502.58c-.43.26-.87.52-1.3.78-1.23-.37-1.85-1.11-1.46-2.45.35-.24.72-.45,1.11-.64,1.23-.07,2.26-.39,2.34-1.89.41-.87.54-2.39,1.62-2.24,1.64.22,1.94,2.02,2.57,3.32-.76.51-1.52,1.03-2.28,1.54-.46,1.2-1.27,1.81-2.59,1.58Z"/>
  <path class="cls-174" d="m802.24,500.91c.49.82.97,1.63,1.46,2.45-.88,2.17-3.43-.65-4.33,1.46-.35-.9-.19-1.74.33-2.54.27-.18.54-.35.81-.53l1.72-.84Z"/>
  <path class="cls-9" d="m795.24,515.8c-1.3.17-1.83-.85-2.51-1.63.01-1,.37-2.08,1.44-1.83,1.98.47,1.09,2.17,1.07,3.46Z"/>
  <path class="cls-174" d="m805.69,498.38c.37,2.05-.76,2.25-2.34,1.89.41-.4.83-.8,1.24-1.19.29-.35.65-.59,1.1-.7Z"/>
  <path class="cls-61" d="m787.8,506.59c.78,0,2.02.58,1.79.85-1.18,1.39-1.05-.76-1.79-.84h0Z"/>
  <path class="cls-135" d="m787.22,514.23c0-.25-.08-.67.02-.72.42-.21.45.08,0,.73h-.01Z"/>
  <path class="cls-80" d="m588.42,514.21c-.24-.47-.48-.95-.72-1.42,0,0-.06.07-.06.07.25-1.2,1.01-1.74,2.2-1.73.86-.55,1.72-1.09,2.57-1.64,1.21-1.21,1.61-3.01,2.98-4.11.86-.69,1.85-.89,2.93-.73.67.22,1.2.63,1.54,1.25-.71,2.94-1.27,5.97-4.17,7.73-2.43-.41-4.74,1.68-7.22.35l-.05.23Z"/>
  <path class="cls-203" d="m576.13,509.29c-.12-.41-.26-.82-.41-1.22.83-.32.89-2.74,2.44-1.01,1.76,1.98,2.73,1.56,3.27-.84.22-.9.43-1.8.65-2.7l-.23-.02c1.12,1.81,2.25,3.62,3.37,5.43.49-.02.79.12.89.43.1.33.11.53,0,.6-2.33.15-4.85-1.02-6.88,1.05-.32-.47-.65-.94-.97-1.41-.72-.03-1.49.37-2.12-.31Z"/>
  <path class="cls-22" d="m593.55,490.73c1.01-.48,2.11-1.63,2.79.37-.34,1.59.28,3.55-1.75,4.48-.52.08-1.02,0-1.51-.2-.72-.31-1.41-.66-2.03-1.15-.36-.42-.44-.89-.2-1.4-.11-2,1.86-1.33,2.7-2.11Z"/>
  <path class="cls-259" d="m593.65,499.72c.2.42.41.84.63,1.25-.09.66-.45,1.09-1.1,1.26-1.28-.39-2.28.15-3.22.95-.63.2-1.17.05-1.61-.43-.1-.31-.26-.58-.5-.8l-.02-.1c.89-1.97,2.23-3.54,4.17-4.55.28.05.56.09.84.14.59.65,1,1.35.8,2.28Z"/>
  <path class="cls-146" d="m595.7,505.77c-.4,1.84-.43,4.02-3.27,3.72-.18-.38-.39-.74-.64-1.08-.64-.26-.99-.73-1.1-1.4.27-.6.7-1.06,1.28-1.38.93-.33,1.88-.4,2.86-.25.29.13.58.27.88.41Z"/>
  <path class="cls-233" d="m591.64,493.92c.87-.16,1.6.1,2.22.72-.48,1.08-1.31,1.61-2.5,1.55-.48.23-.96.45-1.44.68-.6-.05-1.1-.31-1.49-.77-.27-.55-.25-1.1.02-1.65.38-.26.77-.5,1.16-.74.69-.05,1.37.02,2.03.21Z"/>
  <path class="cls-215" d="m588.74,487.02c.61.67,1.22,1.35,1.83,2.02-.97.75-1.96,1.42-3.29.99.49-1,.97-2,1.46-3Z"/>
  <path class="cls-22" d="m588.44,494.46c.22.38.44.76.64,1.15-.09.53-.34.96-.74,1.31-.46.28-.95.39-1.48.29-.27-.03-.54-.05-.81-.06-.14-.32-.28-.65-.42-.97.8-.79.93-2.68,2.81-1.72Z"/>
  <path class="cls-102" d="m591.35,496.19c.83-.52,1.66-1.03,2.5-1.55.2.35.44.66.74.93-.16.71-.32,1.42-.48,2.12-.8.41-1.4-.3-2.11-.38h.02c-.25-.37-.47-.74-.66-1.13Z"/>
  <path class="cls-249" d="m592,506.16c-.32.19-.56.44-.73.77-.35.78-.9.96-1.64.54-.53-.96-1.43-1.88-.26-2.98.32-.07.63-.13.95-.2.97.26,1.82.62,1.68,1.87Z"/>
  <path class="cls-39" d="m578.97,496.75c-.2-.72-.69-1.53.57-1.78.52.75,1.04,1.5,1.56,2.25v-.04c-.7-.14-1.41-.28-2.13-.42Z"/>
  <path class="cls-203" d="m578.72,504.09c-.9-.87-1-1.96-.81-3.11.84.89,1.26,1.89.81,3.11Z"/>
  <path class="cls-180" d="m583.08,497.78c.27,1,.2,1.82-1.11,1.84-.05,0-.12-.75-.18-1.16.16-.73.6-.93,1.28-.68Z"/>
  <path class="cls-203" d="m580.06,512.19c-.18.36-.36.72-.53,1.07-1.1-.62-.68-1.44-.3-2.26.26.4.54.8.83,1.18Z"/>
  <path class="cls-222" d="m586.11,509.95c-.35-.29-.65-.64-.89-1.03.69-.19,1.39-.37,2.08-.56.19.97-.58,1.23-1.2,1.59Z"/>
  <path class="cls-56" d="m589.85,511.13c-.73.58-1.47,1.15-2.2,1.73-.24-1.82.35-2.59,2.2-1.73Z"/>
  <path class="cls-39" d="m583.08,497.78c-.43.23-.85.45-1.28.68-.21-.45-.44-.88-.7-1.29v.04c.76-.19,1.44-.07,1.98.57Z"/>
  <path class="cls-39" d="m591.64,493.92c-.68-.07-1.36-.14-2.03-.21.42-.29.83-.59,1.25-.88.24.38.5.74.79,1.09Z"/>
  <path class="cls-233" d="m586.86,497.21c.27-.32.59-.58.95-.78.51.07.8.28.87.63.07.35.06.56-.05.63-.72.29-1.33.21-1.78-.49Z"/>
  <path class="cls-39" d="m588.64,497.7c-.27-.42-.55-.85-.82-1.27.42-.27.84-.55,1.27-.82.27.42.55.85.83,1.27-.42.27-.85.55-1.27.82Z"/>
  <path class="cls-27" d="m587.85,501.96c-.43.05-.87.1-1.3.15.15-1.56.84-.23,1.29-.24l.02.1Z"/>
  <path class="cls-84" d="m588.35,502.76l1.52-.41c.96.95.98,1.71-.45,2.15h-.04c-.34-.59-.68-1.16-1.02-1.74Z"/>
  <path class="cls-203" d="m582.49,512.57c-.4-.35-.8-.69-1.2-1.04.41.11.83.17,1.21.35.08.04,0,.45-.01.69Z"/>
  <path class="cls-80" d="m589.63,507.47c.55-.18,1.09-.36,1.64-.54.17.49.35.98.52,1.48-.72-.31-1.44-.62-2.16-.93Z"/>
  <path class="cls-161" d="m548.33,679.33c-.33-.33-.62-.7-.86-1.1-.18-1.64,1.14-2.62,1.74-3.9-.04-.23.82-.58-.1-.71.33.32.27.66-.19,1.04-.83,1.07-1.88,1.59-3.24,1.43-.63-.35-.87-.89-.79-1.59,0-2.13,1.73-2.93,3.09-4.01.19-.55.58-.75,1.14-.65.7-.26,1.01-.77.95-1.51-.51-.98-.22-1.36.87-1.14.93.49,1.86.98,2.78,1.47.21.79.12,1.58.05,2.36,0,.5-.03,1.01-.05,1.5-.02.5.15.93.54,1.27.47.35.58.8.35,1.33-1.73,1.95-4.09,2.97-6.3,4.19Z"/>
  <path class="cls-73" d="m544.72,657.09c.43.24.86.48,1.28.73,1.09.67,1.99,1.52,1.81,2.92-.1.81-.8,1.17-1.6,1.17-1.51,0-2.08-.94-2.34-2.28-.14-.71-.51-1.38-.77-2.07.21-.28.42-.56.63-.84.33.12.66.24.98.37Z"/>
  <path class="cls-152" d="m534.66,666.78c-1.63-2.35.57-2.22,1.78-2.74,1.26.73,2.59,1.1,4.05.74.5.12.84.38,1.01.76.18.39.22.62.14.68-.33,1.03-1.01,1.77-1.91,2.33-.61.3-1.26.45-1.93.48-1.33-.35-1.73-1.99-3.13-2.24Z"/>
  <path class="cls-263" d="m550.95,667.2c-.38.31-.67.68-.87,1.14-.46-.57-.92-1.14-1.38-1.71q-.36-3.86,3.9-2.54v-.02c-1.1.76-1.92,1.66-1.66,3.14Z"/>
  <path class="cls-262" d="m552.24,671.37c-.47-1.43.76-1.93,1.49-2.69,2.07-.1,2.81,1.51,3.71,2.9,0,0,.01.1.01.1-1.89,2.42-3.48-.08-5.21-.3Z"/>
  <path class="cls-118" d="m546.71,666.09c-.73,1.46-1.21,3.12-2.97,3.79-1.32-.44-1.76-1.41-1.64-2.72.83-1.47,1.93-2.47,3.78-2.12.31.32.59.67.82,1.05Z"/>
  <path class="cls-83" d="m541.36,655.09c-.06-.39-.19-.76-.4-1.1,1.01-.18,2.03-.36,3.04-.54.57.74,1.14,1.49,1.71,2.23-.34.47-.67.94-1,1.41,0,0-.53-.32-.53-.32-.56-.02-1.1-.14-1.63-.33-.4-.45-.8-.9-1.2-1.35Z"/>
  <path class="cls-173" d="m545.89,665.04c-1.19.77-2.37,1.54-3.56,2.32-.33-.09-.65-.19-.98-.28-.02-.34-.03-.68-.05-1.01-.27-.43-.55-.85-.82-1.28,0,0,0,0,0,0,.21-.6.63-.9,1.27-.87,1.38.38,2.75.75,4.13,1.13Z"/>
  <path class="cls-139" d="m552.6,664.09c1.09-.59,2.19-1.16,3.42-.34l-.27.7-.75.08c-.8-.16-1.61-.31-2.41-.47v.02Z"/>
  <path class="cls-201" d="m542.56,656.44c.54.11,1.09.22,1.63.33,0,0-.48.48-.48.48l-.61.31c-.26-.34-.44-.71-.54-1.13Z"/>
  <path class="cls-152" d="m541.76,663.91c-.42.29-.85.58-1.27.87-.13-1.11.25-1.46,1.27-.87Z"/>
  <path class="cls-32" d="m554.85,659.04c.28.4.56.81.84,1.21-1.21.24-1.54-.13-.84-1.21Z"/>
  <path class="cls-236" d="m555.01,664.54c.31-.3.65-.56,1.02-.79.03.41.07.83.1,1.24-.37-.15-.74-.3-1.12-.46Z"/>
  <path class="cls-4" d="m795.94,519.43c.46-.31.93-.62,1.39-.93,2.69,1.28,2.58-1.66,3.83-2.54.64.16,1.29.31,1.94.45l.55-.28c.79.57,1.22,1.41,1.65,2.25.32.56.44,1.16.31,1.79.27.49.54.98.81,1.46-.76.93-1.97,1.35-2.71,2.3-.27.11-.55.22-.81.33-.57-.06-1.08-.28-1.53-.63-.36-.38-.6-.84-.7-1.35.41-.81.23-.94-.39-.25-.67.75.57.13-.28.69-.38.4-.81.7-1.31.92-1.07.35-2.15.67-3.24.93-.59.04-1.18.07-1.77.08-.55-.33-.81-.81-.79-1.44l.23-.41c.29-1.66,2.53-1.71,2.79-3.39Z"/>
  <path class="cls-92" d="m807.32,511.94c-.18-.44-.4-.86-.68-1.25.22-1.29,1.07-1.83,2.31-1.91.79.22,1.57.44,2.36.66.95.23,1.43.94,1.83,1.73.41.91-1.37,1.77-.07,2.71.27.47.29.95.09,1.44-1.11.6-2.23.91-3.39.14-.56-.02-1.07-.18-1.53-.52-.39-.4-.69-.86-.92-1.37-.11-.55-.11-1.09,0-1.64Z"/>
  <path class="cls-206" d="m818.86,518.63c-.31,1.09-.26,2.32-1.27,3.13-2.13.51-3.64,3.16-6.3,1.81v.03c.62-.96,1.25-1.91,1.88-2.87.64.13,1.28.26,1.91.38,1.2-.92,1.16-3.71,3.77-2.49Z"/>
  <path class="cls-74" d="m803.01,524.12c.56-1.63,1.44-2.82,3.42-2.48.13,1.99-1.25,3.35-2.05,4.95,0,0-.15-.14-.15-.14-1.19-.37-1.77-1.05-1.23-2.33Z"/>
  <path class="cls-147" d="m804.87,518.95c-.41-.94-.81-1.87-1.21-2.81.28-.16.53-.34.76-.55.11-.31.22-.63.34-.94.32-.07.65-.15.97-.22.25.22.5.43.76.65.06.33.12.65.18.98-.61.58-.8,1.28-.6,2.08-.16.62-.55.91-1.2.82Z"/>
  <path class="cls-105" d="m808.86,514.16c.3.44.6.88.9,1.31-.92.77-1.89,1.33-3.1.58,0,0-.02,0-.02,0,.18-1.29.98-1.85,2.21-1.9Z"/>
  <path class="cls-267" d="m804.63,529.74c-.45.26-.9.52-1.35.78-.43-.07-.66-.25-.7-.54-.04-.29-.01-.46.09-.52.35-.32.75-.53,1.21-.63.27.29.52.59.76.91Z"/>
  <path class="cls-94" d="m815.09,521.13c-.74.4-1.35.12-1.91-.38.72-.27,1.36-.15,1.91.38Z"/>
  <path class="cls-220" d="m811.29,523.57c-.39.05-.79.09-1.18.14.28-1.3.76-.35,1.18-.1v-.03Z"/>
  <path class="cls-213" d="m813.15,515.33c-.23-.45-.46-.9-.69-1.35.11-.29.22-.58.33-.87.31.02.62.05.93.07.32.38.57.8.74,1.26-.44.3-.87.59-1.31.89Z"/>
  <path class="cls-130" d="m804.87,518.95c.38-.3.78-.57,1.2-.82.59.84.44,1.52-.44,2.05-.29-.39-.54-.8-.75-1.23Z"/>
  <path class="cls-197" d="m554.07,719.2c-.87-.69-1.11-1.66-1.25-2.69,1.91.2,2.09,1.21,1.25,2.69Z"/>
  <path class="cls-153" d="m649.22,520.97c-2.22-.32-3.45-1.94-4.67-3.57l.13-.59c.12-.5.23-1.01.32-1.52l.15-.48c.42-.94,1.04-1.49,2.15-1.17,1.08-1.33,2.15-2.66,3.23-3.99.31-.71.85-.95,1.59-.79.36,3.71,2.32,6.73,4.21,9.78-1.94,2.08-4.7,1.69-7.11,2.32Z"/>
  <path class="cls-100" d="m637.88,509.24c.58-.59,1.16-1.17,1.74-1.76,1.25.37,2.26-3.04,3.66-.24-.03.66-.12,1.32-.27,1.97v.03c-.19.7-.28,1.41-.35,2.13.28.39.51.8.7,1.24-1.15.68-2.33,1-3.58.23-.63-1.2-1.27-2.4-1.9-3.6Z"/>
  <path class="cls-260" d="m646.38,508.89c.26-1.46-1.76-3.52,1.11-4.31,1.22.5,1.74,1.45,1.75,2.73-.67,1.04-1.55,1.71-2.87,1.58Z"/>
  <path class="cls-77" d="m648.55,507.13c-.35-.85-.7-1.7-1.05-2.54.38-.3.74-.61,1.11-.93.34,0,.69-.01,1.03-.02,2.14.69,2.44,2.21,1.86,4.13-.43.61-1.02.86-1.76.7h0c-.61,0-.99-.19-1.14-.59-.16-.42-.18-.67-.06-.75Z"/>
  <path class="cls-79" d="m648.6,503.66c-.09-1.38-.93-3.23,1.8-2.8.53.49.73,1.09.6,1.8-.56,1.01-1.37,1.45-2.52,1.11l.12-.11Z"/>
  <path class="cls-41" d="m651.1,502.2c-.24-.45-.47-.89-.7-1.34.48-.81.97-1.61,1.45-2.42.45.69.89,1.38,1.34,2.07-.06.73-.42,1.27-1.04,1.64-.35.01-.69.03-1.04.04Z"/>
  <path class="cls-248" d="m640.1,502.09c-.24-.41-.46-.84-.67-1.26.33-.38.74-.58,1.24-.62.23.62.46,1.23.69,1.85-.42.01-.84.02-1.26.04Z"/>
  <path class="cls-96" d="m648.55,507.13c.4.44.8.89,1.19,1.33-.82.54-1.65,1.09-2.47,1.63-.47-.1-.75-.33-.86-.68-.1-.35-.11-.56-.02-.62v.09c.71-.59,1.43-1.17,2.15-1.76Z"/>
  <path class="cls-47" d="m647.3,513.65c-.72.39-1.43.78-2.15,1.17.11-.61.22-1.21.32-1.82.74-.17,1.43-.18,1.82.65Z"/>
  <path class="cls-153" d="m643.01,509.22c.09-.66.18-1.31.27-1.97.32.71.22,1.37-.27,1.97Z"/>
  <path class="cls-153" d="m642.66,511.37c.11-.71.23-1.42.34-2.13-.11.71-.23,1.42-.34,2.13Z"/>
  <path class="cls-153" d="m646.4,508.8c.29.43.58.86.87,1.29-1.25.22-1.47-.26-.87-1.29Z"/>
  <path class="cls-96" d="m649.73,508.47c.4-.28.8-.57,1.18-.88.61.22.9.67.9,1.31-.42.27-.84.53-1.29.76-.28-.39-.54-.79-.8-1.19Z"/>
  <path class="cls-109" d="m463.97,609.65c-.2.64-.41,1.29-.61,1.93-1.33-.25-2.66-.49-3.99-.74-.51-.89-1.03-1.77-1.54-2.66.33-1.25,1.13-1.78,2.41-1.54,1.62-.2,2.36.95,3.14,2.04.42.04.65.2.68.47.03.27,0,.44-.1.5Z"/>
  <path class="cls-207" d="m463.97,609.65c-.16-.35-.35-.68-.59-.97,1.2-1.55,2.59-2.52,4.63-1.52.02.4.11.78.27,1.14-1.14.81-2.28,1.61-3.42,2.42-.38-.29-.68-.64-.89-1.07Z"/>
  <path class="cls-247" d="m460.24,606.64c-.8.51-1.61,1.03-2.41,1.54-.92-.58-1.32-1.48-1.48-2.51.78-.54,1.56-1.08,2.33-1.62l-.1-.02c.55.87,1.1,1.74,1.66,2.61Z"/>
  <path class="cls-5" d="m458.69,604.05c-.29-1.36.09-2.27,1.63-2.21.21,0,.64.81.54,1.08-.36,1.02-1.44.85-2.27,1.1,0,0,.1.02.1.02Z"/>
  <path class="cls-141" d="m466.13,599.34c.44.24.67.61.7,1.11-.32-.17-.65-.32-.94-.53-.04-.03.15-.38.23-.58Z"/>
  <path class="cls-143" d="m919.07,495.17c.42,0,.81-.1,1.17-.31-.09.51-.17,1.03-.26,1.54-1.05.15-1.54-.13-.92-1.23Z"/>
  <path class="cls-113" d="m916.11,504.64c-.95.34-1.6-.03-2.04-.88.87-.14,1.53.2,2.04.88Z"/>
  <path class="cls-148" d="m820.33,506.94c-.34.27-.65.57-.92.91-1.2.61-2.4,1.01-3.56-.08.16-.73-.28-1.59.51-2.17.37-.2.77-.33,1.19-.39.93.58,1.86,1.16,2.78,1.74Z"/>
  <path class="cls-35" d="m812.81,511.98c-.5-.85-1-1.69-1.51-2.54,2.58.1,3.16,1.49,2.41,3.74,0,0-.09,0-.09,0-.58,0-.9-.17-.94-.53-.05-.36,0-.58.13-.67Z"/>
  <path class="cls-174" d="m805,502.58c.86-.53,1.73-1.05,2.59-1.58.02,1.05.04,2.1.07,3.15.09.75-.22,1.12-.99,1.07-.56-.88-1.12-1.76-1.67-2.64Z"/>
  <path class="cls-78" d="m816.36,505.6c-.17.72-.34,1.45-.51,2.17-.75-.88-1.3-1.79-.4-2.9.37.16.68.4.92.73Z"/>
  <path class="cls-156" d="m808.95,508.78c-.77.64-1.54,1.27-2.31,1.91-.41-1.5.41-2.27,1.65-2.79.23.29.45.59.66.89Z"/>
  <path class="cls-103" d="m806.68,505.22c.35-.34.68-.69.99-1.07.43.18.87.37,1.3.55-.49.52-.98,1.04-1.48,1.56,0,0,0,.13,0,.13-.44-.12-.72-.34-.82-.69-.1-.34-.11-.54-.02-.6l.02.11Z"/>
  <path class="cls-60" d="m563,630.22c-.32.36-.67.68-1.06.96,0,0-.65-.04-.65-.04l-.38.53c-.52.09-.86-.02-1.01-.34-.17-.35-.21-.56-.1-.63-.13-1.59-.63-2.79-2.41-3.29-1.6-.45-2.58-1.49-1.69-3.33.8-.35,1.6-.7,2.4-1.05,1.64,2.4,3.27,4.8,4.91,7.19Z"/>
  <path class="cls-168" d="m555.46,635.31c-.13-.73-.15-1.48.57-1.89.18-.1.61.23.93.36-.48.51-.97,1.03-1.45,1.54,0,0-.05-.01-.05-.01Z"/>
  <path class="cls-211" d="m560.81,634.9c-.44.26-.88.52-1.32.78.12-.8.58-1.02,1.32-.78Z"/>
  <path class="cls-252" d="m547.61,520.82c.33.37.63.76.93,1.15-.28.28-.6.52-.94.72-.77,1.35-.33,2.22,1.06,2.73.35.39.7.79,1.05,1.18-.58,1.34-1.32,2.64-.83,4.2-2.13,1.37-4.25,2.74-6.38,4.11-.3-.24-.51-.54-.62-.91-.55-.28-1.01-.67-1.38-1.17-.22-.58-.31-1.18-.3-1.8.02-.61.09-1.22.18-1.82.12-1.52.74-2.94.95-4.45-.28-.32-.54-.66-.78-1.01.04-.74.44-1.08,1.17-1.03,2.61,1.37,3.92-1.27,5.89-1.89Z"/>
  <path class="cls-216" d="m541.33,524.76c1.11,1.8,1.31,3.65.31,5.57-.42.36-.81.34-1.19-.05,0,0-.21.63-.21.63,0,0,.65.12.65.13,0,.48.01.94.04,1.4l.04-.08c-.25.72-.75,1.08-1.51,1.08-1.69.93-3.01.69-3.83-1.19.49-1.25,1.79-2.56.23-3.79-1.69-1.34-.58-2.45.02-3.66h.06c1.82,2.49,3.61,1.57,5.4-.03Z"/>
  <path class="cls-7" d="m541.72,522.72c-.39.34-.78.69-1.17,1.03,0,0-.1-.08-.1-.08-.64-.25-1.29-.46-1.97-.6-.1-2.47,1.37-2.1,2.91-1.62.12.42.23.84.33,1.27Z"/>
  <path class="cls-117" d="m535.88,524.79c-.18-.67-.35-1.34-.53-2.02,1.77.22.82,1.22.58,2.02h-.06Z"/>
  <path class="cls-237" d="m531.73,529.19c-.52-.2-.82-.58-.89-1.13.39-.25.8-.48,1.22-.68-.11.6-.22,1.21-.33,1.81Z"/>
  <path class="cls-252" d="m538.49,523.06c.66.2,1.31.4,1.97.6-.66-.2-1.31-.4-1.97-.6Z"/>
  <path class="cls-10" d="m595.26,513.28c1.13-2.7,3.53-4.79,3.75-7.92,1.7-1.59,3.06-1.57,3.92.83-.91,1.24-4.29,2.02-.75,4.08-1.42,2.33-1.45,4.6.35,6.77-2.08,1.44-3.17-.03-4.28-1.45-.73-.63-1.67-.49-2.52-.7-.44-.45-.59-.99-.47-1.6Z"/>
  <path class="cls-80" d="m602.93,506.19c-1.17-.92-2.51-1.02-3.92-.83l.05.02c-.85-.24-1.52-.76-2.16-1.34-.31-.49-.51-1.03-.59-1.61.07-.28.14-.56.21-.84.96-.53,1.93-1.06,2.89-1.58.47.08.93.18,1.38.31.94,1.87,3.55,3.14,2.13,5.87Z"/>
  <path class="cls-164" d="m591.99,497.32c.7.13,1.41.26,2.11.38-.15.67-.3,1.35-.45,2.02-.55-.8-1.11-1.6-1.66-2.41Z"/>
  <path class="cls-234" d="m593.32,502.06c.36-.33.68-.69.96-1.08.75.21,1.5.41,2.24.62l.02-.06c-.17,1.2-.94,1.75-2.06,1.93-.51-.1-.85-.35-1.03-.73-.18-.39-.23-.62-.14-.68Z"/>
  <path class="cls-122" d="m600.8,500.32c-.46-.1-.92-.2-1.39-.31.58-.42,1.02-.22,1.39.31Z"/>
  <path class="cls-150" d="m798.71,470.69c-1.11,3.03-3.11,3.92-6.07,2.55.19-.89.39-1.78.59-2.67v.02c-.82-3.08,1.45-3.8,3.71-4.74.6,1.64,1.19,3.24,1.77,4.84Z"/>
  <path class="cls-145" d="m788.55,466.36c.37-.27.71-.66,1.12-.79.69-.21,1.65-1.47,2.06-.19.3.93-1,1.33-1.94,1.34-.42,0-.83-.3-1.25-.46v.1Z"/>
  <path class="cls-112" d="m640.13,462.67c.19.4.35.82.47,1.25-.84.49-1.67.99-2.51,1.48-.33-.28-.7-.51-1.1-.69,1.04-.68,2.09-1.35,3.13-2.03Z"/>
  <path class="cls-221" d="m522.38,667.7c-.44.03-.83.18-1.19.43-2.4-1.92-4.79-3.84-7.19-5.75.33-2.1.65-4.19.98-6.29.55-.96,1.09-1.91,1.64-2.87h.12c1.24.34,1.8,1.13,1.64,2.42,1.25.99,2.49,1.99,3.74,2.98.63.03,1.05.35,1.24.96.05.59.04,1.17,0,1.75.04.91.4,1.71.85,2.49,1.14,2.11,1.18,3.71-1.81,3.88Z"/>
  <path class="cls-243" d="m522.89,659.91c-.27-.43-.53-.86-.78-1.29.9-.51,1.8-1.02,2.7-1.53.57.19.76.58.61,1.15.71.18,1.41.36,2.12.54.7.2,1.43.28,2.14.45l-.06-.02c.73.11,1.42.42,2.17.47,0,0,.28-.03.28-.03-.14,2.7-2.17,4.65-2.86,7.13-.31.09-.62.18-.93.28-.65-.04-1.24-.24-1.78-.6-.8-.9-.9-2.28-2-2.97-.42-.39-.75-.85-1.01-1.37-.35-.69.17-1.62-.59-2.22Z"/>
  <path class="cls-23" d="m518.37,655.64c-.55-.8-1.09-1.6-1.64-2.41,1.95-.15,2.38.73,1.64,2.41Z"/>
  <path class="cls-24" d="m525.42,658.24c-.22-.37-.43-.75-.61-1.15.59-.16.95.02.94.55,0,.2-.21.4-.33.6Z"/>
  <path class="cls-95" d="m529.68,659.23c-.71-.15-1.43-.3-2.14-.45.71.15,1.43.3,2.14.45Z"/>
  <path class="cls-230" d="m531.79,659.69c-.82.28-1.53.05-2.17-.47.72.16,1.45.32,2.17.47Z"/>
  <path class="cls-136" d="m524.46,662.57c2.92-.23,2.16,2.3,2.82,3.76.43.22.87.25,1.33.1l.59.36c.11.38.23.76.37,1.14-.7.46-1.39.92-2.09,1.39-.69-.13-1.38-.26-2.07-.39-.72-.04-1.44-.08-2.16-.11-.42-.27-.71-.64-.87-1.11,2.16-1.41,1.18-2.57-.28-3.7.36-1.18,1.14-1.68,2.37-1.43Z"/>
  <path class="cls-218" d="m542.52,670.62c.2,1.98-2.66,1.66-2.64,3.5-1.15-.45-1.55-1.43-1.79-2.52-.25-1.44.15-2.61,1.44-3.4.61-.33,1.25-.38,1.91-.17.7.72,1.4,1.45,1.09,2.59Z"/>
  <path class="cls-238" d="m539.54,668.93c-.49.89-.97,1.78-1.46,2.67-.6-.79-1.19-1.58-1.79-2.38-.01-.78.36-1.01,1.08-.77.47-.24.93-.47,1.4-.71.61-.02.92.15.95.51.03.36-.03.58-.18.68Z"/>
  <path class="cls-126" d="m537.37,668.45c-.36.26-.72.52-1.08.77-.54-.81-1.09-1.63-1.63-2.44,1.33-.14,2.1.64,2.71,1.67Z"/>
  <path class="cls-58" d="m744.96,507.71c-.56-.64-1.25-.8-2.05-.59-.98-.36-1.96-.73-2.95-1.09l-.13-.02c-1.52.32-2.07-.89-2.82-1.79.68-3.07,2.43-6.18-.28-9.15.3-.62.79-.95,1.46-1.02,1.16.09,2.28.6,3.45.41.6-.64.64-1.55,1.16-2.22.75-.7,1.62-.95,2.63-.78,3.38,1.5,2.08,4.07,1.54,6.47.33.48.6.98.86,1.5.47,1.14.7,2.33.76,3.56,0,.65-.19,1.23-.55,1.77-.76,1.26-1.33,2.72-3.07,2.96Z"/>
  <path class="cls-28" d="m726.48,512.21c-1.01-.27-2.03-.54-3.04-.8.06-.3.11-.6.17-.9,1.09-1.77,2.71-1.49,4.35-1.14.7.27.93.77.68,1.48-.72.46-1.44.92-2.16,1.37Z"/>
  <path class="cls-196" d="m728.64,510.84c-.16-.4-.35-.79-.57-1.17.06-.61.38-.82.96-.63.39-.02.76-.12,1.11-.3-.04,1.03-.42,1.82-1.51,2.09Z"/>
  <path class="cls-89" d="m858.85,485.61c1.03-.56,2.12-1.27,2.58.56.16.63.24,1.96-.28,1.75-.93-.37-1.55-1.51-2.3-2.33h0Z"/>
  <path class="cls-245" d="m864.27,491.14c.41-.01,1-.2,1.2,0,.36.37.12.81-.39,1.01-.31-.3-.58-.64-.81-1.01Z"/>
  <path class="cls-178" d="m502.34,664.41c1.09.43,2.18.44,3.25-.07-.01,2.89,2.77,1.37,3.89,2.47h-.03c2.53-.55,2.67,1.66,3.53,3.05-.57,2.55-2.23,3.58-4.75,3.43-1.94,1.21-4.36,2.43-1.81,5.05,2.59,2.65-.61,3.17-1.42,4.58-1.43.76-2.91.81-4.43.31-.64-.64-1.28-1.28-1.92-1.91.03-.74,1.41-1.13.89-1.71-.93-1.05-2.29-.21-3.46-.24-1.76-2.08-3.45-4.18-1.17-6.94,3.35-.38,3.74-2.83,3.84-5.48,1.2-.85,2.39-1.69,3.59-2.54Z"/>
  <path class="cls-121" d="m508.23,673.29c1.58-1.14,3.17-2.29,4.75-3.43.54.85,1.07,1.7,1.61,2.55-.74.58-1.48,1.16-2.22,1.74v-.05c.28.43.54.86.81,1.29-.28.3-.6.55-.95.76-2.26.36-3.08-1.31-3.99-2.85Z"/>
  <path class="cls-70" d="m729.04,509.04l-.45.36s-.51.27-.51.27c-1.49.28-2.98.56-4.47.84-.73-.73-1.31-1.68.04-2.12,1.81-.59,3.77-.94,5.39.65Z"/>
  <path class="cls-13" d="m572,596.93c-.25-.29-.43-.62-.56-.98.48-.28.96-.57,1.44-.85.39.82,2.23.76,1.66,1.92-.54,1.11-1.69.39-2.55-.1Z"/>
  <path class="cls-13" d="m577.05,593.93c.4.43.8.87,1.21,1.3-1.15.25-1.66-.08-1.21-1.3Z"/>
  <path class="cls-110" d="m737.83,494.34l-.54.38s-.57.34-.57.34c-.94-.51-1.89-1.03-2.83-1.54.52-.66.59-1.36.22-2.1,1.35-3.67,3.76-6.46,7.08-8.49.6-.02,1.06.22,1.34.75.15.54.15,1.07.02,1.6-.17.89.48,1.49.81,2.22.66,2.94-2.4,3.23-3.48,4.93-.58.74-1.2,1.45-2.05,1.91Z"/>
  <path class="cls-225" d="m746.03,482.13c.3.28.61.54.93.8.22,2.92-.44,4.85-3.99,3.6-.64-.59-.82-1.3-.55-2.13l-.02.03c-.05-1.08.45-1.49,1.5-1.22.71-.36,1.42-.72,2.13-1.08Z"/>
  <path class="cls-228" d="m743.9,483.21c-.5.41-1,.82-1.5,1.22-.4-.5-.81-1-1.21-1.5q.86-1.32,2.71.28Z"/>
  <path class="cls-69" d="m1011.57,573.41c.5-.09.97-.25,1.42-.48.32.33.63.68.92,1.04q-.93,1.33-2.34-.56Z"/>
  <path class="cls-181" d="m463.01,588.43c-.49-.78-.97-1.57-1.46-2.35,1.9-.09,2.04.9,1.46,2.35Z"/>
  <path class="cls-170" d="m896.71,530.82c-.14.67-.29,1.35-.43,2.02-1.21,1.54-2.43,3.08-3.64,4.62-1.79-.06-3.58-.13-5.36-.19-1.01-2.43-4.36-3.75-3.4-7.12,1.16-.24,2.31-.18,3.47-.03l.55-.22c.53.06.8.27.82.6.02.32-.04.53-.17.61,3.12,1.19,4.7-1.8,7.08-2.62.36.77.73,1.55,1.09,2.32Z"/>
  <path class="cls-195" d="m886.87,525.31c.72-.4,1.44-.8,2.16-1.2.7-.25,1.39-.23,2.08.07h.01c.73,1.24.72,2.09-.89,2.71-1.84.71-2.7-.1-3.36-1.59Z"/>
  <path class="cls-175" d="m887.34,530.12c-1.15.68-2.31.79-3.47.03-.18-.84.02-1.53.74-2.04.91.67,1.82,1.34,2.73,2.01Z"/>
  <path class="cls-33" d="m888.54,531.12c-.36-.33-.58-.73-.65-1.22.61-.4,1.51-.99,1.9-.29.36.64-.57,1.19-1.25,1.51Z"/>
  <path class="cls-208" d="m703.01,481.75c1.39,2.8.09,5.52-.25,8.26-3.52.63-6.08,3.51-10.01,3.65-3.31.12-6.14-.25-8.88-1.93-.24-.47-.48-.95-.72-1.42.31-.42.4-.89.18-1.36-.09-.19-.4-.13-.7.06-.32-.69-.46-1.37.13-2-.81-1.99,3.29-4.01-.05-5.97-.27-.95-.51-1.91-.66-2.89-.24-.38-.3-.79-.19-1.23-.18-.68-.06-1.3.37-1.86l.06-.13c1.24-.02,2,.68,2.58,1.67-.19.73-.27,1.48-.44,2.21,1.81.35,5.63,3.77,3.24-2.23-.48-1.22.04-2.83.09-4.27l.06.37c.88.42,1.86.1,2.76.36,1.14.59,1.92,1.52,2.51,2.64.25.54.41,1.1.48,1.68-.02.76-.04,1.52.75,1.98.43.23.74.58.96.99,1.07.3.64-1.13,1.39-1.21,1.2-.51,2.4-.46,3.62-.13,1.22.62,2.36,1.31,2.71,2.78Z"/>
  <path class="cls-160" d="m576.13,509.29c.71.1,1.41.21,2.12.31-.77.57-1.53,1.13-2.3,1.7-.38-.32-.67-.71-.86-1.17.34-.29.69-.57,1.04-.84Z"/>
  <path class="cls-214" d="m630.08,431.69c.67.08,1.34.16,2.01.24-.14.58-.28,1.15-.42,1.73-.39,1.13-.7,2.91-1.49,3.17-4.73,1.55,1.37,2,.24,3.07-.42.3-.85.6-1.27.9-1.18.73-2.35,1.46-3.53,2.19-.65-.77-1.3-1.53-1.95-2.3.47-1.11-.86-2.16-.1-3.28l.02-.03c1.67-.34,3.93.09,3.74-2.77.14-.58.5-.76,1.06-.59.56-.77,1.12-1.55,1.69-2.32Z"/>
  <path class="cls-65" d="m630.42,439.89c-.8-.84-4.94-.05-1.42-3.01,1.05-.88,1.79-2.14,2.67-3.22.63,2.29.15,4.35-1.25,6.23Z"/>
  <path class="cls-42" d="m634.07,442.79c-.96,1.2-2.22,1.9-3.7,2.23-.11-1.02-.22-2.03-.33-3.05.37-.31.77-.58,1.19-.82.77.22,1.72-.21,2.31.65.14.35.31.67.52.98Z"/>
  <path class="cls-49" d="m633.54,441.81c-.77-.22-1.54-.44-2.31-.65.88-.69,1.71-1.49,2.98-1.19-.22.61-.45,1.23-.67,1.84Z"/>
  <path class="cls-171" d="m748.03,504.75c-.31-.74-.62-1.48-.93-2.22.79-1.11.81-2.33.51-3.6.21-.63.64-1.06,1.26-1.31,1.05.02,1.8.57,2.42,1.35.34.56.55,1.16.64,1.8-.08.31-.15.63-.23.94.12,1.11.23,2.22.35,3.33-1.41.83-2.84,2.02-4.02-.29Z"/>
  <path class="cls-173" d="m542.52,670.62c-.55-.82-1.1-1.65-1.65-2.47.08-.76.49-1.04,1.23-.84,0,0,.23.05.23.05.47.84.95,1.68,1.42,2.52,0,0-.6.39-.6.39l-.63.35Z"/>
  <path class="cls-212" d="m549.12,669.85l-.54.37-.6.28c-.24-1.3.2-1.41,1.14-.65Z"/>
  <path class="cls-229" d="m544.9,674.52c.3.42.6.83.9,1.25-.13.68-.53.92-1.19.7l-.07.06c.12-.67.24-1.34.36-2.01Z"/>
  <path class="cls-204" d="m684.1,480.88c2.84,2.76-.36,4.19-1.33,6.12-2.31-.89-2.32-2.57-1.57-4.52.56-1.28,1.46-1.92,2.9-1.6Z"/>
  <path class="cls-72" d="m684.1,480.88c-.97.53-1.93,1.06-2.9,1.6-.56-1.61.16-2.98.86-4.34.68.92,1.36,1.83,2.04,2.75Z"/>
  <path class="cls-162" d="m682.64,489c.6-.21,1.23-.85,1.78-.13.07.09-.82.93-1.27,1.43-.17-.43-.34-.87-.51-1.3Z"/>
  <path class="cls-72" d="m682.23,475.04c-.12.62-.25,1.24-.37,1.86-.37-.33-.66-.71-.88-1.15.36-.34.77-.58,1.25-.71Z"/>
  <path class="cls-111" d="m869.93,489.09c-.34-.11-.68-.22-1.01-.34.35.08.7.15,1.05.22,0,0-.03.11-.03.11Z"/>
  <path class="cls-107" d="m684.44,478.8c-.38-.84-.2-1.57.44-2.21-.15.74-.3,1.48-.44,2.21Z"/>
  <path class="cls-132" d="m490.57,494.85c-.08-.42-.27-.79-.58-1.08.25-.42.58-.81.74-1.27.59-1.77,1.47-3.5,3.61-2.6,2.37,1,2.07,3.11,1,4.99-.32.57-1.19.84-1.81,1.25-.79-.89-1.79-1.29-2.96-1.29Z"/>
  <path class="cls-43" d="m560.35,463.94c.3-.3.65-.54,1.03-.72.29-.11.58-.21.87-.32.89-.23,1.7-.66,2.53-1.02.54-.23,1.12-.33,1.7-.32,1.39.39.15-.98.73-1.13.41-1.13,1.27-1.9,2.12-2.68,3.15.46,3.67,2.6,3.37,5.27.26.88-.4,1.62-.36,2.47-.58,3.11-3.23,3.73-5.62,4.65-.97-.47-1.95-.93-2.92-1.39-1.15-1.6-2.3-3.2-3.45-4.8Z"/>
  <path class="cls-194" d="m569.33,457.75c.18,1.62-.83,2.58-1.9,3.52l-.17.6-.58.23c-.22-.16-.47-.28-.73-.37-1.2.41-2.14,1.66-3.64,1.15-.33.05-.64.16-.93.34.09-.46.03-.9-.19-1.31.6-.63.49-1.35.28-2.09,2.32-1.82,4.43-4.47,7.87-2.07Z"/>
  <path class="cls-183" d="m572.33,465.49c-.34-.89-.17-1.71.36-2.47.47.2.95.41,1.42.61-.59.62-1.19,1.24-1.78,1.86Z"/>
  <path class="cls-120" d="m859.64,564.42c.48,1.58.55,3.04-1.14,4-1.09-.15-1.56-1.51-2.77-1.41-.85-4.1,2.15-2.4,3.9-2.6h.01Z"/>
  <path class="cls-116" d="m855.73,567.02c1.49-.64,2.09.47,2.77,1.41-1.55.77-2.2-.25-2.77-1.41Z"/>
  <path class="cls-66" d="m703.01,481.75c-1.13-.67-2.26-1.33-3.38-2-1.07-.22-1.7-.97-2.26-1.83-.68-1.53-1.24-3.1-1.69-4.71-.12-.67-.05-1.33.19-1.97.4-.18.8-.35,1.2-.53.57.6,1.13,1.2,1.7,1.79.94.76,1.88,1.51,2.81,2.27-.28.58-.12.98.48,1.2,0,0,.65-.07.65-.08.1,1.95.19,3.9.29,5.84Z"/>
  <path class="cls-37" d="m885.91,538.33c-.84.53-1.67,1.07-2.51,1.6-.57-1.01-1.62-2.18-.18-3.09,1.47-.94,2,.59,2.69,1.5Z"/>
  <path class="cls-45" d="m803.01,524.12c.41.78.82,1.55,1.23,2.33-2.25-.09-4.27,1.82-6.64.8-.07-.3-.13-.6-.2-.9.23-1.96,1.73-2.33,3.29-2.62.61,0,1.22.05,1.82.16l.5.24Z"/>
  <path class="cls-51" d="m802.67,529.47c.19.36.4.72.61,1.06-.81.53-1.61,1.05-2.42,1.58-.91-1.92-1.32-3.48,1.8-2.64Z"/>
  <path class="cls-64" d="m793.61,524.2c.53-.26,1.06-.53,1.59-.79.29.23.59.45.88.68-.06.37-.11.73-.17,1.1-.35.13-.69.26-1.04.39l-.63.36-.59.42c-.38-.15-.76-.3-1.13-.45,0-.41-.02-.81-.03-1.22.37-.16.75-.32,1.12-.49Z"/>
  <path class="cls-97" d="m792.58,525.09c.35.42.71.84,1.06,1.27.1.84.06,1.63-.67,2.23-.38-.2-.6-.5-.65-.93-.69-.35-1.03-.9-.99-1.68l-.18-.07c.19-.76.67-1.03,1.42-.82Z"/>
  <path class="cls-165" d="m794.87,525.57c.26-.26.57-.42.93-.48,1.5-.07,1.9.87,1.96,2.13l-.15.03c-1.42.26-2.17-.56-2.74-1.68Z"/>
  <path class="cls-169" d="m485.5,543.11c-.41.32-.82.63-1.23.95-.51,1.37-1.74,1.12-2.8,1.26-.8,0-1.59-.03-2.39-.06-.74,0-1.47-.1-2.2-.2-.45-.06-.91-.08-1.37-.04,0,0-.63.25-.63.25l-.56.39c-2.13-.14-2.24-2.18-3.21-3.41.3-.29.6-.57.9-.86v-.05c-.25-.38-.46-.77-.63-1.2,3.05-2.39,6.99-3.36,9.77-6.16.95.52,1.91,1.04,2.86,1.56.01.42.21.72.58.91-.61,1.76.28,3.16,1.11,4.57-.59.64-.55,1.35-.22,2.09Z"/>
  <path class="cls-124" d="m496.08,679.37q2.73-3.04,6.9,1.42c-1.47.18-2.9.36-4.33.53-1.38.03-2.27-.56-2.57-1.95Z"/>
  <path class="cls-131" d="m792.58,525.09c-.47.27-.94.54-1.42.82-.02-.48-.2-.9-.55-1.24.32-.26.58-.57.8-.92.27.06.54.11.81.16.05.27.11.55.16.82l.19.35Z"/>
  <path class="cls-87" d="m787,522.03s.34.55.34.55c-.42.44-.84,1.07-1.33.1-.02-.04.64-.43.99-.66Z"/>
  <path class="cls-250" d="m530.51,690.89c-1.45.5-2.53.07-2.13-1.54.38-1.5,1.56-1.59,2.7-.5-.36.63-.34,1.37-.57,2.04Z"/>
  <path class="cls-129" d="m530.51,690.89c.19-.68.38-1.36.57-2.04.74.94.39,1.58-.57,2.04Z"/>
  <path class="cls-255" d="m791.34,525.97c.33.56.66,1.12.99,1.68-.64-.04-1.27-.08-1.91-.11.31-.52.62-1.04.92-1.57Z"/>
  <path class="cls-76" d="m628.4,434.01c-.35.19-.71.39-1.06.59-.01-.39-.03-.77-.04-1.16l1.1.57Z"/>
  <path class="cls-134" d="m595.05,518.72c-.83.34-1.8,1.12-2.45.9-.89-.3-1.05-1.39-.26-2.26.46-.32.97-.44,1.53-.35.22.16.44.33.65.49.28.36.46.77.53,1.22Z"/>
  <path class="cls-144" d="m595.6,514.71c1.04-.17,1.95.05,2.65.88-1.25.64-2.49,1.28-3.74,1.92,0,0-.17-.26-.17-.26-1.68-1.88-.27-2.24,1.25-2.53Z"/>
  <path class="cls-85" d="m633.51,580.16c-.18-1.14-1.03-2.43.56-3.2.22-.11.94.3,1.09.63.86,1.78-.83,1.92-1.75,2.55l.09.02Z"/>
  <path class="cls-81" d="m595.6,514.71c-.87.62-1.46,1.38-1.26,2.54-.67.04-1.34.08-2.01.12-.85-1.63-3.28-1.45-3.86-3.38,2.33.39,4.25-3.19,6.79-.69.08.48.2.96.33,1.43Z"/>
  <path class="cls-266" d="m525.92,651.03c.26.37.54.72.84,1.06-.78.24-1.48.13-2.06-.49.4-.19.81-.38,1.22-.56Z"/>
  <path class="cls-30" d="m695.87,471.24c.27.53.55,1.05.82,1.58-.4,1.07-1.19,1.61-2.3,1.74-.68-.18-1.24-.54-1.69-1.09-.12-.32-.24-.64-.36-.96.06-.34.12-.68.18-1.02.82-.4,1.65-.81,2.47-1.21.31.31.6.63.88.97Z"/>
  <path class="cls-257" d="m690.04,473.39c-.73-.24-1.47-.48-2.2-.73,1.52-.54,2.65-2.68,4.68-1.17,0,0-.03.09-.03.09-.04.62-.26,1.15-.71,1.58-.55.27-1.13.35-1.73.22Z"/>
  <path class="cls-100" d="m645.01,515.3c-.11.51-.22,1.02-.32,1.52.11-.51.22-1.01.32-1.52Z"/>
  <path class="cls-20" d="m539.46,533.44c.5-.36,1.01-.72,1.51-1.08.3.54.61,1.09.91,1.63-.9.22-1.76.27-2.43-.56Z"/>
  <path class="cls-46" d="m476.83,543.53c.76.15,1.51.31,2.27.46.43.07.74.3.91.68,0-.01.34.45.33.43s.37-.4.37-.41.4-.38.4-.38c1.05-.09,2.1-.17,3.15-.26.3.35.54.74.73,1.15-2,2.16-4.3,3.84-7.2,4.6-.57-.71-1.14-1.43-1.71-2.14.37-1.26-.81-2.22-.69-3.44.3-.6.78-.83,1.43-.69Z"/>
  <path class="cls-93" d="m475.59,544.47c.64.99,1.27,1.98.49,3.19-.59-.67-1.17-1.34-1.75-2,0,0,.22-.57.22-.57.05-.72.39-.92,1.05-.62Z"/>
  <path class="cls-63" d="m742.99,485.63c2.83,1.31,2.9-1.43,3.97-2.71,2.14-1.18,4.38-.28,6.57-.3.52.77,1.04,1.54,1.55,2.31-.09.71-.18,1.41-.28,2.12-.6.99-1.49.92-2.4.69-.66-.12-1.35-.72-1.97.12-.17.78-.51,1.44-1.08,1.98-.42.32-.89.56-1.38.74-.72.25-1.45.46-2.19.65,0,0-.68.32-.68.32-.83.54-1.67,1.09-2.5,1.63-.74.42-1.54.42-2.35.28-.81-.18-1.51-.54-2.05-1.18.18-1.67,1.2-2.66,2.74-3.04,1.79-.45,1.47-1.54,1-2.75-.06-.77.28-1.05,1.03-.86Z"/>
  <path class="cls-140" d="m476.91,759.08c.02.13.04.32.07.51-.31,0-.61,0-.92,0,.04-.24.09-.47.13-.71.23.06.47.12.72.19Z"/>
  <path class="cls-199" d="m651.82,508.9c-.3-.44-.6-.87-.9-1.31.03-1.81-1.07-2.9-2.44-3.82.87-.52,1.75-1.04,2.63-1.57h-.06c3-.08,5.71.22,5.35,4.31-.32,3.57,3.62,6.21,2.2,10.03-.47,1-.94,2-1.41,3-.27-.31-.55-.61-.84-.89q-5.73-3.49-4.52-9.74Z"/>
  <path class="cls-19" d="m875.05,513.08c.78-.48,1.55-.96,2.33-1.43.58.94,1.94,1.94.31,2.95-1.54.96-2-.58-2.64-1.52Z"/>
  <path class="cls-157" d="m552.24,671.37c1.81-1.17,3.48.2,5.22.3.3.42.6.84.89,1.27-1.24.73-2.48,1.46-3.71,2.2-.31-.41-.62-.83-.93-1.24-.17-.25-.34-.5-.52-.76-.32-.59-.64-1.18-.95-1.77Z"/>
  <path class="cls-91" d="m752.66,486.58c.72.16,1.43.32,2.15.48.23.45.47.9.7,1.36-.08,1.53.56,3.11-.29,4.6-.34.55-.76,1.03-1.25,1.45-.81.58-1.7.92-2.7.97-.65-.11-1.23-.37-1.75-.77-.71-.67-1.2-1.48-1.46-2.43-.08-.63.03-1.22.35-1.77,1.21-.9,2.38-1.85,2.66-3.47.44-.46.97-.6,1.58-.43Z"/>
  <path class="cls-192" d="m522.81,706.95c.25.44.51.88.76,1.32.53,2.73,1.25,5.56-2.95,5.96-1.74-.31-2.78-1.32-3.08-3.08.08-.38.17-.77.25-1.15,1.67-1.02,3.34-2.03,5.02-3.05Z"/>
  <path class="cls-192" d="m754.66,492.24c-.15-1.37.06-2.66.85-3.83.61.74,1.21,1.47,1.82,2.21l-.14.71c-.19.52-.54.92-1.03,1.18-.54.16-1.05.08-1.5-.27Z"/>
  <path class="cls-182" d="m591.58,712.29c-.69-.09-1.38-.17-2.07-.26-.51-.74-1.03-1.49-1.54-2.23,1.08-1.9.17-5,3.36-5.63.67-.08,1.3.03,1.9.34l.03.02c1.97,1.43,1.15,3.85,2.01,5.68-1.23.69-2.46,1.39-3.69,2.08Z"/>
  <path class="cls-223" d="m593.23,704.5c-.63-.11-1.27-.23-1.9-.34.31-.37.68-.67,1.11-.88.36.35.62.76.79,1.23Z"/>
  <path class="cls-137" d="m755.87,492.02c.4-.31.84-.54,1.32-.69.86,1.11,1.73,2.22,2.59,3.33-.1.33-.2.66-.31.99-.34-.02-.69-.05-1.03-.08-.87.76-1.99,1.36-1.67,2.81-.38.28-.76.56-1.14.85-1.5,1.82-2.38.48-3.3-.65-.61-1.47-.03-2.7.81-3.87.82-.99,2.29-1.32,2.74-2.7Z"/>
  <path class="cls-171" d="m752.53,497.59c.76,1.05,1.71,1.77,3.1,1.65-.67,1.84-1.29,3.76-3.92,2.47v.05c.25-.89-.11-1.67-.46-2.45-.12-.98.2-1.64,1.29-1.73Z"/>
  <path class="cls-189" d="m931.15,418.95c.06-.71.11-1.42.17-2.12.58-1.6,1.28-3.1,3.03-3.75,2.5.95,5.79.87,6.17,4.64-.04.7-.08,1.41-.12,2.11l-.54.38-.61.26c-1.06.14-2.22.13-2.6,1.47l-.51.43-.57.35c-.85-.75-1.76-1.37-2.98-1.28-.48-.83-.95-1.66-1.43-2.49Z"/>
  <path class="cls-200" d="m658.59,516.54c-.83-4.01-5.58-6.64-3.62-11.81.68-1.79-2.86-1.16-3.92-2.52.71-.56,1.43-1.12,2.14-1.69.32-.06.6-.2.83-.4,2.41.55,3.08,4.89,6.6,3.08,1.1.97-.05,2.27.47,3.32-.12.54-.25,1.08-.37,1.63.22.64.02,1.45.79,1.85.07.42.25.8.52,1.13-.11,1.95-1.64,3.19-2.39,4.82-.34.22-.69.42-1.05.6Z"/>
  <path class="cls-149" d="m535.44,585.58c.21.28.45.52.72.75-.86,1.86-1.81,3-3.19.37.83-.37,1.65-.74,2.48-1.11Z"/>
  <path class="cls-88" d="m857.81,464.81c1.5,1.27,2.23,3,2.86,4.78-1.2.78-2.4,1.56-3.61,2.34-2.5-1.01-1.56-3.04-1.42-4.83-.01-1.46,1.18-1.77,2.17-2.29Z"/>
  <path class="cls-269" d="m855.64,467.09c.47,1.61.95,3.22,1.42,4.83-.87,1.02-2.03.44-3.06.57-.56-.83-1.12-1.66-1.68-2.49.18-.68.36-1.36.55-2.05.92-.29,1.85-.58,2.77-.87Z"/>
  <path class="cls-62" d="m702.08,475.98c-.54.08-.82-.14-.76-.64.02-.2.18-.37.28-.56.26.36.42.76.48,1.2Z"/>
  <path class="cls-265" d="m520.24,714.04c2.55-1.09,2.82-3.5,3.33-5.77.95.64,1.91,1.28,2.86,1.91-.04.37.09.67.39.9-.49.58-.98,1.16-1.48,1.74-.67.54-.84,1.31-.93,2.11h0c-.44.31-.87.62-1.31.93l.04-.02c-.66-.32-1.38-.43-2.09-.54h0c-.51-.07-.8-.28-.87-.63-.07-.35-.04-.56.07-.63h0Z"/>
  <path class="cls-192" d="m524.41,714.92c-.19-.92.1-1.63.93-2.11.09.88-.11,1.63-.93,2.11Z"/>
  <path class="cls-264" d="m600.87,673.88c-.12-.31-.3-.57-.55-.79.72-.58,1.44-1.16,2.17-1.74.66,1.61-.51,2.05-1.62,2.53Z"/>
  <path class="cls-11" d="m623.58,437.4c.74,1.07.9,2.16.1,3.28-.45-.83-.9-1.66-1.34-2.49.37-.34.78-.61,1.24-.79Z"/>
  <path class="cls-224" d="m936.64,421.93c-.15-.6-.6-1.61-.41-1.75,1-.73,2.03-.13,3.02.28-.6.96-1.48,1.42-2.6,1.47Z"/>
  <path class="cls-29" d="m891.11,524.18c-.71.43-1.4.46-2.08-.07.41-.34.82-.68,1.23-1.01.33.32.62.68.85,1.08Z"/>
  <path class="cls-104" d="m661.51,509.99c-1.49-.09-1.34-.89-.79-1.85.39-.12.78-.23,1.17-.34.39.82.3,1.56-.38,2.2Z"/>
  <path class="cls-223" d="m595.27,710.21c-3.19-1-1.53-3.72-2.01-5.68.38-.19.78-.35,1.19-.48.8,1.1,1.59,2.21,2.39,3.31-.08.71-.16,1.41-.24,2.12-.45.25-.89.49-1.34.74Z"/>
  <path class="cls-12" d="m862.32,445.91c1.07-.69,2.15-1.38,3.22-2.07,1.37.7,2.08,1.92,2.59,3.3-.72,1.37-1.41,2.77-2.95,3.45-1.34-1.33-2.38-2.83-2.87-4.68Z"/>
  <path class="cls-26" d="m544.61,676.47c.38-.26.78-.49,1.19-.7,1.28-.82,2.57-1.64,3.85-2.46h-.07c.94,2.34-.58,3.63-2.11,4.93-1.55.38-2.03-.97-2.86-1.77Z"/>
  <path class="cls-54" d="m548.66,525.42c-.87.38-1.96.88-2.54-.07-.88-1.46.55-2,1.48-2.66.35.91.71,1.82,1.06,2.73Z"/>
  <path class="cls-108" d="m477.13,563.24c.31.38.59.79.83,1.22-.84.53-1.56.44-2.1-.45.41-.28.84-.53,1.27-.78Z"/>
  <path class="cls-192" d="m520.24,714.02c.35.37.62.79.8,1.26-.41.11-.8.25-1.19.43-.28-.3-.6-.55-.95-.77.45-.31.89-.62,1.34-.92Z"/>
  <path class="cls-192" d="m521.05,715.29c.7.18,1.4.36,2.09.54-.89.58-1.55.25-2.09-.54Z"/>
  <path class="cls-106" d="m807.32,511.94c.32.3.53.66.63,1.09-.05,1.51-.93,1.91-2.27,1.68l-.03.04c-.45-.11-.71-.34-.79-.67-.08-.33-.07-.53.02-.59.81-.51,1.62-1.03,2.44-1.54Z"/>
  <path class="cls-138" d="m804.88,513.48c.24.43.5.85.76,1.26-.41.28-.82.56-1.23.84-.51-.85-.26-1.53.46-2.1Z"/>
  <path class="cls-128" d="m803.11,516.41c-.74.23-1.4.15-1.94-.45.77-.36,1.44-.31,1.94.45Z"/>
  <path class="cls-2" d="m806.66,505.11c.28.43.56.85.84,1.28-1.28.23-1.61-.17-.84-1.28Z"/>
  <path class="cls-268" d="m795.94,519.43c.12,2-1.49,2.57-2.79,3.39-.25-2.11,1.42-2.63,2.79-3.39Z"/>
  <path class="cls-90" d="m792.39,524.73c-.06-.27-.11-.55-.17-.82.15-.32.37-.55.69-.69.3.28.53.6.69.98,0,0-.54.41-.54.41l-.67.12Z"/>
  <path class="cls-195" d="m597.29,502.7c.59.89,1.18,1.78,1.77,2.68-1.12.13-2.24.26-3.37.39h.03c-.54-.11-.9-.38-1.06-.79-.16-.42-.19-.66-.1-.73.67-.93,1.5-1.59,2.72-1.55Z"/>
  <path class="cls-48" d="m594.9,504.52c.28.42.55.84.82,1.26-1.19.58-2.42.89-3.72.38-.86-.55-1.73-1.11-2.59-1.66.15-.72.3-1.44.45-2.15,1-1.9,2.11-2.54,3.46-.29.27.34.51.7.72,1.08,1,.02,1.29.48.86,1.39Z"/>
  <path class="cls-44" d="m549.65,673.3c.07-.31.14-.62.21-.93.04.15.16.33.12.44-.08.18-.26.32-.4.48,0,0,.07.01.07.01Z"/>
  <path class="cls-82" d="m553.19,673.14c.14.28.31.53.52.76-.37.06-.73.12-1.1.19.19-.32.39-.63.58-.95Z"/>
  <path class="cls-126" d="m542.1,667.31c-.41.28-.81.56-1.23.84-.44.26-.88.52-1.33.78-.23-.41-.49-.81-.77-1.19.85-.56,1.69-1.12,2.54-1.68.29.4.55.82.79,1.25Z"/>
  <path class="cls-114" d="m797.76,527.22c-.65-.71-1.31-1.42-1.96-2.13l.2-.66c.45-1.05,1.23-1.55,2.38-1.42.49-.35.98-.7,1.46-1.05.23-.75.63-.85,1.2-.32.29.35.56.71.8,1.1-.11.63-.25,1.25-.42,1.87-1.54.42-3.03.92-3.66,2.61Z"/>
  <path class="cls-86" d="m801.04,521.64c-.41.08-.81.18-1.2.32-.23-.78-.04-1.67.71-1.74,1.29-.12.68.81.49,1.42Z"/>
  <path class="cls-186" d="m798.37,523.01c-.79.47-1.59.95-2.38,1.42-.3-.32-.56-.66-.8-1.03,1-.6,2-1.21,3.17-.4Z"/>
  <path class="cls-99" d="m801.42,524.61c-.32-.73-.07-1.32.42-1.87.4.27.63.65.67,1.14l-.52.4-.57.33Z"/>
  <path class="cls-202" d="m812.81,511.98c.26.41.53.81.82,1.2-.39.26-.78.53-1.17.81-.79.16-1.78.11-1.85-.73-.13-1.6,1.41-.9,2.2-1.27Z"/>
  <path class="cls-188" d="m805.68,514.71c.76-.56,1.51-1.12,2.27-1.68.3.38.61.75.91,1.13-.74.63-1.48,1.26-2.22,1.9-.32-.45-.64-.9-.97-1.35Z"/>
  <path class="cls-31" d="m540.45,529c.4.44.79.88,1.19,1.33-.24.7-.47,1.41-.71,2.11-.56-.84-1.12-1.68-1.68-2.53.13-.65.55-.94,1.2-.91Z"/>
  <path class="cls-127" d="m540.45,529c-.42.28-.82.59-1.2.91-.18-1.06,0-1.65,1.2-.91Z"/>
  <path class="cls-151" d="m594.9,504.52c-.29-.46-.58-.92-.86-1.38.84-.54,1.67-1.07,2.51-1.6.24.4.49.79.75,1.17-.8.61-1.59,1.21-2.39,1.82Z"/>
  <path class="cls-8" d="m793.22,470.6c.24-.03.65-.13.68-.06.2.47-.06.5-.68.04v.02Z"/>
  <path class="cls-193" d="m524.46,662.57c-.79.48-1.58.96-2.37,1.43-.62-.96-1.27-1.92-.4-3.08.72.08,1.5-.31,2.17.24.2.47.4.94.6,1.4Z"/>
  <path class="cls-266" d="m523.86,661.16c-.72-.08-1.45-.16-2.17-.24.4-.34.8-.67,1.2-1.01,1.04-.14,1.59.11.97,1.25Z"/>
  <path class="cls-226" d="m528.61,666.42c-.48.49-.92.33-1.33-.1.46-.2.91-.17,1.33.1Z"/>
  <path class="cls-63" d="m752.53,497.59c-.12.69-.25,1.37-.37,2.06-.17.61-.58.88-1.2.85-.62-.88-1.23-1.76-1.85-2.64-1.08-.36-1.95.9-3.05.42-.92-.19-1.36-.78-.62-1.47,2.06-1.94.76-3.56-.33-5.24l.04-.1c.3-1.05,1.03-1.54,2.09-1.58l.6.07c.53.09.79.31.8.65,0,.32-.06.52-.19.61v-.09c-.25,1.16.38,2.02.95,2.9.45.43.53,1.53,1.58.91.85-.54,1.7-1.08,2.54-1.62.6.06.9.27.92.64.01.36-.06.58-.2.68-.57.99-1.13,1.97-1.7,2.96Z"/>
  <path class="cls-176" d="m738.22,492.28c.76.16,1.52.31,2.28.47,1.68.66,2.45,1.94,2.58,3.68-2.26.59-3.94-.28-5.24-2.1.13-.69.25-1.37.38-2.06Z"/>
  <path class="cls-166" d="m743.07,496.44c-.86-1.23-1.72-2.46-2.58-3.68.71.14,1.41.29,2.12.43,1.16.94,2.73,1.83.46,3.25Z"/>
  <path class="cls-17" d="m747.89,498.74c1.12,1.55,1.43,2.93-.79,3.79-.06-1.06-.12-2.12-.18-3.18,0-.71.34-.89.97-.61Z"/>
  <path class="cls-67" d="m739.83,506c-.17-.71-.34-1.42-.52-2.13,1.86.23.73,1.35.65,2.16,0,0-.13-.02-.13-.02Z"/>
  <path class="cls-21" d="m747.89,498.74l-.48.32s-.49.3-.49.3c-.28-.37-.57-.73-.86-1.08.94-.71,1.9-1.29,3.05-.42-.39.32-.8.62-1.22.88Z"/>
  <path class="cls-179" d="m504.76,673.6c-1.4.82-2.94,1.26-3.75-.52-.94-2.06,1.06-1.47,1.99-1.8,1.42.14,1.94.96,1.76,2.32Z"/>
  <path class="cls-16" d="m504.76,673.6c-.59-.77-1.17-1.55-1.76-2.32,1.09-2.67,1.61-.14,2.36.26.59.25.77.68.61,1.28l-.62.37-.6.41Z"/>
  <path class="cls-240" d="m509.46,666.81c.27.79,1.28,1.54.24,2.38-.22.18-1.05.03-1.21-.22-.76-1.16.57-1.48,1-2.17h-.03Z"/>
  <path class="cls-133" d="m505.97,672.82c-.26-.4-.46-.83-.61-1.28,1.55-.21,1.12.52.61,1.28Z"/>
  <path class="cls-236" d="m512.38,674.09c-.32-.05-.64-.11-.95-.16.14-.04.29-.14.41-.11.19.06.36.21.54.32v-.05Z"/>
  <path class="cls-228" d="m742.99,485.63c-.37.25-.71.54-1.03.86-.37-.22-.74-.45-1.11-.67.52-.48,1.04-.95,1.57-1.43.31.36.5.77.57,1.24Z"/>
  <path class="cls-190" d="m690.04,473.39c.44-.29.87-.58,1.31-.87.6.08,1.19.17,1.78.29.36.47.71.94,1.07,1.4,1.31.13,2.78-.04,3.16,1.76-.33,1.05-1.05,1.69-2.08,2.02-1.1.22-1.92-.49-2.83-.89-.8-1.24-1.61-2.47-2.41-3.71Z"/>
  <path class="cls-167" d="m697.86,477.11c.59.88,1.18,1.76,1.77,2.64-1.17.16-2.34.32-3.52.48-.21.78-.62.96-1.27.42-.25-.35-.5-.71-.73-1.07.1-.31.19-.62.29-.94.77-.62,1.6-1.13,2.48-1.58.33.02.65.04.98.05Z"/>
  <path class="cls-227" d="m694.84,480.65c.43-.13.85-.27,1.27-.42.19,1.1.64,2.66-.93,2.67-1.11,0-.75-1.38-.34-2.25Z"/>
  <path class="cls-98" d="m688.56,490.47c-.02-.49-.15-1-.04-1.47.14-.65.45-1.26.69-1.88.22.11.52.17.64.35.46.71.2,1.36-.31,1.93-.33.36-.69.7-1.03,1.05h.07Z"/>
  <path class="cls-52" d="m693.4,487.96c.14-.18.24-.46.43-.53.7-.25.95,0,.61.6-.09.17-.41.27-.63.28-.13,0-.27-.23-.41-.35Z"/>
  <path class="cls-217" d="m692.45,477.1c.74-.25,1.41-.17,1.96.44-.05.29-.11.57-.16.86-.29-.02-.58-.05-.87-.07-.31-.41-.62-.82-.93-1.23Z"/>
  <path class="cls-167" d="m694.11,479.57c-1.32.22-1.42-.28-.73-1.24,0,0,.08.09.08.09.5.02.77.19.8.5.03.31-.01.5-.13.58l-.02.07Z"/>
  <polygon class="cls-98" points="688.49 490.45 688.42 490.89 688.56 490.47 688.49 490.45"/>
  <path class="cls-25" d="m750.96,500.5c.36-.34.76-.62,1.2-.85.36.82.14,1.51-.47,2.12-.23-.43-.47-.86-.73-1.27Z"/>
  <path class="cls-75" d="m562.3,462.88c1.09-.79,2.14-1.68,3.64-1.15-.3,1.17-.4,2.61-1.84,2.89-1.09.21-1.72-.61-1.8-1.74Z"/>
  <path class="cls-191" d="m696.87,476.15c-.89-.65-1.78-1.3-2.67-1.95.83-.46,1.66-.93,2.49-1.39.75,1.33,2.55,2.38,1.17,4.29l.03.06c-.5.05-.82-.08-.95-.4-.15-.34-.17-.55-.07-.61Z"/>
  <path class="cls-246" d="m475.59,544.47c-.36.18-.71.39-1.05.62-.12-1.82.63-2.36,2.28-1.56-.41.31-.83.62-1.24.94Z"/>
  <path class="cls-246" d="m472.03,541.33c.23-.01.64-.09.67-.02.19.47-.07.51-.67.07v-.05Z"/>
  <path class="cls-246" d="m479.84,545.2c-.25-.4-.5-.81-.74-1.21.67.11,1.34.21,2.01.32l-.03.18c-.11.29-.22.57-.33.86-.3-.05-.61-.1-.91-.15Z"/>
  <path class="cls-261" d="m693.14,472.8c-.69.47-1.27.32-1.78-.29.31-.39.69-.7,1.13-.93.19.42.41.82.65,1.22Z"/>
  <path class="cls-246" d="m480.66,546.45c-.61.16-1.01-.03-1.06-.57-.02-.22.15-.45.24-.68h.04c.46.11.72.32.8.66.08.33.07.53-.03.59Z"/>
  <path class="cls-169" d="m480.66,546.45c-.26-.41-.52-.83-.77-1.24.38-.26.78-.5,1.2-.72-.14.65-.28,1.31-.42,1.96Z"/>
  <path class="cls-241" d="m752.66,486.58l-.47.31-.48.29c-.78.76-1.45.19-2.14-.16-.86-.2-1.5-.66-.58-1.39,1.53-1.22,2.7-.35,3.67.96Z"/>
  <path class="cls-38" d="m749.56,487.01c.71.06,1.43.11,2.14.16.2,2.38-1.95,2.87-3.26,4.03-.28-.38-.48-.8-.61-1.26.95-.76,1.76-1.6,1.72-2.93Z"/>
  <path class="cls-187" d="m747.24,489.88c-.7.53-1.4,1.05-2.09,1.58-.14-1.64.31-2.49,2.09-1.58Z"/>
  <path class="cls-205" d="m748.83,494.45c-.72-1.04-1.34-2.1-.37-3.33.52.83,1.04,1.66,1.56,2.49.05.91-.35,1.19-1.19.84Z"/>
  <path class="cls-171" d="m748.83,494.45c.39-.3.79-.57,1.2-.84.32.44.64.87.96,1.31-1.28,2.38-1.48-.11-2.15-.48Z"/>
  <path class="cls-258" d="m754.24,494.63c-.24-.44-.48-.88-.71-1.32.38-.36.76-.71,1.14-1.07.41-.05.81-.13,1.21-.22.27,1.38-.55,2.08-1.64,2.61Z"/>
  <path class="cls-256" d="m696.87,476.15c.35.33.69.67,1.02,1.01-1.25.78-2.51,1.56-3.76,2.33-.2-.38-.43-.74-.68-1.09.37-.24.69-.53.96-.88.82-.46,1.64-.92,2.46-1.38Z"/>
</svg>