<?xml version="1.0" encoding="UTF-8"?>
<svg id="Layer_1" data-name="Layer 1" xmlns="http://www.w3.org/2000/svg" viewBox="0 0 1143.62 1031.16">
  <defs>
    <style>
      .cls-1 {
        fill: #fff;
      }
    </style>
  </defs>
  <g>
    <g>
      <path class="cls-1" d="m633.07,536.12c-1.16,0-2.09-.87-2.09-1.93v-56.5c0-6.29-5.05-11.41-11.25-11.41s-11.41,5.12-11.41,11.41v47.79c-.01,3.23-1.11,5.98-3.18,7.94-1.85,1.75-4.32,2.71-6.96,2.71-5.05,0-10.16-3.66-10.16-10.65v-56.56c0-6.29-5.05-11.41-11.26-11.41s-11.41,5.12-11.41,11.41v65.28c0,1.03-.9,1.93-1.93,1.93h-.49c-1.03,0-1.93-.9-1.93-1.93v-65.28c0-8.69,7.07-15.77,15.77-15.77s15.61,7.07,15.61,15.77v56.56c0,4.36,2.92,6.31,5.81,6.31,1.53,0,2.94-.54,3.98-1.52,1.18-1.12,1.81-2.77,1.81-4.79v-47.79c0-8.69,7.07-15.77,15.77-15.77s15.61,7.07,15.61,15.77v56.5c0,1.03-.9,1.93-1.93,1.93h-.32Z"/>
      <path class="cls-1" d="m576.67,448.64c-7.44,0-13.5-6.05-13.5-13.48s6.05-13.48,13.5-13.48,13.49,6.05,13.49,13.48-6.05,13.48-13.49,13.48Zm0-22.55c-5.01,0-9.08,4.07-9.08,9.07s4.07,9.07,9.08,9.07,9.08-4.07,9.08-9.07-4.07-9.07-9.08-9.07Z"/>
      <path class="cls-1" d="m619.64,457.5c-7.45,0-13.51-6.05-13.51-13.49s6.06-13.49,13.51-13.49,13.5,6.05,13.5,13.49-6.06,13.49-13.5,13.49Zm0-22.57c-5.01,0-9.09,4.07-9.09,9.08s4.08,9.08,9.09,9.08,9.09-4.07,9.09-9.08-4.08-9.08-9.09-9.08Z"/>
    </g>
    <path class="cls-1" d="m726.01,536.12c-1.03,0-1.93-.9-1.93-1.93v-76.69h-8c-1.03,0-1.93-.9-1.93-1.93v-.33c0-1.16.87-2.1,1.93-2.1h20.19c1.06,0,1.93.94,1.93,2.1v.33c0,1.03-.9,1.93-1.93,1.93h-8v76.69c0,1.12-.81,1.93-1.93,1.93h-.33Z"/>
    <path class="cls-1" d="m747.66,536.12c-1.03,0-1.93-.9-1.93-1.93v-78.95c0-1.16.87-2.1,1.93-2.1h.33c1.19,0,2.09.9,2.09,2.1v78.95c0,1.07-.94,1.93-2.09,1.93h-.33Z"/>
    <path class="cls-1" d="m763.61,536.12c-1.16,0-2.09-1.01-2.09-2.26v-78.46c0-1.24.94-2.26,2.09-2.26h16.93c1.07,0,1.93.94,1.93,2.1v.33c0,1.03-.9,1.93-1.93,1.93h-14.67v34.88h14.67c1.07,0,1.93.94,1.93,2.09v.33c0,1.03-.9,1.93-1.93,1.93h-14.67v35.04h14.67c1.03,0,1.93.9,1.93,1.93v.49c0,1.03-.9,1.93-1.93,1.93h-16.93Z"/>
    <path class="cls-1" d="m796.33,536.12c-1.2,0-2.26-1.06-2.26-2.26v-78.46c0-1.2,1.06-2.26,2.26-2.26h13.51c8.69,0,15.77,7.07,15.77,15.77v51.44c0,8.69-7.07,15.77-15.77,15.77h-13.51Zm13.51-4.36c6.29,0,11.41-5.12,11.41-11.41v-51.44c0-6.29-5.12-11.41-11.41-11.41h-11.42v74.27h11.42Z"/>
    <path class="cls-1" d="m492.6,536.12c-8.69,0-15.77-7.07-15.77-15.77v-51.44c0-8.69,7.07-15.77,15.77-15.77s15.6,7.07,15.6,15.77v3.09c0,1.12-.81,1.93-1.93,1.93h-.33c-1.03,0-1.93-.9-1.93-1.93v-3.09c0-6.29-5.12-11.41-11.41-11.41s-11.42,5.12-11.42,11.41v51.44c0,6.29,5.12,11.41,11.42,11.41s11.41-5.12,11.41-11.41v-3.58c0-1.16.87-2.09,1.93-2.09h.33c.96,0,1.93.65,1.93,2.09v3.58c0,8.69-7,15.77-15.6,15.77Z"/>
    <path class="cls-1" d="m533.78,536.12c-8.69,0-15.77-7.07-15.77-15.77v-51.44c0-8.69,7.07-15.77,15.77-15.77s15.61,7.07,15.61,15.77v51.44c0,8.69-7,15.77-15.61,15.77Zm0-78.62c-6.29,0-11.41,5.12-11.41,11.41v51.44c0,6.29,5.12,11.41,11.41,11.41s11.42-5.12,11.42-11.41v-51.44c0-6.29-5.12-11.41-11.42-11.41Z"/>
    <path class="cls-1" d="m649.02,536.12c-1.16,0-2.09-1.01-2.09-2.26v-78.46c0-1.24.94-2.26,2.09-2.26h16.93c1.07,0,1.93.94,1.93,2.1v.33c0,1.03-.9,1.93-1.93,1.93h-14.67v34.88h14.67c1.07,0,1.93.94,1.93,2.09v.33c0,1.03-.9,1.93-1.93,1.93h-14.67v35.04h14.67c1.03,0,1.93.9,1.93,1.93v.49c0,1.03-.9,1.93-1.93,1.93h-16.93Z"/>
    <path class="cls-1" d="m695.25,536.12c-8.69,0-15.77-7.07-15.77-15.77v-51.44c0-8.69,7.07-15.77,15.77-15.77s15.6,7.07,15.6,15.77v3.09c0,1.12-.81,1.93-1.93,1.93h-.33c-1.03,0-1.93-.9-1.93-1.93v-3.09c0-6.29-5.12-11.41-11.41-11.41s-11.42,5.12-11.42,11.41v51.44c0,6.29,5.12,11.41,11.42,11.41s11.41-5.12,11.41-11.41v-3.58c0-1.16.87-2.09,1.93-2.09h.33c.96,0,1.93.65,1.93,2.09v3.58c0,8.69-7,15.77-15.6,15.77Z"/>
  </g>
  <g>
    <path class="cls-1" d="m497.88,589.28c.4.76.63,1.66.7,2.69-.42.19-.88.35-1.36.47-.49.13-.98.23-1.49.32-.51.08-1.01.15-1.5.19-.5.04-.94.06-1.35.06-2.77,0-4.89-.78-6.38-2.34-1.49-1.56-2.23-3.71-2.23-6.46,0-1.9.26-3.74.79-5.51.53-1.77,1.31-3.34,2.36-4.7,1.04-1.36,2.34-2.45,3.88-3.28,1.54-.82,3.32-1.23,5.35-1.23,1.12,0,2.07.08,2.87.24.79.16,1.46.36,2.01.59-.11.49-.23.93-.36,1.33-.14.4-.34.85-.62,1.33-.61-.23-1.21-.4-1.8-.5-.59-.11-1.26-.16-2-.16-1.56,0-2.91.33-4.05.98-1.14.65-2.07,1.52-2.8,2.61-.73,1.09-1.27,2.33-1.62,3.72-.35,1.39-.52,2.83-.52,4.31,0,2.05.5,3.6,1.5,4.65,1,1.06,2.45,1.59,4.35,1.59.8,0,1.55-.07,2.23-.22.69-.15,1.37-.37,2.04-.66Z"/>
    <path class="cls-1" d="m501.52,592.64c.23-1.33.49-2.74.78-4.21.29-1.48.55-2.91.79-4.29.24-1.38.45-2.65.62-3.8.17-1.15.25-2.06.25-2.74,0-.28,0-.49-.02-.65-.01-.16-.04-.35-.08-.58.23-.04.48-.07.76-.08.27,0,.53-.02.76-.02.21,0,.45,0,.71.02.26,0,.5.04.71.08.04.17.07.35.1.55.02.2.03.48.03.84,0,.49-.03.96-.1,1.43.27-.38.58-.74.9-1.08.33-.34.69-.64,1.09-.92.4-.27.84-.49,1.33-.65.49-.16,1.02-.24,1.62-.24.17,0,.35.01.55.03.2.02.36.05.49.09,0,.42-.05.9-.14,1.44-.1.54-.26,1-.49,1.38-.08-.02-.22-.04-.4-.06s-.35-.03-.52-.03c-1.41,0-2.56.51-3.44,1.52-.88,1.01-1.5,2.58-1.88,4.69l-1.3,7.28c-.44.06-.88.09-1.3.09h-.79l-1.04-.09Z"/>
    <path class="cls-1" d="m526.25,585.74c-.23,1.27-.42,2.35-.55,3.26-.14.91-.21,1.7-.21,2.38,0,.27,0,.49.02.65,0,.16.04.36.08.59-.23.04-.49.07-.76.09s-.53.03-.76.03c-.21,0-.44,0-.7-.03-.25-.02-.5-.05-.73-.09-.04-.23-.07-.47-.1-.71-.02-.24-.03-.54-.03-.9,0-.23.03-.55.08-.95.05-.4.11-.76.17-1.08-.23.46-.54.93-.92,1.41-.38.47-.82.91-1.31,1.3-.5.39-1.06.71-1.68.97-.62.25-1.29.38-2.01.38-1.39,0-2.44-.46-3.15-1.38-.71-.92-1.06-2.17-1.06-3.75,0-1.5.23-2.96.7-4.39.46-1.43,1.15-2.69,2.06-3.8.91-1.11,2.04-2,3.39-2.67,1.35-.68,2.92-1.01,4.72-1.01.76,0,1.52.06,2.3.17s1.45.28,2.04.49l-1.58,9.06Zm-1.8-6.93c-.25-.06-.52-.11-.79-.13-.27-.02-.58-.03-.92-.03-1.06,0-2,.24-2.83.73-.83.49-1.55,1.13-2.15,1.95-.6.81-1.06,1.73-1.38,2.75-.32,1.02-.47,2.07-.47,3.15,0,1.01.18,1.8.54,2.36.36.56.9.84,1.62.84.65,0,1.29-.21,1.9-.63.61-.42,1.17-1.01,1.68-1.76.51-.75.94-1.63,1.31-2.63.37-1,.66-2.07.87-3.21l.63-3.39Z"/>
    <path class="cls-1" d="m533.19,578.9h-2.63c0-.42.03-.83.08-1.22.05-.39.16-.82.33-1.28h2.63l.16-.92c.36-2.13,1.06-3.73,2.11-4.78,1.04-1.06,2.52-1.58,4.42-1.58.55,0,1.02.04,1.43.11.4.07.77.16,1.11.27-.13.55-.26,1.01-.4,1.38-.14.37-.31.75-.52,1.15-.23-.08-.47-.16-.73-.22-.25-.07-.55-.1-.89-.1-.44,0-.84.06-1.2.17s-.68.32-.97.6c-.29.29-.53.68-.74,1.17-.21.5-.38,1.12-.51,1.88-.04.15-.07.29-.1.43-.02.14-.05.28-.1.43h3.89c0,.44-.03.86-.08,1.23-.05.38-.16.8-.33,1.27h-3.89l-2.44,13.84c-.25,1.41-.56,2.61-.93,3.58-.37.97-.83,1.76-1.38,2.36-.55.6-1.19,1.03-1.92,1.3-.73.26-1.58.39-2.55.39-.46,0-.91-.04-1.33-.11-.42-.07-.79-.18-1.11-.3.08-.49.19-.92.32-1.31.13-.39.3-.78.51-1.15.21.08.45.15.71.21.26.05.53.08.81.08.49,0,.92-.06,1.31-.19.39-.13.73-.38,1.03-.76.3-.38.57-.91.81-1.6.24-.69.46-1.58.65-2.68l2.44-13.65Z"/>
    <path class="cls-1" d="m543.64,578.9h-2.56c0-.42.03-.83.1-1.22.06-.39.18-.82.35-1.28h2.53c.11-.55.2-1.11.29-1.68.08-.57.13-1.16.13-1.77v-.5c.42-.21.93-.37,1.52-.48.59-.11,1.1-.16,1.52-.16.02.19.04.38.05.57,0,.19.02.39.02.6,0,.65-.08,1.47-.25,2.44l-.19.98h4.08c0,.46-.03.89-.1,1.28-.06.39-.17.79-.32,1.22h-4.05l-1.23,6.87c-.11.49-.2.99-.29,1.5-.08.52-.13.99-.13,1.41,0,.63.16,1.07.49,1.31.33.24.76.36,1.31.36.36,0,.68-.03.98-.08.3-.05.59-.12.89-.21.06.21.12.44.16.7.04.25.06.53.06.82v.46c0,.16-.01.32-.03.49-.27.08-.63.16-1.08.24-.44.07-.92.11-1.42.11-.68,0-1.29-.05-1.85-.14-.56-.1-1.04-.28-1.44-.54-.4-.26-.71-.62-.93-1.08-.22-.45-.33-1.05-.33-1.79,0-.4.04-.83.11-1.28.07-.45.15-.92.24-1.41l1.39-7.76Z"/>
    <path class="cls-1" d="m561.84,578.9h-2.56c0-.42.03-.83.1-1.22.06-.39.18-.82.35-1.28h2.53c.11-.55.2-1.11.29-1.68.08-.57.13-1.16.13-1.77v-.5c.42-.21.93-.37,1.52-.48.59-.11,1.1-.16,1.52-.16.02.19.04.38.05.57,0,.19.02.39.02.6,0,.65-.08,1.47-.25,2.44l-.19.98h4.08c0,.46-.03.89-.1,1.28-.06.39-.17.79-.32,1.22h-4.05l-1.23,6.87c-.11.49-.2.99-.29,1.5-.08.52-.13.99-.13,1.41,0,.63.16,1.07.49,1.31.33.24.76.36,1.31.36.36,0,.68-.03.98-.08.3-.05.59-.12.89-.21.06.21.12.44.16.7.04.25.06.53.06.82v.46c0,.16-.01.32-.03.49-.27.08-.63.16-1.08.24-.44.07-.92.11-1.42.11-.68,0-1.29-.05-1.85-.14-.56-.1-1.04-.28-1.44-.54-.4-.26-.71-.62-.93-1.08-.22-.45-.33-1.05-.33-1.79,0-.4.04-.83.11-1.28.07-.45.15-.92.24-1.41l1.39-7.76Z"/>
    <path class="cls-1" d="m573.02,575.95c.21-1.18.38-2.2.51-3.05.13-.86.19-1.62.19-2.3,0-.25,0-.45-.02-.6s-.03-.34-.05-.57c.23-.04.52-.07.85-.1.34-.02.62-.03.86-.03.21,0,.45.01.71.03.26.02.5.05.71.1.06.38.09.77.09,1.17,0,.23-.02.51-.05.84s-.07.67-.11,1.03c-.04.36-.1.73-.16,1.11-.06.38-.13.74-.19,1.08-.15.72-.29,1.43-.41,2.14-.13.71-.25,1.42-.38,2.14.59-.78,1.35-1.46,2.28-2.03.93-.57,1.98-.85,3.17-.85,1.29,0,2.3.34,3.02,1.01.73.68,1.09,1.72,1.09,3.13,0,.32-.02.67-.06,1.05-.04.38-.1.76-.16,1.14l-1.8,10.26c-.23.04-.5.07-.81.08-.31,0-.58.01-.81.01s-.49,0-.78-.01c-.29-.01-.53-.04-.74-.08.29-1.65.58-3.27.85-4.88.27-1.6.56-3.23.86-4.88.04-.32.08-.63.13-.95.04-.32.06-.59.06-.82,0-.8-.22-1.39-.65-1.77-.43-.38-.99-.57-1.66-.57-.49,0-.98.11-1.49.32-.51.21-.99.58-1.44,1.09-.45.52-.87,1.21-1.25,2.09-.38.87-.69,1.98-.92,3.31-.23,1.2-.45,2.39-.65,3.55-.2,1.16-.41,2.33-.62,3.52-.3.04-.6.07-.92.08-.32,0-.62.01-.92.01-.11,0-.3,0-.57-.01-.27-.01-.52-.04-.73-.08l2.95-16.69Z"/>
    <path class="cls-1" d="m591.35,586.18c.06,1.42.42,2.48,1.08,3.2.65.72,1.67,1.08,3.04,1.08.84,0,1.65-.1,2.41-.3.76-.2,1.45-.42,2.06-.65.19.32.33.7.41,1.14.08.44.13.89.13,1.33-.32.15-.7.28-1.16.41-.45.13-.93.24-1.43.33-.5.09-1,.17-1.5.22-.51.05-.97.08-1.39.08-1.25,0-2.3-.16-3.15-.49-.85-.33-1.55-.78-2.09-1.36-.54-.58-.93-1.27-1.17-2.06-.24-.79-.36-1.65-.36-2.58,0-1.29.22-2.56.65-3.82.43-1.25,1.05-2.38,1.87-3.37.81-.99,1.78-1.8,2.91-2.41,1.13-.61,2.39-.92,3.78-.92s2.5.34,3.31,1.03c.81.69,1.22,1.6,1.22,2.74,0,.93-.23,1.74-.68,2.42-.45.69-1.08,1.27-1.88,1.76-.8.49-1.75.89-2.83,1.2-1.09.32-2.27.57-3.56.76l-1.65.25Zm1.99-2.66c1.08-.19,1.97-.41,2.68-.65.71-.24,1.27-.51,1.69-.79.42-.29.72-.58.89-.9.17-.32.25-.67.25-1.05,0-.49-.17-.88-.51-1.19-.34-.31-.82-.46-1.46-.46-.68,0-1.3.15-1.87.46-.57.31-1.08.71-1.54,1.2-.45.5-.84,1.07-1.15,1.71-.32.65-.56,1.3-.73,1.98l1.74-.32Z"/>
    <path class="cls-1" d="m613.96,578.9h-2.63c0-.42.03-.83.08-1.22.05-.39.16-.82.33-1.28h2.63l.16-.92c.36-2.13,1.06-3.73,2.11-4.78s2.52-1.58,4.42-1.58c.55,0,1.02.04,1.43.11.4.07.77.16,1.11.27-.13.55-.26,1.01-.4,1.38-.14.37-.31.75-.52,1.15-.23-.08-.47-.16-.73-.22-.25-.07-.55-.1-.89-.1-.44,0-.84.06-1.2.17-.36.12-.68.32-.97.6s-.53.68-.74,1.17c-.21.5-.38,1.12-.51,1.88-.04.15-.07.29-.1.43-.02.14-.05.28-.1.43h3.89c0,.44-.03.86-.08,1.23-.05.38-.16.8-.33,1.27h-3.89l-2.44,13.84c-.25,1.41-.56,2.61-.93,3.58-.37.97-.83,1.76-1.38,2.36-.55.6-1.19,1.03-1.92,1.3-.73.26-1.58.39-2.55.39-.46,0-.91-.04-1.33-.11-.42-.07-.79-.18-1.11-.3.08-.49.19-.92.32-1.31.13-.39.3-.78.51-1.15.21.08.45.15.71.21.26.05.53.08.81.08.49,0,.92-.06,1.31-.19.39-.13.73-.38,1.03-.76.3-.38.57-.91.81-1.6.24-.69.46-1.58.65-2.68l2.44-13.65Z"/>
    <path class="cls-1" d="m624.25,576.4c.23-.04.5-.07.81-.1.31-.02.58-.03.81-.03s.48.01.76.03c.27.02.53.05.76.1l-1.71,9.75c-.13.68-.19,1.28-.19,1.8,0,.85.19,1.45.59,1.8.39.36.91.54,1.57.54.57,0,1.13-.17,1.68-.52.55-.35,1.07-.86,1.55-1.54.49-.67.92-1.51,1.31-2.5.39-.99.7-2.13.94-3.42l1.04-5.92c.25-.04.53-.07.82-.1.3-.02.56-.03.79-.03s.49.01.78.03c.29.02.53.05.74.1l-1.68,9.4c-.23,1.27-.42,2.35-.55,3.26-.14.91-.21,1.7-.21,2.38,0,.27,0,.49.02.65.01.16.03.36.05.59-.23.04-.48.07-.74.09-.26.02-.51.03-.74.03-.21,0-.45,0-.71-.03-.26-.02-.5-.05-.71-.09-.08-.28-.13-.76-.13-1.46,0-.4.03-.78.08-1.14.05-.36.11-.71.17-1.04-.21.44-.51.9-.89,1.38-.38.47-.82.9-1.33,1.28-.51.38-1.07.7-1.69.95-.62.25-1.28.38-1.98.38-1.27,0-2.25-.34-2.96-1.01-.71-.68-1.06-1.72-1.06-3.14,0-.32.02-.67.06-1.06.04-.39.09-.76.16-1.12l1.8-10.29Z"/>
    <path class="cls-1" d="m642.39,578.9h-2.56c0-.42.03-.83.1-1.22.06-.39.18-.82.35-1.28h2.53c.11-.55.2-1.11.29-1.68.08-.57.13-1.16.13-1.77v-.5c.42-.21.93-.37,1.52-.48.59-.11,1.1-.16,1.52-.16.02.19.04.38.05.57,0,.19.02.39.02.6,0,.65-.08,1.47-.25,2.44l-.19.98h4.08c0,.46-.03.89-.1,1.28-.06.39-.17.79-.32,1.22h-4.05l-1.23,6.87c-.11.49-.2.99-.29,1.5-.08.52-.13.99-.13,1.41,0,.63.16,1.07.49,1.31.33.24.76.36,1.31.36.36,0,.68-.03.98-.08.3-.05.59-.12.89-.21.06.21.12.44.16.7.04.25.06.53.06.82v.46c0,.16-.01.32-.03.49-.27.08-.63.16-1.08.24-.44.07-.92.11-1.42.11-.68,0-1.29-.05-1.85-.14-.56-.1-1.04-.28-1.44-.54-.4-.26-.71-.62-.93-1.08-.22-.45-.33-1.05-.33-1.79,0-.4.04-.83.11-1.28.07-.45.15-.92.24-1.41l1.39-7.76Z"/>
    <path class="cls-1" d="m653.32,576.4c.23-.04.5-.07.81-.1.31-.02.58-.03.81-.03s.48.01.76.03c.27.02.53.05.76.1l-1.71,9.75c-.13.68-.19,1.28-.19,1.8,0,.85.19,1.45.59,1.8.39.36.91.54,1.57.54.57,0,1.13-.17,1.68-.52.55-.35,1.07-.86,1.55-1.54.49-.67.92-1.51,1.31-2.5.39-.99.7-2.13.94-3.42l1.04-5.92c.25-.04.53-.07.82-.1.29-.02.56-.03.79-.03s.49.01.78.03c.29.02.53.05.74.1l-1.68,9.4c-.23,1.27-.42,2.35-.55,3.26-.14.91-.21,1.7-.21,2.38,0,.27,0,.49.02.65.01.16.03.36.05.59-.23.04-.48.07-.74.09-.26.02-.51.03-.74.03-.21,0-.45,0-.71-.03-.26-.02-.5-.05-.71-.09-.08-.28-.13-.76-.13-1.46,0-.4.03-.78.08-1.14.05-.36.11-.71.17-1.04-.21.44-.51.9-.89,1.38-.38.47-.82.9-1.33,1.28-.51.38-1.07.7-1.69.95-.62.25-1.28.38-1.98.38-1.27,0-2.25-.34-2.96-1.01-.71-.68-1.06-1.72-1.06-3.14,0-.32.02-.67.06-1.06.04-.39.09-.76.16-1.12l1.8-10.29Z"/>
    <path class="cls-1" d="m668.61,592.64c.23-1.33.49-2.74.78-4.21.29-1.48.55-2.91.79-4.29.24-1.38.45-2.65.62-3.8.17-1.15.25-2.06.25-2.74,0-.28,0-.49-.02-.65,0-.16-.04-.35-.08-.58.23-.04.48-.07.76-.08.27,0,.53-.02.76-.02.21,0,.45,0,.71.02.27,0,.5.04.71.08.04.17.07.35.1.55.02.2.03.48.03.84,0,.49-.03.96-.1,1.43.28-.38.58-.74.9-1.08.33-.34.69-.64,1.09-.92.4-.27.84-.49,1.33-.65.49-.16,1.02-.24,1.62-.24.17,0,.35.01.55.03.2.02.36.05.49.09,0,.42-.05.9-.14,1.44-.09.54-.26,1-.49,1.38-.08-.02-.22-.04-.4-.06s-.35-.03-.52-.03c-1.41,0-2.56.51-3.44,1.52-.87,1.01-1.5,2.58-1.88,4.69l-1.3,7.28c-.44.06-.87.09-1.3.09h-.79l-1.04-.09Z"/>
    <path class="cls-1" d="m683.49,586.18c.06,1.42.42,2.48,1.08,3.2.65.72,1.67,1.08,3.04,1.08.84,0,1.65-.1,2.41-.3.76-.2,1.44-.42,2.06-.65.19.32.33.7.41,1.14.08.44.13.89.13,1.33-.32.15-.7.28-1.16.41-.45.13-.93.24-1.43.33-.5.09-1,.17-1.5.22-.51.05-.97.08-1.39.08-1.24,0-2.3-.16-3.15-.49-.85-.33-1.55-.78-2.09-1.36-.54-.58-.93-1.27-1.17-2.06-.24-.79-.36-1.65-.36-2.58,0-1.29.22-2.56.65-3.82.43-1.25,1.05-2.38,1.87-3.37.81-.99,1.78-1.8,2.91-2.41,1.13-.61,2.39-.92,3.78-.92s2.5.34,3.31,1.03c.81.69,1.22,1.6,1.22,2.74,0,.93-.23,1.74-.68,2.42-.45.69-1.08,1.27-1.88,1.76-.8.49-1.75.89-2.83,1.2-1.09.32-2.27.57-3.56.76l-1.65.25Zm2-2.66c1.08-.19,1.97-.41,2.67-.65.71-.24,1.27-.51,1.69-.79.42-.29.72-.58.89-.9s.25-.67.25-1.05c0-.49-.17-.88-.51-1.19-.34-.31-.82-.46-1.45-.46-.68,0-1.3.15-1.87.46-.57.31-1.08.71-1.53,1.2s-.84,1.07-1.15,1.71c-.32.65-.56,1.3-.73,1.98l1.74-.32Z"/>
    <path class="cls-1" d="m703.92,576.4c.29-.04.58-.07.85-.1.28-.02.56-.03.86-.03.61,0,1.16.04,1.65.13l1.23,12.6,5.07-12.6c.23-.04.48-.07.76-.1.28-.02.53-.03.76-.03.27,0,.54.01.79.03.25.02.51.05.76.1l1.55,12.63,3.96-9.59c.25-.61.43-1.15.52-1.63.1-.48.14-.85.14-1.12v-.29c.25-.04.51-.07.78-.1.26-.02.54-.03.84-.03.67,0,1.25.04,1.74.13v.13c0,.47-.09.96-.27,1.47-.18.52-.46,1.16-.84,1.95l-5.89,12.7c-.27.04-.57.07-.87.09-.31.02-.61.03-.9.03-.25,0-.52,0-.79-.03-.28-.02-.53-.05-.76-.09l-1.58-11.68-4.81,11.68c-.28.04-.57.07-.87.09-.31.02-.6.03-.87.03-.25,0-.52,0-.81-.03-.29-.02-.54-.05-.78-.09l-2.22-16.24Z"/>
    <path class="cls-1" d="m730.58,586.18c.06,1.42.42,2.48,1.08,3.2.65.72,1.67,1.08,3.04,1.08.85,0,1.65-.1,2.41-.3.76-.2,1.45-.42,2.06-.65.19.32.33.7.41,1.14.08.44.13.89.13,1.33-.32.15-.7.28-1.15.41-.45.13-.93.24-1.43.33-.5.09-1,.17-1.51.22-.5.05-.97.08-1.39.08-1.25,0-2.3-.16-3.15-.49-.86-.33-1.55-.78-2.09-1.36-.54-.58-.93-1.27-1.17-2.06-.24-.79-.36-1.65-.36-2.58,0-1.29.22-2.56.65-3.82.43-1.25,1.06-2.38,1.87-3.37.81-.99,1.78-1.8,2.91-2.41,1.13-.61,2.39-.92,3.78-.92s2.5.34,3.31,1.03c.81.69,1.22,1.6,1.22,2.74,0,.93-.23,1.74-.68,2.42-.45.69-1.08,1.27-1.88,1.76-.8.49-1.75.89-2.83,1.2-1.09.32-2.28.57-3.56.76l-1.65.25Zm1.99-2.66c1.08-.19,1.97-.41,2.68-.65.71-.24,1.27-.51,1.69-.79.42-.29.72-.58.89-.9.17-.32.25-.67.25-1.05,0-.49-.17-.88-.51-1.19-.34-.31-.82-.46-1.46-.46-.68,0-1.3.15-1.87.46-.57.31-1.08.71-1.54,1.2s-.84,1.07-1.15,1.71c-.32.65-.56,1.3-.73,1.98l1.74-.32Z"/>
    <path class="cls-1" d="m756.73,585.74c-.23,1.27-.41,2.35-.54,3.26-.13.91-.19,1.7-.19,2.38v.65c0,.16.02.36.06.59-.23.04-.48.07-.74.09s-.51.03-.74.03-.47,0-.73-.03-.49-.05-.7-.09c-.04-.17-.08-.36-.11-.56-.03-.2-.05-.48-.05-.84,0-.25.03-.61.08-1.06.05-.45.13-.87.24-1.25-.25.47-.57.94-.95,1.43-.38.49-.82.93-1.33,1.33-.5.4-1.07.73-1.69.98-.62.25-1.29.38-2.01.38-1.39,0-2.45-.46-3.17-1.38-.72-.92-1.08-2.17-1.08-3.75,0-1.5.23-2.96.7-4.39.46-1.43,1.15-2.69,2.06-3.8.91-1.11,2.04-2,3.4-2.67,1.36-.68,2.93-1.01,4.7-1.01.23,0,.48,0,.73.03.25.02.46.04.63.06.23-1.23.41-2.28.54-3.17.13-.89.19-1.67.19-2.34v-.64c0-.15-.01-.33-.03-.54.23-.04.51-.07.84-.1.33-.02.61-.03.84-.03.21,0,.45,0,.71.02.26,0,.5.04.71.08.06.42.09.81.09,1.17,0,.49-.05,1.11-.14,1.87-.09.76-.21,1.49-.33,2.18l-2,11.11Zm-1.84-6.93c-.25-.06-.52-.11-.79-.13-.28-.02-.58-.03-.92-.03-1.06,0-2,.24-2.83.73-.84.49-1.55,1.13-2.16,1.95-.6.81-1.06,1.73-1.38,2.75-.32,1.02-.47,2.07-.47,3.15,0,1.01.18,1.8.54,2.36.36.56.9.84,1.61.84.65,0,1.29-.21,1.9-.63.61-.42,1.17-1.01,1.68-1.76.5-.75.95-1.63,1.33-2.63.38-1,.68-2.07.89-3.21l.6-3.39Z"/>
    <path class="cls-1" d="m774.21,585.74c-.23,1.27-.41,2.35-.54,3.26-.13.91-.19,1.7-.19,2.38v.65c0,.16.02.36.06.59-.23.04-.48.07-.74.09s-.51.03-.74.03-.47,0-.73-.03-.49-.05-.7-.09c-.04-.17-.08-.36-.11-.56-.03-.2-.05-.48-.05-.84,0-.25.03-.61.08-1.06.05-.45.13-.87.24-1.25-.25.47-.57.94-.95,1.43-.38.49-.82.93-1.33,1.33-.5.4-1.07.73-1.69.98-.62.25-1.29.38-2.01.38-1.39,0-2.45-.46-3.17-1.38-.72-.92-1.08-2.17-1.08-3.75,0-1.5.23-2.96.7-4.39.46-1.43,1.15-2.69,2.06-3.8.91-1.11,2.04-2,3.4-2.67,1.36-.68,2.93-1.01,4.7-1.01.23,0,.48,0,.73.03.25.02.46.04.63.06.23-1.23.41-2.28.54-3.17.13-.89.19-1.67.19-2.34v-.64c0-.15-.01-.33-.03-.54.23-.04.51-.07.84-.1.33-.02.61-.03.84-.03.21,0,.45,0,.71.02.26,0,.5.04.71.08.06.42.09.81.09,1.17,0,.49-.05,1.11-.14,1.87-.09.76-.21,1.49-.33,2.18l-2,11.11Zm-1.84-6.93c-.25-.06-.52-.11-.79-.13-.28-.02-.58-.03-.92-.03-1.06,0-2,.24-2.83.73-.84.49-1.55,1.13-2.16,1.95-.6.81-1.06,1.73-1.38,2.75-.32,1.02-.47,2.07-.47,3.15,0,1.01.18,1.8.54,2.36.36.56.9.84,1.61.84.65,0,1.29-.21,1.9-.63.61-.42,1.17-1.01,1.68-1.76.5-.75.95-1.63,1.33-2.63s.68-2.07.89-3.21l.6-3.39Z"/>
    <path class="cls-1" d="m781.11,578.9h-1.96c0-.42.03-.83.08-1.23s.16-.82.33-1.27h5.06l-2.85,16.24c-.23.04-.5.07-.81.08-.31,0-.58.01-.81.01s-.48,0-.73-.01c-.25-.01-.5-.04-.73-.08l2.41-13.74Zm-.03-5.86c0-.61.05-1.19.16-1.74.11-.55.24-1.11.41-1.68.3-.04.61-.07.95-.09.34-.02.63-.03.89-.03s.54,0,.87.03c.33.02.63.05.9.09-.02.61-.08,1.2-.19,1.76-.11.56-.24,1.11-.41,1.66-.29.04-.61.07-.95.08-.34.01-.63.02-.89.02-.23,0-.52,0-.86-.02-.34,0-.63-.04-.88-.08Z"/>
    <path class="cls-1" d="m788.93,583.24c.23-1.27.42-2.36.55-3.26.14-.91.21-1.7.21-2.38,0-.28,0-.49-.01-.65-.01-.16-.04-.35-.08-.58.23-.04.49-.07.76-.1.28-.02.53-.03.76-.03.21,0,.45.01.71.03.26.02.5.05.71.1.04.17.07.36.09.58s.03.51.03.87c0,.4-.03.78-.08,1.14-.05.36-.11.71-.17,1.05.21-.44.51-.9.89-1.38.38-.48.82-.9,1.33-1.28.5-.38,1.07-.7,1.69-.95.62-.25,1.28-.38,1.98-.38,1.27,0,2.25.34,2.96,1.01.71.68,1.06,1.72,1.06,3.13,0,.32-.02.67-.06,1.06-.04.39-.09.77-.16,1.13l-1.8,10.29c-.25.04-.53.07-.82.09-.3.02-.56.03-.79.03s-.49,0-.78-.03c-.29-.02-.53-.05-.74-.09l1.71-9.75c.06-.34.11-.66.14-.98.03-.32.05-.59.05-.82,0-.84-.2-1.44-.58-1.8-.39-.36-.91-.54-1.57-.54-.57,0-1.13.17-1.68.52-.55.35-1.07.86-1.55,1.53-.49.68-.92,1.51-1.31,2.5-.39.99-.7,2.13-.94,3.42l-1.05,5.92c-.25.04-.53.07-.82.09-.3.02-.56.03-.79.03s-.49,0-.78-.03c-.29-.02-.53-.05-.74-.09l1.68-9.4Z"/>
    <path class="cls-1" d="m815.4,588.97c-.23.46-.54.93-.92,1.41-.38.47-.82.91-1.33,1.3-.51.39-1.07.71-1.69.97-.62.25-1.29.38-2.01.38-1.39,0-2.45-.46-3.15-1.38-.71-.92-1.06-2.17-1.06-3.75,0-1.5.23-2.96.7-4.39.46-1.43,1.15-2.69,2.06-3.8.91-1.11,2.04-2,3.39-2.67,1.35-.68,2.92-1.01,4.72-1.01.76,0,1.53.06,2.33.17s1.48.28,2.07.49c-.49,2.66-.95,5.3-1.41,7.92-.45,2.62-.92,5.26-1.41,7.92-.25,1.44-.68,2.65-1.27,3.64-.59.99-1.32,1.8-2.18,2.42-.87.62-1.85,1.08-2.95,1.36-1.1.29-2.28.43-3.55.43-.72,0-1.44-.06-2.15-.19-.72-.13-1.31-.29-1.77-.48.02-.91.25-1.75.7-2.53.42.1.92.22,1.49.33s1.19.17,1.87.17c.95,0,1.79-.09,2.53-.28.74-.19,1.39-.51,1.96-.95.57-.44,1.05-1.02,1.44-1.74.39-.72.7-1.62.93-2.69l.67-3.04Zm1.65-10.13c-.51-.13-1.08-.19-1.71-.19-1.06,0-2.01.24-2.85.73-.85.49-1.56,1.13-2.15,1.95-.59.81-1.05,1.73-1.38,2.75-.33,1.02-.49,2.07-.49,3.15,0,1.01.19,1.8.57,2.36.38.56.92.84,1.62.84s1.31-.21,1.92-.63c.6-.42,1.15-1,1.65-1.74.5-.74.93-1.61,1.3-2.61.37-1,.67-2.08.9-3.24l.63-3.36Z"/>
    <path class="cls-1" d="m821.99,592.64c0-.59.06-1.18.17-1.76.12-.58.26-1.16.43-1.76.29-.04.59-.07.89-.09s.59-.03.89-.03.59,0,.89.03.58.05.86.09c0,.61-.05,1.2-.16,1.76-.11.56-.24,1.15-.41,1.76-.34.04-.65.07-.94.09-.29.02-.58.03-.87.03s-.59,0-.87-.03c-.29-.02-.58-.05-.87-.09Z"/>
  </g>
</svg>