<?xml version="1.0" encoding="UTF-8"?>
<svg id="Layer_1" data-name="Layer 1" xmlns="http://www.w3.org/2000/svg" viewBox="0 0 197.61 177.24">
  <defs>
    <style>
      .cls-1 {
        fill: #fff;
      }
    </style>
  </defs>
  <path class="cls-1" d="m28.84,69.42c1.83-.56,3.3-1.09,4.82-1.46,1.63-.39,3.3-.71,4.96-.93,4.15-.54,7.96.53,11.54,2.56,3.28,1.85,6.05,4.32,8.61,7.05,3.96,4.22,7.21,8.98,10.19,13.91,4.07,6.72,7.63,13.72,10.84,20.89,2.28,5.09,4.48,10.22,6.75,15.33,1.99,4.48,4.39,8.73,7.13,12.78,2.71,4.01,5.75,7.75,9.13,11.22,3.3,3.38,6.88,6.44,10.73,9.18,5.53,3.93,11.49,7.04,17.94,9.17,6.01,1.99,12.18,3.06,18.51,2.97,9.88-.15,19.01-2.9,27.42-8.09,6.51-4.01,12.03-9.12,16.91-14.97.63-.75,1.16-1.59,2-2.23.43.36.82.69,1.29,1.08-.4.58-.74,1.11-1.12,1.6-3.01,3.93-6.15,7.75-9.72,11.19-4.68,4.51-9.83,8.36-15.72,11.16-4.65,2.21-9.54,3.65-14.61,4.51-3.39.57-6.82.76-10.24.88-2.5.08-4.99-.19-7.47-.46-4.65-.51-9.14-1.65-13.53-3.22-5.29-1.88-10.24-4.43-14.93-7.49-4.84-3.16-9.29-6.82-13.31-10.96-6.86-7.07-12.41-15.06-16.41-24.1-1.39-3.14-2.87-6.23-4.23-9.38-1.88-4.32-3.68-8.67-5.52-13.01-2.62-6.21-5.19-12.45-8.22-18.49-2.01-4.01-4.17-7.93-6.89-11.51-1.98-2.61-4.21-4.97-6.94-6.82-4.89-3.3-10.17-4.04-15.82-2.5-2.21.6-4.24,1.58-6.21,2.73-.45.26-.86.6-1.21.98-2.35,2.5-4.66,5.04-7.03,7.52-.77.81-1.12,1.64-1.1,2.78.07,3.14.03,6.28.03,9.43,0,10.71,0,21.42,0,32.12,0,1.7.23,3.36.68,4.99.92,3.34,3.16,5.18,6.55,5.68.69.1,1.39.06,2.08.18.42.07.53.41.24.88-1.39.05-2.84.16-4.28.16-7.1,0-14.2-.01-21.3-.03-.39,0-.79-.09-1.18-.18-.08-.02-.18-.19-.17-.27.02-.15.09-.34.2-.43.12-.1.32-.12.49-.15.35-.05.69-.09,1.04-.11,4.19-.25,6.82-2.63,7.6-6.84.31-1.67.38-3.35.38-5.04,0-15.6,0-31.19,0-46.79,0-21.24,0-42.48-.01-63.72,0-1.56-.13-3.14-.34-4.69-.13-.97-.41-1.94-.79-2.84-.94-2.23-2.65-3.64-5-4.23-.79-.2-1.6-.26-2.41-.38-.29-.04-.6,0-.86-.1C.15.88.03.6,0,.4-.02.3.17.1.31.06.52-.01.76,0,.99,0c8.26,0,16.53,0,24.79.01.28,0,.57.02.84.04.12.74.07.87-.36.91-.35.03-.7.04-1.04.04-5.64-.01-11.29-.03-16.93-.04-.16,0-.33.06-.49.09,0,.37.29.32.48.41,2.92,1.33,5.38,3.22,7.18,5.91,1.29,1.94,1.96,4.03,1.95,6.39-.03,20.95-.02,41.9-.02,62.85v1.83c.49.23.65-.08.83-.27,1.08-1.14,2.14-2.3,3.21-3.45,5.69-6.14,11.39-12.29,17.08-18.43,5.49-5.93,10.98-11.87,16.47-17.8,6.88-7.42,13.77-14.84,20.64-22.27,1.78-1.92,3.54-3.86,5.28-5.81.5-.56.95-1.18,1.34-1.82.36-.59.72-1.22.91-1.88.58-2.11.15-3.38-1.75-4.39-.85-.45-1.84-.72-2.8-.9-1.19-.23-2.42-.27-3.63-.41-.23-.02-.47-.05-.66-.15-.12-.06-.24-.28-.23-.41.01-.14.16-.35.29-.38.27-.07.57-.06.86-.06,8.26,0,16.52,0,24.79,0,.92,0,1.35.18,1.25.51-.18.61-.72.47-1.17.49-2.04.08-4.05.3-6.01.92-2.1.66-3.95,1.74-5.53,3.22-1.79,1.67-3.52,3.39-5.18,5.18-6.09,6.56-12.14,13.17-18.22,19.75-6.71,7.26-13.45,14.5-20.16,21.76-5.13,5.55-10.25,11.12-15.38,16.68-.2.21-.38.44-.79.91Z"/>
  <path class="cls-1" d="m81.69,108.73c-.3-.37-.42-.48-.49-.62-1.14-2.35-2.27-4.71-3.43-7.06-.38-.77-.44-1.54-.32-2.37,1.24-8.43,3.92-16.36,8.06-23.81,4.17-7.52,9.63-13.97,16.15-19.52,5.67-4.82,12.03-8.54,18.94-11.3,5.05-2.01,10.27-3.39,15.64-4.12,4.09-.55,8.21-.75,12.35-.54,5.31.27,10.51,1.08,15.62,2.55,7.49,2.16,14.22,5.72,20.11,10.83,4.75,4.12,8.51,9.06,11.51,14.57.14.25.25.52.4.83-.26.27-.46.55-.72.75-3.72,2.89-7.44,5.77-11.17,8.66-.09.07-.21.09-.37.17-.14-.13-.3-.28-.54-.49.32-.33.57-.63.86-.89,2.95-2.67,3.54-6.23,2.05-9.86-.76-1.84-1.83-3.5-2.96-5.13-6.65-9.57-15.63-15.75-26.99-18.46-5.37-1.28-10.81-1.66-16.28-1.25-5.82.43-11.48,1.66-16.98,3.67-6.72,2.45-12.93,5.82-18.53,10.26-10.02,7.95-17.18,17.91-20.85,30.24-1.13,3.8-1.84,7.69-2.12,11.65-.09,1.33-.2,2.67-.25,4-.08,2.16.09,4.3.4,6.43.02.16-.03.33-.09.81Z"/>
</svg>